<?xml version="1.0" encoding="UTF-8"?><svg id="Camada_2" xmlns="http://www.w3.org/2000/svg" viewBox="0 0 255.85 255.38"><g id="Camada_1-2"><g><path d="M23.51,195.65c.32-8.57,2.59-14.54,7.45-19.43,2.1-2.11,3.51-4.48,2.93-7.58-.85-4.48-3.96-6.83-9.02-6.9-11.39-.16-20.94-7.41-23.93-18.34-.58-2.11-.83-4.35-.87-6.54-.11-6.2-.07-12.41-.03-18.62,.07-13.45,11.07-24.46,24.59-24.56,3.87-.03,6.99-1.19,8.64-4.92,1.71-3.87,.29-6.94-2.44-9.83-9.7-10.25-9.59-25.06,.24-35.15,4.21-4.32,8.48-8.59,12.83-12.77,10.27-9.89,25.1-9.92,35.4-.06,2.75,2.64,5.8,3.82,9.42,2.33,3.74-1.53,5.08-4.65,5.13-8.53C94.02,10.86,104.94,.07,118.81,.02c6.13-.02,12.26-.03,18.38,0,13.69,.06,24.65,10.94,24.83,24.61,.07,5.14,2.31,8.27,6.7,9.21,3.31,.7,5.75-.9,8.08-3.04,7.84-7.2,16.89-9.1,26.81-5.21,3.05,1.2,5.89,3.28,8.36,5.49,4.42,3.96,8.52,8.29,12.68,12.54,9.99,10.21,10.18,24.93,.4,35.34-2.72,2.89-4.22,5.92-2.47,9.81,1.73,3.84,4.99,4.88,8.94,4.91,13.14,.1,24.19,11.19,24.29,24.31,.05,6.38,.04,12.77,0,19.15-.08,13.45-11.07,24.46-24.59,24.57-3.87,.03-6.98,1.18-8.64,4.92-1.73,3.88-.31,6.94,2.43,9.82,9.69,10.22,9.59,25.05-.22,35.16-4.2,4.33-8.48,8.59-12.82,12.78-10.14,9.8-24.93,9.9-35.21,.21-2.9-2.73-6.02-4.1-9.86-2.39-3.72,1.66-4.86,4.82-4.89,8.68-.13,13.46-11.19,24.39-24.7,24.47-6.22,.03-12.43,.03-18.65,0-13.6-.06-24.57-10.77-24.82-24.32-.07-4.04-1.17-7.37-5.19-9.02-3.68-1.51-6.66-.24-9.4,2.37-8.03,7.65-18.82,9.44-28.51,4.86-5.52-2.61-22.17-18.98-24.54-24.62-1.42-3.37-2.12-7.04-2.69-8.98ZM61.48,40.89c-.11-.21-.23-.42-.34-.63-1.84,1.08-3.94,1.88-5.48,3.29-3.79,3.47-7.33,7.22-10.97,10.86-5.11,5.11-5.11,8.53-.33,13.95,7.11,8.05,8.95,17.25,4.64,27.12-4.3,9.84-12.19,14.89-22.99,15.18-5.62,.15-8.89,3.35-8.93,8.97-.03,5.23-.02,10.46,0,15.69,.01,6.2,3.14,9.07,9.28,9.51,3.55,.25,7.29,.95,10.48,2.44,15.67,7.29,19.12,27.32,7.15,40.24-4.28,4.61-4.23,8.54,.17,12.96,3.57,3.58,7.15,7.16,10.74,10.72,4.6,4.56,8.45,4.6,13.19,.28,8.03-7.33,17.28-9.37,27.31-5.15,10.12,4.25,15.23,12.28,15.47,23.3,.12,5.41,3.42,8.7,8.89,8.73,5.33,.04,10.66,.02,15.99,0,5.98-.02,9.16-3.21,9.24-9.19,.11-7.72,3.19-14.1,9.1-19.01,10.11-8.39,24.02-7.72,33.9,1.49,4.33,4.04,8.42,4.02,12.6-.1,3.92-3.86,7.79-7.77,11.7-11.64,2.04-2.01,3.18-4.46,2.45-7.2-.5-1.86-1.61-3.73-2.92-5.18-5.49-6.09-8.06-13.1-6.85-21.24,2.14-14.4,14.8-22.02,25.36-21.62,4.88,.19,8.31-3.27,8.41-8.05,.12-5.94,.12-11.88,0-17.82-.09-4.69-3.44-7.9-8.14-8.12-1.51-.07-3.05,.05-4.51-.23-9.86-1.88-16.85-7.4-20.05-16.95-3.23-9.66-.95-18.32,5.99-25.75,4.02-4.31,4-8.43-.12-12.59-3.43-3.47-6.91-6.89-10.36-10.35-5.35-5.36-8.57-5.36-14.35-.37-8.04,6.95-17.18,8.74-26.97,4.49-9.86-4.28-14.94-12.14-15.24-22.92-.16-5.64-3.34-8.92-8.95-8.95-5.42-.03-10.84-.03-16.25,0-5.62,.03-8.64,3.31-9,8.95-.2,3.21-.71,6.57-1.91,9.53-6.66,16.3-27.38,20.7-40.44,8.71-2-1.84-3.97-3.58-6.95-3.34Z" style="fill:#fff;"/><path d="M127.87,68.11c33.18,0,59.74,26.57,59.74,59.8,0,32.64-26.74,59.38-59.37,59.36-33.62-.03-60.02-26.46-60-60.06,.03-32.54,26.81-59.09,59.62-59.09Zm42.69,59.59c-.1-23.38-19.29-42.6-42.47-42.56-23.65,.04-42.83,19.24-42.77,42.79,.06,23.27,19.6,42.49,43,42.31,23.14-.18,42.35-19.53,42.25-42.54Z" style="fill:#fff;"/></g></g></svg>