<svg width="161" height="181" viewBox="0 0 161 181" fill="none" xmlns="http://www.w3.org/2000/svg">
<g clip-path="url(#clip0_10050_711)">
<path d="M111.289 87.637L81.4324 94.5469C63.3801 77.6014 78.7782 24.597 78.7782 24.597L78.2074 7.80157C78.2074 7.80157 85.6401 1.91097 90 1.50016C93.0853 1.20944 91.6545 1.08313 94 1.5C94.6873 1.62087 96.4983 6.94117 96.9872 7.16341C101.513 9.23514 101.662 20.7141 99.2597 39.3577C98.1921 47.6257 98.3468 54.7195 99.1921 60.7254C101.845 79.5262 111.289 87.637 111.289 87.637Z" fill="white"/>
<g opacity="0.25">
<path d="M81.4324 94.5469C63.3801 77.6014 78.7782 24.5969 78.7782 24.5969L78.2074 7.80154C79.9213 6.20876 82.6736 4.06815 86.5339 2.59104C88.4806 1.84631 90.281 1.43301 91.8006 1.20166C92.1712 2.50071 90.0645 6.16392 88.1431 10.4867C87.1535 12.7125 84.6691 25.6633 82.6665 29.6281C79.4076 36.0759 71.9498 65.9157 86.1132 68.9187C91.3506 70.028 95.8377 65.7643 99.1914 60.7267C93.272 72.0003 87.3525 83.2739 81.4324 94.5475V94.5469Z" fill="#1A2645"/>
</g>
<path d="M81.4318 95.5981C81.1743 95.5981 80.9155 95.5039 80.7127 95.3135C72.9746 88.0494 70.141 73.8502 72.2899 53.1102C73.7789 38.7394 77.275 26.0485 77.7211 24.4694L77.1554 7.83775C77.1437 7.49657 77.2991 7.17035 77.5722 6.96435C79.8284 5.26044 91.2739 -3.02841 95.0542 1.17678C101.673 8.54153 102.996 18.2087 100.3 39.49C98.1043 56.8228 101.4 68.7768 104.55 75.7536C107.96 83.301 111.938 86.8102 111.978 86.8446C112.416 87.2241 112.463 87.8876 112.084 88.3256C111.705 88.7636 111.043 88.8124 110.605 88.4342C110.43 88.284 106.298 84.6657 102.694 76.7486C99.3996 69.5092 95.9483 57.1237 98.2149 39.2268C100.82 18.6591 99.6284 9.41168 93.4898 2.58175C91.7187 0.609457 84.1347 4.73991 79.2744 8.31733L79.8271 24.5642C79.831 24.6747 79.8167 24.7858 79.7861 24.8924C79.634 25.4162 64.7761 77.4725 82.1516 93.7837C82.5748 94.1808 82.5956 94.8456 82.1984 95.2686C81.9916 95.4889 81.712 95.6001 81.4318 95.6001V95.5981Z" fill="#1A2645"/>
<path d="M84.4058 66.5265C83.7543 66.5265 83.0911 66.5037 82.4148 66.4583C76.8471 66.0859 72.4706 64.33 72.2866 64.2553C71.7489 64.0369 71.4901 63.4241 71.7086 62.8867C71.9277 62.3492 72.5408 62.0919 73.0779 62.309C73.2801 62.3908 89.8343 68.9134 98.2025 58.4982C98.5659 58.0453 99.2272 57.9732 99.6797 58.3364C100.132 58.6997 100.205 59.3606 99.8416 59.8129C96.2967 64.2254 90.9871 66.5258 84.4058 66.5258V66.5265Z" fill="#1A2645"/>
<path d="M61.5693 97.4705L56.2298 101.703L38.8693 115.466C37.8589 95.8797 25.5479 97.9501 17.2981 97.39C15.0718 97.2373 10.6913 97.3698 8.48195 94.7048C8.48195 94.7048 7.99819 88.526 9.92085 82.1367C11.3851 77.266 14.2434 72.2713 19.7773 69.7921C36.9421 62.1076 59.9483 70.2646 61.5699 97.4705H61.5693Z" fill="white"/>
<g opacity="0.25">
<path d="M56.2292 101.703L38.8687 115.467C37.8583 95.8801 25.5473 97.9506 17.2975 97.3904C15.0712 97.2377 10.6907 97.3702 8.48133 94.7052C8.48133 94.7052 7.99758 88.5264 9.92024 82.1371L19.9106 70.7998C19.9106 70.7998 18.343 89.0827 27.0486 91.5391C33.4193 93.3373 40.9077 92.705 44.0489 93.8468C47.7193 95.1777 52.0984 98.2657 56.2298 101.704L56.2292 101.703Z" fill="#1A2645"/>
</g>
<path d="M38.3446 115.494C38.1561 114.632 37.9935 113.779 37.8251 112.932C37.6528 112.086 37.4675 111.249 37.2672 110.423C36.8615 108.775 36.3895 107.156 35.6515 105.685C34.9252 104.213 33.9564 102.895 32.7392 101.875C31.5266 100.848 30.0792 100.117 28.5109 99.6527C26.942 99.1835 25.2683 98.9658 23.5629 98.8398C21.8535 98.7143 20.1077 98.702 18.3163 98.6234L15.6655 98.47C14.7649 98.4187 13.8384 98.3322 12.9053 98.1522C11.9736 97.9742 11.0275 97.711 10.1153 97.2756C9.20436 96.8473 8.33308 96.2092 7.67312 95.3761L7.46051 95.1356L7.43515 94.7873C7.36233 93.7872 7.35062 92.8605 7.36233 91.9013C7.37403 90.9499 7.42475 89.9998 7.50602 89.0524C7.66987 87.1567 7.95791 85.267 8.40591 83.4019C8.8552 81.5394 9.45599 79.6952 10.2896 77.9367C11.1186 76.1782 12.1771 74.5015 13.4879 73.0166C14.802 71.5369 16.3742 70.2606 18.1258 69.3131C18.5621 69.0785 19.016 68.8556 19.4601 68.6613C19.9002 68.467 20.343 68.2818 20.7917 68.1077C21.6883 67.7607 22.5979 67.4474 23.5206 67.1771C27.2105 66.0931 31.0987 65.6935 34.9362 65.9872C38.7738 66.2783 42.5651 67.3071 46.0112 69.0441C49.4612 70.774 52.5373 73.2441 54.986 76.2159C57.4431 79.1824 59.278 82.6351 60.4211 86.2677C61.0043 88.0808 61.4263 89.9381 61.6948 91.8097C61.9705 93.6799 62.1057 95.5632 62.0947 97.4406C62.0927 97.7311 61.8561 97.9657 61.5648 97.9638C61.2982 97.9625 61.0784 97.7623 61.0453 97.505V97.503C60.5745 93.8619 59.8528 90.2754 58.5985 86.8903C57.3605 83.5085 55.6407 80.3125 53.3449 77.5799C51.0594 74.8447 48.2128 72.5929 45.0209 71.0197C41.833 69.4399 38.3238 68.5112 34.7652 68.2662C31.2054 68.0134 27.6032 68.428 24.1727 69.4184C23.3158 69.6686 22.4705 69.9584 21.6376 70.2801C21.2208 70.4413 20.8092 70.6128 20.4002 70.7929C19.9952 70.9696 19.6168 71.1561 19.2357 71.3595C17.7234 72.1751 16.3722 73.2681 15.2227 74.5574C14.0776 75.8526 13.131 77.3375 12.378 78.929C11.6218 80.5198 11.034 82.2075 10.5997 83.9432C10.1621 85.6783 9.86887 87.4596 9.69396 89.2545C9.60749 90.1519 9.54897 91.0532 9.51711 91.9552C9.4872 92.8481 9.48395 93.7768 9.52946 94.6268L9.29084 94.0387C10.2206 95.0934 11.7018 95.6587 13.3026 95.9109C14.105 96.0396 14.9372 96.1019 15.7948 96.1474L18.421 96.2761C20.1486 96.3515 21.9282 96.3684 23.7332 96.5022C25.5369 96.6329 27.3783 96.8889 29.1845 97.4458C30.9843 97.9982 32.7496 98.8891 34.208 100.169C35.6716 101.442 36.7952 103.051 37.593 104.748C39.1912 108.157 39.7283 111.868 39.3934 115.442C39.3661 115.734 39.1073 115.948 38.8154 115.921C38.5793 115.899 38.3947 115.726 38.3459 115.506L38.344 115.496L38.3446 115.494Z" fill="#1A2645"/>
<path d="M25.9757 78.5558C26.4491 74.5696 27.9192 68.539 26.6851 63.7893C24.9842 57.244 19.5556 55.5738 15.3215 55.8572C6.75696 56.4297 9.41631 84.2355 9.41631 84.2355L23.7267 82.9443L25.9764 78.5552L25.9757 78.5558Z" fill="white"/>
<path d="M25.4536 78.4943C25.4283 77.1939 25.5368 75.9196 25.6441 74.6615L25.979 70.9281C26.1701 68.4742 26.2039 66.0028 25.542 63.7791C24.9165 61.5286 23.5732 59.5778 21.6558 58.4139C20.7032 57.8277 19.6271 57.4287 18.5029 57.2058C18.2214 57.1519 17.9353 57.1174 17.6518 57.0713C17.3638 57.0511 17.0777 57.0174 16.789 57.0063C16.4996 57.0076 16.2109 56.9816 15.9216 57.0031L15.4886 57.0213C15.4092 57.0219 15.3559 57.0304 15.3033 57.0382L15.1394 57.0576C14.7122 57.1369 14.3195 57.3143 13.9476 57.5964C13.5776 57.881 13.2414 58.2755 12.9443 58.7245C12.3494 59.6298 11.9176 60.7378 11.5802 61.8808C10.9163 64.1878 10.5958 66.6605 10.3987 69.1345C10.0177 74.0922 10.1205 79.1584 10.4625 84.1363L10.4638 84.1584C10.5034 84.7367 10.0665 85.2384 9.48781 85.2781C8.92083 85.3171 8.42733 84.8966 8.37011 84.3358C8.11003 81.7643 7.97478 79.2254 7.91692 76.6604C7.86685 74.1 7.87985 71.5311 8.07947 68.9571C8.28298 66.3837 8.60223 63.7985 9.33501 61.2264C9.71538 59.9449 10.1933 58.655 10.9872 57.4339C11.3884 56.8282 11.8741 56.2349 12.5087 55.7417C13.1407 55.253 13.9281 54.8761 14.7538 54.7461L15.062 54.7097C15.1667 54.6974 15.2701 54.687 15.3501 54.687L15.867 54.6707C16.2116 54.6513 16.5568 54.6818 16.9008 54.6863C17.2454 54.7032 17.5894 54.7461 17.9327 54.776C18.2747 54.8332 18.618 54.88 18.9581 54.9495C20.317 55.2335 21.6512 55.7391 22.8502 56.4949C24.0505 57.2468 25.0979 58.2547 25.8996 59.4127C26.6994 60.5707 27.2891 61.8587 27.6357 63.1792C28.0161 64.5036 28.1715 65.8625 28.2144 67.1888C28.2508 68.5184 28.1916 69.8311 28.0434 71.1217C27.7553 73.7055 27.1565 76.1893 26.4972 78.6177L26.4959 78.6223C26.4192 78.905 26.1279 79.072 25.845 78.9953C25.6123 78.9323 25.4582 78.723 25.4536 78.4943V78.4943Z" fill="#1A2645"/>
<path d="M11.5502 96.6303C7.33298 96.2066 -0.712668 88.9686 1.39595 74.1702C3.50457 59.3724 10.8441 56.4071 13.9469 55.9587C23.133 54.6324 24.6785 66.2816 20.8683 77.7027C18.3969 85.111 21.0237 97.5817 11.5496 96.6296L11.5502 96.6303Z" fill="#AFAFAF"/>
<g opacity="0.7">
<path d="M21.6889 74.927C23.2039 65.8038 20.8183 58.116 13.2609 59.2052C10.5014 59.6029 4.39536 61.9911 1.59167 72.9164C3.92591 59.2032 10.9345 56.3946 13.9456 55.9605C22.3866 54.7401 24.3768 64.4774 21.6889 74.927V74.927Z" fill="white"/>
</g>
<g opacity="0.25">
<path d="M22.6557 69.6191C22.3911 72.2048 21.7845 74.9621 20.8696 77.7032C18.3962 85.1108 21.0237 97.5834 11.5502 96.6294C7.8408 96.2584 1.17294 90.6138 1.052 79.1959C2.7939 84.8139 6.2673 86.805 8.90714 86.9811C18.9086 87.6492 19.0581 77.2723 22.6557 69.6184V69.6191Z" fill="#1A2645"/>
</g>
<path d="M12.5756 97.7342C12.2161 97.7342 11.8403 97.7154 11.4449 97.6757C9.15101 97.445 6.44226 95.6638 4.3759 93.028C2.24973 90.3155 -1.10013 84.2388 0.355681 74.0225C2.67236 57.7638 11.2297 55.2905 13.7967 54.9201C16.8833 54.4737 19.4503 55.3529 21.2156 57.4636C24.4783 61.3647 24.7332 69.4397 21.8658 78.0359C21.1746 80.1077 20.8918 82.6941 20.6187 85.196C19.9743 91.0914 19.2474 97.7342 12.5756 97.7342V97.7342ZM11.655 95.5852C17.0374 96.1278 17.7714 91.9024 18.5289 84.9679C18.8144 82.3568 19.1096 79.6567 19.8716 77.3718C22.4731 69.5736 22.3651 62.1139 19.6024 58.8108C18.3118 57.2674 16.4593 56.6584 14.0965 56.999C11.8949 57.3167 4.54626 59.5054 2.43569 74.3188C1.08976 83.7637 4.10997 89.2829 6.03003 91.7322C8.09443 94.3667 10.3506 95.4545 11.6543 95.5858L11.655 95.5852Z" fill="#1A2645"/>
<path d="M22.724 69.9181C22.4047 69.9181 22.09 69.7739 21.8833 69.499C15.9833 61.6624 5.91748 62.7282 5.81539 62.7399C5.24061 62.8068 4.71785 62.3942 4.65023 61.819C4.5826 61.2433 4.99353 60.7221 5.56962 60.6539C6.02996 60.5986 16.9235 59.4172 23.5634 68.2363C23.9126 68.6997 23.8196 69.3586 23.3553 69.7069C23.1661 69.8492 22.9444 69.9181 22.7246 69.9181H22.724Z" fill="#1A2645"/>
<path d="M20.8696 78.7542C20.5029 78.7542 20.1466 78.5619 19.9535 78.22C15.7661 70.8111 2.31924 71.2608 2.18465 71.2673C1.60727 71.29 1.11571 70.8403 1.0923 70.2607C1.0689 69.681 1.51949 69.1923 2.09882 69.1689C2.70221 69.1416 16.9632 68.6588 21.7831 77.1874C22.0686 77.6923 21.8904 78.3331 21.3852 78.6184C21.222 78.7107 21.0445 78.7542 20.8696 78.7542V78.7542Z" fill="#1A2645"/>
<path d="M19.6459 85.4793C19.3767 85.4793 19.1082 85.3766 18.9034 85.1719C11.177 77.4575 1.57802 81.2345 1.48179 81.2735C0.94537 81.4925 0.330926 81.2332 0.112457 80.6964C-0.106012 80.159 0.152119 79.5462 0.689839 79.3278C0.799074 79.2836 11.6887 74.9992 20.3885 83.6857C20.7994 84.0958 20.7994 84.7606 20.3891 85.1713C20.1836 85.3766 19.9145 85.4793 19.6453 85.4793H19.6459Z" fill="#1A2645"/>
<path d="M18.7259 91.8324C18.5055 91.8324 18.2837 91.7635 18.0939 91.6205C10.967 86.2488 4.01107 90.3793 3.94215 90.4215C3.44604 90.7244 2.79974 90.5678 2.49739 90.0726C2.19505 89.5774 2.3511 88.9308 2.84655 88.6286C2.92783 88.5786 11.1035 83.7216 19.3592 89.9426C19.8228 90.2922 19.9151 90.9505 19.5653 91.4138C19.3585 91.6874 19.0438 91.8317 18.7252 91.8317L18.7259 91.8324Z" fill="#1A2645"/>
<path d="M110.867 111.677L104.899 112.732L101.859 113.268L49.4403 122.525C49.4403 122.525 50.2745 126.061 51.7752 130.714C52.0691 131.624 52.387 132.577 52.7303 133.554C55.2818 140.838 59.1752 149.481 63.8749 151.951C70.9023 155.643 99.1069 149.448 109.048 142.066C113.606 138.683 113.129 127.45 112.16 119.632C112.054 118.758 111.939 117.926 111.824 117.153C111.344 113.896 110.867 111.678 110.867 111.678L110.867 111.677Z" fill="white"/>
<g opacity="0.35">
<path d="M104.899 112.732L101.859 113.268L60.2384 120.618L49.441 122.525C49.441 122.525 49.4586 122.599 49.4931 122.739C49.5035 122.778 49.5152 122.826 49.5269 122.876C49.5373 122.915 49.5483 122.96 49.56 123.005C49.5672 123.04 49.5769 123.074 49.5841 123.108C49.5886 123.121 49.5906 123.138 49.5951 123.151C49.6114 123.214 49.629 123.285 49.6491 123.359C49.6511 123.375 49.6556 123.39 49.6608 123.409C49.6764 123.469 49.6933 123.533 49.7102 123.601C49.733 123.693 49.759 123.788 49.785 123.888C49.8052 123.959 49.8227 124.036 49.8435 124.112C49.8643 124.192 49.8858 124.27 49.9072 124.352C49.9339 124.455 49.9645 124.563 49.9918 124.673C50.0529 124.897 50.116 125.134 50.1862 125.384C50.2447 125.605 50.3097 125.836 50.3786 126.078C50.458 126.356 50.5386 126.648 50.6264 126.95C50.9489 128.065 51.3331 129.34 51.7759 130.713C51.8618 130.979 51.9508 131.252 52.0406 131.526C52.103 131.717 52.1693 131.913 52.235 132.108C52.3936 132.581 52.5594 133.066 52.7304 133.553C55.2818 140.84 59.1753 149.48 63.875 151.947C69.6611 154.989 89.8078 151.328 102.293 145.816C91.0451 149.057 78.5332 150.573 74.1723 148.28C72.0155 147.147 69.9966 144.516 68.193 141.281C67.4244 139.903 68.4869 138.232 70.0643 138.297C70.0766 138.297 70.0896 138.299 70.102 138.299C72.9928 138.408 76.2048 138.13 79.8492 137.25C87.6582 135.364 98.6245 131.543 105.657 120.871C105.824 120.621 105.421 117.049 104.901 112.731L104.899 112.732Z" fill="#1A2645"/>
</g>
<path d="M70.5701 154.073C67.4712 154.073 64.951 153.703 63.3853 152.88C54.5126 148.218 48.6614 123.802 48.4169 122.765L48.1614 121.683L111.679 110.468L111.893 111.457C111.906 111.52 113.263 117.871 113.711 124.796C114.329 134.368 112.971 140.463 109.675 142.91C101.513 148.971 82.0644 154.074 70.5694 154.074L70.5701 154.073ZM50.7336 123.362C51.9696 128.143 57.3111 147.315 64.3632 151.021C67.3567 152.593 75.5129 152.246 85.1444 150.136C95.0119 147.974 103.931 144.559 108.423 141.224C113.644 137.347 111.517 120.324 110.043 112.89L50.7342 123.363L50.7336 123.362Z" fill="#1A2645"/>
<path d="M84.5702 146.558L81.5195 136.551C81.247 135.657 80.4076 135.059 79.4739 135.098C76.0551 135.241 68.1759 135.981 66.3638 139.743C64.8599 142.865 66.0732 147.114 68.7754 149.156C71.7982 151.442 79.3725 150.032 83.0806 149.152C84.2334 148.878 84.9148 147.69 84.5696 146.557L84.5702 146.558Z" fill="white"/>
<g opacity="0.35">
<path d="M79.4726 135.1C76.0545 135.241 68.1753 135.982 66.3645 139.743C64.8599 142.866 66.0725 147.114 68.7761 149.158C70.6363 150.562 74.217 150.57 77.5604 150.163C75.8237 150.071 74.3353 149.649 73.2638 148.949C67.1246 144.937 72.1442 139.788 72.1442 139.788C72.1442 139.788 70.5668 139.444 70.3671 138.932C69.5316 136.793 76.5721 135.695 80.2282 135.211C79.9921 135.128 79.7373 135.087 79.4726 135.1V135.1Z" fill="#1A2645"/>
</g>
<path d="M74.113 151.454C71.7014 151.454 69.5512 151.06 68.1415 149.994C64.9555 147.585 63.7331 142.782 65.4172 139.286C67.4075 135.156 75.0506 134.231 79.4298 134.048C80.8466 133.986 82.1125 134.891 82.5247 136.244L85.5755 146.251C85.8239 147.068 85.7231 147.96 85.2985 148.7C84.8739 149.44 84.1542 149.976 83.3238 150.173C80.4584 150.853 77.0871 151.453 74.113 151.453V151.454ZM79.5591 136.146C79.5455 136.146 79.5312 136.146 79.5175 136.147C72.9641 136.421 68.4003 137.935 67.3106 140.197C66.0602 142.794 67.0212 146.512 69.4094 148.318C71.2996 149.747 76.3198 149.677 82.8381 148.129C83.1099 148.065 83.3362 147.896 83.4753 147.654C83.6145 147.411 83.6463 147.13 83.5651 146.862L80.5143 136.856C80.3849 136.433 79.9961 136.146 79.5598 136.146L79.5591 136.146Z" fill="#1A2645"/>
<path d="M65.1656 144.891C65.2397 144.649 65.3015 144.516 65.3775 144.345C65.4517 144.187 65.529 144.032 65.6149 143.885C65.7813 143.587 65.966 143.307 66.1662 143.042C66.5687 142.515 67.0115 142.025 67.5102 141.612C68.4907 140.762 69.613 140.129 70.7781 139.678C71.3653 139.464 71.9531 139.26 72.5545 139.12C73.1527 138.952 73.7411 138.85 74.3406 138.737C74.9382 138.629 75.5409 138.544 76.1495 138.488C76.7665 138.441 77.353 138.396 78.0195 138.475C78.171 138.492 78.2796 138.63 78.262 138.781C78.2451 138.925 78.1203 139.03 77.9779 139.026L77.9447 139.024C77.697 139.015 77.3894 139.038 77.1079 139.07C76.8205 139.102 76.5318 139.149 76.2444 139.199C75.6696 139.305 75.0981 139.44 74.5311 139.595C73.9693 139.756 73.3894 139.912 72.8536 140.118C72.3042 140.299 71.7814 140.538 71.2651 140.779C70.2443 141.284 69.3132 141.937 68.5557 142.727C68.1669 143.112 67.8438 143.549 67.5616 143.997C67.4218 144.222 67.2976 144.455 67.1942 144.689C67.1396 144.806 67.0947 144.923 67.0525 145.039C67.0147 145.144 66.9718 145.29 66.9647 145.336C66.8899 145.845 66.4166 146.196 65.9074 146.122C65.3983 146.047 65.0466 145.574 65.1213 145.065C65.1279 145.019 65.1376 144.975 65.1506 144.933L65.1636 144.892L65.1656 144.891Z" fill="#1A2645"/>
<path d="M106.89 126.327C107.342 127.545 107.757 128.761 108.159 129.99C108.558 131.218 108.938 132.453 109.283 133.704C109.629 134.954 109.954 136.212 110.213 137.498C110.472 138.785 110.697 140.086 110.77 141.458C110.802 142.038 110.356 142.533 109.776 142.564C109.196 142.595 108.701 142.15 108.67 141.57C108.669 141.547 108.668 141.525 108.669 141.502V141.491C108.685 140.298 108.559 139.051 108.393 137.811C108.227 136.567 107.992 135.322 107.736 134.079C107.48 132.836 107.187 131.596 106.874 130.361C106.56 129.127 106.227 127.89 105.865 126.675L105.863 126.67C105.778 126.383 105.941 126.081 106.228 125.996C106.503 125.914 106.792 126.062 106.891 126.326L106.89 126.327Z" fill="#1A2645"/>
<path d="M117.562 114.547C115.896 116.963 114.268 119.419 112.229 121.456C111.675 122.011 111.114 122.553 110.551 123.079C107.504 125.944 104.348 128.436 101.132 130.567C77.5565 146.181 50.7309 142.423 40.1592 123.91C33.4062 112.082 36.1267 98.4822 46.8843 91.7615C58.1075 84.7489 65.8736 88.9567 75.8497 89.9529C77.221 90.0875 78.5922 90.1356 79.9564 90.042C80.0455 90.0387 80.1371 90.0329 80.2269 90.0251C83.9655 89.73 87.6763 88.3823 91.3896 85.0193L97.1738 91.5438L114.153 110.701L117.562 114.548V114.547Z" fill="white"/>
<g opacity="0.25">
<path d="M117.562 114.547C115.896 116.963 114.268 119.419 112.229 121.456C86.6575 147.009 52.4391 145.415 40.16 123.91C37.4428 119.152 36.2594 114.108 36.5156 109.341C37.5884 104.633 37.6963 99.5435 44.0489 93.8469C45.1301 92.8748 37.6593 99.7469 57.1459 106.696C60.1024 107.749 40.9422 119.53 41.2855 120.125C46.6516 129.452 55.3735 134.833 65.3424 136.243C70.351 136.952 74.5663 132.549 73.7184 127.565C72.9329 122.945 71.4895 118.879 70.5382 116.522C70.009 115.209 68.7612 114.33 67.3477 114.264L64.1747 114.117L61.9646 109.118C61.9646 109.118 73.8705 103.872 76.3738 105.363C78.6222 106.7 80.9565 130.432 81.4103 135.267C91.7661 132.672 102.276 126.338 111.021 116.24C112.222 114.854 114.325 113.992 116.123 112.925L117.561 114.547H117.562Z" fill="#1A2645"/>
</g>
<path d="M49.0651 90.0465C50.5827 88.8807 52.3292 88.0859 54.1354 87.4913C54.365 87.4204 54.5919 87.3529 54.8331 87.2879C55.1023 87.2209 55.3169 87.1813 55.562 87.1267C56.0353 87.0318 56.508 86.9525 56.9846 86.8843C57.9372 86.7478 58.8982 86.6913 59.854 86.677C61.7689 86.664 63.6597 86.8655 65.503 87.156C67.3483 87.451 69.1506 87.8312 70.9426 88.1561C72.732 88.4862 74.5161 88.778 76.2925 88.9372C78.0559 89.0951 79.814 89.0834 81.5234 88.815C83.2328 88.5525 84.8837 88.0138 86.4201 87.2268C87.1886 86.8336 87.9312 86.3852 88.6425 85.8822C89.3512 85.3767 90.0307 84.8243 90.6854 84.2394L91.478 83.5317L92.1777 84.3213L118.35 113.85L118.896 114.466L118.428 115.142C116.958 117.27 115.492 119.487 113.653 121.488C113.424 121.737 113.185 121.983 112.947 122.223L112.24 122.914C111.774 123.379 111.287 123.825 110.807 124.276C110.327 124.728 109.827 125.159 109.339 125.602C108.839 126.032 108.34 126.464 107.833 126.885C103.773 130.255 99.341 133.198 94.5938 135.539C89.8545 137.888 84.7913 139.623 79.5656 140.575C74.3445 141.522 68.9452 141.673 63.6746 140.793C58.4151 139.912 53.2772 137.984 48.8597 134.909C44.4324 131.857 40.8049 127.659 38.4024 122.848C37.1963 120.441 36.2925 117.867 35.8022 115.199C35.3185 112.533 35.2353 109.777 35.6651 107.086C36.0721 104.396 36.9824 101.774 38.3576 99.4336C39.7282 97.0902 41.567 95.0399 43.7074 93.4465C43.9409 93.273 44.2705 93.3211 44.4448 93.5544C44.6028 93.7662 44.5774 94.0587 44.3954 94.2406L44.3934 94.2419C42.5943 96.044 41.0956 98.0916 39.9798 100.317C38.8615 102.542 38.1306 104.94 37.7938 107.396C37.1508 112.309 38.0578 117.42 40.3004 121.906C42.5163 126.417 45.9227 130.324 50.0587 133.184C54.1933 136.062 59.0308 137.885 64.0218 138.722C69.0232 139.557 74.1813 139.418 79.1905 138.508C84.2042 137.594 89.0833 135.926 93.6634 133.655C98.2506 131.393 102.546 128.543 106.49 125.27C106.983 124.86 107.467 124.44 107.953 124.023C108.428 123.592 108.914 123.174 109.38 122.734C109.848 122.295 110.32 121.862 110.775 121.409L111.463 120.736C111.683 120.515 111.897 120.294 112.107 120.064C113.795 118.232 115.217 116.096 116.699 113.949L116.777 115.242L90.6048 85.7133L92.097 85.7952C91.3851 86.432 90.6399 87.0383 89.8558 87.5972C89.069 88.1535 88.2387 88.6558 87.3753 89.0977C85.6483 89.9828 83.7673 90.5956 81.8498 90.89C79.9323 91.1909 77.9954 91.1987 76.1072 91.0297C74.2294 90.8543 72.3874 90.5709 70.5668 90.2531C68.7482 89.9334 66.9523 89.5974 65.1701 89.3421C63.3892 89.0821 61.62 88.9028 59.8644 88.908C58.9866 88.9015 58.1134 88.9508 57.2454 89.0379C56.8123 89.0847 56.378 89.1419 55.9489 89.2127L55.3299 89.3245C55.1257 89.3687 54.9105 89.422 54.6985 89.4753C52.9813 89.8951 51.2856 90.4254 49.5599 90.9732L49.5508 90.9758C49.2706 91.0648 48.9709 90.9095 48.8818 90.6294C48.8122 90.4104 48.8928 90.1791 49.0651 90.0465V90.0465Z" fill="#1A2645"/>
<path d="M29.3549 99.7624C29.0012 99.7624 28.6553 99.5837 28.4576 99.26C28.1546 98.7655 28.3107 98.1189 28.8055 97.8161C28.9921 97.7017 47.4365 86.2156 44.967 70.4443C44.8772 69.8712 45.2693 69.3338 45.8428 69.2441C46.4156 69.155 46.954 69.5463 47.0437 70.1194C48.1614 77.2561 45.5327 84.6312 39.4428 91.4475C34.9024 96.5287 30.1046 99.4855 29.9024 99.609C29.7314 99.7136 29.5421 99.763 29.3555 99.763L29.3549 99.7624Z" fill="#1A2645"/>
<path d="M119.299 164.866C116.747 167.509 116.959 168.406 116.835 170.176C116.714 171.945 117.439 174.427 115.565 176.432C109.536 182.882 100.098 178.619 97.8592 176.106C97.575 175.787 97.315 175.402 97.0789 174.961C95.0574 171.167 94.9762 163.133 99.2838 155.914C101.437 152.305 106.861 140.873 101.132 130.566C100.416 129.274 99.5231 128.001 98.4268 126.762L103.772 121.302L114.153 110.7L115.53 109.292C115.53 109.292 119.343 115.195 122.562 123.539C123.981 127.208 125.286 131.352 126.101 135.675C127.989 145.666 127.265 156.613 119.299 164.868V164.866Z" fill="white"/>
<g opacity="0.25">
<path d="M119.299 164.866C116.747 167.509 116.959 168.406 116.835 170.176C116.714 171.945 117.44 174.427 115.565 176.433C109.536 182.882 100.098 178.619 97.8592 176.106C97.5751 175.787 97.315 175.403 97.079 174.961C99.4295 175.898 103.275 176.892 107.578 175.881C114.969 174.146 114.466 168.478 111.999 165.275C111.999 165.275 118.826 167.526 116.061 159.026C116.061 159.026 126.537 161.87 126.1 135.675C127.988 145.665 127.264 156.612 119.298 164.867L119.299 164.866Z" fill="#1A2645"/>
</g>
<path d="M116.413 108.721C117.248 110.046 117.989 111.355 118.718 112.701C119.442 114.042 120.13 115.4 120.787 116.774C122.097 119.522 123.282 122.332 124.306 125.207C126.34 130.949 127.797 136.97 128.003 143.149C128.1 146.232 127.862 149.35 127.16 152.388C126.463 155.423 125.284 158.372 123.62 161.028C122.791 162.357 121.846 163.612 120.807 164.78L120.016 165.638C119.767 165.899 119.525 166.162 119.297 166.428C118.839 166.959 118.447 167.507 118.217 168.034C118.101 168.299 118.03 168.554 117.987 168.853C117.943 169.152 117.928 169.5 117.906 169.886C117.895 170.081 117.881 170.288 117.877 170.429C117.869 170.584 117.873 170.759 117.876 170.932L117.916 172.053C117.941 172.837 117.928 173.697 117.714 174.577C117.516 175.457 117.057 176.322 116.456 177.005C116.306 177.193 116.164 177.312 116.018 177.464C115.87 177.607 115.733 177.76 115.572 177.891L115.104 178.296C114.944 178.426 114.774 178.546 114.61 178.671C113.939 179.154 113.221 179.586 112.454 179.907C111.69 180.235 110.895 180.481 110.085 180.644C109.275 180.8 108.455 180.875 107.64 180.88C106.007 180.893 104.402 180.61 102.872 180.138C101.341 179.657 99.8781 178.996 98.5146 178.068C98.1739 177.834 97.8397 177.581 97.5133 177.283C97.3508 177.141 97.1856 176.971 97.0322 176.8L96.6193 176.26C96.4717 176.082 96.3716 175.892 96.2656 175.703C96.1602 175.514 96.0497 175.325 95.9522 175.134C95.7955 174.747 95.6056 174.362 95.4821 173.97C94.9515 172.403 94.7265 170.807 94.655 169.22C94.5555 166.047 95.1004 162.903 96.1531 159.941C96.4379 159.209 96.7051 158.469 97.0562 157.764C97.2285 157.411 97.3735 157.044 97.5692 156.703L98.1375 155.67C98.33 155.308 98.5101 155.026 98.6843 154.702C98.8599 154.387 99.0303 154.067 99.1928 153.742C99.5205 153.093 99.8306 152.434 100.113 151.762C101.244 149.079 102.081 146.262 102.42 143.393C102.766 140.529 102.607 137.614 101.809 134.871C101.423 133.497 100.892 132.167 100.256 130.875C99.6154 129.584 98.854 128.345 98.0322 127.107L98.0263 127.098C97.8651 126.855 97.9314 126.527 98.1746 126.365C98.3794 126.23 98.644 126.256 98.8196 126.411C101.134 128.476 102.886 131.246 103.817 134.276C104.746 137.311 104.94 140.531 104.597 143.641C104.255 146.759 103.407 149.789 102.184 152.644C101.881 153.36 101.549 154.063 101.197 154.758C101.022 155.106 100.838 155.45 100.648 155.792C100.465 156.131 100.242 156.486 100.082 156.79L99.5608 157.735C99.3794 158.046 99.2494 158.383 99.0901 158.706C98.7663 159.349 98.5237 160.028 98.2598 160.698C97.2883 163.404 96.7753 166.29 96.8521 169.14C96.908 170.558 97.1095 171.973 97.5406 173.263C97.6401 173.59 97.7903 173.881 97.9093 174.194C97.9834 174.337 98.0653 174.473 98.1414 174.614C98.2181 174.755 98.2903 174.9 98.3878 175.01L98.6557 175.371C98.7539 175.479 98.8501 175.582 98.9704 175.688C99.1987 175.9 99.4646 176.106 99.7429 176.299C100.866 177.073 102.173 177.68 103.511 178.105C104.854 178.527 106.252 178.777 107.634 178.771C108.325 178.769 109.012 178.712 109.681 178.582C110.348 178.447 110.997 178.245 111.618 177.98C112.242 177.72 112.823 177.368 113.372 176.973C113.921 176.59 114.437 176.093 114.875 175.621C115.262 175.172 115.538 174.671 115.672 174.08C115.817 173.494 115.84 172.834 115.816 172.116L115.775 170.98C115.772 170.777 115.767 170.575 115.777 170.354L115.808 169.77C115.83 169.404 115.843 169 115.907 168.552C115.969 168.106 116.098 167.629 116.285 167.205C116.663 166.351 117.179 165.675 117.698 165.064C117.96 164.759 118.228 164.468 118.499 164.184L119.239 163.381C120.202 162.299 121.074 161.141 121.838 159.916C123.372 157.466 124.462 154.747 125.113 151.916C125.767 149.083 125.996 146.146 125.904 143.213C125.709 137.335 124.31 131.502 122.327 125.91C121.33 123.112 120.172 120.365 118.891 117.678C118.25 116.335 117.575 115.007 116.869 113.698C116.165 112.396 115.419 111.083 114.649 109.86L114.636 109.84C114.326 109.35 114.474 108.701 114.965 108.392C115.456 108.082 116.105 108.23 116.415 108.721L116.413 108.721Z" fill="#1A2645"/>
<path d="M121.23 120.582C112.655 120.582 104.021 117.828 96.7649 112.143C79.5241 98.6362 76.4922 73.6299 90.0054 56.3985C103.519 39.1671 128.539 36.1361 145.78 49.6426C163.021 63.1485 166.053 88.1554 152.54 105.387C144.714 115.365 133.028 120.582 121.23 120.582ZM121.312 43.3034C110.137 43.3034 99.0712 48.2435 91.6588 57.6949C78.8602 74.0146 81.7322 97.6984 98.0608 110.49C114.389 123.281 138.085 120.411 150.885 104.092C163.683 87.772 160.811 64.0882 144.482 51.2965C137.611 45.9138 129.432 43.304 121.311 43.304L121.312 43.3034Z" fill="#1A2645"/>
<g opacity="0.25">
<path d="M122.562 123.538C118.572 123.926 114.516 123.777 110.552 123.079C108.251 122.676 105.981 122.083 103.772 121.302C100.569 120.173 97.4912 118.643 94.6361 116.707C84.8388 110.066 79.8023 100.101 79.9571 90.0412C80.0462 90.038 80.1378 90.0322 80.2276 90.0244C83.9662 89.7293 87.677 88.3815 91.3903 85.0186L97.1745 91.5431L114.153 110.701L115.53 109.293C115.53 109.293 119.343 115.196 122.563 123.539L122.562 123.538Z" fill="#1A2645"/>
</g>
<path d="M121.272 119.548C142.632 119.548 159.948 102.241 159.948 80.8926C159.948 59.544 142.632 42.2375 121.272 42.2375C99.9116 42.2375 82.5957 59.544 82.5957 80.8926C82.5957 102.241 99.9116 119.548 121.272 119.548Z" fill="white"/>
<g opacity="0.25">
<path d="M145.196 111.274C131.507 122.06 111.738 122.539 97.4126 111.317C80.6008 98.1475 77.6541 73.8489 90.8312 57.0457C97.3618 48.7179 106.628 43.7952 116.36 42.5508C102.418 61.3451 105.92 87.9338 124.459 102.457C130.701 107.347 137.866 110.255 145.195 111.274H145.196Z" fill="#1A2645"/>
</g>
<path d="M121.23 120.582C112.655 120.582 104.021 117.828 96.7649 112.143C79.5241 98.6362 76.4922 73.6299 90.0054 56.3985C103.519 39.1671 128.539 36.1361 145.78 49.6426C163.021 63.1485 166.053 88.1554 152.54 105.387C144.714 115.365 133.028 120.582 121.23 120.582ZM121.312 43.3034C110.137 43.3034 99.0712 48.2435 91.6588 57.6949C78.8602 74.0146 81.7322 97.6984 98.0608 110.49C114.389 123.281 138.085 120.411 150.885 104.092C163.683 87.772 160.811 64.0882 144.482 51.2965C137.611 45.9138 129.432 43.304 121.311 43.304L121.312 43.3034Z" fill="#1A2645"/>
<path d="M121.192 120.604C112.356 120.604 103.827 117.676 96.7643 112.142C90.7505 107.431 86.2524 101.146 83.755 93.9638C81.3232 86.9721 80.8843 79.465 82.4864 72.2536C83.7784 66.4472 86.3077 61.1132 90.0047 56.3992C96.551 48.0512 105.958 42.7517 116.492 41.4754C127.028 40.2004 137.427 43.1 145.779 49.6433C147.346 50.8716 148.828 52.222 150.181 53.6568C156.648 60.4939 160.473 69.4631 160.949 78.9107C161.431 88.4537 158.443 97.8558 152.538 105.386L151.711 104.738L152.538 105.386C145.992 113.733 136.585 119.033 126.051 120.309C124.426 120.506 122.803 120.603 121.191 120.603L121.192 120.604ZM121.311 43.3041C110.136 43.3041 99.0712 48.2436 91.6589 57.695C88.1568 62.1608 85.7615 67.2121 84.5378 72.7098C81.4142 86.7771 86.7219 101.607 98.0608 110.49C105.971 116.686 115.822 119.434 125.799 118.224C135.776 117.015 144.684 111.996 150.884 104.09C162.282 89.5565 161.323 68.4949 148.653 55.0988C147.37 53.7387 145.967 52.4598 144.482 51.2959C137.61 45.9132 129.431 43.3034 121.311 43.3034L121.311 43.3041Z" fill="#1A2645"/>
<path d="M142.938 102.753C156.013 91.2484 156.357 70.2801 143.707 55.9188C131.056 41.5575 110.202 39.2414 97.1275 50.7457C84.0529 62.2501 83.709 83.2183 96.3593 97.5796C109.01 111.941 129.864 114.257 142.938 102.753Z" fill="#1A2645"/>
<path d="M142.937 102.741C129.863 114.247 109.01 111.932 96.3579 97.5717C83.7947 83.3107 84.0463 62.535 96.8514 50.98C90.547 62.6838 92.3735 78.3361 102.461 89.7891C115.113 104.149 135.967 106.464 149.041 94.958C149.134 94.8774 149.222 94.7975 149.313 94.7149C147.713 97.6899 145.586 100.408 142.937 102.741V102.741Z" fill="#21102B"/>
<path d="M123.561 115.582C122.293 115.582 121.014 115.519 119.727 115.393C109.467 114.382 99.9392 109.424 92.8988 101.433C85.6945 93.2569 81.9883 82.958 82.4623 72.4343L82.4864 72.2537C83.7783 66.4479 86.3076 61.114 90.0047 56.3999C103.518 39.1691 128.538 36.1389 145.779 49.6441C147.346 50.8723 148.827 52.2227 150.181 53.6576L150.237 53.7226C163.518 70.3191 162.226 93.6078 147.296 106.742C140.742 112.509 132.427 115.583 123.56 115.583L123.561 115.582ZM84.5579 72.6202C84.134 82.5662 87.6542 92.3022 94.4755 100.045C101.164 107.635 110.204 112.344 119.933 113.302C129.634 114.26 138.859 111.368 145.907 105.165C159.982 92.7818 161.172 70.7844 148.623 55.0677C147.349 53.72 145.956 52.4521 144.482 51.2973C128.154 38.5063 104.456 41.3754 91.6582 57.6957C88.1757 62.1368 85.7862 67.1582 84.5573 72.6209L84.5579 72.6202Z" fill="#1A2645"/>
<path d="M123.14 111.092C113.226 111.092 103.004 106.704 95.5698 98.2652C89.2778 91.1234 85.8948 82.1743 86.043 73.0666C86.1926 63.9213 89.8812 55.7111 96.4294 49.9495C102.977 44.1873 111.591 41.5697 120.688 42.5789C129.746 43.5842 138.2 48.0714 144.492 55.2133C150.784 62.3551 154.167 71.3042 154.019 80.4119C153.869 89.5572 150.181 97.7674 143.633 103.529L142.939 102.741L143.633 103.529C137.85 108.619 130.581 111.092 123.14 111.092ZM116.895 44.4673C109.729 44.4673 103.058 46.9147 97.8182 51.5254C91.72 56.8918 88.2849 64.5542 88.1451 73.1004C88.0047 81.6843 91.2017 90.1285 97.1472 96.8772C109.396 110.78 129.626 113.057 142.244 101.953C148.342 96.5867 151.777 88.9243 151.917 80.3781C152.057 71.7942 148.86 63.3501 142.915 56.6014C136.969 49.8527 128.993 45.6143 120.456 44.6669C119.258 44.5336 118.07 44.468 116.894 44.468L116.895 44.4673Z" fill="#1A2645"/>
<path d="M146.084 117.724C145.19 118.217 142.593 117.986 140.453 117.979C139.311 117.974 138.299 118.034 137.747 118.305C134.908 119.69 132.781 124.712 130.384 124.561C127.669 124.39 124.102 121.035 123.383 119.561C122.129 116.994 126.53 112.274 133.212 109.017C133.346 108.952 133.479 108.888 133.615 108.825C140.151 105.737 146.35 105.248 147.578 107.763C148.531 109.715 149.488 115.834 146.085 117.724H146.084Z" fill="white"/>
<g opacity="0.25">
<path d="M130.383 124.561C127.669 124.39 124.101 121.035 123.382 119.561C122.129 116.994 126.529 112.274 133.211 109.017C133.345 108.952 133.478 108.888 133.614 108.825C132.873 109.833 132.007 111.546 133.208 113.014C135.042 115.252 139.312 115.562 139.312 115.562L140.453 117.979C139.31 117.974 138.299 118.034 137.747 118.305C134.908 119.69 132.78 124.712 130.384 124.561H130.383Z" fill="#1A2645"/>
</g>
<path d="M130.498 125.616C130.438 125.616 130.378 125.614 130.317 125.61C127.01 125.4 123.22 121.625 122.436 120.021C120.665 116.391 126.428 111.155 132.751 108.072C136.095 106.442 139.5 105.406 142.338 105.159C145.516 104.884 147.711 105.643 148.521 107.301C149.644 109.602 150.718 116.352 146.593 118.641C145.725 119.123 144.281 119.12 142.003 119.059C140.641 119.022 138.775 118.973 138.207 119.25C137.133 119.773 136.082 121.033 135.065 122.252C133.624 123.98 132.26 125.615 130.498 125.615V125.616ZM143.575 107.204C143.242 107.204 142.891 107.22 142.521 107.252C139.933 107.478 136.791 108.44 133.672 109.96C126.762 113.329 123.571 117.554 124.325 119.099C124.897 120.27 128.17 123.368 130.449 123.513C131.236 123.559 132.413 122.151 133.45 120.907C134.608 119.519 135.806 118.083 137.284 117.362C138.316 116.859 140.134 116.908 142.059 116.959C143.287 116.993 145.144 117.041 145.572 116.804C148.281 115.3 147.42 109.838 146.631 108.222C146.313 107.57 145.177 107.203 143.573 107.203L143.575 107.204Z" fill="#1A2645"/>
<path d="M142.411 120.641C141.558 121.185 140.629 121.706 139.64 122.187C134.059 124.911 128.683 125.379 127.637 123.236C126.659 121.231 129.811 117.649 134.793 114.966C135.137 114.78 135.49 114.6 135.853 114.424C141.435 111.702 146.81 111.232 147.858 113.377C148.72 115.141 146.379 118.123 142.412 120.641H142.411Z" fill="white"/>
<g opacity="0.25">
<path d="M142.411 120.641C141.558 121.185 140.629 121.706 139.64 122.187C134.059 124.911 128.683 125.379 127.637 123.236C126.659 121.231 129.811 117.649 134.793 114.966C134.344 116.467 133.455 120.407 136.186 121.341C137.443 121.773 139.913 121.322 142.411 120.641Z" fill="#1A2645"/>
</g>
<path d="M130.948 125.647C128.934 125.647 127.361 125.067 126.692 123.696C125.982 122.241 126.62 120.335 128.489 118.331C130.126 116.574 132.578 114.851 135.391 113.48C138.205 112.108 141.071 111.237 143.464 111.029C146.197 110.792 148.091 111.46 148.801 112.915C150.347 116.083 145.595 120.453 140.102 123.132C136.987 124.651 133.589 125.648 130.949 125.648L130.948 125.647ZM144.527 113.08C144.259 113.08 143.965 113.093 143.647 113.121C141.505 113.308 138.9 114.106 136.312 115.368C133.725 116.629 131.492 118.19 130.027 119.763C128.615 121.278 128.366 122.332 128.581 122.775C129.167 123.973 133.586 123.972 139.181 121.243C144.776 118.515 147.497 115.034 146.913 113.836C146.73 113.462 145.998 113.08 144.528 113.08H144.527Z" fill="#1A2645"/>
<g opacity="0.5">
<path d="M141.112 96.5971C133.596 99.5331 130.126 91.048 136.194 87.416C144.106 83.2673 148.359 93.201 141.112 96.5971Z" fill="white"/>
</g>
<g opacity="0.5">
<path d="M128.544 100.191C125.605 101.148 124.015 97.4665 127.112 96.1311C130.051 95.1745 131.64 98.8559 128.544 100.191Z" fill="white"/>
</g>
<g opacity="0.5">
<path d="M98.7064 58.3878C114.489 35.6015 137.255 52.8433 139.353 62.9914C125.478 51.205 111.887 53.6166 98.7064 58.3878Z" fill="white"/>
</g>
<path d="M103.534 144.392C103.217 144.392 102.903 144.249 102.697 143.978C102.346 143.516 102.435 142.858 102.896 142.507C103.372 142.145 114.694 133.695 127.159 139.08C127.692 139.31 127.938 139.928 127.708 140.461C127.477 140.993 126.86 141.237 126.326 141.008C115.007 136.12 104.276 144.098 104.169 144.179C103.979 144.323 103.755 144.393 103.534 144.393V144.392Z" fill="#1A2645"/>
<path d="M82.6964 29.6267C82.6964 29.6267 83.2419 25.389 86.1646 22.9794C86.1646 22.9794 83.4708 15.7375 85.4435 12.6929C88.4059 8.12186 94.7759 16.6979 95.852 22.2808C96.6927 26.6426 95.8377 29.1803 95.8377 29.1803" fill="white"/>
<path d="M82.1749 29.5598C82.236 28.8619 82.355 28.225 82.5156 27.5693C82.6782 26.9195 82.8837 26.2761 83.1476 25.6464C83.6717 24.3909 84.4246 23.1705 85.4949 22.1697L85.1782 23.3459C84.6685 21.9059 84.2848 20.5009 84.0014 19.0173C83.8635 18.279 83.7543 17.5291 83.7036 16.759C83.6522 15.9896 83.6489 15.2013 83.7699 14.3838C83.8284 13.9764 83.9194 13.5605 84.0696 13.142C84.1366 12.9334 84.2367 12.7241 84.3323 12.5175C84.4467 12.3128 84.5644 12.1029 84.6951 11.9254C84.9552 11.5576 85.2894 11.197 85.7185 10.9058C86.1431 10.6154 86.677 10.4106 87.2043 10.3632C87.7355 10.306 88.2387 10.3899 88.6861 10.5237C89.1321 10.6628 89.5314 10.8551 89.8968 11.0709C90.6243 11.5063 91.2297 12.0294 91.7876 12.5766C92.8929 13.6794 93.796 14.9037 94.5769 16.1969C95.3539 17.4927 96.0081 18.8607 96.4762 20.3254C96.5939 20.6913 96.6986 21.0643 96.7883 21.4451C96.8319 21.6355 96.8715 21.8285 96.9066 22.0235L96.9957 22.5843C97.1095 23.329 97.1947 24.0822 97.2096 24.8419C97.2278 25.6003 97.1791 26.3638 97.0471 27.1183C96.906 27.8799 96.7246 28.6013 96.3319 29.3486C96.1966 29.6066 95.8767 29.7067 95.6179 29.5708C95.4365 29.476 95.3331 29.2901 95.3344 29.0984V29.0133C95.3383 28.715 95.3448 28.3491 95.3416 28.017C95.3351 27.6759 95.3286 27.3367 95.311 26.9968C95.2798 26.3177 95.2232 25.6418 95.1537 24.966C95.0867 24.2908 95.0002 23.6143 94.8682 22.9437L94.7701 22.4433C94.7356 22.2854 94.6959 22.1275 94.6543 21.9695C94.5724 21.6524 94.4762 21.3346 94.3676 21.0188C93.928 19.7555 93.3416 18.5123 92.6543 17.3361C91.9644 16.1638 91.1718 15.0389 90.2557 14.0947C89.7992 13.6248 89.3051 13.2063 88.8005 12.897C88.2986 12.5896 87.781 12.4187 87.4104 12.4603C87.2218 12.4759 87.0599 12.5331 86.8922 12.6468C86.7257 12.7599 86.556 12.9275 86.4032 13.1465C86.32 13.2583 86.2673 13.3655 86.2023 13.4721C86.1509 13.593 86.0905 13.706 86.0495 13.8412C85.9552 14.0985 85.8896 14.3884 85.8466 14.6912C85.7556 15.2962 85.7524 15.9532 85.7979 16.6167C85.8414 17.2809 85.9383 17.9561 86.0645 18.63C86.318 19.9699 86.6958 21.345 87.1458 22.6142C87.2966 23.0405 87.162 23.4993 86.8415 23.78L86.8291 23.7904C85.9292 24.4201 85.1613 25.3182 84.5579 26.345C84.2536 26.8577 83.9916 27.4042 83.764 27.969C83.5404 28.5278 83.3433 29.1315 83.214 29.695L83.2075 29.7242C83.1424 30.0069 82.8609 30.1837 82.5781 30.1187C82.3193 30.0595 82.1496 29.8184 82.1723 29.5611L82.1749 29.5598Z" fill="#1A2645"/>
<path d="M60.5743 111.158L83.3153 111.533C84.3185 111.55 85.1567 110.775 85.2191 109.774L85.2893 108.645C85.4694 105.745 84.721 102.862 83.1521 100.415L62.8338 103.579L60.5743 111.158V111.158Z" fill="white"/>
<g opacity="0.25">
<path d="M83.3147 111.533L60.5751 111.159L61.8157 106.995L83.424 107.352C84.238 107.366 84.9435 106.857 85.2133 106.132C85.3167 106.961 85.3434 107.802 85.2894 108.644L85.2179 109.774C85.1574 110.774 84.3167 111.549 83.3147 111.532V111.533Z" fill="#1A2645"/>
</g>
<path d="M83.3472 112.583C83.3309 112.583 83.3147 112.583 83.2978 112.583L60.5562 112.208C60.2278 112.203 59.9203 112.043 59.7259 111.778C59.5315 111.513 59.4723 111.173 59.5666 110.857L61.826 103.279C61.9418 102.89 62.2708 102.603 62.6713 102.541L82.9902 99.3766C83.4025 99.3142 83.8121 99.4974 84.0371 99.8477C85.738 102.501 86.5338 105.565 86.3381 108.71L86.2679 109.838C86.1717 111.386 84.8934 112.583 83.3472 112.583V112.583ZM61.9769 110.13L83.3322 110.482C83.3368 110.482 83.3413 110.482 83.3459 110.482C83.7815 110.482 84.1424 110.145 84.169 109.709L84.2393 108.58C84.3934 106.11 83.8335 103.697 82.617 101.561L63.6505 104.514L61.9769 110.13V110.13Z" fill="#1A2645"/>
<path d="M53.5509 87.8301L52.783 89.6828L60.5737 111.158L62.8332 103.579L56.7687 85.7642C55.3695 85.7135 54.086 86.5369 53.5502 87.8294L53.5509 87.8301Z" fill="white"/>
<path d="M60.5737 112.208C60.1329 112.208 59.7369 111.932 59.5861 111.516L51.7953 90.0407C51.7056 89.7944 51.7121 89.5234 51.8122 89.2811L52.5801 87.4283C53.2804 85.7387 54.9833 84.6528 56.8071 84.7152C57.2427 84.7308 57.6231 85.0141 57.7636 85.4268L63.828 103.242C63.8982 103.448 63.9021 103.671 63.8404 103.88L61.5809 111.459C61.4515 111.893 61.0575 112.195 60.6043 112.208C60.5939 112.208 60.5841 112.208 60.5737 112.208V112.208ZM53.9098 89.7074L60.4762 107.807L61.7305 103.601L56.0438 86.8942C55.3695 87.0794 54.7973 87.5667 54.5223 88.2315L53.9104 89.708L53.9098 89.7074Z" fill="#1A2645"/>
<path d="M53.5509 87.8301L52.783 89.6828L60.5737 111.158L62.8332 103.579L56.7687 85.7642C55.3695 85.7135 54.086 86.5369 53.5502 87.8294L53.5509 87.8301Z" fill="white"/>
<g opacity="0.25">
<path d="M61.906 106.692L60.5751 111.159L52.7843 89.6821L53.5008 87.9529L61.906 106.692Z" fill="#1A2645"/>
</g>
<path d="M60.5737 112.208C60.1329 112.208 59.7369 111.932 59.5861 111.516L51.7953 90.0407C51.7056 89.7944 51.7121 89.5234 51.8122 89.2811L52.5801 87.4283C53.2804 85.7387 54.9833 84.6528 56.8071 84.7152C57.2427 84.7308 57.6231 85.0141 57.7636 85.4268L63.828 103.242C63.8982 103.448 63.9021 103.671 63.8404 103.88L61.5809 111.459C61.4515 111.893 61.0575 112.195 60.6043 112.208C60.5939 112.208 60.5841 112.208 60.5737 112.208V112.208ZM53.9098 89.7074L60.4762 107.807L61.7305 103.601L56.0438 86.8942C55.3695 87.0794 54.7973 87.5667 54.5223 88.2315L53.9104 89.708L53.9098 89.7074Z" fill="#1A2645"/>
<path d="M84.2152 102.074L74.7652 87.3362C74.388 86.7481 73.7469 86.3822 73.0486 86.3569L56.7694 85.7642C55.7063 85.7252 54.9787 86.8241 55.43 87.7872L61.8657 101.516C62.4587 102.781 63.7156 103.603 65.1122 103.64L83.0631 104.115C84.1275 104.143 84.7894 102.97 84.2152 102.074V102.074Z" fill="white"/>
<path d="M83.0995 105.165C83.078 105.165 83.0572 105.165 83.0358 105.165L65.0849 104.69C63.2793 104.642 61.6811 103.596 60.9145 101.961L54.4787 88.233C54.1101 87.4473 54.1757 86.5453 54.6549 85.8207C55.1341 85.0968 55.9417 84.6874 56.8071 84.7147L73.0863 85.3073C74.1293 85.3457 75.087 85.8922 75.6494 86.7701L85.0995 101.507C85.5755 102.25 85.6021 103.189 85.1684 103.957C84.7452 104.707 83.9565 105.166 83.0982 105.166L83.0995 105.165ZM56.7154 86.8137C56.5444 86.8137 56.4502 86.917 56.4085 86.9794C56.3656 87.0444 56.3052 87.1776 56.3819 87.3414L62.8176 101.07C63.2448 101.981 64.1349 102.563 65.1408 102.589L83.0917 103.064C83.212 103.066 83.3017 102.99 83.3388 102.925C83.3758 102.859 83.4051 102.756 83.331 102.641L73.8809 87.9028C73.6897 87.6046 73.3646 87.4187 73.0109 87.4063L56.7311 86.8137C56.7259 86.8137 56.72 86.8137 56.7154 86.8137V86.8137Z" fill="#1A2645"/>
<path d="M79.8056 140.573C78.4219 140.375 77.4063 139.767 77.4063 139.767C77.4063 139.767 79.7405 122.954 70.901 111.156C70.901 111.156 70.9173 110.61 71.0974 109.898C71.4556 108.486 72.4628 106.423 75.2788 106.677C82.8531 107.362 89.3655 129.667 85.5885 137.17C83.9591 140.408 81.58 140.828 79.8056 140.574V140.573Z" fill="white"/>
<g opacity="0.25">
<path d="M79.8055 140.573C78.4218 140.376 77.4062 139.767 77.4062 139.767C77.4062 139.767 79.7405 122.954 70.9009 111.156C70.9009 111.156 70.8541 109.777 71.4913 108.793C77.4725 111.082 83.6443 132.993 80.089 140.057C79.9973 140.238 79.903 140.411 79.8055 140.574V140.573Z" fill="#1A2645"/>
</g>
<path d="M80.6554 141.685C78.591 141.685 76.9511 140.719 76.8647 140.667L76.2697 140.311L76.3647 139.623C76.3874 139.459 78.5292 123.088 70.0596 111.786L69.8398 111.492L69.8502 111.126C69.8535 111.011 69.9523 108.3 71.7404 106.713C72.6981 105.864 73.9186 105.499 75.3718 105.631C77.9713 105.865 80.5357 108.131 82.79 112.184C86.8908 119.558 89.3597 132.011 86.5267 137.642C85.5105 139.661 84.1067 140.942 82.3537 141.45C81.7718 141.618 81.1989 141.685 80.6547 141.685H80.6554ZM78.5357 139.144C79.2522 139.434 80.5234 139.798 81.7841 139.428C82.946 139.086 83.9103 138.168 84.6496 136.698C86.9377 132.152 85.1411 120.734 80.9532 113.205C79.0799 109.837 77.0311 107.89 75.1832 107.723C74.3217 107.643 73.6546 107.827 73.1422 108.279C72.3165 109.006 72.0603 110.256 71.9836 110.853C79.7444 121.52 78.8855 135.678 78.5357 139.144V139.144Z" fill="#1A2645"/>
<path d="M75.7547 100.357C75.6527 101.288 73.8776 101.858 71.7904 101.629C69.7033 101.4 68.094 100.46 68.1961 99.5285C68.2403 99.1263 68.1493 96.8518 68.1493 96.8518C68.1493 96.8518 70.9751 98.1275 72.1604 98.2574C73.3061 98.3829 75.7086 97.681 75.7086 97.681C75.7086 97.681 75.8016 99.9379 75.7554 100.358L75.7547 100.357Z" fill="#22A7F0"/>
<g opacity="0.25">
<path d="M75.7547 100.357C75.6527 101.288 73.8776 101.858 71.7904 101.629C69.7033 101.4 68.094 100.46 68.1961 99.5285C68.2403 99.1263 68.1493 96.8518 68.1493 96.8518C68.1493 96.8518 70.9751 98.1275 72.1604 98.2574C73.3061 98.3829 75.7086 97.681 75.7086 97.681C75.7086 97.681 75.8016 99.9379 75.7554 100.358L75.7547 100.357Z" fill="#1A2645"/>
</g>
<path d="M72.7794 102.794C72.4225 102.794 72.0564 102.774 71.6865 102.734C70.4621 102.599 69.3223 102.253 68.4777 101.76C67.0804 100.943 66.9601 100.019 67.0121 99.541C67.0381 99.3025 67.0037 97.8787 66.9562 96.6972C66.9452 96.4243 67.0771 96.1656 67.3034 96.0129C67.5297 95.8602 67.819 95.8355 68.0681 95.9479C68.9068 96.3262 71.295 97.3308 72.2677 97.4374C73.0759 97.5258 74.916 97.1099 75.8855 96.8265C76.1183 96.7583 76.3699 96.8019 76.5662 96.9429C76.7633 97.0845 76.8842 97.3081 76.894 97.5505C76.9115 97.9774 76.996 100.131 76.9414 100.63C76.8887 101.108 76.5708 101.984 75.0298 102.479C74.3796 102.688 73.6046 102.795 72.7794 102.795V102.794ZM68.5752 97.8793C68.5967 98.6234 68.6103 99.4363 68.5798 99.7125C68.57 99.7996 68.7274 100.081 69.2735 100.4C69.9218 100.779 70.8639 101.059 71.8588 101.168C72.8523 101.276 73.8334 101.208 74.548 100.978C75.1508 100.785 75.3653 100.544 75.3744 100.458C75.3952 100.272 75.3822 99.4779 75.3543 98.5954C74.4076 98.8242 73.0005 99.101 72.0954 99.0035C71.1956 98.9048 69.6481 98.3212 68.5746 97.88L68.5752 97.8793Z" fill="#1A2645"/>
<path d="M75.708 97.6801C75.8102 96.749 74.2008 95.8086 72.1133 95.5798C70.0258 95.3509 68.2507 95.9202 68.1485 96.8514C68.0463 97.7825 69.6557 98.7229 71.7432 98.9517C73.8307 99.1806 75.6058 98.6113 75.708 97.6801Z" fill="#22A7F0"/>
<path d="M72.7222 99.832C72.3626 99.832 71.9978 99.8119 71.6357 99.7723C69.1681 99.5013 66.7708 98.3179 66.9613 96.5795C67.014 96.1013 67.332 95.2253 68.8736 94.7307C69.8047 94.4324 70.992 94.3408 72.2169 94.4753C74.6838 94.7463 77.0818 95.9297 76.8906 97.668C76.7281 99.151 74.8126 99.832 72.7215 99.832H72.7222ZM71.1285 95.9908C70.4659 95.9908 69.8476 96.0727 69.3554 96.2306C68.7527 96.4236 68.5381 96.6647 68.529 96.7511C68.4984 97.0292 69.5784 97.9611 71.808 98.2055C74.0382 98.4492 75.2937 97.774 75.3243 97.4958C75.3548 97.2177 74.2748 96.2858 72.0453 96.0415C71.7358 96.0077 71.4276 95.9908 71.1285 95.9908Z" fill="#1A2645"/>
<path d="M57.7688 92.7751L63.9145 93.152C65.1629 93.2287 66.3795 92.7355 67.2215 91.8108C68.0043 90.951 69.1142 90.461 70.2775 90.4617L76.7717 90.4649" fill="white"/>
<path d="M64.1733 94.2101C64.0653 94.2101 63.9581 94.2069 63.8495 94.2004L57.7037 93.8235C57.1244 93.7877 56.6836 93.2899 56.7193 92.7109C56.7551 92.1319 57.2531 91.6893 57.8325 91.727L63.9782 92.104C64.9132 92.1644 65.8124 91.7972 66.4431 91.1038C67.423 90.0283 68.819 89.4116 70.2742 89.4116H70.2767L76.771 89.4149C77.3516 89.4149 77.8217 89.8854 77.8211 90.4657C77.8211 91.0453 77.3503 91.5152 76.7703 91.5152L70.2761 91.5119H70.2748C69.41 91.5119 68.5804 91.8785 67.9984 92.5179C67.0095 93.6038 65.6297 94.2108 64.1733 94.2108V94.2101Z" fill="#1A2645"/>
<path d="M65.5336 116.81L58.5088 134.19L58.356 134.57C49.2173 128.817 54.2324 145.115 50.5125 150.761C47.5307 155.29 32.9778 165.889 21.5075 155.283C19.1954 153.147 18.7194 150.835 19.2741 148.591C20.8144 142.322 30.377 136.569 30.377 136.569C27.282 120.918 31.7203 106.485 43.937 104.346C59.7572 101.576 65.5329 116.81 65.5329 116.81H65.5336Z" fill="white"/>
<g opacity="0.25">
<path d="M58.5088 134.19L58.356 134.571C49.2173 128.817 54.2324 145.115 50.5125 150.762C47.5307 155.29 32.9778 165.889 21.5075 155.283C19.1954 153.147 18.7194 150.835 19.2741 148.591C21.1083 151.899 24.8463 155.377 32.4336 155.314C38.712 155.264 45.9169 150.831 47.7277 146.734C50.6569 140.106 47.0417 126.566 53.103 125.996C57.0757 125.621 56.9424 130.676 58.5075 134.191L58.5088 134.19Z" fill="#1A2645"/>
</g>
<path d="M65.0407 116.995C62.5751 112.296 58.7532 108.128 53.9241 106.236C51.521 105.278 48.8948 104.952 46.2933 105.154C45.6425 105.21 44.9916 105.28 44.3447 105.397C43.7009 105.505 43.0794 105.646 42.4643 105.829C41.2367 106.193 40.0669 106.719 38.987 107.392C36.8211 108.736 35.0669 110.705 33.7873 112.966C32.5025 115.231 31.6624 117.767 31.1513 120.371C30.6442 122.98 30.4634 125.666 30.5297 128.348C30.5974 131.032 30.9121 133.716 31.4277 136.363C31.5154 136.813 31.308 137.252 30.94 137.48L30.929 137.487C29.5921 138.313 28.2495 139.277 26.9965 140.281C25.7403 141.294 24.5407 142.375 23.4731 143.55C22.4145 144.727 21.4639 145.998 20.8352 147.361C20.2038 148.718 19.9392 150.166 20.2909 151.479C20.4672 152.135 20.774 152.76 21.2019 153.334C21.6232 153.92 22.1427 154.417 22.752 154.941C23.9438 155.957 25.2533 156.818 26.6617 157.452C28.0687 158.087 29.5707 158.491 31.1052 158.653C32.641 158.814 34.206 158.731 35.7444 158.454C38.8244 157.889 41.7913 156.578 44.4422 154.822C45.7647 153.943 47.0241 152.95 48.1269 151.845C48.6737 151.296 49.1913 150.707 49.5756 150.123C49.9358 149.581 50.1972 148.894 50.3935 148.171C50.7823 146.708 50.9273 145.096 51.0314 143.473C51.1341 141.843 51.1725 140.185 51.3162 138.483C51.3909 137.631 51.4891 136.768 51.6939 135.875C51.7986 135.428 51.9306 134.973 52.1315 134.507C52.3305 134.047 52.614 133.557 53.0626 133.134C53.51 132.711 54.1634 132.417 54.7635 132.382C55.3669 132.33 55.9014 132.453 56.3637 132.62C57.2837 132.98 58.0094 133.507 58.6336 134.127C58.8442 134.336 58.8455 134.676 58.6362 134.888C58.4886 135.036 58.2766 135.081 58.0906 135.021L58.0737 135.015C57.2915 134.764 56.5464 134.487 55.8702 134.383C55.5366 134.327 55.2336 134.329 55.0119 134.377C54.7857 134.427 54.655 134.513 54.4996 134.656C54.1862 134.954 53.9157 135.629 53.7642 136.346C53.6042 137.07 53.5178 137.859 53.456 138.658C53.3357 140.261 53.3116 141.919 53.2226 143.598C53.1276 145.279 53.0054 146.991 52.562 148.743C52.3305 149.616 52.0216 150.51 51.4735 151.36C50.9416 152.161 50.3493 152.815 49.7297 153.441C48.4871 154.681 47.1256 155.748 45.6886 156.702C42.8134 158.594 39.5962 160.038 36.1384 160.655C34.4134 160.958 32.6331 161.048 30.8691 160.854C29.1064 160.661 27.3684 160.185 25.7559 159.447C24.1415 158.713 22.659 157.725 21.3345 156.584C20.012 155.479 18.6895 153.933 18.2096 152.014C18.0919 151.539 18.0217 151.053 17.9977 150.566C17.9782 150.079 18.0107 149.596 18.0783 149.124C18.2213 148.179 18.523 147.291 18.9054 146.467C19.6791 144.818 20.7571 143.416 21.9145 142.135C23.0797 140.859 24.343 139.704 25.6642 138.633C26.9952 137.56 28.345 136.577 29.8256 135.654L29.3275 136.777C28.7794 134.025 28.438 131.225 28.3548 128.407C28.2735 125.59 28.4497 122.75 28.9809 119.953C29.5161 117.16 30.4107 114.395 31.8444 111.865C33.2671 109.343 35.2743 107.062 37.7977 105.492C39.0507 104.703 40.422 104.102 41.8381 103.698C42.5442 103.495 43.2686 103.337 43.9844 103.224C44.6945 103.103 45.4142 103.031 46.1353 102.976C49.019 102.775 51.9963 103.166 54.707 104.275C57.4248 105.367 59.815 107.155 61.7168 109.297C62.1908 109.835 62.6395 110.393 63.0621 110.968C63.4789 111.547 63.8697 112.142 64.2331 112.752C64.9516 113.984 65.5745 115.237 66.0225 116.624C66.1116 116.9 65.9601 117.195 65.6838 117.285C65.4367 117.365 65.1733 117.252 65.057 117.029L65.0394 116.996L65.0407 116.995Z" fill="#1A2645"/>
<path d="M53.6465 135.084C53.629 135.084 53.6121 135.084 53.5945 135.083C53.0145 135.055 52.5678 134.562 52.5958 133.982C53.0223 125.203 50.4124 118.324 44.8375 113.538C40.6522 109.945 36.2613 108.925 36.2171 108.915C35.6514 108.788 35.2958 108.226 35.4219 107.661C35.5487 107.095 36.1105 106.739 36.6742 106.865C36.8712 106.908 41.5501 107.98 46.1301 111.879C50.3552 115.476 55.2707 122.248 54.6946 134.084C54.6673 134.646 54.2031 135.084 53.6459 135.084H53.6465Z" fill="#1A2645"/>
</g>
<defs>
<clipPath id="clip0_10050_711">
<rect width="161" height="180.881" fill="white"/>
</clipPath>
</defs>
</svg>
