<svg width="161" height="241" viewBox="0 0 161 241" fill="none" xmlns="http://www.w3.org/2000/svg">
<g clip-path="url(#clip0_9907_879)">
<path fill-rule="evenodd" clip-rule="evenodd" d="M81.2852 163.981L89.1729 173.336L92.3456 177.101C104.056 169.577 108.219 160.29 107.97 152.063C107.851 148.079 106.701 144.343 104.871 141.174C98.9379 130.886 88.0637 125.845 83.4321 134.29C78.4417 143.395 85.0363 147.774 86.9345 150.595C89.6027 154.558 88.3042 161.725 81.2852 163.981Z" fill="white"/>
<path fill-rule="evenodd" clip-rule="evenodd" d="M92.4817 175.598C92.0163 174.638 91.5664 173.668 91.1025 172.698L91.0972 172.686C91.087 172.666 91.0763 172.647 91.0646 172.629C96.7636 170.23 100.727 166.05 103.446 161.828C104.035 161.678 104.594 161.502 105.113 161.303C103.093 166.202 99.1329 171.152 92.4817 175.598ZM104.962 159.247C105.607 158.041 106.155 156.862 106.621 155.751C106.491 156.707 106.293 157.676 106.025 158.648C105.735 158.855 105.378 159.056 104.962 159.247Z" fill="#B9AFBE"/>
<path fill-rule="evenodd" clip-rule="evenodd" d="M92.3467 178.283C91.9571 178.283 91.5755 178.092 91.3491 177.742C90.9937 177.194 91.1522 176.463 91.7026 176.109C108.91 165.053 108.997 150.697 103.843 141.763C100.25 135.534 94.62 131.207 90.1242 131.207C90.0988 131.207 90.0745 131.208 90.0491 131.208C87.6632 131.233 85.7866 132.462 84.4738 134.858C80.7492 141.649 84.0672 145.426 86.4907 148.182C87.0331 148.799 87.5456 149.382 87.9196 149.938C89.4896 152.27 89.8409 155.511 88.8357 158.396C87.722 161.592 85.1706 163.973 81.6508 165.104C81.0272 165.305 80.3592 164.963 80.1578 164.342C79.9568 163.722 80.2989 163.056 80.9225 162.855C83.7167 161.958 85.7309 160.099 86.5942 157.622C87.3605 155.423 87.1139 152.983 85.9498 151.253C85.6603 150.824 85.2184 150.321 84.7063 149.738C82.1504 146.831 77.8743 141.965 82.3917 133.725C84.1229 130.568 86.7626 128.881 90.0241 128.845C95.4306 128.791 101.815 133.505 105.9 140.586C109.119 146.164 109.998 152.665 108.376 158.892C106.468 166.213 101.148 172.852 92.9885 178.094C92.7901 178.222 92.5675 178.283 92.3471 178.283L92.3467 178.283Z" fill="#1A2645"/>
<path fill-rule="evenodd" clip-rule="evenodd" d="M98.6857 162.408C98.4903 162.408 98.2946 162.405 98.0992 162.4C93.6368 162.265 89.7764 160.647 87.2289 157.842C86.8651 157.442 86.8962 156.825 87.2979 156.463C87.6996 156.101 88.3194 156.132 88.6832 156.532C91.6332 159.779 95.8855 160.378 98.158 160.446C101.993 160.563 105.28 159.435 106.427 158.317C106.813 157.939 107.434 157.946 107.813 158.331C108.193 158.716 108.187 159.335 107.799 159.712C106.142 161.329 102.454 162.408 98.6853 162.408L98.6857 162.408Z" fill="#1A2645"/>
<path fill-rule="evenodd" clip-rule="evenodd" d="M34.6898 172.378C30.7353 178.058 32.1672 198.384 37.119 209.142C42.0707 219.9 62.1621 214.167 73.372 210.049C84.5811 205.931 76.014 180.429 73.5806 173.643C69.7805 163.048 40.5489 163.962 34.6894 172.378H34.6898Z" fill="white"/>
<path fill-rule="evenodd" clip-rule="evenodd" d="M49.8014 214.129C44.4795 214.129 40.0599 212.696 38.1974 208.649C37.7935 207.771 37.4126 206.823 37.0572 205.823C37.9152 206.71 38.9531 207.282 40.2086 207.376C40.4142 207.392 40.6141 207.399 40.8099 207.399C42.4102 207.399 43.6738 206.881 44.5709 205.855C46.4675 203.686 46.5901 199.603 44.9806 192.2C44.6851 190.84 43.5012 189.836 42.1015 189.757L41.5587 189.727C41.1236 178.164 43.6745 171.438 45.7225 167.958C46.0002 167.898 46.2809 167.84 46.565 167.786L46.4231 168.406C46.2494 169.166 46.0871 169.927 45.9645 170.697C45.8382 171.466 45.6869 172.23 45.5674 173L45.2362 175.313C44.4233 181.488 44.3752 187.805 45.4346 193.989C45.6819 195.436 45.9892 196.876 46.3583 198.299C46.304 198.827 46.3435 199.414 46.5601 200.019H46.5593C46.6982 200.405 46.8689 200.745 47.0574 201.045C47.0581 201.046 47.0589 201.048 47.0604 201.049C47.0604 201.05 47.0612 201.051 47.0619 201.051C47.1211 201.145 47.1807 201.233 47.2425 201.318C47.4356 201.907 47.6396 202.493 47.8551 203.075C48.9381 206.028 50.348 208.869 52.0664 211.528C52.594 212.337 53.1516 213.13 53.7426 213.9C52.393 214.047 51.0714 214.129 49.8014 214.129V214.129Z" fill="#B9AFBE"/>
<path fill-rule="evenodd" clip-rule="evenodd" d="M35.6651 173.051C32.0015 178.313 33.4217 198.275 38.1974 208.649C42.6724 218.372 61.8997 213.005 72.962 208.94C82.8139 205.321 75.071 181.312 72.4639 174.04C71.2672 170.704 66.749 168.286 60.0671 167.405C49.9027 166.063 38.7285 168.65 35.6647 173.052L35.6651 173.051ZM49.8041 216.503C43.5057 216.503 38.356 214.664 36.0413 209.634C30.804 198.257 29.5435 177.697 33.7157 171.705C37.7165 165.958 50.6712 163.782 60.3786 165.062C68.085 166.078 73.1695 168.985 74.6974 173.246C79.1443 185.645 84.9377 207.058 73.7828 211.157C66.0116 214.012 57.13 216.503 49.8041 216.503V216.503Z" fill="#1A2645"/>
<path fill-rule="evenodd" clip-rule="evenodd" d="M42.0635 190.738L36.3675 190.409C35.0801 190.334 34.015 191.399 34.1026 192.68C34.403 197.089 35.5873 206.041 40.2636 206.403C45.9307 206.843 45.784 200.549 44.0349 192.416C43.8342 191.479 43.0236 190.794 42.0631 190.739L42.0635 190.738Z" fill="white"/>
<path fill-rule="evenodd" clip-rule="evenodd" d="M40.8083 205.446C40.6634 205.446 40.5128 205.44 40.3562 205.429C39.008 205.327 37.8469 204.134 36.9471 202.03C37.2753 202.16 37.625 202.242 37.9967 202.269C38.1784 202.283 38.3537 202.29 38.5232 202.29C42.8517 202.29 43.382 197.91 42.4087 191.811C42.7361 191.959 42.9849 192.253 43.0642 192.614C43.5801 194.99 45.1516 202.218 43.0922 204.572C42.579 205.159 41.8295 205.446 40.8087 205.446L40.8083 205.446Z" fill="#B9AFBE"/>
<path fill-rule="evenodd" clip-rule="evenodd" d="M36.2272 191.39C35.9139 191.39 35.6214 191.512 35.3988 191.737C35.1621 191.976 35.0452 192.292 35.0684 192.626C35.6184 200.435 37.5947 205.221 40.3562 205.429C41.6114 205.521 42.5055 205.243 43.0919 204.572C45.1513 202.217 43.5797 194.989 43.0638 192.614C42.9546 192.11 42.5138 191.738 41.9919 191.708L36.2955 191.393C36.2731 191.391 36.2496 191.39 36.2272 191.39ZM40.8099 207.399C40.6145 207.399 40.4142 207.392 40.2086 207.376C34.9007 206.977 33.4836 198.049 33.1122 192.762C33.0496 191.874 33.3736 191 34.0025 190.365C34.6325 189.729 35.5042 189.392 36.4048 189.442L42.1011 189.758C43.5012 189.836 44.6847 190.84 44.9802 192.201C46.5897 199.604 46.4672 203.687 44.5705 205.855C43.673 206.881 42.4095 207.4 40.8095 207.4L40.8099 207.399Z" fill="#1A2645"/>
<path fill-rule="evenodd" clip-rule="evenodd" d="M33.8841 173.116C34.5908 173.189 35.2694 173.275 35.9583 173.369C36.6433 173.462 37.3273 173.564 38.0085 173.675C39.3707 173.899 40.7264 174.159 42.0537 174.497C40.6854 174.549 39.332 174.68 37.9846 174.847C37.3113 174.932 36.6388 175.025 35.9697 175.127C35.3036 175.229 34.6268 175.338 33.9786 175.458C33.3333 175.579 32.712 175.155 32.591 174.512C32.4707 173.869 32.8967 173.25 33.542 173.13C33.6554 173.109 33.7677 173.105 33.8769 173.115L33.8849 173.116H33.8841Z" fill="#1A2645"/>
<path fill-rule="evenodd" clip-rule="evenodd" d="M85.1782 166.634L82.4205 158.443C83.1666 161.333 84.113 164.07 85.1782 166.634Z" fill="white"/>
<path fill-rule="evenodd" clip-rule="evenodd" d="M115.772 219.634C115.772 219.634 110.226 215.788 104.159 213.241C100.181 211.57 95.9807 210.459 92.9711 211.353C92.9711 211.353 69.2108 226.758 55.5023 196.884C51.1541 187.408 49.9285 180.215 50.7266 174.759C50.8381 173.992 50.9902 173.262 51.1803 172.563C51.3771 171.824 51.6199 171.123 51.8987 170.457C52.6627 168.622 53.7115 167.053 54.9671 165.712C55.9211 164.696 56.9946 163.811 58.1527 163.039C68.8933 155.905 87.1386 158.615 87.1386 158.615C87.3332 159.971 87.5566 161.283 87.8073 162.551C88.2788 164.957 88.8406 167.202 89.465 169.292C89.6452 169.895 89.8288 170.482 90.0188 171.057C92.2473 177.837 95.0923 182.838 97.4418 186.198C99.9682 189.814 101.923 191.537 101.923 191.537C118.407 188.146 121.967 201.923 121.967 201.923C121.967 201.923 133.652 194.019 133.804 204.96C133.919 213.055 122.352 223.703 115.771 219.633L115.772 219.634Z" fill="white"/>
<path fill-rule="evenodd" clip-rule="evenodd" d="M117.86 219.426C117.465 219.338 117.085 219.2 116.728 219.037L116.355 218.839C116.318 218.822 116.301 218.811 116.27 218.788L116.157 218.711L115.932 218.56L115.033 217.971C114.431 217.585 113.825 217.207 113.215 216.836C111.993 216.097 110.753 215.388 109.491 214.714C108.098 213.973 106.68 213.269 105.225 212.634C104.976 211.616 104.606 210.643 104.169 209.716C103.343 207.984 102.27 206.383 100.957 204.973C100.376 204.354 99.7477 203.77 99.0699 203.239C108.101 203.678 112.069 213.877 116.622 215.958C117.121 216.185 117.643 216.344 118.184 216.441C118.022 216.966 117.906 217.459 117.844 217.909V217.909C117.843 217.914 117.842 217.919 117.842 217.924V217.925C117.84 217.935 117.839 217.945 117.838 217.954C117.838 217.955 117.838 217.955 117.838 217.956C117.837 217.96 117.836 217.965 117.836 217.969C117.836 217.974 117.835 217.98 117.834 217.984C117.803 218.231 117.788 218.46 117.788 218.674C117.788 218.951 117.814 219.201 117.86 219.427V219.426Z" fill="#B9AFBE"/>
<path fill-rule="evenodd" clip-rule="evenodd" d="M91.1025 172.698C91.8908 174.346 92.6399 175.997 93.49 177.595L94.1182 178.796C94.3298 179.195 94.5627 179.582 94.7767 179.978C95.2004 180.775 95.6867 181.534 96.1358 182.314C97.0845 183.843 98.0912 185.33 99.1541 186.77C99.6863 187.489 100.244 188.189 100.819 188.867C101.099 189.213 101.394 189.544 101.688 189.873C101.981 190.192 102.297 190.532 102.572 190.804L101.724 190.58V190.579C103.834 190.145 106.018 189.935 108.211 190.075C110.4 190.202 112.604 190.731 114.606 191.717C116.617 192.685 118.379 194.139 119.78 195.846C120.483 196.7 121.097 197.62 121.619 198.589C121.885 199.071 122.121 199.568 122.339 200.076C122.449 200.329 122.55 200.586 122.646 200.849C122.744 201.118 122.827 201.36 122.916 201.679L121.415 201.114C122.689 200.29 123.965 199.625 125.363 199.071C126.058 198.799 126.779 198.566 127.536 198.404C128.292 198.243 129.088 198.148 129.922 198.209C130.749 198.269 131.638 198.513 132.391 199.032C133.149 199.544 133.695 200.295 134.034 201.052C134.381 201.813 134.572 202.595 134.665 203.356L134.735 203.929L134.764 204.494C134.793 204.866 134.779 205.257 134.765 205.649C134.673 207.205 134.232 208.677 133.649 210.052C133.046 211.419 132.279 212.693 131.403 213.878C130.527 215.064 129.535 216.159 128.442 217.148C127.35 218.138 126.161 219.032 124.862 219.775C123.554 220.498 122.142 221.106 120.595 221.365C119.828 221.512 119.019 221.526 118.216 221.457C117.406 221.381 116.611 221.14 115.859 220.788L115.299 220.485C115.256 220.463 115.198 220.427 115.158 220.398L115.053 220.326L114.839 220.182L113.968 219.611C113.383 219.235 112.791 218.867 112.195 218.505C111.002 217.784 109.792 217.092 108.564 216.436C106.109 215.13 103.581 213.951 100.979 213.088C99.6799 212.662 98.3598 212.318 97.0432 212.136C95.7299 211.946 94.4159 211.971 93.2525 212.289L93.2123 212.3C92.6904 212.443 92.151 212.138 92.0076 211.617C91.8642 211.098 92.1688 210.561 92.6911 210.418C94.2566 209.986 95.8293 209.992 97.3056 210.2C98.7896 210.405 100.213 210.78 101.595 211.233C104.357 212.15 106.964 213.371 109.491 214.714C110.753 215.388 111.993 216.097 113.215 216.836C113.825 217.207 114.431 217.584 115.033 217.971L115.932 218.56L116.157 218.711L116.27 218.788C116.301 218.811 116.318 218.821 116.355 218.839L116.728 219.036C117.253 219.276 117.824 219.461 118.424 219.514C119.025 219.562 119.644 219.561 120.265 219.439C121.51 219.234 122.737 218.716 123.892 218.077C126.189 216.746 128.229 214.875 129.826 212.717C130.624 211.638 131.316 210.483 131.849 209.274C132.365 208.063 132.734 206.794 132.807 205.537C132.817 205.225 132.832 204.913 132.805 204.583L132.782 204.094L132.721 203.62C132.647 202.986 132.489 202.387 132.253 201.869C132.018 201.346 131.694 200.921 131.279 200.641C130.864 200.357 130.348 200.2 129.771 200.158C128.611 200.075 127.309 200.41 126.078 200.89C124.849 201.372 123.611 202.023 122.517 202.731L121.38 203.468L121.016 202.166C120.966 201.984 120.883 201.734 120.802 201.515C120.72 201.289 120.63 201.062 120.533 200.838C120.341 200.39 120.131 199.946 119.893 199.517C119.429 198.654 118.88 197.835 118.26 197.081C117.02 195.575 115.49 194.312 113.737 193.469C111.994 192.61 110.059 192.139 108.084 192.024C106.109 191.898 104.097 192.085 102.121 192.493L101.649 192.593L101.273 192.268C100.87 191.922 100.545 191.606 100.208 191.258C99.8782 190.915 99.5501 190.572 99.2406 190.217C98.9227 189.867 98.6253 189.502 98.3321 189.134C98.0321 188.771 97.7517 188.396 97.468 188.021C96.3357 186.524 95.3381 184.937 94.4133 183.316C93.9695 182.495 93.5181 181.679 93.1239 180.834C92.7067 180.002 92.3391 179.147 91.9814 178.289C91.7993 177.862 91.6324 177.428 91.4758 176.991L90.994 175.686C90.8336 175.251 90.7156 174.801 90.5745 174.36C90.4372 173.917 90.3044 173.474 90.1789 173.029C90.106 172.769 90.2581 172.498 90.5195 172.426C90.7539 172.36 90.9959 172.475 91.0964 172.686L91.1018 172.699L91.1025 172.698Z" fill="#1A2645"/>
<path fill-rule="evenodd" clip-rule="evenodd" d="M112.713 233.287C110.662 238.424 103.466 241.654 97.1536 238.73C92.9814 236.798 90.4596 233.33 89.0409 230.405C87.384 226.984 86.2494 223.481 83.222 221.886C81.894 221.187 80.1442 221.682 77.825 222.177C74.1182 222.97 68.9567 223.762 61.74 219.672C58.0814 217.602 53.8265 213.17 50.6333 206.608C49.6027 204.492 48.6832 202.156 47.931 199.603C46.3022 194.089 45.4487 187.572 45.9304 180.13C46.1413 176.901 46.6045 173.495 47.3647 169.923C47.7152 168.265 48.1324 166.571 48.6191 164.842C49.2715 162.519 50.0454 160.129 50.9576 157.679L53.9501 163.675L54.9679 165.711L55.7 167.176L60.2796 176.35L67.2793 190.372L75.4504 206.738L76.0167 207.873C76.8755 207.007 77.8045 206.215 78.7904 205.51C81.7939 203.363 85.3246 202.012 89.0292 201.715C89.1084 201.708 89.1843 201.702 89.2628 201.697C90.9971 201.58 92.7928 201.686 94.5025 202.183C99.3753 203.599 103.188 208.776 104.16 213.241C104.436 214.498 104.486 215.696 104.271 216.739C103.884 218.611 103.493 220.673 103.493 220.673C104.866 221.357 115.056 227.421 112.713 233.287L112.713 233.287Z" fill="white"/>
<path fill-rule="evenodd" clip-rule="evenodd" d="M75.4496 206.739L74.3701 204.577C74.8237 204.571 75.2774 204.506 75.7212 204.381C75.8555 204.343 75.9886 204.299 76.1214 204.25L89.6911 199.221C89.8159 199.717 89.916 200.114 89.9888 200.401C89.196 200.424 88.4105 200.506 87.6309 200.628C86.6845 200.765 85.7537 200.991 84.8448 201.274C81.7897 202.211 78.98 203.925 76.8664 206.223L75.6787 206.664C75.6029 206.692 75.5274 206.718 75.45 206.739L75.4496 206.739ZM92.3342 200.491C91.7189 200.424 91.1048 200.395 90.4937 200.394C90.4713 200.394 90.4478 200.394 90.4254 200.394C90.2798 200.394 90.1345 200.396 89.9896 200.4C89.9175 200.113 89.8166 199.716 89.6918 199.22L94.4846 197.443C94.5491 197.419 94.6132 197.394 94.6762 197.368C94.7297 197.346 94.7824 197.323 94.8344 197.299C95.6249 196.94 96.2857 196.402 96.7875 195.752C96.8535 197.516 95.7876 199.21 94.0423 199.857L92.3342 200.49V200.491ZM97.8663 192.373C97.8447 191.843 97.74 191.308 97.5443 190.784L97.5056 190.68C97.9809 190.405 98.3966 190.051 98.7395 189.642C98.8321 190.647 98.5028 191.63 97.8663 192.373V192.373Z" fill="#B9AFBE"/>
<path fill-rule="evenodd" clip-rule="evenodd" d="M102.187 238.655C101.495 238.655 100.804 238.589 100.127 238.456C99.7808 238.417 99.4542 238.293 99.1192 238.206C98.7801 238.129 98.4615 237.992 98.1394 237.861L97.6554 237.67L97.1797 237.432C96.8577 237.282 96.5584 237.089 96.2489 236.918C93.8196 235.442 91.868 233.213 90.499 230.665C89.8212 229.402 89.2309 227.968 88.5451 226.556C87.8608 225.143 87.0627 223.666 85.831 222.401C85.2089 221.771 84.5087 221.228 83.6677 220.801C83.1704 220.546 82.636 220.441 82.1451 220.393C81.9729 220.375 81.8052 220.369 81.6433 220.369C81.336 220.369 81.0443 220.394 80.759 220.421C79.8972 220.522 79.1215 220.698 78.367 220.861C77.6129 221.026 76.8816 221.185 76.1533 221.311C74.9773 221.527 73.7984 221.639 72.6255 221.639C70.9106 221.639 69.2085 221.401 67.5486 220.903C66.1523 220.499 64.7913 219.942 63.4773 219.272C63.1484 219.105 62.8256 218.923 62.4998 218.75C62.1724 218.575 61.8853 218.379 61.5761 218.196C61.2745 218.004 60.9844 217.785 60.6873 217.581C60.3956 217.369 60.1165 217.133 59.8301 216.911C57.586 215.043 55.6601 212.743 54.0419 210.253C52.6164 208.046 51.4064 205.692 50.4341 203.237C51.0043 203.321 51.9241 203.417 53.1729 203.417C55.2724 203.417 58.3048 203.148 62.1823 202.107C64.1984 201.565 66.4429 200.814 68.9036 199.784L69.4335 201.203C69.9057 202.466 70.8366 203.478 72.0607 204.062C72.0895 204.075 72.1172 204.089 72.146 204.101C72.8395 204.418 73.5765 204.576 74.3147 204.576C74.3332 204.576 74.3511 204.576 74.3697 204.576L75.4496 206.738C75.0407 206.864 74.6242 206.924 74.213 206.924C72.5019 206.925 70.8848 205.878 70.2524 204.19L69.7066 202.729C64.0808 205.189 59.5311 206.203 56.1953 206.568C58.7372 210.153 61.5351 212.693 64.052 214.118C68.3607 216.56 71.9382 217.261 74.9091 217.261C76.9142 217.261 78.6432 216.943 80.1362 216.623C81.6292 216.304 82.8867 215.985 83.9469 215.985C84.5333 215.985 85.0591 216.083 85.5317 216.331C88.5614 217.926 89.6964 221.43 91.3525 224.851C92.7712 227.776 95.2937 231.244 99.4652 233.175C101.113 233.939 102.822 234.282 104.484 234.282C107.236 234.282 109.859 233.338 111.865 231.794C111.85 231.973 111.822 232.15 111.78 232.324C111.712 232.606 111.619 232.875 111.461 233.184L111.25 233.635C111.168 233.779 111.073 233.918 110.986 234.061C109.558 236.341 106.986 237.934 104.264 238.455C103.579 238.588 102.883 238.654 102.187 238.654V238.655ZM51.2008 196.952C50.2202 196.853 49.2514 196.664 48.3084 196.366C48.0982 195.448 47.9135 194.524 47.7553 193.596C46.7406 187.68 46.7835 181.599 47.5691 175.624L47.9253 173.39C48.0485 172.646 48.2185 171.91 48.3698 171.171C48.4908 170.55 48.6422 169.936 48.7924 169.322C47.2038 180.409 48.5318 189.689 51.2008 196.952V196.952ZM66.3761 193.454C66.3583 193.288 66.3495 193.122 66.3518 192.956L66.5123 193.386C66.4675 193.408 66.4224 193.431 66.3757 193.454H66.3761Z" fill="#B9AFBE"/>
<path fill-rule="evenodd" clip-rule="evenodd" d="M75.7368 207.599C77.9171 204.607 81.2074 202.389 84.8448 201.274C85.754 200.992 86.6845 200.765 87.631 200.629C88.5766 200.481 89.5299 200.391 90.4941 200.394C91.4584 200.395 92.4325 200.469 93.4013 200.642C93.8853 200.729 94.3678 200.838 94.8439 200.981C95.3154 201.156 95.7979 201.314 96.2557 201.514C98.081 202.344 99.6408 203.572 100.957 204.973C102.27 206.383 103.343 207.984 104.169 209.716C104.985 211.449 105.568 213.337 105.566 215.392C105.594 215.898 105.491 216.43 105.426 216.95L105.168 218.266L104.65 220.89L104.021 219.625C104.429 219.834 104.76 220.03 105.109 220.24C105.453 220.447 105.788 220.663 106.122 220.881C106.786 221.321 107.435 221.783 108.068 222.271C109.33 223.248 110.542 224.314 111.615 225.566C112.673 226.817 113.656 228.263 114.073 230.063C114.275 230.955 114.296 231.935 114.073 232.864C113.963 233.326 113.794 233.783 113.603 234.158L113.324 234.748C113.218 234.936 113.098 235.117 112.985 235.301C112.066 236.768 110.807 237.974 109.387 238.889C107.964 239.804 106.37 240.435 104.715 240.756C103.06 241.078 101.338 241.083 99.6772 240.757C98.0158 240.431 96.4264 239.768 95.0218 238.917C92.1791 237.189 89.9566 234.622 88.4272 231.775C87.6571 230.332 87.0828 228.921 86.4266 227.574C85.7829 226.233 85.0732 224.981 84.1506 224.04C83.6985 223.576 83.1602 223.175 82.6303 222.905C82.2548 222.713 81.6877 222.675 81.0178 222.75C79.6704 222.916 78.1315 223.357 76.5614 223.619C74.9853 223.896 73.3447 224.044 71.7087 223.964C70.0719 223.894 68.4495 223.607 66.8909 223.153C65.3303 222.702 63.8324 222.086 62.4076 221.359C62.0503 221.178 61.7032 220.982 61.3504 220.794C60.9999 220.606 60.6468 220.372 60.2963 220.162C59.9503 219.941 59.6245 219.698 59.2888 219.466C58.9599 219.225 58.6504 218.967 58.331 218.717C55.8472 216.649 53.7935 214.179 52.0675 211.528C50.3496 208.869 48.9392 206.029 47.8563 203.075C46.7634 200.126 45.963 197.078 45.4354 193.988C44.3759 187.805 44.4241 181.488 45.237 175.312L45.5682 173C45.6876 172.229 45.8386 171.466 45.9653 170.697C46.0878 169.927 46.2498 169.166 46.4235 168.406L46.6841 167.269C46.768 166.888 46.8662 166.511 46.9812 166.139C47.1936 165.39 47.4234 164.647 47.6552 163.905C47.898 163.166 48.1779 162.439 48.4727 161.719C48.6233 161.359 48.7598 160.996 48.9218 160.642C49.0894 160.289 49.2537 159.936 49.4369 159.59C49.7908 158.894 50.1683 158.208 50.5904 157.543C50.7084 157.357 50.9565 157.301 51.1435 157.419C51.2801 157.505 51.3468 157.658 51.3275 157.808L51.3267 157.815C50.9227 160.917 50.0909 163.816 49.4054 166.762C49.2078 167.492 49.0648 168.233 48.8804 168.965C48.7022 169.698 48.5144 170.43 48.371 171.171C48.2197 171.909 48.0497 172.646 47.9264 173.39L47.5706 175.624C46.7847 181.598 46.7422 187.679 47.7569 193.595C48.2618 196.551 49.0257 199.458 50.0643 202.261C51.0931 205.068 52.4302 207.756 54.0435 210.253C55.6617 212.743 57.5875 215.043 59.8316 216.911C60.118 217.133 60.3972 217.369 60.6889 217.581C60.9859 217.785 61.2761 218.004 61.5776 218.196C61.8872 218.379 62.1743 218.575 62.5013 218.749C62.8272 218.922 63.1496 219.106 63.4788 219.271C64.7928 219.942 66.1542 220.499 67.5501 220.903C70.3458 221.741 73.2575 221.844 76.1548 221.311C76.8831 221.185 77.6144 221.026 78.3685 220.861C79.1234 220.698 79.8988 220.521 80.7606 220.421C81.1964 220.379 81.6478 220.343 82.1466 220.393C82.6379 220.441 83.172 220.546 83.6693 220.801C84.5102 221.228 85.2105 221.77 85.8326 222.401C87.0642 223.665 87.8623 225.143 88.5466 226.556C89.2325 227.968 89.8227 229.402 90.5006 230.665C91.8696 233.213 93.8212 235.442 96.2504 236.918C96.5599 237.089 96.8592 237.282 97.1813 237.432L97.6569 237.669L98.141 237.861C98.463 237.992 98.7816 238.129 99.1208 238.206C99.4557 238.293 99.7823 238.416 100.128 238.456C101.487 238.723 102.9 238.721 104.266 238.456C106.988 237.935 109.559 236.342 110.988 234.062C111.074 233.919 111.17 233.78 111.251 233.636L111.462 233.185C111.62 232.876 111.713 232.607 111.782 232.325C111.917 231.761 111.909 231.171 111.775 230.57C111.505 229.363 110.746 228.164 109.825 227.089C108.899 226.006 107.794 225.027 106.628 224.125C106.043 223.674 105.439 223.244 104.822 222.835C104.512 222.633 104.2 222.432 103.886 222.243C103.577 222.056 103.245 221.863 102.968 221.721L102.17 221.311L102.338 220.455L102.86 217.808L103.119 216.487C103.152 216.118 103.24 215.767 103.212 215.374C103.242 214.613 103.074 213.811 102.9 213.025C102.773 212.636 102.671 212.24 102.523 211.854C102.358 211.474 102.237 211.078 102.038 210.71C101.33 209.206 100.364 207.805 99.2175 206.603C98.0742 205.401 96.7276 204.404 95.2607 203.777C93.8212 203.159 92.159 202.907 90.4998 202.914C88.8281 202.932 87.1397 203.133 85.5067 203.569C82.2248 204.426 79.1678 206.046 76.2963 208.149L76.2948 208.15C76.118 208.279 75.8695 208.242 75.7394 208.066C75.6347 207.924 75.6393 207.736 75.7379 207.6L75.7368 207.599Z" fill="#1A2645"/>
<path fill-rule="evenodd" clip-rule="evenodd" d="M84.3619 223.619C83.981 223.619 83.6188 223.397 83.4599 223.025C80.7526 216.708 83.5831 210.098 87.5896 206.35C91.2292 202.944 95.7193 201.946 99.3093 203.742C99.7933 203.984 99.9879 204.571 99.7451 205.053C99.5016 205.535 98.9121 205.729 98.4281 205.488C95.5513 204.048 92.0015 204.902 88.9324 207.774C85.5382 210.95 82.9421 216.838 85.2643 222.259C85.4767 222.755 85.245 223.329 84.7469 223.541C84.6213 223.594 84.4909 223.619 84.3623 223.619L84.3619 223.619Z" fill="#1A2645"/>
<path fill-rule="evenodd" clip-rule="evenodd" d="M104.234 221.164C103.59 221.958 102.93 222.625 102.207 223.279C101.489 223.922 100.722 224.515 99.895 225.017C99.0718 225.519 98.1838 225.934 97.2469 226.164C96.3137 226.4 95.3286 226.418 94.4243 226.184C95.3575 226.271 96.2781 226.099 97.1073 225.742C97.9403 225.392 98.6921 224.881 99.3745 224.299C100.059 223.717 100.676 223.058 101.242 222.362C101.8 221.671 102.336 220.911 102.753 220.182L102.763 220.165C103.007 219.739 103.552 219.59 103.981 219.833C104.41 220.076 104.559 220.619 104.315 221.046C104.291 221.086 104.263 221.128 104.234 221.164Z" fill="#1A2645"/>
<path fill-rule="evenodd" clip-rule="evenodd" d="M107.444 215.731C107.112 215.731 106.79 215.564 106.604 215.263C103.386 209.992 102.384 205.032 103.625 200.52C105.405 194.051 111.137 190.947 111.38 190.818C111.859 190.564 112.452 190.745 112.707 191.22C112.962 191.696 112.781 192.287 112.304 192.541C112.252 192.569 107.055 195.405 105.511 201.057C104.427 205.025 105.358 209.463 108.28 214.248C108.562 214.708 108.415 215.309 107.952 215.589C107.793 215.686 107.617 215.731 107.444 215.731Z" fill="#1A2645"/>
<path fill-rule="evenodd" clip-rule="evenodd" d="M98.6917 185.565C99.2914 187.515 98.1899 189.579 96.2321 190.175C94.2744 190.772 92.2018 189.675 91.6028 187.725C91.0043 185.776 92.1055 183.712 94.0632 183.115C96.0209 182.519 98.0927 183.616 98.6917 185.565Z" fill="white"/>
<path fill-rule="evenodd" clip-rule="evenodd" d="M96.8038 188.802L96.0652 186.827C96.6991 186.466 97.1975 185.931 97.5188 185.306C97.6152 185.475 97.6948 185.657 97.754 185.851C98.0962 186.964 97.6812 188.132 96.8038 188.802Z" fill="#B9AFBE"/>
<path fill-rule="evenodd" clip-rule="evenodd" d="M95.1462 183.93C94.8825 183.93 94.6147 183.968 94.3504 184.049C92.9131 184.487 92.1009 186.008 92.5406 187.439C92.9806 188.87 94.5085 189.679 95.945 189.241C97.3823 188.804 98.1937 187.282 97.7541 185.851C97.3956 184.684 96.313 183.93 95.1462 183.93ZM95.15 191.314C93.1433 191.314 91.2816 190.019 90.6652 188.011C89.9088 185.549 91.3051 182.934 93.7764 182.181C96.2477 181.428 98.8742 182.818 99.6302 185.28C100.386 187.741 98.9903 190.356 96.519 191.109C96.0638 191.248 95.6029 191.314 95.15 191.314Z" fill="#1A2645"/>
<path fill-rule="evenodd" clip-rule="evenodd" d="M94.1425 196.528L75.7778 203.334C73.6042 204.141 71.1625 203.029 70.3519 200.862L66.7149 191.129C66.0059 189.231 66.7744 187.132 68.4378 186.098C68.673 185.949 68.9271 185.826 69.1979 185.724L87.5604 178.919C89.7362 178.112 92.1787 179.223 92.9863 181.392L95.8688 189.1L96.6259 191.124C97.4366 193.291 96.3164 195.722 94.1429 196.528H94.1425Z" fill="white"/>
<path fill-rule="evenodd" clip-rule="evenodd" d="M78.9883 200.811C78.5282 200.811 78.0685 200.711 77.6357 200.514C76.8451 200.153 76.2458 199.513 75.9461 198.71L73.5306 192.246C74.0229 193.043 74.5411 193.763 75.1135 194.38C75.4898 195.052 76.0102 195.61 76.6244 195.99C77.1797 196.333 77.7684 196.508 78.3465 196.508C78.4201 196.508 78.4941 196.505 78.5677 196.499C79.1495 196.644 79.7815 196.721 80.4742 196.721C82.0962 196.721 84.0486 196.302 86.4615 195.358L87.3514 197.922L80.1081 200.608C79.7451 200.744 79.3665 200.811 78.988 200.811H78.9883ZM88.8224 197.377L87.9128 194.753C87.9647 194.73 88.0175 194.706 88.0702 194.683C91.4909 193.151 93.6952 191.315 95.1169 189.889L95.7064 191.465C96.2447 192.907 95.6776 194.494 94.4319 195.298L88.8224 197.378V197.377Z" fill="#B9AFBE"/>
<path fill-rule="evenodd" clip-rule="evenodd" d="M89.0295 179.63C88.6547 179.63 88.2739 179.695 87.9033 179.833L69.5401 186.64C68.7333 186.939 68.0903 187.536 67.7296 188.323C67.3681 189.11 67.3339 189.985 67.634 190.788L71.2717 200.522C71.5718 201.325 72.1722 201.966 72.962 202.326C73.7517 202.685 74.6303 202.719 75.4371 202.42L93.8003 195.613C95.4743 194.992 96.3289 193.132 95.7061 191.465L92.0676 181.731C91.5835 180.434 90.3439 179.63 89.0291 179.63H89.0295ZM74.315 204.576C73.5765 204.576 72.8398 204.417 72.1461 204.101C70.8802 203.524 69.9168 202.495 69.4335 201.203L65.7957 191.47C65.3132 190.177 65.366 188.771 65.9456 187.51C66.5252 186.249 67.5581 185.29 68.8558 184.809L87.219 178.002C89.9065 177.007 92.9062 178.373 93.9069 181.049L97.5446 190.783C98.5446 193.459 97.1722 196.447 94.4846 197.443L76.1214 204.25C75.535 204.468 74.9239 204.576 74.315 204.576Z" fill="#1A2645"/>
<path fill-rule="evenodd" clip-rule="evenodd" d="M94.8529 196.183C94.6333 196.32 94.3977 196.435 94.1424 196.528L75.7777 203.334C74.1845 203.924 72.4483 203.486 71.3153 202.353C70.9026 201.942 70.5692 201.439 70.3541 200.861L68.737 196.538L68.2033 195.111L66.7148 191.129C65.9042 188.961 67.0243 186.531 69.1979 185.724L73.1672 184.255C71.4663 185.276 70.6735 187.399 71.3885 189.315L73.3519 194.573L75.0266 199.051C75.8357 201.215 78.279 202.33 80.4525 201.524L94.8537 196.183H94.8529Z" fill="white"/>
<path fill-rule="evenodd" clip-rule="evenodd" d="M74.3151 202.622C73.8557 202.622 73.396 202.523 72.9631 202.326C72.1726 201.966 71.5733 201.325 71.2729 200.522L70.7035 198.998C70.7919 198.958 70.8803 198.917 70.9686 198.877C70.9686 198.877 71.3946 197.841 71.3798 196.598C71.4917 196.585 71.6048 196.564 71.7182 196.534C72.1271 196.428 72.4674 196.149 72.7507 195.759L74.1072 199.39C74.5332 200.531 75.3328 201.466 76.3854 202.068L75.436 202.419C75.0722 202.555 74.6936 202.622 74.3151 202.622V202.622Z" fill="#B9AFBE"/>
<path fill-rule="evenodd" clip-rule="evenodd" d="M70.3753 186.33L69.5401 186.639C68.734 186.938 68.091 187.536 67.7295 188.323C67.368 189.11 67.3346 189.984 67.6351 190.787L71.2728 200.522C71.5729 201.325 72.1726 201.966 72.9631 202.326C73.7521 202.686 74.6306 202.719 75.4359 202.42L76.3854 202.068C75.3328 201.467 74.5331 200.531 74.1071 199.39L70.4702 189.657C70.0582 188.557 70.0476 187.39 70.3757 186.33H70.3753ZM74.315 204.576C73.5765 204.576 72.8398 204.418 72.146 204.101C70.8795 203.524 69.916 202.495 69.4342 201.202L65.7965 191.469C65.3132 190.177 65.3659 188.771 65.9452 187.51C66.5248 186.249 67.5577 185.29 68.8554 184.808L72.822 183.338L73.6713 185.09C72.3387 185.892 71.7656 187.525 72.3076 188.976L75.9454 198.71C76.2447 199.513 76.8444 200.153 77.6349 200.514C78.4246 200.874 79.3024 200.908 80.1077 200.608L94.5111 195.267L95.3699 197.014C95.0885 197.187 94.7888 197.332 94.4793 197.445L76.1191 204.25C75.5334 204.468 74.9231 204.576 74.3143 204.576H74.315Z" fill="#1A2645"/>
<path fill-rule="evenodd" clip-rule="evenodd" d="M80.4776 191.579C80.6103 191.94 81.1702 195.036 81.1702 195.036C81.1702 195.036 80.2439 195.373 79.107 195.788C77.6861 196.305 75.9966 195.26 75.3327 193.452C74.6697 191.645 75.2831 189.761 76.704 189.243C77.6626 188.894 78.7672 188.492 78.7672 188.492C78.7672 188.492 80.2617 190.991 80.4776 191.579Z" fill="#22A7F0"/>
<path fill-rule="evenodd" clip-rule="evenodd" d="M78.3499 195.334C77.9884 195.334 77.6099 195.219 77.2461 194.994C76.6449 194.621 76.1608 194.003 75.8854 193.251C75.6093 192.499 75.5774 191.715 75.7963 191.045C75.9981 190.425 76.3918 189.98 76.9055 189.793L77.5408 189.562C77.0663 190.401 76.9794 191.565 77.3959 192.7C77.4308 192.796 77.4687 192.89 77.5093 192.98C77.9509 193.972 78.7099 194.699 79.5391 195.006L78.9045 195.237C78.7277 195.302 78.5407 195.334 78.3499 195.334Z" fill="#2976B4"/>
<path fill-rule="evenodd" clip-rule="evenodd" d="M78.5096 189.209L76.9055 189.793C76.3919 189.98 75.9981 190.425 75.7963 191.045C75.5778 191.715 75.6093 192.499 75.8855 193.251C76.1608 194.003 76.6449 194.622 77.2461 194.994C77.8022 195.338 78.3917 195.424 78.9045 195.237L80.5022 194.655C80.2572 193.323 79.9943 191.983 79.9245 191.778C79.7997 191.439 79.0707 190.161 78.5096 189.209ZM78.3469 196.508C77.7692 196.508 77.1801 196.333 76.6248 195.99C75.8012 195.48 75.1458 194.65 74.7801 193.653C74.414 192.657 74.3776 191.602 74.6769 190.683C74.9925 189.713 75.6404 189.006 76.5011 188.693L79.0229 187.774L79.2725 188.191C79.4284 188.452 80.8019 190.756 81.0303 191.377C81.1691 191.756 81.6152 194.194 81.7491 194.932L81.8367 195.417L79.3081 196.338C78.9971 196.452 78.6727 196.508 78.3461 196.508H78.3469Z" fill="#1A2645"/>
<path fill-rule="evenodd" clip-rule="evenodd" d="M82.5415 190.827C83.2046 192.634 82.5912 194.519 81.1702 195.036C79.7493 195.554 78.0597 194.508 77.3959 192.7C76.7329 190.893 77.3462 189.008 78.7672 188.492C80.1881 187.974 81.8777 189.019 82.5415 190.827Z" fill="#22A7F0"/>
<path fill-rule="evenodd" clip-rule="evenodd" d="M79.5391 195.006C78.7099 194.699 77.9505 193.972 77.5093 192.98C77.9516 193.973 78.7107 194.699 79.5399 195.006H79.5391Z" fill="#2E568D"/>
<path fill-rule="evenodd" clip-rule="evenodd" d="M81.7153 194.745C81.7153 194.745 81.7153 194.745 81.7153 194.745C82.5445 194.137 82.9478 192.961 82.7657 191.708C82.9489 192.961 82.5453 194.138 81.7153 194.745Z" fill="#B9AFBE"/>
<path fill-rule="evenodd" clip-rule="evenodd" d="M80.4146 195.169C80.1206 195.169 79.8259 195.113 79.5388 195.006H79.5395C79.8259 195.112 80.1214 195.168 80.4146 195.168C80.6699 195.168 80.9241 195.126 81.1702 195.036C81.3679 194.964 81.5503 194.865 81.7157 194.744C81.7157 194.745 81.7157 194.745 81.7157 194.745C81.5507 194.866 81.3683 194.965 81.1695 195.037C80.9237 195.126 80.6699 195.169 80.4146 195.169Z" fill="#1A2645"/>
<path fill-rule="evenodd" clip-rule="evenodd" d="M80.4146 195.168C80.1214 195.168 79.8259 195.112 79.5395 195.006C78.7103 194.699 77.9509 193.973 77.5089 192.98C77.4687 192.89 77.4316 192.796 77.3963 192.701C77.2491 192.297 77.163 191.89 77.1372 191.495C77.7711 192.592 78.8112 193.27 79.8304 193.27C80.0857 193.27 80.3399 193.228 80.586 193.138C81.6906 192.738 82.3067 191.511 82.2164 190.136C82.3419 190.351 82.4516 190.582 82.5407 190.826C82.6484 191.12 82.7232 191.416 82.7657 191.708C82.9481 192.961 82.5445 194.137 81.7153 194.744C81.5503 194.865 81.3678 194.964 81.1698 195.036C80.924 195.126 80.6695 195.168 80.4142 195.168H80.4146Z" fill="#2976B4"/>
<path fill-rule="evenodd" clip-rule="evenodd" d="M77.3967 192.701C77.4411 192.825 77.4912 192.944 77.5473 193.059C77.3102 191.54 77.935 190.126 79.1359 189.689C80.4601 189.208 82.0192 190.082 82.7581 191.67C82.7156 191.389 82.6432 191.107 82.5408 190.826C81.8785 189.019 80.1874 187.973 78.7672 188.49C77.3478 189.009 76.7333 190.893 77.3967 192.701V192.701Z" fill="white"/>
<path fill-rule="evenodd" clip-rule="evenodd" d="M79.5296 188.944C79.3396 188.944 79.1511 188.976 78.9686 189.042C77.8557 189.447 77.3971 190.999 77.9486 192.5C78.4994 194.001 79.8528 194.892 80.9677 194.486C82.0817 194.08 82.5392 192.529 81.9884 191.028C81.5275 189.773 80.5045 188.944 79.5296 188.944ZM80.4241 195.753C78.9603 195.753 77.4782 194.632 76.8436 192.902C76.0694 190.794 76.8421 188.569 78.565 187.941C80.2879 187.313 82.32 188.518 83.0942 190.625C83.8684 192.733 83.0957 194.959 81.372 195.586C81.0632 195.699 80.7439 195.753 80.4241 195.753Z" fill="#1A2645"/>
<path fill-rule="evenodd" clip-rule="evenodd" d="M88.4074 199.355C88.0823 199.355 87.7781 199.152 87.6658 198.828L85.9429 193.862C85.4566 192.459 85.7062 190.919 86.6125 189.74C87.2114 188.961 87.3658 187.946 87.0252 187.024L84.4545 180.074C84.3046 179.668 84.5125 179.219 84.9199 179.07C85.325 178.921 85.7772 179.128 85.9274 179.533L88.4973 186.484C89.0246 187.911 88.786 189.483 87.8582 190.689C87.2732 191.451 87.112 192.446 87.4261 193.352L89.149 198.318C89.2909 198.727 89.0735 199.171 88.6642 199.312C88.5789 199.342 88.4928 199.355 88.4074 199.355Z" fill="#1A2645"/>
<path fill-rule="evenodd" clip-rule="evenodd" d="M47.2417 195.976C47.2417 195.976 45.7726 197.9 46.5768 200.069C47.5069 202.577 49.746 203.109 49.746 203.109C49.746 203.109 57.4259 205.119 70.9675 198.877C70.9675 198.877 73.0378 193.845 67.8957 192.647C67.8957 192.647 56.0273 199.646 47.2413 195.976H47.2417Z" fill="white"/>
<path fill-rule="evenodd" clip-rule="evenodd" d="M62.1827 202.107C64.1988 201.565 66.4433 200.814 68.904 199.785C66.4437 200.814 64.1988 201.565 62.1827 202.107Z" fill="#8C7B94"/>
<path fill-rule="evenodd" clip-rule="evenodd" d="M68.9039 199.784L68.9043 199.784V199.784H68.9039Z" fill="#1A2645"/>
<path fill-rule="evenodd" clip-rule="evenodd" d="M71.3798 196.598C71.3665 195.446 70.9739 194.115 69.5143 193.264V193.263C70.9751 194.113 71.3665 195.445 71.3798 196.598Z" fill="#B9AFBE"/>
<path fill-rule="evenodd" clip-rule="evenodd" d="M70.7035 198.999V198.998C70.7911 198.958 70.8795 198.917 70.9679 198.877C70.9679 198.877 71.3939 197.842 71.3798 196.599C71.3946 197.842 70.9686 198.877 70.9686 198.877C70.8803 198.917 70.7919 198.959 70.7035 198.999Z" fill="#8C7B94"/>
<path fill-rule="evenodd" clip-rule="evenodd" d="M68.9047 199.785V199.784C69.4919 199.539 70.0913 199.277 70.7035 198.998V198.998C70.0916 199.277 69.4927 199.538 68.9047 199.785Z" fill="#1A2645"/>
<path fill-rule="evenodd" clip-rule="evenodd" d="M47.0619 201.052C47.0612 201.051 47.0604 201.05 47.0604 201.049C47.0604 201.05 47.0612 201.051 47.0619 201.052ZM47.0574 201.045C46.8689 200.746 46.6982 200.406 46.5593 200.02H46.5601C46.5654 200.036 46.5718 200.053 46.5772 200.069C46.713 200.435 46.8764 200.759 47.0574 201.045V201.045Z" fill="#8C7B94"/>
<path fill-rule="evenodd" clip-rule="evenodd" d="M53.1732 203.417C50.9261 203.417 49.7472 203.108 49.7472 203.108C49.7472 203.108 48.1183 202.721 47.0619 201.052C47.0611 201.051 47.0604 201.05 47.0604 201.049C47.0589 201.048 47.0581 201.046 47.0574 201.045C46.8768 200.758 46.7129 200.435 46.5771 200.068C46.5718 200.052 46.5654 200.036 46.5601 200.02C47.3164 200.573 47.9848 200.732 47.9848 200.732C47.9848 200.732 49.163 201.04 51.4109 201.04C54.6401 201.04 60.0781 200.403 67.3988 197.3C68.9608 196.639 69.8716 194.967 69.5241 193.311C69.5211 193.296 69.5181 193.28 69.5139 193.264C70.9739 194.114 71.3661 195.446 71.3794 196.598C71.3934 197.841 70.9675 198.876 70.9675 198.876C70.8791 198.917 70.7907 198.957 70.7031 198.997C70.0912 199.276 69.4915 199.538 68.9043 199.784L68.9035 199.785C66.4432 200.815 64.1984 201.565 62.1823 202.107C58.3048 203.147 55.2724 203.417 53.1729 203.417H53.1732Z" fill="#B9AFBE"/>
<path fill-rule="evenodd" clip-rule="evenodd" d="M47.9461 197.296C47.7546 197.296 47.5661 197.428 47.5008 197.627C47.2573 198.371 47.2558 199.079 47.497 199.73C48.223 201.688 49.9111 202.142 49.9824 202.16C50.0639 202.181 57.3421 203.926 69.9706 198.256C70.1019 198.197 70.2009 198.078 70.2358 197.935C70.768 195.783 70.0874 194.376 68.2151 193.75C68.1028 193.713 67.97 193.728 67.8521 193.791C65.1824 195.232 55.868 199.744 48.0656 197.313C48.0262 197.301 47.9856 197.296 47.9461 197.296V197.296ZM53.1896 204.4C50.8859 204.4 49.6224 204.086 49.4964 204.053C49.4065 204.032 46.7562 203.371 45.6569 200.407C45.2643 199.347 45.2567 198.176 45.6368 197.02C46.0487 195.764 47.4007 195.059 48.6509 195.45C55.9018 197.707 65.1384 193.034 66.9163 192.074C67.5095 191.753 68.2109 191.689 68.8376 191.898C71.678 192.846 72.9123 195.278 72.1404 198.402C71.9621 199.123 71.4515 199.735 70.7759 200.038C62.7035 203.661 56.723 204.4 53.1892 204.4H53.1896Z" fill="#1A2645"/>
<path fill-rule="evenodd" clip-rule="evenodd" d="M89.9888 200.401C89.916 200.114 89.8158 199.717 89.691 199.221L89.6918 199.22C89.8166 199.717 89.9175 200.114 89.9896 200.401H89.9888V200.401Z" fill="#8C7B94"/>
<path fill-rule="evenodd" clip-rule="evenodd" d="M90.1129 200.891C90.0935 200.813 90.0507 200.648 89.9888 200.401H89.9896C90.0526 200.647 90.0943 200.813 90.1129 200.891Z" fill="#1A2645"/>
<path fill-rule="evenodd" clip-rule="evenodd" d="M89.691 199.221C89.691 199.22 89.691 199.22 89.691 199.22H89.6914L89.691 199.221Z" fill="#1A2645"/>
<path fill-rule="evenodd" clip-rule="evenodd" d="M89.6911 199.22C89.556 198.684 89.3933 198.031 89.2048 197.274C89.3933 198.031 89.5568 198.684 89.6918 199.22H89.6911Z" fill="#1A2645"/>
<path fill-rule="evenodd" clip-rule="evenodd" d="M90.1253 200.944C90.1253 200.944 90.12 200.928 90.1144 200.894C90.1219 200.927 90.1283 200.943 90.1283 200.943L90.1253 200.944Z" fill="#1A2645"/>
<path fill-rule="evenodd" clip-rule="evenodd" d="M122.567 202.577C122.174 202.839 121.763 203.148 121.372 203.452C120.98 203.762 120.591 204.08 120.22 204.417C119.478 205.091 118.767 205.808 118.228 206.68C118.495 205.687 118.992 204.747 119.533 203.854C119.805 203.405 120.099 202.971 120.401 202.541C120.709 202.11 121.013 201.696 121.366 201.269L121.37 201.264C121.685 200.882 122.252 200.827 122.636 201.141C123.019 201.455 123.074 202.019 122.76 202.402C122.704 202.47 122.636 202.53 122.567 202.577H122.567Z" fill="#1A2645"/>
<path fill-rule="evenodd" clip-rule="evenodd" d="M39.9993 200.089C40.0201 199.983 40.0334 199.871 40.0402 199.757C40.0471 199.882 40.0326 199.99 39.9993 200.089Z" fill="#B9AFBE"/>
<path fill-rule="evenodd" clip-rule="evenodd" d="M118.363 220.495C117.916 219.971 117.683 219.175 117.834 217.984C118.56 212.242 128.182 199.292 133.523 202.534C133.693 203.214 133.792 204.017 133.804 204.96C133.905 212.072 124.99 221.154 118.362 220.495H118.363Z" fill="#848484"/>
<path fill-rule="evenodd" clip-rule="evenodd" d="M125.473 218.248C125.476 218.247 125.479 218.245 125.482 218.243C125.479 218.244 125.476 218.247 125.473 218.248H125.473ZM125.493 218.235C127.339 216.994 129.072 215.337 130.473 213.493C130.474 213.493 130.475 213.492 130.476 213.492C129.074 215.337 127.34 216.994 125.493 218.235Z" fill="#1A2645"/>
<path fill-rule="evenodd" clip-rule="evenodd" d="M117.836 217.968C117.836 217.964 117.837 217.96 117.837 217.956C117.837 217.96 117.836 217.964 117.836 217.968ZM117.837 217.954C117.839 217.945 117.84 217.934 117.841 217.924C117.84 217.934 117.839 217.944 117.837 217.954ZM117.841 217.924C117.842 217.919 117.843 217.913 117.843 217.909C117.843 217.914 117.842 217.918 117.841 217.924Z" fill="#8C7B94"/>
<path fill-rule="evenodd" clip-rule="evenodd" d="M118.183 216.441C118.339 215.943 118.535 215.415 118.769 214.868C118.536 215.415 118.339 215.943 118.183 216.441Z" fill="#B9AFBE"/>
<path fill-rule="evenodd" clip-rule="evenodd" d="M117.844 217.909C117.906 217.459 118.021 216.966 118.184 216.441C118.022 216.966 117.906 217.458 117.844 217.909Z" fill="#8C7B94"/>
<path fill-rule="evenodd" clip-rule="evenodd" d="M118.771 214.862C118.773 214.859 118.774 214.856 118.775 214.853C118.774 214.857 118.773 214.859 118.771 214.862V214.862ZM118.781 214.842C118.781 214.841 118.781 214.84 118.781 214.839C118.781 214.84 118.781 214.84 118.781 214.842Z" fill="#B9AFBE"/>
<path fill-rule="evenodd" clip-rule="evenodd" d="M119.057 220.529C118.823 220.529 118.592 220.518 118.363 220.495C118.009 220.08 117.789 219.493 117.788 218.674C117.788 218.46 117.803 218.23 117.834 217.984C117.835 217.98 117.836 217.974 117.836 217.969C117.836 217.965 117.837 217.96 117.838 217.956C117.838 217.955 117.838 217.955 117.838 217.954C117.839 217.944 117.84 217.935 117.842 217.924V217.924C117.842 217.918 117.843 217.914 117.844 217.909C117.844 217.909 117.844 217.909 117.844 217.908C117.906 217.458 118.022 216.966 118.184 216.44C118.339 215.942 118.536 215.414 118.77 214.868C118.77 214.866 118.771 214.865 118.772 214.863C118.773 214.859 118.774 214.857 118.776 214.853C118.777 214.849 118.779 214.846 118.781 214.841C118.781 214.84 118.782 214.84 118.782 214.839C118.784 214.833 118.787 214.827 118.789 214.821C118.879 214.613 118.975 214.402 119.075 214.189C119.038 214.265 119.002 214.342 118.968 214.419C119.944 212.691 121.181 210.912 122.54 209.324C121.65 211.838 120.868 215.59 122.754 216.549C123.131 216.741 123.526 216.824 123.934 216.824C126.046 216.824 128.517 214.598 130.473 213.493C129.072 215.337 127.339 216.994 125.492 218.235C125.489 218.238 125.486 218.24 125.481 218.242C125.478 218.245 125.476 218.246 125.473 218.248C123.372 219.657 121.125 220.528 119.056 220.528L119.057 220.529Z" fill="#695F6E"/>
<path fill-rule="evenodd" clip-rule="evenodd" d="M119.188 213.95C121.765 208.619 127.396 202.021 131.647 202.021C131.884 202.021 132.116 202.041 132.344 202.084C132.116 202.041 131.884 202.021 131.647 202.021C127.396 202.021 121.767 208.618 119.188 213.95Z" fill="white"/>
<path fill-rule="evenodd" clip-rule="evenodd" d="M133.523 202.534C133.149 202.307 132.755 202.16 132.344 202.084C132.755 202.16 133.149 202.308 133.523 202.534Z" fill="#C3BAC7"/>
<path fill-rule="evenodd" clip-rule="evenodd" d="M119.075 214.189C119.112 214.109 119.15 214.03 119.188 213.95C121.767 208.618 127.396 202.021 131.647 202.021C131.884 202.021 132.116 202.041 132.344 202.084C132.755 202.16 133.149 202.307 133.523 202.534C133.693 203.214 133.792 204.017 133.804 204.96C133.834 207.096 133.051 209.411 131.76 211.584C132.431 210.025 132.808 208.442 132.786 206.948C132.786 206.903 132.785 206.859 132.784 206.816C132.75 205.278 131.474 204.107 130.02 204.107C129.77 204.107 129.514 204.142 129.258 204.215C127.064 204.847 124.653 206.854 122.539 209.325C122.742 208.752 122.95 208.243 123.133 207.847C121.482 209.861 120.041 212.13 119.074 214.189H119.075Z" fill="#DADADA"/>
<path fill-rule="evenodd" clip-rule="evenodd" d="M118.969 214.419C119.003 214.343 119.038 214.265 119.075 214.189C120.042 212.129 121.482 209.861 123.134 207.847C122.951 208.243 122.742 208.752 122.54 209.325C121.181 210.913 119.945 212.692 118.969 214.419L118.969 214.419Z" fill="#D2CFD3"/>
<path fill-rule="evenodd" clip-rule="evenodd" d="M118.794 219.742C121.325 219.839 124.473 218.397 127.292 215.82C130.82 212.595 133.068 208.336 133.02 204.971C133.011 204.264 132.949 203.62 132.836 203.053C131.918 202.635 130.784 202.744 129.458 203.38C124.712 205.657 119.147 213.854 118.612 218.082C118.523 218.787 118.584 219.344 118.794 219.742ZM119.056 221.31C118.795 221.31 118.538 221.297 118.284 221.273L117.97 221.241L117.765 221.001C117.127 220.253 116.888 219.206 117.055 217.887C117.647 213.205 123.551 204.48 128.776 201.972C130.723 201.038 132.506 201.002 133.932 201.867L134.207 202.035L134.285 202.346C134.474 203.106 134.577 203.982 134.59 204.95C134.644 208.798 132.255 213.405 128.353 216.971C125.303 219.76 121.961 221.31 119.056 221.31Z" fill="#1A2645"/>
<path fill-rule="evenodd" clip-rule="evenodd" d="M131.599 206.462C129.136 206.462 126.226 205.713 125.787 205.596C125.369 205.485 125.12 205.057 125.232 204.64C125.344 204.223 125.774 203.977 126.193 204.087C128.294 204.646 132.123 205.285 133.449 204.618C133.836 204.424 134.309 204.579 134.503 204.964C134.698 205.349 134.543 205.819 134.156 206.014C133.5 206.343 132.586 206.463 131.599 206.463L131.599 206.462Z" fill="#1A2645"/>
<path fill-rule="evenodd" clip-rule="evenodd" d="M129.314 210.444C125.732 210.444 122.754 208.825 122.586 208.732C122.207 208.523 122.07 208.047 122.281 207.67C122.491 207.293 122.969 207.157 123.347 207.365C123.398 207.393 128.366 210.078 132.735 208.215C133.133 208.045 133.595 208.229 133.765 208.626C133.936 209.023 133.751 209.482 133.353 209.652C131.998 210.23 130.616 210.444 129.315 210.444H129.314Z" fill="#1A2645"/>
<path fill-rule="evenodd" clip-rule="evenodd" d="M127.351 214.114C122.278 214.114 120.198 211.909 120.095 211.796C119.804 211.476 119.829 210.982 120.149 210.692C120.469 210.404 120.961 210.426 121.253 210.74C121.299 210.789 123.925 213.428 130.692 212.242C131.118 212.166 131.526 212.45 131.601 212.875C131.676 213.3 131.392 213.706 130.964 213.781C129.622 214.017 128.419 214.114 127.351 214.114Z" fill="#1A2645"/>
<path fill-rule="evenodd" clip-rule="evenodd" d="M124.622 218.443C120.539 218.443 118.134 215.966 118.018 215.844C117.72 215.53 117.734 215.036 118.049 214.739C118.364 214.444 118.86 214.457 119.157 214.769C119.275 214.891 121.941 217.586 126.4 216.7C126.827 216.616 127.238 216.89 127.323 217.314C127.407 217.737 127.132 218.149 126.707 218.233C125.971 218.379 125.275 218.443 124.622 218.443H124.622Z" fill="#1A2645"/>
<path fill-rule="evenodd" clip-rule="evenodd" d="M27.1139 149.366C27.5141 149.285 27.7724 148.897 27.6916 148.498L23.4659 127.711C23.3844 127.313 22.9944 127.056 22.5938 127.136C18.3958 127.983 15.6814 132.058 16.5314 136.24L17.9725 143.329C18.8226 147.509 22.9151 150.213 27.1139 149.366V149.366Z" fill="white"/>
<path fill-rule="evenodd" clip-rule="evenodd" d="M22.7422 127.348C22.708 127.348 22.6739 127.351 22.6397 127.358C20.6688 127.755 18.9709 128.894 17.8595 130.563C16.7484 132.231 16.3558 134.232 16.7549 136.194L18.1959 143.282C19.0198 147.335 23.0012 149.963 27.068 149.143C27.2023 149.116 27.3176 149.039 27.3931 148.925C27.4682 148.811 27.4955 148.675 27.4682 148.543L23.2425 127.756C23.2152 127.623 23.1378 127.508 23.0236 127.433C22.939 127.376 22.8412 127.348 22.7422 127.348V127.348ZM25.5579 149.749C24.0049 149.749 22.4854 149.296 21.1615 148.421C19.3844 147.248 18.1728 145.455 17.7495 143.373L16.3084 136.284C15.8851 134.202 16.3012 132.081 17.4801 130.311C18.6583 128.541 20.4586 127.335 22.5491 126.913C22.8028 126.862 23.0604 126.912 23.2759 127.055C23.4906 127.197 23.6381 127.415 23.6893 127.666L27.915 148.452C27.9662 148.705 27.9158 148.962 27.7732 149.176C27.6305 149.39 27.4124 149.536 27.1587 149.588C26.6257 149.695 26.0897 149.749 25.5575 149.749L25.5579 149.749Z" fill="#1A2645"/>
<path fill-rule="evenodd" clip-rule="evenodd" d="M25.5727 148.257C22.5514 148.257 19.838 146.138 19.2152 143.077L19.1898 142.951C20.382 143.676 21.7711 144.084 23.2209 144.084C23.4731 144.084 23.7273 144.072 23.9826 144.047C24.506 145.494 25.1133 146.897 25.8022 148.253C25.7256 148.256 25.6486 148.257 25.5727 148.257Z" fill="#B9AFBE"/>
<path fill-rule="evenodd" clip-rule="evenodd" d="M26.862 148.128L26.8613 148.128L26.862 148.128ZM22.3321 128.499C20.8531 128.922 19.5869 129.844 18.727 131.135C17.7692 132.573 17.4308 134.298 17.7752 135.989L19.2155 143.077C19.8904 146.394 23.0217 148.605 26.3393 148.211L22.3321 128.499V128.499ZM25.5719 150.783C21.3686 150.783 17.5951 147.836 16.7294 143.578L15.2884 136.49C14.81 134.137 15.28 131.74 16.6126 129.739C17.9452 127.738 19.9799 126.374 22.3423 125.897C22.8673 125.792 23.4033 125.896 23.8509 126.191C24.2978 126.487 24.6016 126.937 24.7082 127.461L28.9339 148.247C29.0401 148.771 28.9362 149.304 28.6399 149.749C28.3429 150.194 27.8907 150.498 27.3646 150.604C26.7626 150.725 26.1622 150.784 25.5712 150.783H25.5719Z" fill="#1A2645"/>
<path fill-rule="evenodd" clip-rule="evenodd" d="M91.4883 113.245C91.0881 113.325 90.8298 113.713 90.9102 114.112L95.1359 134.899C95.2167 135.297 95.6067 135.555 96.0069 135.475C100.206 134.628 102.92 130.552 102.07 126.371L100.629 119.282C99.7793 115.101 95.6867 112.398 91.4879 113.245H91.4883Z" fill="white"/>
<path fill-rule="evenodd" clip-rule="evenodd" d="M91.5338 113.467C91.3996 113.494 91.2839 113.571 91.2088 113.685C91.1329 113.798 91.1063 113.934 91.1336 114.068L95.3593 134.854C95.3867 134.988 95.464 135.102 95.5782 135.178C95.6916 135.253 95.8286 135.278 95.9621 135.253C97.9331 134.855 99.6309 133.717 100.742 132.048C101.853 130.379 102.246 128.379 101.847 126.416L100.406 119.327C99.582 115.276 95.6021 112.646 91.5338 113.467ZM95.8589 135.716C95.6704 135.717 95.4864 135.662 95.326 135.555C95.1105 135.413 94.9637 135.196 94.9125 134.945L90.6868 114.158C90.6356 113.906 90.686 113.649 90.8287 113.435C90.9713 113.22 91.1894 113.074 91.4432 113.023C95.7592 112.152 99.9795 114.941 100.853 119.238L102.293 126.326C102.716 128.408 102.301 130.529 101.122 132.299C99.9428 134.069 98.1425 135.276 96.0528 135.697C95.9875 135.71 95.923 135.716 95.8589 135.716Z" fill="#1A2645"/>
<path fill-rule="evenodd" clip-rule="evenodd" d="M98.8685 132.655C98.2589 132.244 97.5932 131.844 96.8702 131.478C96.8732 130.596 96.8448 129.714 96.7833 128.83C98.4247 128.178 99.7542 126.999 100.607 125.539L100.827 126.622C101.171 128.313 100.833 130.037 99.8745 131.475C99.5835 131.912 99.2455 132.308 98.8685 132.656V132.655Z" fill="#B9AFBE"/>
<path fill-rule="evenodd" clip-rule="evenodd" d="M92.2632 114.399L96.2705 134.111C97.7487 133.688 99.0156 132.766 99.8748 131.475C100.834 130.036 101.171 128.313 100.827 126.621L99.3863 119.533C98.7122 116.215 95.5808 114.006 92.2632 114.399ZM95.857 136.752C95.4659 136.752 95.0843 136.639 94.7516 136.419C94.304 136.124 93.9994 135.673 93.8928 135.15L89.6671 114.363C89.5609 113.84 89.6656 113.306 89.9619 112.861C90.2589 112.416 90.711 112.113 91.2372 112.006C96.113 111.023 100.885 114.175 101.872 119.032L103.314 126.12C103.793 128.472 103.322 130.871 101.99 132.871C100.657 134.872 98.6223 136.236 96.2598 136.712C96.1256 136.739 95.9905 136.752 95.8574 136.752L95.857 136.752Z" fill="#1A2645"/>
<path fill-rule="evenodd" clip-rule="evenodd" d="M24.3293 140.972C29.6899 160.205 49.6907 171.469 69.0022 166.131C88.3141 160.792 99.6241 140.873 94.2642 121.641C88.9036 102.407 68.9028 91.1442 49.5913 96.4821C30.2786 101.821 18.9686 121.74 24.3293 140.972Z" fill="white"/>
<path fill-rule="evenodd" clip-rule="evenodd" d="M59.3521 95.3762C56.1145 95.3762 52.8565 95.814 49.6516 96.7003C40.3698 99.2657 32.6475 105.278 27.9059 113.628C23.1651 121.979 21.9728 131.668 24.5488 140.912C27.1249 150.155 33.1618 157.846 41.5461 162.567C49.9304 167.29 59.6593 168.477 68.9411 165.912C78.2228 163.346 85.9452 157.334 90.6868 148.983C95.4283 140.633 96.6206 130.944 94.0446 121.7C91.4678 112.456 85.4316 104.766 77.0473 100.044C71.5573 96.9518 65.4915 95.3762 59.3521 95.3762ZM59.2406 167.69C53.0234 167.69 46.881 166.093 41.3219 162.963C32.8315 158.182 26.7186 150.393 24.11 141.033C21.5013 131.673 22.7084 121.861 27.5099 113.405C32.3114 104.949 40.1316 98.8615 49.5302 96.2635C68.9327 90.9007 89.0985 102.257 94.4838 121.58C97.0925 130.94 95.8847 140.751 91.0832 149.208C86.2816 157.664 78.4614 163.751 69.0636 166.349C65.8185 167.246 62.5195 167.69 59.2406 167.69V167.69Z" fill="#1A2645"/>
<path fill-rule="evenodd" clip-rule="evenodd" d="M55.2133 165.965C50.7323 165.442 46.356 164.045 42.2976 161.8C42.76 161.935 43.2376 162.065 43.7326 162.189C46.4141 162.862 49.5541 163.36 52.9848 163.523C52.9908 163.523 52.9973 163.523 53.0033 163.524C53.0056 163.524 53.0071 163.524 53.0094 163.524C53.7999 163.561 54.6071 163.581 55.4265 163.581C59.2584 163.581 63.3802 163.152 67.5858 162.098C68.2686 161.927 68.943 161.738 69.6095 161.533C65.6622 164.181 59.6366 164.816 55.2133 165.964V165.965Z" fill="#B9AFBE"/>
<path fill-rule="evenodd" clip-rule="evenodd" d="M59.3506 96.4129C56.206 96.4129 53.042 96.8386 49.93 97.6992C40.9161 100.19 33.416 106.029 28.8117 114.138C24.2075 122.247 23.0494 131.657 25.5507 140.634C28.0531 149.61 33.9156 157.08 42.0575 161.666C50.2005 166.25 59.6487 167.404 68.6627 164.913C77.6759 162.421 85.1759 156.583 89.7802 148.473C94.3852 140.364 95.5426 130.955 93.0413 121.978C90.5396 113.001 84.6771 105.531 76.5345 100.946C71.2034 97.9436 65.3121 96.4129 59.3502 96.4129H59.3506ZM59.2391 168.727C52.8444 168.727 46.5275 167.085 40.8099 163.865C32.0774 158.947 25.7908 150.937 23.1074 141.309C20.4237 131.683 21.6656 121.592 26.6041 112.895C31.5421 104.198 39.585 97.9368 49.2514 95.2648C58.9178 92.5928 69.0511 93.8289 77.7836 98.7471C86.5161 103.665 92.8027 111.675 95.486 121.303C98.169 130.929 96.9271 141.02 91.9894 149.717C87.0517 158.414 79.0085 164.675 69.3413 167.347C66.0044 168.269 62.6102 168.727 59.2391 168.727Z" fill="#1A2645"/>
<path fill-rule="evenodd" clip-rule="evenodd" d="M24.6908 141.836C26.4865 148.678 30.3833 154.45 35.5771 158.713C39.4709 161.909 53.036 165.746 67.585 162.098C81.0754 158.715 91.4462 148.381 93.2712 143.696C95.7061 137.447 96.269 130.515 94.4733 123.672C89.7214 105.565 72.1309 102.124 52.8596 107.141C33.589 112.157 19.9378 123.729 24.6904 141.836H24.6908Z" fill="#1A2645"/>
<path fill-rule="evenodd" clip-rule="evenodd" d="M36.6027 142.546C35.2888 142.546 33.8985 141.871 32.7575 140.703C31.9431 139.362 31.2015 137.967 30.5407 136.522C29.9907 133.929 30.7953 131.495 32.6794 130.623C33.1501 130.405 33.6527 130.302 34.1671 130.302C36.198 130.302 38.4133 131.915 39.6051 134.471C41.0993 137.674 40.4211 141.145 38.0901 142.224C37.6193 142.442 37.1167 142.546 36.6024 142.546L36.6027 142.546Z" fill="#9B8DA2"/>
<path fill-rule="evenodd" clip-rule="evenodd" d="M44.4882 150.066C43.5619 150.066 42.5946 149.542 41.9923 148.613C41.1096 147.251 41.3447 145.535 42.518 144.78C42.8913 144.54 43.3138 144.427 43.7459 144.427C44.673 144.427 45.6391 144.95 46.2419 145.879C47.1253 147.241 46.8894 148.957 45.7169 149.712C45.344 149.952 44.9203 150.066 44.4882 150.066Z" fill="#9B8DA2"/>
<path fill-rule="evenodd" clip-rule="evenodd" d="M55.4265 163.581C54.6075 163.581 53.7999 163.561 53.0094 163.524C53.7992 163.561 54.6049 163.581 55.4242 163.581C59.2562 163.581 63.3787 163.152 67.585 162.097C68.2694 161.926 68.9472 161.736 69.6141 161.53C69.6126 161.531 69.611 161.532 69.6095 161.533C68.9434 161.738 68.2682 161.927 67.5858 162.098C63.3802 163.152 59.2581 163.581 55.4265 163.581ZM53.0033 163.524C52.9973 163.523 52.9908 163.523 52.9848 163.523C52.9908 163.523 52.9973 163.523 53.0033 163.524ZM43.7326 162.189C43.2376 162.065 42.76 161.935 42.2976 161.8C42.7592 161.934 43.2383 162.064 43.7326 162.189Z" fill="#7E7B8A"/>
<path fill-rule="evenodd" clip-rule="evenodd" d="M24.2883 129.857V129.857C24.8311 127.462 25.7673 125.236 27.0433 123.177C27.0433 123.178 27.0433 123.179 27.0433 123.18C25.768 125.238 24.8311 127.464 24.2883 129.857Z" fill="#ACAFB4"/>
<path fill-rule="evenodd" clip-rule="evenodd" d="M42.2976 161.8C39.2095 160.897 36.8641 159.77 35.5763 158.713C34.7627 158.046 33.9816 157.34 33.2347 156.6C33.9816 157.34 34.7634 158.046 35.5771 158.713C36.8637 159.77 39.2095 160.897 42.2976 161.8ZM24.1461 130.532C24.1904 130.306 24.2375 130.08 24.2879 129.856V129.857C24.2375 130.08 24.1901 130.306 24.1461 130.532Z" fill="#2A1A3B"/>
<path fill-rule="evenodd" clip-rule="evenodd" d="M55.4242 163.581C54.6052 163.581 53.7992 163.561 53.0094 163.524C53.0071 163.524 53.0056 163.524 53.0033 163.524C52.9973 163.523 52.9908 163.523 52.9848 163.523C49.5549 163.359 46.4133 162.862 43.7326 162.19C43.2383 162.065 42.7592 161.935 42.2976 161.8C39.2095 160.897 36.8641 159.77 35.5771 158.713C34.7634 158.046 33.9816 157.34 33.2347 156.6C29.2154 152.615 26.2047 147.606 24.6908 141.835C23.615 137.733 23.4822 133.965 24.1464 130.533C24.1908 130.307 24.2378 130.081 24.2883 129.858C24.8311 127.465 25.7684 125.238 27.0434 123.18C27.1962 125.332 27.5638 127.568 28.1734 129.887C28.7799 132.198 29.575 134.414 30.5407 136.522C30.6712 137.138 30.8772 137.762 31.1644 138.377C31.5854 139.279 32.1347 140.065 32.7575 140.703C35.2205 144.758 38.3549 148.324 41.9896 151.307C45.5025 154.191 55.2148 157.484 67.1716 157.484C69.3815 157.484 71.6696 157.371 74.0082 157.124C73.1308 158.176 72.1939 159.237 71.1648 160.267C70.6978 160.733 70.1766 161.153 69.6141 161.53C68.9472 161.736 68.269 161.926 67.585 162.097C63.3787 163.152 59.2558 163.581 55.4242 163.581Z" fill="#101729"/>
<path fill-rule="evenodd" clip-rule="evenodd" d="M32.7575 140.703C32.1346 140.065 31.5854 139.28 31.1643 138.376C30.8776 137.762 30.6708 137.138 30.5407 136.522C31.2015 137.967 31.9431 139.362 32.7575 140.703Z" fill="#6B6577"/>
<path fill-rule="evenodd" clip-rule="evenodd" d="M23.5232 126.217C23.3123 126.217 23.1006 126.154 22.9159 126.024C22.5016 125.728 22.3658 125.191 22.5676 124.747C26.5608 114.373 37.2248 106.244 51.8357 102.44C66.562 98.6069 79.9135 100.677 88.4681 108.118C88.8785 108.466 88.9624 109.077 88.6433 109.521C88.3069 109.99 87.6544 110.101 87.1829 109.766L87.0976 109.698C79.0741 102.713 66.4144 100.804 52.366 104.461C38.3939 108.098 28.2397 115.782 24.5071 125.543L24.459 125.668L24.3804 125.778C24.1748 126.064 23.8505 126.217 23.5224 126.217H23.5232Z" fill="#1A2645"/>
<path fill-rule="evenodd" clip-rule="evenodd" d="M85.8071 130.588C84.2777 128.401 82.2267 125.702 79.574 122.661C70.8563 112.667 55.7128 112.402 54.1329 112.402C54.0446 112.402 53.9979 112.403 53.9979 112.403C53.6474 111.897 59.0001 110.271 65.889 110.271C69.9676 110.271 74.5851 110.842 78.8738 112.553C85.9092 115.359 88.302 123.644 89.0985 129.68C88.9627 129.683 88.8254 129.688 88.6873 129.695C87.6598 129.745 86.6868 130.054 85.8071 130.588V130.588Z" fill="#9B8DA2"/>
<path fill-rule="evenodd" clip-rule="evenodd" d="M102.439 137.582C102.439 137.582 97.3133 130.457 88.7454 130.876C82.6845 131.171 79.9223 142.51 86.4774 148.602C89.5591 151.466 92.3376 152.324 93.1581 158.473L102.439 137.582Z" fill="white"/>
<path fill-rule="evenodd" clip-rule="evenodd" d="M93.1574 159.654C92.5717 159.654 92.0623 159.223 91.983 158.629C91.3912 154.195 89.7833 152.888 87.5577 151.079C86.9512 150.585 86.3238 150.076 85.6676 149.466C81.2253 145.336 80.7739 139.307 82.2972 135.164C83.505 131.876 85.894 129.832 88.687 129.695C97.7943 129.249 103.178 136.582 103.403 136.894C103.785 137.425 103.662 138.163 103.129 138.543C102.598 138.922 101.858 138.801 101.475 138.272C101.428 138.206 96.5956 131.673 88.8031 132.055C86.9933 132.144 85.3941 133.609 84.5239 135.976C83.3108 139.277 83.6575 144.366 87.2862 147.738C87.8851 148.294 88.4814 148.779 89.0576 149.249C91.4034 151.156 93.6179 152.957 94.3337 158.318C94.4205 158.965 93.9638 159.558 93.3144 159.644C93.2617 159.651 93.209 159.655 93.157 159.655L93.1574 159.654Z" fill="#1A2645"/>
<path fill-rule="evenodd" clip-rule="evenodd" d="M90.2198 171.658C90.1523 171.459 90.0855 171.259 90.0188 171.057C89.8287 170.482 89.6448 169.895 89.465 169.292C89.4316 169.181 89.399 169.07 89.3663 168.958C90.1861 167.788 90.878 166.778 91.4591 166.033C92.1882 165.098 94.326 163.868 95.4469 163.136C95.7899 162.912 96.0854 162.617 96.335 162.265C96.3497 162.267 96.3645 162.268 96.3793 162.271C95.8923 163.661 95.1249 164.96 94.3503 165.468C93.2294 166.201 91.4158 169.318 90.862 170.366C90.6822 170.708 90.4687 171.144 90.2198 171.657V171.658Z" fill="#B9AFBE"/>
<path fill-rule="evenodd" clip-rule="evenodd" d="M96.3797 162.271C96.3649 162.269 96.3501 162.267 96.3353 162.266C96.3672 162.221 96.3983 162.175 96.4283 162.128C96.4127 162.176 96.3956 162.223 96.3793 162.271H96.3797Z" fill="#1A2645"/>
<path fill-rule="evenodd" clip-rule="evenodd" d="M65.9004 187.611L64.8083 185.423C66.0586 185.364 67.258 185.219 68.4074 184.999C68.1832 185.107 67.9693 185.229 67.7652 185.365C66.9796 185.892 66.3511 186.627 65.9456 187.51C65.93 187.544 65.9152 187.577 65.9004 187.611ZM76.2883 182.054C82.5146 178.476 86.6488 172.837 89.3667 168.959C89.3993 169.071 89.432 169.181 89.4654 169.292C89.6455 169.895 89.8291 170.482 90.0192 171.058C90.0859 171.259 90.1527 171.459 90.2202 171.658C89.4312 173.285 88.2841 175.677 86.697 178.196L76.2883 182.054V182.054Z" fill="#B9AFBE"/>
<path fill-rule="evenodd" clip-rule="evenodd" d="M65.4699 189.549C61.6087 188.837 57.2207 186.934 52.2523 183.371C56.3998 184.831 60.1445 185.453 63.5266 185.453C63.9594 185.453 64.3862 185.443 64.808 185.423L65.9001 187.611C65.6292 188.234 65.4851 188.89 65.4695 189.549L65.4699 189.549Z" fill="#B9AFBE"/>
<path fill-rule="evenodd" clip-rule="evenodd" d="M72.5129 189.525L72.308 188.976C71.7758 187.552 72.319 185.951 73.5996 185.135L84.7613 180.998C81.8496 184.826 77.8625 188.408 72.5129 189.525Z" fill="#B9AFBE"/>
<path fill-rule="evenodd" clip-rule="evenodd" d="M65.4707 189.549H65.4699C65.4855 188.89 65.6296 188.234 65.9004 187.611C65.9152 187.577 65.93 187.544 65.9456 187.51C66.3511 186.627 66.9796 185.892 67.7652 185.365C66.9796 185.892 66.3511 186.628 65.9456 187.51C65.6455 188.164 65.4874 188.855 65.471 189.549H65.4707ZM73.5996 185.135C73.6239 185.12 73.6478 185.105 73.6717 185.09L72.9791 183.661C74.1432 183.195 75.244 182.654 76.2879 182.054L86.6967 178.196C86.4376 178.607 86.1667 179.022 85.8838 179.437C85.7457 179.178 85.4749 179.022 85.1904 179.022C85.1005 179.022 85.009 179.037 84.9195 179.071C84.5125 179.22 84.3042 179.669 84.4541 180.074L84.7845 180.967C84.7769 180.977 84.7689 180.987 84.761 180.998L73.5993 185.135H73.5996Z" fill="#1A2645"/>
<path fill-rule="evenodd" clip-rule="evenodd" d="M69.0071 189.882C68.4943 189.882 67.9701 189.861 67.4348 189.815C67.4117 189.309 67.5099 188.8 67.7296 188.322C68.0911 187.536 68.734 186.938 69.5401 186.639L70.3754 186.329C70.0473 187.39 70.0583 188.556 70.4698 189.657L70.5298 189.816C70.0332 189.859 69.5253 189.882 69.0071 189.882V189.882Z" fill="#B9AFBE"/>
<path fill-rule="evenodd" clip-rule="evenodd" d="M70.5297 189.817L70.4698 189.658C70.0578 188.557 70.0472 187.39 70.3753 186.33L69.5401 186.64C68.734 186.939 68.091 187.537 67.7295 188.323C67.5099 188.801 67.4117 189.309 67.4348 189.816C66.7949 189.762 66.1417 189.674 65.4706 189.55C65.487 188.856 65.6451 188.164 65.9452 187.511C66.3507 186.629 66.9792 185.893 67.7648 185.366C67.9689 185.23 68.1828 185.107 68.407 184.999C70.0275 184.69 71.5501 184.233 72.9787 183.661L73.6713 185.091C73.647 185.106 73.6231 185.121 73.5992 185.136C72.3186 185.952 71.7758 187.553 72.3076 188.976L72.5125 189.526C71.871 189.66 71.2099 189.758 70.529 189.818L70.5297 189.817Z" fill="#1A2645"/>
<path fill-rule="evenodd" clip-rule="evenodd" d="M84.7849 180.967L84.4545 180.074C84.3046 179.669 84.5125 179.22 84.9199 179.071C85.009 179.037 85.1005 179.022 85.1907 179.022C85.4756 179.022 85.7461 179.178 85.8841 179.438C85.5367 179.948 85.1699 180.46 84.7852 180.967H84.7849Z" fill="#1A2645"/>
<path fill-rule="evenodd" clip-rule="evenodd" d="M49.7085 169.303L52.1518 182.807L52.2527 183.371C76.6327 191.953 87.1242 171.588 91.4595 166.033C92.1886 165.098 94.3264 163.869 95.4474 163.137C96.6604 162.342 97.2742 160.674 97.4073 158.686V158.683C97.6679 154.842 96.1351 149.813 93.6801 147.651C91.1621 145.436 85.4487 146.275 82.5958 147.92C78.6523 150.194 75.8707 155.56 71.1647 160.267C65.3861 166.043 51.5023 164.434 49.7081 169.303L49.7085 169.303Z" fill="white"/>
<path fill-rule="evenodd" clip-rule="evenodd" d="M63.527 185.453C60.1449 185.453 56.4002 184.831 52.2526 183.371L52.1517 182.807C53.4999 183.188 55.1681 183.381 57.0246 183.381C63.3214 183.381 71.7785 181.158 77.2199 176.516C84.2003 170.56 86.1698 163.505 87.2425 162.097C88.316 160.691 92.082 160.794 94.7775 160.534C95.8449 160.431 96.7291 159.622 97.4077 158.686C97.317 160.04 97.003 161.246 96.4287 162.128C96.3983 162.174 96.3672 162.22 96.3357 162.265C96.0861 162.617 95.7903 162.912 95.4477 163.136C94.3268 163.868 92.1893 165.098 91.4599 166.033C88.6327 169.656 83.1883 179.577 72.9794 183.661C71.5509 184.232 70.0279 184.69 68.4078 184.999C66.8711 185.292 65.2461 185.453 63.5274 185.453H63.527Z" fill="#B9AFBE"/>
<path fill-rule="evenodd" clip-rule="evenodd" d="M49.2469 169.135C49.4346 168.414 49.8906 167.772 50.4235 167.297C50.9573 166.812 51.5585 166.453 52.1643 166.145C53.3846 165.552 54.6424 165.167 55.8881 164.84C58.3845 164.195 60.8702 163.77 63.2554 163.108C65.6251 162.452 67.9568 161.6 69.7362 160.155C69.9691 159.986 70.1588 159.779 70.3708 159.592C70.5802 159.387 70.796 159.152 71.0077 158.935C71.4345 158.491 71.8445 158.029 72.2527 157.564C73.0686 156.633 73.8466 155.658 74.6261 154.673C76.1908 152.707 77.6979 150.635 79.6586 148.792C80.6362 147.882 81.773 147.026 83.084 146.471C84.3593 145.909 85.6748 145.58 87.0191 145.38C88.3627 145.185 89.7434 145.142 91.1534 145.393C91.8563 145.508 92.5698 145.726 93.2586 146.069L93.77 146.349L94.2532 146.708C94.5688 146.952 94.8154 147.211 95.0597 147.485C96.0137 148.577 96.6684 149.797 97.1725 151.047C97.6789 152.3 98.0287 153.593 98.2563 154.911C98.4736 156.23 98.5726 157.576 98.4547 158.95C98.3959 159.636 98.284 160.33 98.0753 161.025C97.8644 161.716 97.5557 162.419 97.0538 163.057C96.929 163.216 96.7978 163.372 96.6411 163.514C96.4977 163.664 96.3285 163.793 96.1548 163.919L96.0262 164.013L95.9223 164.08L95.7152 164.212L95.3085 164.467C94.7718 164.803 94.2449 165.131 93.7465 165.471C93.2541 165.806 92.756 166.171 92.4222 166.511C92.2952 166.631 92.0979 166.911 91.9166 167.146L91.3723 167.896C89.9312 169.944 88.4628 172.061 86.8298 174.049C86.0184 175.048 85.1551 176.011 84.2648 176.95C83.3575 177.875 82.4251 178.779 81.4252 179.615C79.4489 181.309 77.2321 182.748 74.859 183.869C72.4871 184.998 69.9171 185.704 67.321 186.043C64.7189 186.361 62.0875 186.278 59.5278 185.883C56.9681 185.471 54.4789 184.759 52.0899 183.831C51.8377 183.734 51.7129 183.45 51.8115 183.198C51.9048 182.96 52.165 182.836 52.4082 182.908L52.4177 182.91C54.8184 183.629 57.2556 184.195 59.7197 184.459C62.1785 184.742 64.6616 184.718 67.0767 184.327C69.4946 183.953 71.8464 183.224 74.0393 182.155C74.5798 181.873 75.1344 181.618 75.6541 181.296L76.4446 180.833L77.2101 180.33C77.7298 180.008 78.2092 179.623 78.7096 179.272C79.1883 178.889 79.6776 178.519 80.1385 178.114C81.0769 177.321 81.9558 176.457 82.8154 175.573C83.6586 174.672 84.4791 173.747 85.2556 172.779C86.8218 170.85 88.2265 168.802 89.6816 166.708L90.2457 165.921C90.452 165.658 90.6064 165.409 90.922 165.076C91.475 164.514 92.0156 164.139 92.5618 163.755C93.1058 163.38 93.6516 163.036 94.1869 162.697L94.5825 162.446L94.7748 162.321L94.87 162.259L94.9307 162.211C95.013 162.149 95.0972 162.089 95.1705 162.007C95.2505 161.938 95.321 161.851 95.3908 161.76C95.9595 161.037 96.2409 159.905 96.3278 158.774C96.42 157.631 96.3308 156.441 96.1301 155.272C95.9223 154.105 95.6017 152.95 95.1538 151.863C94.7134 150.777 94.133 149.749 93.4164 148.941C93.2397 148.745 93.0451 148.545 92.8588 148.406C92.7651 148.338 92.6733 148.267 92.5827 148.196L92.2599 148.021C91.8172 147.8 91.3097 147.632 90.7619 147.544C89.6751 147.344 88.4894 147.366 87.3279 147.533C86.169 147.701 85.0034 147.994 83.9591 148.454C82.9284 148.883 82.0044 149.565 81.1316 150.371C79.3905 151.99 77.891 154.018 76.2944 155.989C75.497 156.979 74.6902 157.974 73.831 158.937C73.402 159.419 72.9677 159.899 72.5148 160.363C72.2838 160.597 72.0694 160.827 71.8252 161.062C71.5646 161.294 71.3165 161.548 71.0369 161.752C69.9479 162.618 68.7431 163.274 67.5168 163.789C66.2874 164.303 65.0337 164.696 63.7804 165.03C61.2734 165.696 58.7589 166.137 56.3225 166.652C55.1056 166.907 53.9069 167.185 52.794 167.583C51.7019 167.996 50.664 168.525 50.1683 169.471L50.1614 169.484C50.0359 169.725 49.7377 169.818 49.4965 169.693C49.2893 169.585 49.1915 169.351 49.2476 169.135L49.2469 169.135Z" fill="#1A2645"/>
<path fill-rule="evenodd" clip-rule="evenodd" d="M77.7218 182.149C77.5215 182.149 77.3189 182.088 77.1444 181.961C67.2626 174.787 70.3784 160.35 70.5165 159.739C70.6344 159.213 71.1579 158.881 71.6871 159C72.2155 159.117 72.5481 159.638 72.4309 160.165C72.3998 160.303 69.4646 173.968 78.3002 180.382C78.7376 180.7 78.834 181.312 78.5149 181.747C78.3234 182.01 78.0249 182.149 77.7214 182.149H77.7218Z" fill="#1A2645"/>
<path fill-rule="evenodd" clip-rule="evenodd" d="M116.154 182.149C116.083 182.149 116.01 182.141 115.937 182.124C113.077 181.48 111.64 179.582 110.25 177.747C108.395 175.298 106.642 172.982 101.316 173.115C98.3697 173.183 96.1411 172.369 94.7069 170.681C92.3759 167.939 93.113 163.968 93.1456 163.8C93.248 163.271 93.7646 162.925 94.2942 163.026C94.8256 163.129 95.1731 163.639 95.0714 164.168C95.0597 164.232 94.4945 167.418 96.2117 169.427C97.2435 170.635 98.9444 171.221 101.268 171.162C107.6 171.014 109.841 173.963 111.816 176.57C113.1 178.267 114.21 179.733 116.369 180.219C116.898 180.338 117.23 180.861 117.11 181.387C117.007 181.841 116.602 182.149 116.154 182.149H116.154Z" fill="#1A2645"/>
<path fill-rule="evenodd" clip-rule="evenodd" d="M36.6367 62.5896C36.648 62.6772 36.6693 62.7634 36.6992 62.8488L36.6367 62.5896Z" fill="#D66B09"/>
<path fill-rule="evenodd" clip-rule="evenodd" d="M9.96651 79.3359C20.8024 90.4681 45.1855 93.7151 52.2486 86.8948C59.3131 80.0748 56.8103 55.7034 45.9741 44.5712C35.1375 33.4393 18.2924 32.1972 8.34906 41.7972C-1.59385 51.3968 -0.869719 68.2036 9.96651 79.3359Z" fill="#FF2222"/>
<path fill-rule="evenodd" clip-rule="evenodd" d="M4.57742 68.6555C3.4732 65.857 2.83366 62.9164 2.70582 59.9346C2.4164 53.2306 4.75267 47.1299 9.28297 42.7557C10.3614 41.7146 11.5335 40.8007 12.7853 40.0183C16.7925 37.5141 21.6081 36.3638 26.7278 36.7412C28.5956 36.8787 30.4422 37.2149 32.2417 37.7366C32.2603 37.9546 32.2812 38.1729 32.3047 38.3916C26.0003 37.1714 19.5733 38.1597 14.3075 41.4509C12.9928 42.2725 11.7497 43.2385 10.6004 44.348C4.13892 50.5858 2.18273 59.8662 4.5778 68.6548L4.57742 68.6555ZM32.6377 38.4589C32.5714 38.4449 32.5031 38.4313 32.4363 38.4181C32.3775 38.1937 32.3221 37.9693 32.2706 37.7457C32.3919 37.7812 32.5137 37.8178 32.6351 37.8548C32.6336 38.0562 32.6351 38.2572 32.6377 38.4589Z" fill="#FFBCBC"/>
<path fill-rule="evenodd" clip-rule="evenodd" d="M37.4807 87.6173C29.0365 87.4269 18.8903 84.5483 11.8723 79.3214C11.5465 79.0226 11.2328 78.7177 10.9297 78.4068C9.73256 77.1768 8.65527 75.8666 7.70392 74.4927C13.2588 78.7173 21.8551 80.6852 29.5016 80.4834C31.5734 83.0534 34.3027 85.4795 37.4803 87.6173H37.4807Z" fill="#B91F2E"/>
<path fill-rule="evenodd" clip-rule="evenodd" d="M12.7854 40.0186C11.5336 40.8009 10.3615 41.7148 9.28307 42.7559C4.75277 47.1302 2.4165 53.2309 2.70592 59.9348C2.99687 66.6978 5.91768 73.2578 10.9297 78.4069C20.6515 88.3941 42.2208 91.8031 50.0637 86.9034C50.5322 86.6106 50.9506 86.2891 51.3163 85.9363C57.791 79.6845 55.3151 56.0853 45.0119 45.5005C40.0002 40.3514 33.5069 37.2408 26.7279 36.7414C21.6082 36.3636 16.7926 37.5139 12.7854 40.0186ZM51.5738 89.096C47.4578 91.6686 40.3454 92.4684 32.3071 91.1654C22.8706 89.6355 14.1589 85.5608 9.00389 80.2655C3.53437 74.6461 0.345751 67.4669 0.026358 60.0497C-0.295311 52.5731 2.32925 45.7505 7.41678 40.8387C12.5047 35.9269 19.4331 33.5258 26.9259 34.0781C34.3604 34.6262 41.4674 38.0228 46.9373 43.6414C52.092 48.9371 55.9114 57.7351 57.1537 67.1768C58.3668 76.3941 56.8453 84.3172 53.1826 87.8531C52.7152 88.3046 52.1762 88.7193 51.5738 89.0956V89.096Z" fill="#1A2645"/>
<path fill-rule="evenodd" clip-rule="evenodd" d="M11.8347 66.4102C9.13617 68.0966 6.11066 65.5999 6.14252 60.2921C6.17439 54.9247 8.33124 50.3533 13.6695 46.3137C13.9422 46.1071 14.2085 45.9235 14.4672 45.7618C18.2059 43.4253 20.3642 45.6768 17.4138 50.3812C12.533 58.1638 15.2418 63.5047 12.4173 65.975C12.2254 66.1427 12.0308 66.2874 11.8343 66.4102H11.8347Z" fill="#FF9191"/>
<path fill-rule="evenodd" clip-rule="evenodd" d="M66.5849 44.4336C66.553 44.5156 66.5295 44.6017 66.5151 44.6909L66.5849 44.4336Z" fill="#D66B09"/>
<path fill-rule="evenodd" clip-rule="evenodd" d="M91.541 129.855C91.2258 130.052 90.8036 129.999 90.5483 129.711L50.2797 87.5889C49.996 87.2693 50.0263 86.7816 50.3473 86.4986C50.6685 86.2119 51.1579 86.2463 51.4424 86.5655L91.7102 128.688C91.9939 129.008 91.964 129.496 91.6423 129.778C91.6104 129.807 91.5759 129.833 91.5402 129.855L91.541 129.855Z" fill="#1A2645"/>
<path fill-rule="evenodd" clip-rule="evenodd" d="M94.9428 129.884C94.9026 129.909 94.8605 129.931 94.815 129.948C94.4167 130.105 93.9657 129.911 93.8086 129.514L66.9231 68.7367C66.7656 68.3401 66.9591 67.8917 67.3593 67.7345C67.7583 67.5781 68.2094 67.7723 68.366 68.1697L95.2516 128.946C95.3908 129.298 95.2531 129.69 94.9432 129.884L94.9428 129.884Z" fill="#1A2645"/>
<path fill-rule="evenodd" clip-rule="evenodd" d="M72.5598 74.0788L76.6713 77.6316C77.8459 78.647 77.4754 80.549 76.0045 81.0553L70.8556 82.828C69.3847 83.3343 67.9163 82.0658 68.2126 80.5441L69.2495 75.2174C69.5458 73.6958 71.3848 73.0627 72.5598 74.0784L72.5598 74.0788Z" fill="#3BD8E0"/>
<path fill-rule="evenodd" clip-rule="evenodd" d="M70.802 75.0745C70.7026 75.1535 70.6031 75.2785 70.5658 75.471L69.5285 80.7966C69.4612 81.1438 69.6613 81.3613 69.7498 81.4379C69.8395 81.5147 70.0831 81.6816 70.4189 81.5664L75.5677 79.7937C75.9024 79.6787 75.9917 79.397 76.014 79.2815C76.0359 79.1661 76.06 78.8721 75.792 78.6407L71.68 75.0868C71.4124 74.8561 71.123 74.9203 71.0117 74.9585C70.9622 74.976 70.8817 75.0106 70.8016 75.0741L70.802 75.0745ZM77.4552 81.7638C77.1581 82.0004 76.8177 82.1887 76.4415 82.3179L71.2926 84.0907C70.1432 84.4865 68.9088 84.249 67.9918 83.456C67.0739 82.663 66.6644 81.4801 66.896 80.2913L67.9326 74.9658C68.1645 73.7762 68.9894 72.8311 70.1377 72.4351C71.2864 72.0397 72.5203 72.2765 73.4385 73.0698L77.55 76.6226C78.4675 77.4164 78.8771 78.5997 78.6455 79.7884C78.4897 80.5876 78.0653 81.2782 77.4549 81.7639L77.4552 81.7638Z" fill="#1A2645"/>
<path fill-rule="evenodd" clip-rule="evenodd" d="M35.3197 53.1159C41.1123 67.5026 62.4394 79.6899 71.5713 76.0356C80.7027 72.3806 87.6597 48.8757 81.8673 34.4882C76.0751 20.1017 60.9594 12.609 48.1059 17.7526C35.2524 22.8959 29.5277 38.729 35.3197 53.1159Z" fill="#00D7ED"/>
<path fill-rule="evenodd" clip-rule="evenodd" d="M76.1184 27.3056C68.846 20.0919 58.4477 17.2694 49.2172 20.9628C47.1302 21.7979 45.2311 22.9146 43.5385 24.2618C38.4582 28.3047 35.2414 34.4212 34.3964 41.2012C34.4388 38.1937 34.9667 35.2289 35.9824 32.4199C37.5062 28.2061 40.0086 24.681 43.245 22.1052C44.8596 20.8201 46.6561 19.7718 48.6051 18.9919C54.4612 16.6483 61.0074 17.0036 67.0364 19.9927C70.5369 21.7274 73.6203 24.2276 76.1184 27.3056Z" fill="#80EBF6"/>
<path fill-rule="evenodd" clip-rule="evenodd" d="M32.135 47.5042C31.9427 46.8498 31.7729 46.1946 31.6267 45.5391C31.6714 45.5427 31.7157 45.546 31.7604 45.55C31.7894 45.6232 31.8184 45.6967 31.8478 45.7705C31.9175 45.9428 31.9901 46.1139 32.0655 46.2859C32.1218 46.6556 32.1842 47.0249 32.2538 47.3937C32.2141 47.4306 32.1747 47.467 32.135 47.5042Z" fill="#B91F2E"/>
<path fill-rule="evenodd" clip-rule="evenodd" d="M31.7608 45.5494C31.716 45.5454 31.6714 45.5425 31.6266 45.5385C31.5785 45.3238 31.533 45.1096 31.4898 44.8948C31.5003 44.8962 31.5093 44.8983 31.5198 44.9001C31.5964 45.1164 31.6766 45.3335 31.7608 45.5494Z" fill="#B98392"/>
<path fill-rule="evenodd" clip-rule="evenodd" d="M31.5198 44.9C31.5097 44.8985 31.5004 44.8966 31.4899 44.8951C31.4775 44.8338 31.4652 44.7724 31.4532 44.7107C31.4749 44.7736 31.497 44.8373 31.5195 44.9001L31.5198 44.9Z" fill="#1A2645"/>
<path fill-rule="evenodd" clip-rule="evenodd" d="M78.2186 62.2985C77.1671 59.4851 75.8783 56.8995 74.3934 54.6541C78.0244 48.4363 80.3354 40.0696 79.7161 32.9502C80.0407 33.6139 80.3431 34.2931 80.6223 34.9867C80.7367 35.2691 80.8455 35.5574 80.9493 35.8475C82.8644 44.2756 81.4195 54.5606 78.2185 62.2981L78.2186 62.2985Z" fill="#80EBF6"/>
<path fill-rule="evenodd" clip-rule="evenodd" d="M36.564 52.6181C42.0713 66.2976 62.7016 78.1461 71.0718 74.7966C79.4434 71.445 86.1297 48.6661 80.6224 34.9871C77.9441 28.3327 73.1184 23.0078 67.036 19.9928C61.007 17.0033 54.4608 16.6485 48.6047 18.9921C42.7479 21.3357 38.2659 26.1046 35.9819 32.42C33.6784 38.7909 33.885 45.9642 36.5641 52.6189L36.5641 52.6185L36.564 52.6181ZM74.6881 75.7132C73.8341 76.3928 72.9581 76.9194 72.0702 77.2751C67.3349 79.1695 59.4502 77.3328 51.4928 72.4809C43.3422 67.5107 36.8307 60.4584 34.0755 53.6147L34.0754 53.6143C31.1518 46.3522 30.9335 38.5045 33.4595 31.517C36.0059 24.474 41.0304 19.1458 47.6069 16.5143C54.1833 13.8824 61.5088 14.2685 68.233 17.6018C74.9043 20.9089 80.1885 26.7294 83.1122 33.9915C85.8671 40.8353 86.0544 50.4192 83.6123 59.6275C81.6749 66.9318 78.3912 72.7666 74.6882 75.7136L74.6881 75.7132Z" fill="#1A2645"/>
<path fill-rule="evenodd" clip-rule="evenodd" d="M43.7379 41.0807C43.4219 41.332 43.0719 41.5309 42.6712 41.669C39.1177 42.892 36.8279 39.3039 39.0263 34.0451C40.1218 31.4239 41.6825 29.2325 43.8679 27.493C45.8149 25.9434 48.2588 24.7527 51.3102 23.9375C56.2137 22.6278 57.9211 25.4013 53.7872 28.691C53.6115 28.8308 53.4245 28.9719 53.2272 29.1134C52.8962 29.3508 52.5817 29.589 52.2803 29.8287C49.4159 32.1081 47.8695 34.4522 46.7442 36.4612C45.6192 38.4698 44.9156 40.1429 43.7372 41.0808L43.7379 41.0807Z" fill="#80EBF6"/>
<path fill-rule="evenodd" clip-rule="evenodd" d="M94.0097 130.708C93.6471 130.935 93.1683 130.827 92.9404 130.465L68.4222 95.5803C68.1946 95.2192 68.3042 94.7421 68.6669 94.5154C69.0295 94.2887 69.5086 94.3979 69.7362 94.7591L94.2544 129.644C94.4823 130.005 94.3723 130.482 94.0097 130.708Z" fill="#1A2645"/>
<path fill-rule="evenodd" clip-rule="evenodd" d="M70.6226 94.4774L75.4355 97.0146C76.8117 97.7395 76.8834 99.6756 75.5645 100.5L70.9515 103.383C69.6334 104.207 67.9142 103.3 67.8566 101.751L67.6567 96.3312C67.599 94.7819 69.2468 93.7525 70.6226 94.4774Z" fill="#FFE000"/>
<path fill-rule="evenodd" clip-rule="evenodd" d="M74.3276 98.5365L69.7146 101.419C69.5466 101.524 69.3713 101.601 69.1942 101.652L69.0845 98.671C69.5974 98.4545 70.0761 98.209 70.5157 97.9343C70.6371 97.8584 70.7555 97.7798 70.8712 97.7005C71.2732 97.4198 71.6624 97.0976 72.0376 96.7334L74.7638 98.1704C74.6413 98.3072 74.4964 98.4307 74.3276 98.5361V98.5365Z" fill="#B99B18"/>
<path fill-rule="evenodd" clip-rule="evenodd" d="M69.3148 95.682C69.2143 95.7451 68.9829 95.9287 68.9965 96.2816L69.1968 101.702C69.2097 102.055 69.454 102.221 69.5583 102.276C69.6626 102.331 69.9384 102.439 70.2388 102.251L74.8518 99.368C75.1526 99.1799 75.1746 98.8863 75.1708 98.7685C75.1663 98.6506 75.1223 98.3601 74.809 98.1939L69.9953 95.6571C69.6816 95.492 69.4149 95.6197 69.3148 95.682ZM76.2769 101.63L71.664 104.513C70.6345 105.156 69.3785 105.202 68.3039 104.636C67.23 104.07 66.5616 103.009 66.5165 101.8L66.3162 96.3794C66.2711 95.1702 66.859 94.064 67.8885 93.4207L67.8893 93.4203C68.9188 92.7769 70.1743 92.7309 71.249 93.2968L76.063 95.8343C77.1369 96.4006 77.8053 97.4614 77.8496 98.6714C77.8948 99.8806 77.3061 100.987 76.2766 101.631L76.2769 101.63Z" fill="#1A2645"/>
<path fill-rule="evenodd" clip-rule="evenodd" d="M29.5742 82.4257C38.4883 95.1367 62.0377 102.216 70.1037 96.6058C78.1701 90.9951 79.6036 66.5388 70.689 53.827C61.7748 41.1161 45.3443 37.2137 33.9907 45.1107C22.637 53.0076 20.6596 69.7143 29.5742 82.4257Z" fill="#FFE000"/>
<path fill-rule="evenodd" clip-rule="evenodd" d="M63.3666 48.0674C54.9842 42.9278 44.7363 42.3717 36.734 47.3731C36.4207 47.5688 36.1096 47.7743 35.8031 47.9873C28.4256 53.1183 25.0075 61.9695 25.9642 71.0263C25.3223 68.088 25.1623 65.0828 25.5132 62.1195C26.3022 55.4552 29.586 49.8033 34.7585 46.2058C35.0464 46.0052 35.3358 45.8144 35.6309 45.63C43.997 40.4016 55.0168 41.6411 63.3666 48.0678V48.0674Z" fill="#FFF6B2"/>
<path fill-rule="evenodd" clip-rule="evenodd" d="M67.9317 93.8706C61.7506 97.7326 47.5072 94.8686 36.9551 88.0294C34.3966 86.0676 32.2503 83.9098 30.6731 81.6609C30.1064 80.8532 29.5837 80.0251 29.1042 79.1812C38.2274 86.6751 54.9424 89.3516 62.1481 84.8474C62.2797 84.7651 62.4087 84.6808 62.5339 84.5936C68.8007 80.2344 72.1988 66.1253 69.9368 55.1003C72.1491 58.4436 73.6516 62.5999 74.518 66.9791C75.9696 78.2277 73.5325 89.9874 68.2484 93.6628C68.1441 93.7342 68.0402 93.8029 67.9317 93.8709V93.8706Z" fill="#B99B18"/>
<path fill-rule="evenodd" clip-rule="evenodd" d="M35.6313 45.6296C35.3362 45.8139 35.0464 46.0051 34.7585 46.2053C29.586 49.8028 26.3022 55.4551 25.5132 62.119C24.7177 68.8412 26.5499 75.7816 30.6731 81.6609C34.5954 87.2535 42.0374 92.2843 50.581 95.1191C58.5267 97.7549 65.9024 97.8996 69.3357 95.5101C76.7299 90.3671 78.0659 66.6776 69.5902 54.5911C61.3402 42.8284 46.3192 38.9498 35.6309 45.6296H35.6313ZM70.5165 97.9343C66.2419 100.606 58.345 100.51 49.7336 97.6525C40.6623 94.6431 32.7154 89.2368 28.4749 83.1902C23.9757 76.7737 21.9778 69.1796 22.8503 61.8066C23.7296 54.375 27.414 48.0564 33.2234 44.0157C45.157 35.7153 62.4653 39.768 71.7891 53.0619C76.0296 59.1097 78.3906 68.4011 78.1049 77.9187C77.8257 87.2112 75.0544 94.7912 70.8719 97.7005C70.7562 97.7798 70.6383 97.8584 70.5165 97.9343Z" fill="#1A2645"/>
<path fill-rule="evenodd" clip-rule="evenodd" d="M34.5461 70.2794C31.3616 72.2695 28.3153 69.2885 29.2609 63.6725C30.067 58.8861 32.4837 55.0184 37.3125 52.0004C37.8242 51.6804 38.364 51.3699 38.9307 51.0692C43.601 48.591 45.8955 51.2154 41.9759 55.6795C35.9109 62.5871 37.7298 68.2896 34.5457 70.2794H34.5461Z" fill="#FFF6B2"/>
<path fill-rule="evenodd" clip-rule="evenodd" d="M90.8515 128.381C90.4803 128.36 90.1663 128.073 90.1236 127.691L81.5184 70.0555C81.471 69.6308 81.777 69.2499 82.2024 69.2038C82.6302 69.1548 83.0101 69.4651 83.0585 69.89L91.6627 127.525C91.7102 127.95 91.404 128.331 90.9785 128.376C90.9357 128.382 90.8929 128.382 90.8509 128.38L90.8515 128.381Z" fill="#1A2645"/>
<path fill-rule="evenodd" clip-rule="evenodd" d="M82.4431 45.0901C82.4018 45.1683 82.3695 45.2509 82.3447 45.3379L82.4431 45.0901Z" fill="#D66B09"/>
<path fill-rule="evenodd" clip-rule="evenodd" d="M50.9971 43.3899C53.4294 58.7335 71.4766 75.4481 81.1801 73.9495C90.8847 72.4522 102.895 51.0986 100.463 35.7548C98.0295 20.411 84.9842 9.68154 71.3246 11.7899C57.6656 13.8981 48.5645 28.046 50.9971 43.3899Z" fill="#FF2222"/>
<path fill-rule="evenodd" clip-rule="evenodd" d="M52.754 31.5568C53.4658 28.6337 54.6392 25.8625 56.2544 23.3529C59.8842 17.7091 65.3111 14.0725 71.5348 13.1117C73.0163 12.883 74.5009 12.8124 75.9747 12.8952C80.6926 13.1603 85.2901 14.9978 89.255 18.2587C90.7016 19.4482 92.0163 20.7878 93.1855 22.2518C93.075 22.4406 92.9661 22.631 92.8592 22.8233C88.4125 18.1906 82.5921 15.2915 76.3922 14.9434C74.8442 14.8564 73.2716 14.9287 71.6928 15.1723C62.8167 16.5419 55.8665 22.9953 52.7547 31.5564L52.754 31.5568ZM93.0925 23.0703C93.0463 23.0206 92.9984 22.9701 92.9515 22.9208C93.0329 22.7036 93.117 22.4883 93.2039 22.2759C93.2825 22.3749 93.3609 22.475 93.4387 22.5753C93.3213 22.7389 93.2067 22.904 93.0925 23.0703Z" fill="#FFBCBC"/>
<path fill-rule="evenodd" clip-rule="evenodd" d="M68.6989 66.0231C61.9102 60.9977 55.2814 52.7946 52.5625 44.4772C52.4686 44.0452 52.3881 43.6152 52.3198 43.1864C52.0512 41.4911 51.9267 39.7995 51.9418 38.1284C54.0435 44.7833 59.9314 51.3485 66.2945 55.5935C66.505 58.8879 67.3355 62.4439 68.6985 66.0229L68.6989 66.0231Z" fill="#B91F2E"/>
<path fill-rule="evenodd" clip-rule="evenodd" d="M75.9747 12.8954C74.5008 12.8126 73.0163 12.8832 71.5348 13.1118C65.3111 14.0727 59.8842 17.7093 56.2544 23.353C52.5918 29.0458 51.1947 36.0895 52.3198 43.1865C54.5023 56.9522 70.1573 72.1764 79.3903 72.6967C79.9419 72.7277 80.4691 72.7063 80.9713 72.629C89.8663 71.2556 101.453 50.5484 99.1406 35.9591C98.0159 28.8623 94.505 22.5764 89.255 18.2589C85.2903 14.9976 80.6928 13.1602 75.9747 12.8954ZM79.3595 75.3588C74.5132 75.0867 68.2415 71.6383 62.426 65.9381C55.5992 59.2461 50.8322 50.8932 49.6746 43.5943C48.447 35.8492 49.9824 28.1452 53.9991 21.9015C58.0481 15.6081 64.1269 11.548 71.1158 10.4693C78.1051 9.39081 85.15 11.4249 90.9527 16.1973C96.7102 20.9326 100.557 27.8061 101.786 35.5508C102.943 42.8498 100.989 52.24 96.559 60.6699C92.2343 68.8996 86.422 74.4949 81.3905 75.2712C80.7484 75.3705 80.0688 75.3985 79.3597 75.3585L79.3595 75.3588Z" fill="#1A2645"/>
<path fill-rule="evenodd" clip-rule="evenodd" d="M59.9777 33.9077C56.8006 33.7291 55.7688 29.9446 58.8558 25.6268C61.9773 21.2603 66.3757 18.7695 73.0665 18.5481C73.4085 18.5365 73.7319 18.5401 74.0365 18.5572C78.4383 18.8045 78.9031 21.8886 73.7796 24.0304C65.304 27.5735 64.4368 33.499 60.7047 33.8882C60.4511 33.9145 60.2087 33.9205 59.9774 33.9075L59.9777 33.9077Z" fill="#FF9191"/>
<path fill-rule="evenodd" clip-rule="evenodd" d="M117.38 47.5288C117.307 47.5774 117.238 47.6342 117.175 47.6987L117.38 47.5288Z" fill="#D66B09"/>
<path fill-rule="evenodd" clip-rule="evenodd" d="M93.614 130.365C93.5668 130.363 93.5198 130.356 93.4724 130.344C93.0566 130.243 92.8001 129.824 92.9008 129.409L105.987 64.2522C106.087 63.8374 106.504 63.5826 106.922 63.685C107.338 63.7874 107.594 64.2061 107.493 64.6211L94.407 129.777C94.3179 130.145 93.979 130.386 93.614 130.365Z" fill="#1A2645"/>
<path fill-rule="evenodd" clip-rule="evenodd" d="M104.41 71.3682L105.113 76.7563C105.314 78.2959 103.771 79.4687 102.337 78.8675L97.3142 76.7633C95.8795 76.1621 95.628 74.2379 96.862 73.2996L101.181 70.0145C102.415 69.0762 104.209 69.8278 104.41 71.3679L104.41 71.3682Z" fill="#3BD8E0"/>
<path fill-rule="evenodd" clip-rule="evenodd" d="M102.435 70.9413C102.308 70.9341 102.151 70.9611 101.995 71.08L97.676 74.364C97.3947 74.5783 97.3992 74.8738 97.4143 74.9899C97.4301 75.1069 97.5008 75.3935 97.828 75.5312L102.851 77.6353C103.177 77.7723 103.431 77.6215 103.525 77.5502C103.618 77.4786 103.831 77.2753 103.785 76.9242L103.082 71.5349C103.036 71.1846 102.777 71.0399 102.669 70.9943C102.62 70.9744 102.537 70.9467 102.435 70.9407L102.435 70.9413ZM102.948 80.362C102.569 80.3408 102.189 80.2547 101.822 80.1007L96.7999 77.9965C95.6786 77.5268 94.9155 76.528 94.759 75.3258C94.6019 74.123 95.0836 72.9677 96.0478 72.2347L100.366 68.9503C101.331 68.2169 102.576 68.0606 103.696 68.5293C104.817 68.9989 105.58 69.9969 105.737 71.2001L106.441 76.5883C106.597 77.7914 106.115 78.947 105.151 79.6801C104.503 80.1727 103.726 80.4057 102.948 80.3618L102.948 80.362Z" fill="#1A2645"/>
<path fill-rule="evenodd" clip-rule="evenodd" d="M90.5712 30.9361C85.318 45.5285 93.1221 68.8195 102.37 72.1707C111.617 75.5211 132.454 62.6103 137.708 48.0175C142.961 33.4256 136.668 17.7725 123.652 13.0556C110.636 8.33844 95.8249 16.3441 90.5712 30.9361Z" fill="#00D7ED"/>
<path fill-rule="evenodd" clip-rule="evenodd" d="M138.199 38.8307C137.573 28.6064 131.692 19.5788 122.345 16.191C120.231 15.4251 118.071 14.9945 115.911 14.8732C109.428 14.5088 102.956 16.9323 97.8128 21.4297C99.8463 19.2135 102.214 17.3523 104.841 15.932C108.783 13.8016 112.997 12.8365 117.127 13.0684C119.187 13.1841 121.226 13.5975 123.2 14.3128C129.13 16.4618 133.779 21.0842 136.289 27.328C137.746 30.9525 138.383 34.8708 138.199 38.8307Z" fill="#80EBF6"/>
<path fill-rule="evenodd" clip-rule="evenodd" d="M91.9298 24.6282C92.222 24.0118 92.5313 23.4098 92.8585 22.8232C92.8895 22.8557 92.9203 22.8877 92.951 22.9204C92.924 22.9943 92.8967 23.0684 92.8695 23.1431C92.8068 23.3181 92.7471 23.4942 92.6888 23.6727C92.4848 23.986 92.2856 24.3031 92.092 24.6247C92.0378 24.6258 91.9842 24.6268 91.9298 24.6282Z" fill="#B91F2E"/>
<path fill-rule="evenodd" clip-rule="evenodd" d="M92.9515 22.9204C92.9208 22.8876 92.8894 22.8557 92.8587 22.8229C92.9657 22.6307 93.0743 22.4406 93.1851 22.2515C93.1919 22.2595 93.1973 22.267 93.2039 22.2754C93.1171 22.4879 93.0324 22.7032 92.9515 22.9204Z" fill="#B98392"/>
<path fill-rule="evenodd" clip-rule="evenodd" d="M93.204 22.2755C93.1975 22.2677 93.1918 22.26 93.1849 22.2519C93.2165 22.1979 93.2481 22.1439 93.2803 22.0898C93.2546 22.1512 93.2288 22.2135 93.2037 22.2753L93.204 22.2755Z" fill="#1A2645"/>
<path fill-rule="evenodd" clip-rule="evenodd" d="M116.474 66.3434C117.562 63.5439 118.321 60.7564 118.708 58.0924C125.556 55.869 132.85 51.1632 137.126 45.4378C136.927 46.1492 136.701 46.8574 136.447 47.5609C136.345 47.8477 136.234 48.1353 136.118 48.4209C131.938 55.9855 124.013 62.6993 116.474 66.3431L116.474 66.3434Z" fill="#80EBF6"/>
<path fill-rule="evenodd" clip-rule="evenodd" d="M91.8311 31.3927C86.8359 45.2673 94.3453 67.8417 102.821 70.9135C111.3 73.9845 131.452 61.4353 136.447 47.5611C138.878 40.8122 138.821 33.6262 136.288 27.3276C133.779 21.0835 129.13 16.4614 123.199 14.3125C117.268 12.1632 110.749 12.7388 104.841 15.9317C98.8814 19.1529 94.2608 24.6438 91.8307 31.3934L91.8309 31.3931L91.8311 31.3927ZM104.91 74.0046C103.821 73.9433 102.816 73.7532 101.917 73.4276C97.122 71.6895 92.4603 65.0706 89.7513 56.153C86.9768 47.0186 86.8116 37.4214 89.3107 30.48L89.3109 30.4797C91.9628 23.114 97.0235 17.1121 103.56 13.5788C110.148 10.0176 117.444 9.38564 124.104 11.7992C130.764 14.2125 135.974 19.3766 138.773 26.34C141.55 33.2486 141.62 41.1097 138.968 48.4754C136.468 55.4165 130.229 62.6936 122.277 67.9401C115.969 72.1017 109.635 74.2704 104.91 74.0049L104.91 74.0046Z" fill="#1A2645"/>
<path fill-rule="evenodd" clip-rule="evenodd" d="M104.865 27.5577C104.461 27.5348 104.068 27.4503 103.677 27.2866C100.211 25.8341 100.89 21.6322 106.031 19.1708C108.594 17.9439 111.217 17.3473 114.006 17.5038C116.49 17.6433 119.107 18.3814 121.927 19.8041C126.458 22.0905 125.886 25.2969 120.611 25.0003C120.387 24.9877 120.153 24.9685 119.912 24.9429C119.507 24.8997 119.114 24.8681 118.729 24.8464C115.074 24.6408 112.36 25.3609 110.183 26.1112C108.006 26.8614 106.368 27.6417 104.864 27.5572L104.865 27.5577Z" fill="#80EBF6"/>
<path fill-rule="evenodd" clip-rule="evenodd" d="M92.3763 130.501C91.9493 130.477 91.6207 130.113 91.6432 129.685L91.7313 87.0467C91.7536 86.6204 92.1183 86.2938 92.5453 86.3178C92.9723 86.3418 93.3007 86.7073 93.2784 87.1336L93.1903 129.772C93.1678 130.199 92.8032 130.525 92.3763 130.501Z" fill="#1A2645"/>
<path fill-rule="evenodd" clip-rule="evenodd" d="M94.165 87.4147L96.6337 92.263C97.3399 93.649 96.2819 95.272 94.7291 95.1848L89.2979 94.8795C87.7459 94.7924 86.8641 93.0606 87.7105 91.7617L90.6729 87.2186C91.5193 85.9197 93.4591 86.029 94.165 87.4147Z" fill="#FFE000"/>
<path fill-rule="evenodd" clip-rule="evenodd" d="M94.8509 92.8674L89.4197 92.5621C89.2219 92.551 89.0343 92.5129 88.8606 92.4518L90.49 89.9535C91.0338 90.0724 91.5665 90.1479 92.084 90.1771C92.227 90.1851 92.369 90.1891 92.5093 90.191C92.9996 90.1936 93.5034 90.1548 94.0199 90.0737L95.4183 92.8199C95.2394 92.861 95.0498 92.8783 94.8511 92.8671L94.8509 92.8674Z" fill="#B99B18"/>
<path fill-rule="evenodd" clip-rule="evenodd" d="M92.4019 87.6445C92.2833 87.6381 91.9884 87.6546 91.7961 87.9507L88.8336 92.4947C88.6404 92.7907 88.7445 93.0667 88.7979 93.1719C88.8514 93.2772 89.0146 93.5241 89.3683 93.544L94.7996 93.849C95.1538 93.8688 95.3411 93.6416 95.406 93.5432C95.4702 93.4443 95.6018 93.1815 95.4417 92.8651L92.9722 88.0166C92.8111 87.7008 92.5196 87.6513 92.4019 87.6445ZM94.6593 96.5189L89.2282 96.2136C88.0161 96.1455 86.9635 95.4588 86.4119 94.3768C85.8614 93.2945 85.9269 92.0428 86.5874 91.0288L89.55 86.4849C90.2105 85.471 91.3287 84.9064 92.5408 84.9745L92.5416 84.9747C93.7537 85.0428 94.806 85.7292 95.3576 86.8113L97.827 91.6606C98.3777 92.7426 98.312 93.9946 97.6504 95.0087C96.9899 96.0227 95.8706 96.5874 94.6585 96.5193L94.6593 96.5189Z" fill="#1A2645"/>
<path fill-rule="evenodd" clip-rule="evenodd" d="M67.5808 53.8959C67.5327 69.421 82.6888 88.7854 92.5136 88.8541C102.339 88.9224 117.614 69.7695 117.663 54.2435C117.711 38.7184 106.538 26.0547 92.7088 25.9584C78.8792 25.8621 67.6288 38.3702 67.5808 53.8959Z" fill="#FFE000"/>
<path fill-rule="evenodd" clip-rule="evenodd" d="M115.002 45.3153C111.118 36.2823 103.067 29.918 93.6452 29.3888C93.2764 29.368 92.9037 29.3565 92.5305 29.3538C83.5444 29.2909 75.6473 34.5506 71.2058 42.5013C72.376 39.7306 73.9783 37.1832 75.9739 34.9648C80.4619 29.9754 86.4041 27.2519 92.7045 27.2959C93.0554 27.2981 93.4019 27.3091 93.7493 27.3287C103.599 27.8821 111.887 35.25 115.002 45.3156L115.002 45.3153Z" fill="#FFF6B2"/>
<path fill-rule="evenodd" clip-rule="evenodd" d="M92.3167 85.367C85.0397 84.9573 75.0553 74.4034 70.379 62.7306C69.4202 59.6524 68.9113 56.6518 68.9197 53.9049C68.9225 52.9183 68.973 51.9403 69.068 50.9743C72.1994 62.3579 84.3112 74.1842 92.7955 74.6601C92.9505 74.6687 93.1045 74.6743 93.2571 74.6752C100.891 74.7282 111.804 65.1614 116.314 54.8501C116.193 58.8572 115.024 63.1192 113.206 67.1964C107.905 77.2231 99.1316 85.4247 92.6952 85.3799C92.5688 85.3781 92.4443 85.3743 92.3164 85.3673L92.3167 85.367Z" fill="#B99B18"/>
<path fill-rule="evenodd" clip-rule="evenodd" d="M93.7499 27.3286C93.4025 27.309 93.0555 27.2981 92.7048 27.2956C86.4044 27.2516 80.4619 29.9754 75.9742 34.9645C71.4477 39.9973 68.9418 46.724 68.9197 53.905C68.8987 60.7358 72.0771 69.1376 77.4219 76.3807C82.3931 83.1164 88.3352 87.4882 92.518 87.5161C101.525 87.5789 116.278 68.9962 116.324 54.2342C116.368 39.8667 106.334 28.0354 93.7496 27.3284L93.7499 27.3286ZM92.0847 90.1776C87.0518 89.8949 80.656 85.2621 75.2686 77.9616C69.5934 70.2717 66.219 61.2719 66.2419 53.8866C66.2668 46.0499 69.0141 38.6938 73.979 33.1735C78.9831 27.6094 85.6371 24.5722 92.7134 24.6215C107.25 24.7227 119.052 38.0154 119.003 54.253C118.979 61.6393 115.549 70.5914 109.827 78.2021C104.24 85.6326 97.6045 90.2269 92.5099 90.1915C92.3696 90.1896 92.2279 90.1858 92.0847 90.1776Z" fill="#1A2645"/>
<path fill-rule="evenodd" clip-rule="evenodd" d="M78.6475 46.8404C74.8983 46.6298 74.1287 42.4375 78.14 38.3949C81.5589 34.9495 85.7638 33.1836 91.4492 33.5028C92.0518 33.5366 92.6718 33.5942 93.3082 33.6753C98.5528 34.3442 98.9138 37.8114 93.1372 39.198C84.1987 41.3434 82.3959 47.051 78.6472 46.8402L78.6475 46.8404Z" fill="#FFF6B2"/>
</g>
<defs>
<clipPath id="clip0_9907_879">
<rect width="161" height="241" fill="white"/>
</clipPath>
</defs>
</svg>
