<svg width="169" height="269" viewBox="0 0 169 269" fill="none" xmlns="http://www.w3.org/2000/svg">
<g filter="url(#filter0_d_9910_2115)">
<g clip-path="url(#clip0_9910_2115)">
<path fill-rule="evenodd" clip-rule="evenodd" d="M50.3275 229.324C51.1459 232.756 49.1083 235.119 43.6253 236.253C38.1424 237.386 37.0955 240.37 36.932 240.927C36.3807 242.812 33.7246 259.606 43.1172 260.081C49.7424 260.415 51.87 249.266 51.87 249.266C51.87 249.266 68.5333 252.544 78.2441 224.958L50.3275 229.324Z" fill="white"/>
<path fill-rule="evenodd" clip-rule="evenodd" d="M60.9654 244.268C56.0177 244.268 51.1381 241.349 46.4532 235.588C46.1362 235.199 46.1935 234.624 46.5803 234.305C46.9671 233.986 47.5371 234.043 47.8542 234.434C52.2902 239.888 56.8215 242.589 61.3085 242.439C67.5744 242.239 71.7168 236.531 71.7585 236.474C72.0495 236.065 72.6154 235.971 73.022 236.264C73.428 236.558 73.5212 237.128 73.2297 237.537C73.0402 237.802 68.5146 244.034 61.3663 244.261C61.233 244.265 61.0992 244.268 60.9659 244.268H60.9654Z" fill="#1A2645"/>
<path fill-rule="evenodd" clip-rule="evenodd" d="M43.3926 259.175C43.3171 259.175 43.2396 259.173 43.1625 259.17C41.4472 259.084 40.129 258.388 39.1378 257.048C39.5923 257.4 40.1384 257.638 40.8183 257.637C40.9089 257.637 41.0026 257.634 41.0978 257.625C47.2799 257.058 48.8048 251.581 49.1281 247.932C51.8357 246.713 54.245 244.95 56.1197 243.327C57.7247 243.954 59.3417 244.268 60.9654 244.268C61.0987 244.268 61.2325 244.266 61.3658 244.262C63.0863 244.207 64.6539 243.805 66.047 243.221C64.2967 244.772 62.6225 245.841 61.1388 246.578C57.921 248.177 55.1373 248.471 53.524 248.471C52.5973 248.471 52.0569 248.374 52.0429 248.371L51.1527 248.197L50.9804 249.093C50.9606 249.196 48.976 259.175 43.3921 259.175H43.3926Z" fill="#B9AFBE"/>
<path fill-rule="evenodd" clip-rule="evenodd" d="M60.9535 242.444C59.8529 242.444 58.7492 242.273 57.6456 241.932C58.7852 240.834 59.591 239.926 59.968 239.485C61.4282 239.254 66.9008 238.223 72.6856 234.95C72.3379 235.538 71.987 236.099 71.634 236.637C70.9 237.578 66.9705 242.258 61.3085 242.438C61.1898 242.442 61.0721 242.444 60.9535 242.444Z" fill="#B9AFBE"/>
<path fill-rule="evenodd" clip-rule="evenodd" d="M60.9654 244.268C59.3417 244.268 57.7242 243.953 56.1197 243.327C56.6783 242.843 57.1885 242.373 57.6461 241.932C58.7497 242.273 59.8534 242.444 60.954 242.444C61.0727 242.444 61.1903 242.442 61.309 242.438C66.971 242.258 70.9005 237.578 71.6346 236.636C69.7765 239.466 67.8711 241.605 66.0475 243.22C64.6549 243.804 63.0869 244.206 61.3663 244.261C61.233 244.265 61.0992 244.268 60.9659 244.268H60.9654Z" fill="#1A2645"/>
<path fill-rule="evenodd" clip-rule="evenodd" d="M43.4176 261C43.3031 261 43.1886 260.997 43.0719 260.991C40.7485 260.874 38.8983 259.861 37.5755 257.983C33.8495 252.697 35.6727 242.005 36.0636 240.669C36.3406 239.724 37.6905 236.549 43.4431 235.359C46.3767 234.753 48.2816 233.784 49.1051 232.48C49.6153 231.673 49.7273 230.71 49.4472 229.536C49.33 229.046 49.6304 228.555 50.1162 228.437C50.6024 228.319 51.0912 228.621 51.2078 229.11C51.603 230.766 51.4098 232.229 50.6336 233.458C49.5206 235.219 47.2883 236.425 43.8075 237.145C38.9202 238.156 37.9461 240.687 37.8009 241.184C37.4578 242.356 35.7862 252.294 39.0519 256.928C40.0525 258.347 41.3967 259.08 43.1625 259.169C48.9214 259.448 50.9606 249.196 50.9809 249.092L51.1532 248.196L52.0434 248.37C52.0804 248.377 56.0713 249.095 61.1388 246.577C65.857 244.233 72.5071 238.526 77.3898 224.653C77.5569 224.178 78.0754 223.93 78.546 224.098C79.0177 224.266 79.2639 224.787 79.0968 225.262C73.9788 239.803 66.8716 245.803 61.8109 248.276C57.6258 250.321 54.1378 250.378 52.5739 250.264C51.9174 252.931 49.4342 260.999 43.4176 260.999V261Z" fill="#1A2645"/>
<path fill-rule="evenodd" clip-rule="evenodd" d="M59.8399 187.008C59.274 187.139 45.9732 186.576 38.5687 189.834C32.3955 192.55 29.3719 218.669 33.7709 223.338C37.8477 227.664 50.5446 227.794 50.5446 227.794L59.8399 187.008Z" fill="white"/>
<path fill-rule="evenodd" clip-rule="evenodd" d="M59.8399 187.009L58.3296 193.638L50.5441 227.794C50.5441 227.794 44.388 227.731 39.2721 226.231C37.0419 225.579 35.011 224.652 33.772 223.338C29.3734 218.67 32.3955 192.55 38.5698 189.834C45.9743 186.576 59.2735 187.139 59.8399 187.009Z" fill="white"/>
<path fill-rule="evenodd" clip-rule="evenodd" d="M37.4334 224.634C36.5082 224.244 35.68 223.787 35.0141 223.249C35.3499 223.073 35.6826 222.893 36.0043 222.695L37.2839 221.94C37.7025 221.676 38.1133 221.399 38.5282 221.13L39.1487 220.722L39.6511 220.36C39.7141 220.445 39.7802 220.53 39.85 220.616C39.8276 221.054 39.8234 221.39 39.825 221.605C39.2836 222.561 38.4725 223.758 37.4328 224.634H37.4334Z" fill="#B9AFBE"/>
<path fill-rule="evenodd" clip-rule="evenodd" d="M59.6467 186.117L59.6384 186.119L59.6467 186.117ZM58.6966 187.948C58.6639 187.948 58.63 187.948 58.5957 187.948C55.217 187.967 44.9362 188.028 38.9321 190.669C36.9752 191.53 34.9938 195.871 33.7605 201.997C31.9629 210.932 32.2685 220.417 34.4284 222.71C37.6619 226.142 47.1284 226.755 49.8288 226.861L58.6972 187.948H58.6966ZM51.2646 228.713L50.5358 228.705C50.0021 228.699 37.4052 228.519 33.1145 223.964C30.2142 220.886 30.2626 210.194 31.9853 201.635C32.8016 197.579 34.6955 190.542 38.2069 188.998C44.5525 186.206 54.7474 186.147 58.5847 186.124C59.0725 186.122 59.5353 186.118 59.6801 186.109L61.0461 185.793L51.2646 228.712V228.713Z" fill="#1A2645"/>
<path fill-rule="evenodd" clip-rule="evenodd" d="M38.0018 189.651C38.79 190.016 39.5527 190.39 40.319 190.776C41.0838 191.163 41.8433 191.559 42.5945 191.975C43.3463 192.39 44.0923 192.817 44.8243 193.278C45.5557 193.74 46.2788 194.22 46.9686 194.779C47.1914 194.959 47.2263 195.287 47.0472 195.512C46.8744 195.728 46.5651 195.768 46.3434 195.609L46.3366 195.605C45.6775 195.128 44.9586 194.705 44.2303 194.301C43.5014 193.896 42.7502 193.521 41.9943 193.156C41.2384 192.791 40.4721 192.443 39.7016 192.106C38.9327 191.771 38.1507 191.44 37.3797 191.135L37.3745 191.133C36.9632 190.969 36.7612 190.502 36.9231 190.088C37.0856 189.674 37.5494 189.471 37.9607 189.634C37.9732 189.639 37.9888 189.646 38.0018 189.652V189.651Z" fill="#1A2645"/>
<path fill-rule="evenodd" clip-rule="evenodd" d="M31.9442 205.946L38.9207 207.864C39.5433 208.035 39.9733 208.607 39.965 209.256C39.9353 211.636 39.5834 217.129 37.021 218.465C34.8944 219.574 31.9337 218.817 30.4672 216.98C28.8273 214.924 29.6483 209.63 30.1819 207.034C30.348 206.227 31.1549 205.729 31.9447 205.946H31.9442Z" fill="white"/>
<path fill-rule="evenodd" clip-rule="evenodd" d="M31.5688 206.806C31.448 206.806 31.3543 206.851 31.3023 206.883C31.232 206.926 31.1081 207.028 31.069 207.218C30.1424 211.73 30.1809 215.165 31.1737 216.408C32.4195 217.97 34.9064 218.54 36.604 217.655C38.3486 216.745 39.0165 212.713 39.0602 209.244C39.0628 209.011 38.9072 208.805 38.6817 208.742L31.7063 206.824C31.6578 206.811 31.612 206.806 31.5693 206.806L31.5688 206.806ZM34.8043 219.892C32.9088 219.892 30.9592 219.051 29.7618 217.55C28.01 215.355 28.541 210.519 29.2954 206.849C29.425 206.219 29.8108 205.665 30.3558 205.329C30.9004 204.993 31.5662 204.897 32.1836 205.067L39.1591 206.984C40.1805 207.265 40.8844 208.203 40.8714 209.268C40.8323 212.357 40.3341 217.764 37.4375 219.275C36.6353 219.693 35.7263 219.892 34.8048 219.892L34.8043 219.892Z" fill="#1A2645"/>
<path fill-rule="evenodd" clip-rule="evenodd" d="M33.102 218.006C33.1165 218.007 33.2175 217.976 33.2842 217.951C33.3602 217.923 33.4372 217.892 33.5143 217.854C33.6684 217.783 33.823 217.698 33.9719 217.601C34.2686 217.406 34.5607 217.183 34.8163 216.915C35.3421 216.391 35.7773 215.748 36.1105 215.039C36.4421 214.332 36.6811 213.565 36.8841 212.77C36.9841 212.375 37.0705 211.978 37.1356 211.579C37.198 211.188 37.2506 210.761 37.236 210.407L37.235 210.376C37.2298 210.244 37.3323 210.132 37.4641 210.127C37.5859 210.122 37.6905 210.21 37.7087 210.33C37.7821 210.803 37.767 211.21 37.7509 211.644C37.7296 212.071 37.6869 212.494 37.6291 212.915C37.514 213.748 37.3542 214.6 37.0726 215.436C36.7888 216.267 36.3765 217.077 35.8044 217.795C35.5264 218.16 35.1932 218.488 34.8303 218.789C34.6481 218.939 34.4545 219.078 34.2468 219.206C34.1447 219.27 34.0359 219.33 33.924 219.388C33.8027 219.448 33.7126 219.495 33.5304 219.558L33.3258 219.628C32.8932 219.777 32.4226 219.545 32.2753 219.109C32.1269 218.674 32.358 218.2 32.7906 218.052C32.8927 218.016 32.9999 218.003 33.102 218.008V218.006Z" fill="#1A2645"/>
<path fill-rule="evenodd" clip-rule="evenodd" d="M80.0078 199.434C80.0078 199.434 82.7155 198.71 86.5861 196.722C94.3279 192.743 106.731 183.713 111.484 165.317C112.103 162.92 118.459 159.357 115.141 156.312C114.136 155.388 112.65 155.73 112.65 155.73C112.65 155.73 114.329 154.038 112.972 152.113C110.827 149.073 105.368 153.073 105.368 153.073C105.368 153.073 106.5 150.066 106.105 147.854C105.827 146.304 104.309 145.437 103.295 145.469C100.416 145.557 96.8945 151.479 94.6747 154.895C92.5824 158.113 91.7749 161.476 90.9362 164.93C89.6259 170.317 88.2349 175.932 81.7659 181.59C79.5981 183.485 76.8624 185.385 73.3676 187.282L77.8448 195.477L80.0073 199.433L80.0078 199.434Z" fill="white"/>
<path fill-rule="evenodd" clip-rule="evenodd" d="M87.2228 195.35C86.8928 193.891 86.5039 192.402 86.0567 190.882C89.0225 189.484 92.7193 188.039 96.1412 185.735C96.9757 185.996 97.8561 186.141 98.7806 186.141C98.9097 186.141 99.0389 186.138 99.169 186.132C96.9242 188.527 94.6565 190.441 92.6022 191.942C90.7114 193.323 88.8799 194.448 87.2223 195.35H87.2228ZM98.7432 184.322C98.5245 184.322 98.3074 184.313 98.0919 184.292C101.571 181.461 104.523 177.485 105.744 171.396C106.669 166.781 100.955 164.78 101.082 158.269C101.082 158.259 101.085 158.254 101.092 158.254C101.149 158.254 101.454 158.628 101.937 159.001C102.418 159.375 103.076 159.748 103.839 159.748C104.155 159.748 104.49 159.684 104.836 159.529C109.535 157.432 111.364 153.855 112.378 152.875C112.985 154.014 112.112 154.979 112.009 155.086C111.725 155.372 111.666 155.811 111.858 156.165C111.861 156.171 111.864 156.176 111.867 156.181C109.714 158.501 106.209 161.288 107.142 162.813C107.372 163.186 107.902 163.812 108.782 163.812C109.305 163.812 109.952 163.591 110.734 162.965C111.587 162.28 113.755 158.836 115.141 157.883C115.168 157.978 115.183 158.075 115.187 158.173C115.236 159.287 113.945 160.698 112.805 161.944C111.811 163.031 110.872 164.058 110.607 165.086C108.532 173.116 104.946 179.291 101.089 183.951C100.291 184.198 99.5095 184.321 98.7421 184.321L98.7432 184.322Z" fill="#B9AFBE"/>
<path fill-rule="evenodd" clip-rule="evenodd" d="M80.0068 200.346C79.607 200.346 79.24 200.077 79.1327 199.669C79.0036 199.183 79.292 198.683 79.7746 198.554C79.834 198.538 85.8334 196.886 92.6022 191.943C98.8259 187.398 107 179.05 110.607 165.088C110.873 164.06 111.811 163.033 112.806 161.946C113.945 160.701 115.236 159.289 115.188 158.175C115.17 157.765 114.955 157.377 114.532 156.988C113.896 156.404 112.856 156.619 112.846 156.622C112.455 156.707 112.05 156.522 111.858 156.167C111.666 155.813 111.725 155.373 112.009 155.088C112.119 154.973 113.106 153.882 112.233 152.643C111.944 152.233 111.574 152.004 111.068 151.921C109.337 151.635 106.752 153.19 105.901 153.814C105.578 154.051 105.137 154.045 104.819 153.801C104.5 153.557 104.38 153.131 104.522 152.753C104.532 152.726 105.559 149.951 105.214 148.018C105.017 146.911 103.878 146.363 103.323 146.381C101.179 146.448 97.9779 151.434 96.0652 154.414C95.8445 154.757 95.6331 155.087 95.4327 155.395C93.4429 158.456 92.6626 161.665 91.8369 165.064C90.1007 172.207 88.1328 180.303 73.7987 188.087C73.3593 188.325 72.8096 188.16 72.5716 187.717C72.3348 187.274 72.4988 186.721 72.9387 186.482C86.5648 179.083 88.3499 171.736 90.0768 164.63C90.9024 161.233 91.7562 157.719 93.9162 154.397C94.115 154.09 94.3243 153.764 94.543 153.423C97.6228 148.626 100.405 144.647 103.266 144.558C104.785 144.512 106.65 145.76 106.995 147.695C107.194 148.809 107.058 150.071 106.846 151.124C108.135 150.479 109.837 149.871 111.359 150.121C112.347 150.283 113.138 150.776 113.709 151.587C114.539 152.763 114.52 153.932 114.208 154.857C114.719 154.969 115.27 155.198 115.751 155.64C116.539 156.362 116.957 157.189 116.996 158.095C117.078 159.966 115.516 161.674 114.138 163.181C113.338 164.055 112.511 164.96 112.36 165.547C108.61 180.065 100.089 188.743 93.6022 193.464C86.5695 198.583 80.4946 200.248 80.2395 200.316C80.1614 200.337 80.0833 200.346 80.0063 200.346H80.0068Z" fill="#1A2645"/>
<path fill-rule="evenodd" clip-rule="evenodd" d="M16.5157 244.615C22.1382 247.483 25.3883 239.84 25.3883 239.84C25.3883 239.84 34.4222 249.733 44.1923 248.448C52.4021 247.367 59.4978 238.633 59.4978 238.633C59.4978 238.633 94.2972 234.161 86.5856 196.722C86.0562 194.156 85.3273 191.432 84.3741 188.547C83.6416 186.327 82.7748 184.01 81.7659 181.591C81.2359 180.328 80.668 179.037 80.0599 177.717L53.2408 186.297L50.1505 187.288L49.379 187.534C49.4066 187.719 49.4331 187.902 49.4581 188.086C50.1453 193.342 49.1156 197.979 47.6017 201.964C45.6833 207.023 42.9881 211.034 42.0385 213.929C41.5148 215.523 41.1988 216.992 41.0114 218.219C40.6725 220.411 40.7355 221.837 40.7355 221.837C39.977 223.222 37.4656 227.361 33.6751 226.663C32.3612 226.419 31.1804 225.563 30.0419 224.567C28.0261 222.806 26.1358 220.612 23.8301 220.614C20.5019 220.618 17.7048 223.072 15.8348 226.216C14.6671 228.178 13.8627 230.41 13.516 232.482C12.9158 236.051 12.4077 242.524 16.5157 244.616V244.615Z" fill="white"/>
<path fill-rule="evenodd" clip-rule="evenodd" d="M42.4259 247.651C33.8714 247.651 26.1358 239.313 26.0541 239.224L25.1082 238.192L24.5553 239.481C24.5402 239.518 22.9597 243.143 20.2973 244.114C19.8673 244.27 19.4342 244.349 18.9943 244.349C18.5289 244.349 18.0551 244.261 17.5694 244.084C23.5495 243.742 21.7852 235.23 22.6718 235.096C22.7946 235.078 22.9196 235.069 23.0471 235.069C25.029 235.069 27.5831 237.246 30.7181 239.423C33.8537 241.601 37.5697 243.778 41.8798 243.778C42.4248 243.778 42.9808 243.742 43.5457 243.668C49.3509 242.904 54.5995 238.313 57.1755 235.69C58.2974 234.547 59.7149 233.749 61.2684 233.379C65.2702 232.427 73.4337 229.776 79.5091 223.12C81.111 222.395 82.6509 221.588 83.9066 220.732C83.6906 221.184 83.4625 221.629 83.2231 222.067C75.8977 235.441 59.5463 237.706 59.3823 237.727L59.0246 237.774L58.7966 238.054C58.7279 238.139 51.8253 246.524 44.0767 247.543C43.5238 247.616 42.9735 247.65 42.4259 247.65V247.651Z" fill="#B9AFBE"/>
<path fill-rule="evenodd" clip-rule="evenodd" d="M42.3983 249.476C34.7512 249.476 28.0006 243.677 25.6204 241.373C24.8224 242.758 23.2387 244.977 20.922 245.825C19.3623 246.396 17.7417 246.263 16.106 245.429C12.6825 243.684 11.4779 239.153 12.6222 232.328C13.6613 226.127 18.1368 219.709 23.828 219.702H23.8338C26.0864 219.702 27.8746 221.349 29.6046 222.944C30.9654 224.197 32.3731 225.495 33.8396 225.764C36.6649 226.286 38.7635 223.478 39.8255 221.606C39.8198 220.682 39.9067 217.523 41.1796 213.642C41.6491 212.211 42.4925 210.581 43.4697 208.694C46.1513 203.515 49.822 196.421 48.4841 187.672C48.4081 187.174 48.747 186.709 49.241 186.632C49.7366 186.555 50.1979 186.897 50.2744 187.394C51.7029 196.733 47.8729 204.133 45.0757 209.536C44.135 211.353 43.3223 212.923 42.8991 214.214C41.5221 218.414 41.6387 221.764 41.6403 221.797L41.6502 222.052L41.5284 222.275C39.3929 226.179 36.4713 228.103 33.5132 227.558C31.5344 227.193 29.9315 225.716 28.3812 224.288C26.8392 222.867 25.382 221.525 23.8332 221.525H23.8301C19.1588 221.531 15.3022 227.295 14.4078 232.631C13.8377 236.033 13.4062 242.008 16.9244 243.802C18.1103 244.407 19.2134 244.508 20.2978 244.113C22.9602 243.142 24.5407 239.517 24.5558 239.481L25.1087 238.192L26.0546 239.224C26.1421 239.319 34.8928 248.752 44.0767 247.543C51.8253 246.524 58.7279 238.139 58.7966 238.055L59.0246 237.775L59.3823 237.728C59.5463 237.707 75.8977 235.441 83.2231 222.067C89.0928 211.351 87.7517 196.559 79.2389 178.1C79.0281 177.644 79.2249 177.102 79.6794 176.89C80.1333 176.678 80.6711 176.876 80.8819 177.332C89.6561 196.357 90.9748 211.709 84.801 222.963C77.5459 236.188 62.5397 239.08 59.9685 239.485C58.6467 241.032 52.0398 248.335 44.312 249.352C43.6701 249.437 43.0313 249.476 42.3993 249.476H42.3983Z" fill="#1A2645"/>
<path fill-rule="evenodd" clip-rule="evenodd" d="M94.3967 157.31C95.1047 153.176 99.1778 150.53 100.111 150.331C100.823 150.18 103.271 151.641 102.197 153.602C101.124 155.563 99.7744 156.098 100.065 156.73C100.355 157.363 102.399 159.186 101.58 162.169L94.3967 157.31V157.31Z" fill="white"/>
<path fill-rule="evenodd" clip-rule="evenodd" d="M93.5044 157.155C93.6949 156.055 94.1067 155.011 94.6575 154.077C95.2078 153.139 95.895 152.308 96.6629 151.574C97.0476 151.207 97.4516 150.862 97.8816 150.545C98.3178 150.228 98.7525 149.932 99.2872 149.674C99.4371 149.61 99.5496 149.546 99.7651 149.485L99.9109 149.443C99.9723 149.43 100.06 149.421 100.135 149.416C100.31 149.402 100.405 149.422 100.516 149.437C100.93 149.512 101.222 149.643 101.503 149.797C102.057 150.104 102.536 150.525 102.911 151.101C103.009 151.235 103.077 151.409 103.155 151.566C103.219 151.733 103.275 151.912 103.316 152.09C103.381 152.457 103.386 152.848 103.301 153.201C103.258 153.377 103.216 153.558 103.142 153.71C103.076 153.86 103 154.047 102.934 154.149C102.802 154.392 102.657 154.626 102.502 154.855C102.193 155.31 101.845 155.743 101.496 156.126C101.327 156.316 101.152 156.499 101.037 156.638C101.017 156.667 100.977 156.712 100.973 156.724C100.959 156.743 100.943 156.764 100.957 156.745C100.949 156.752 100.986 156.688 100.984 156.635C101.005 156.555 100.985 156.459 100.969 156.389C100.923 156.282 100.952 156.341 100.95 156.339C100.956 156.355 100.993 156.409 101.013 156.443L101.21 156.733C101.353 156.94 101.497 157.175 101.636 157.41C101.906 157.891 102.141 158.419 102.271 158.981C102.407 159.541 102.44 160.126 102.374 160.687C102.316 161.25 102.118 161.777 101.87 162.25C101.79 162.401 101.603 162.459 101.453 162.379C101.352 162.325 101.293 162.223 101.289 162.117L101.288 162.087C101.269 161.597 101.253 161.141 101.159 160.709C101.068 160.278 100.933 159.877 100.755 159.496C100.573 159.117 100.355 158.756 100.093 158.403C99.9629 158.222 99.8265 158.05 99.6771 157.858L99.4413 157.545C99.3934 157.475 99.357 157.43 99.3002 157.339C99.2409 157.227 99.194 157.186 99.1227 156.955C99.0576 156.768 99.0508 156.546 99.0737 156.343C99.105 156.17 99.1654 155.984 99.2232 155.883C99.2862 155.75 99.3434 155.672 99.4007 155.589C99.4632 155.495 99.509 155.452 99.5642 155.382C99.7714 155.146 99.9431 154.978 100.113 154.806C100.442 154.471 100.74 154.151 100.993 153.791C101.586 152.94 101.703 152.61 101.381 152.076C101.101 151.573 100.097 151.01 100.057 151.321C99.7016 151.491 99.3132 151.748 98.9525 152.012C98.5886 152.28 98.2392 152.579 97.9097 152.894C96.5869 154.149 95.5837 155.747 95.288 157.463L95.2874 157.466C95.2021 157.962 94.733 158.294 94.2405 158.208C93.7475 158.122 93.4174 157.651 93.5028 157.154V157.154L93.5044 157.155Z" fill="#1A2645"/>
<path fill-rule="evenodd" clip-rule="evenodd" d="M88.4858 201.717L84.3471 217.914L75.3782 222.786L70.6355 225.363C70.6355 225.363 66.2105 225.503 65.1349 225.521C63.6767 225.549 63.5471 223.811 63.7767 222.72C64.1676 220.853 64.3509 219.079 64.4212 217.426C64.5331 214.758 64.3498 212.398 64.2749 210.437C64.2119 208.827 65.2328 207.373 66.7665 206.91C75.9227 204.153 84.5261 200.466 84.5261 200.466L88.4863 201.717H88.4858Z" fill="white"/>
<path fill-rule="evenodd" clip-rule="evenodd" d="M84.5704 201.437C82.943 202.12 75.1554 205.335 67.0252 207.784C65.8908 208.125 65.1318 209.202 65.1781 210.402C65.1942 210.829 65.2166 211.274 65.2385 211.738C65.3864 214.783 65.5701 218.572 64.6606 222.91C64.5284 223.542 64.5919 224.241 64.8054 224.501C64.8408 224.544 64.8959 224.613 65.1188 224.611C66.0402 224.594 69.4954 224.487 70.3929 224.459L83.5688 217.301L87.3941 202.328L84.5709 201.437H84.5704ZM65.1016 226.434C64.4087 226.434 63.8246 226.168 63.4091 225.661C62.7183 224.82 62.687 223.493 62.8885 222.533C63.7496 218.425 63.5721 214.766 63.4294 211.826C63.407 211.357 63.3846 210.905 63.3685 210.473C63.2894 208.442 64.5794 206.618 66.5056 206.037C75.5047 203.327 84.0852 199.665 84.1706 199.628C84.3689 199.543 84.5902 199.533 84.7958 199.597L88.7555 200.846C89.2152 200.991 89.4817 201.473 89.3615 201.943L85.2232 218.141C85.1602 218.387 84.9988 218.595 84.776 218.716L71.0635 226.165C70.9401 226.232 70.8027 226.27 70.6621 226.274C70.4809 226.28 66.2183 226.414 65.1505 226.433C65.1333 226.434 65.1172 226.434 65.1011 226.434L65.1016 226.434Z" fill="#1A2645"/>
<path fill-rule="evenodd" clip-rule="evenodd" d="M65.1104 224.611C64.8939 224.611 64.8402 224.543 64.8054 224.501C64.5924 224.241 64.5284 223.542 64.6606 222.91C64.6617 222.904 64.6632 222.898 64.6648 222.892C66.7941 221.335 67.8894 219.439 67.6811 217.522C67.5916 216.699 67.3053 216.055 66.9424 215.555C67.6197 214.848 68.0128 214.034 68.3605 213.313C68.2299 215.71 67.9222 219.257 67.2027 222.999C67.0986 223.542 67.1455 224.074 67.3308 224.553C66.3932 224.58 65.517 224.604 65.1177 224.612C65.1151 224.612 65.112 224.612 65.1094 224.612L65.1104 224.611Z" fill="#C3BAC7"/>
<path fill-rule="evenodd" clip-rule="evenodd" d="M65.0995 225.522C64.014 225.522 63.6814 224.523 63.685 223.57C63.685 223.56 63.6855 223.549 63.6855 223.539C64.0328 223.331 64.3597 223.115 64.6653 222.891C64.6632 222.897 64.6622 222.903 64.6611 222.909C64.5289 223.541 64.5924 224.24 64.8059 224.5C64.8402 224.543 64.8944 224.611 65.1109 224.611C65.1135 224.611 65.1167 224.611 65.1193 224.611C65.5186 224.603 66.3947 224.579 67.3323 224.551C67.4594 224.879 67.6504 225.181 67.9014 225.447C66.7732 225.48 65.6175 225.513 65.1349 225.521C65.1229 225.521 65.1115 225.521 65.0995 225.521V225.522Z" fill="#1A2645"/>
<path fill-rule="evenodd" clip-rule="evenodd" d="M85.9557 212.191C86.014 213.547 86.2347 215.216 86.2347 215.216C86.2347 215.216 83.5177 215.599 83.2954 215.609C82.563 215.641 81.9013 214.091 81.8175 212.147C81.7331 210.204 82.2595 208.602 82.9919 208.57C83.5276 208.546 85.7074 208.216 85.7074 208.216C85.7074 208.216 85.9323 211.669 85.9552 212.191H85.9557Z" fill="white"/>
<path fill-rule="evenodd" clip-rule="evenodd" d="M87.6992 211.641C87.783 213.584 87.0604 215.194 86.0848 215.237C85.1097 215.279 84.2507 213.739 84.1669 211.794C84.0831 209.851 84.8057 208.241 85.7813 208.198C86.7564 208.155 87.6148 209.696 87.6992 211.641Z" fill="white"/>
<path fill-rule="evenodd" clip-rule="evenodd" d="M88.541 202.481C88.3765 203.961 88.1219 206.314 87.7799 208.771C87.29 212.285 86.6215 216.005 85.7813 217.656C84.3179 220.529 76.12 223.864 70.6329 225.364C69.1929 225.757 67.8081 224.647 68.0919 223.172C68.5557 220.756 68.8509 218.428 69.0383 216.418C69.2164 214.516 69.2986 212.899 69.3351 211.76C69.3684 210.716 70.0878 209.824 71.0931 209.567C79.8366 207.341 85.218 203.687 87.4779 201.885C87.9376 201.518 88.606 201.893 88.5404 202.481H88.541Z" fill="white"/>
<path fill-rule="evenodd" clip-rule="evenodd" d="M70.0415 224.533C69.7448 224.533 69.4663 224.429 69.2565 224.233C69.1154 224.102 68.8915 223.81 68.9811 223.345C69.3814 221.263 69.6579 219.242 69.8474 217.435C70.8792 218.5 72.6726 219.654 75.6026 219.654C76.3606 219.654 77.194 219.577 78.1108 219.401C79.5805 219.117 80.9174 218.343 82.1179 217.282C81.6514 216.731 81.2943 215.54 81.2344 214.148C81.2162 213.74 81.2255 213.348 81.2578 212.982C81.4728 214.679 82.1397 216.243 83.2689 216.243C83.2871 216.243 83.3048 216.243 83.323 216.242C83.4891 216.235 84.5725 216.088 85.4663 215.963C85.3091 216.472 85.1457 216.905 84.9754 217.24C83.7843 219.579 76.4803 222.821 70.3966 224.484C70.2779 224.517 70.1587 224.533 70.0421 224.533L70.0415 224.533Z" fill="#C3BAC7"/>
<path fill-rule="evenodd" clip-rule="evenodd" d="M70.2409 211.79C70.168 214.04 69.9067 218.533 68.9811 223.345C68.892 223.81 69.1159 224.101 69.2565 224.233C69.5475 224.505 69.9733 224.599 70.3961 224.484C76.4803 222.821 83.7838 219.578 84.9749 217.24C86.2545 214.725 87.1687 206.645 87.5768 202.961C84.9202 204.991 79.595 208.342 71.316 210.451C70.7037 210.607 70.2612 211.158 70.2404 211.791L70.2409 211.79ZM70.0384 226.356C69.2908 226.356 68.5745 226.083 68.0242 225.568C67.3157 224.906 67.0169 223.969 67.2038 222.997C68.1054 218.309 68.3595 213.926 68.4308 211.731C68.4782 210.29 69.4814 209.037 70.8724 208.683C79.3358 206.527 84.5563 203.05 86.9157 201.17C87.4118 200.774 88.0912 200.718 88.6451 201.027C89.1995 201.336 89.5124 201.946 89.4416 202.581L89.4015 202.94C88.9611 206.922 88.0443 215.208 86.5867 218.071C84.7057 221.765 74.604 225.223 70.8708 226.243C70.5934 226.319 70.3138 226.356 70.0384 226.356Z" fill="#1A2645"/>
<path fill-rule="evenodd" clip-rule="evenodd" d="M85.9557 212.191C86.014 213.547 86.2347 215.216 86.2347 215.216C86.2347 215.216 83.5177 215.599 83.2954 215.609C82.563 215.641 81.9013 214.091 81.8175 212.147C81.7331 210.204 82.2595 208.602 82.9919 208.57C83.5276 208.546 85.7074 208.216 85.7074 208.216C85.7074 208.216 85.9323 211.669 85.9552 212.191H85.9557Z" fill="#22A7F0"/>
<path fill-rule="evenodd" clip-rule="evenodd" d="M82.6754 209.911C82.8004 209.501 82.9477 209.26 83.0424 209.202C83.361 209.184 84.0899 209.089 84.7214 209C84.6849 209.063 84.6495 209.129 84.6162 209.199C84.6162 209.198 84.6162 209.198 84.6162 209.197C84.5522 209.329 84.4944 209.472 84.4428 209.624C83.8593 209.705 83.2397 209.785 82.9873 209.797C82.8784 209.801 82.7743 209.84 82.6754 209.91V209.911Z" fill="#D3EDFC"/>
<path fill-rule="evenodd" clip-rule="evenodd" d="M83.2897 214.975C83.0804 214.866 82.578 213.988 82.4614 212.387C82.7098 212.888 83.0153 213.189 83.3345 213.189C83.3412 213.189 83.349 213.188 83.3563 213.188C83.437 213.184 83.8493 213.131 84.3418 213.064C84.51 213.763 84.7833 214.347 85.1165 214.733C84.2367 214.854 83.4631 214.958 83.2897 214.974V214.975Z" fill="#287CBC"/>
<path fill-rule="evenodd" clip-rule="evenodd" d="M83.0424 209.202C82.8332 209.331 82.3693 210.346 82.4464 212.12C82.5224 213.89 83.069 214.86 83.2897 214.975C83.4912 214.956 84.4939 214.82 85.5351 214.675C85.4648 214.057 85.3648 213.083 85.3273 212.218C85.3112 211.852 85.1915 209.975 85.1248 208.942C84.4361 209.041 83.4329 209.18 83.0419 209.201L83.0424 209.202ZM83.2689 216.242C81.9617 216.242 81.275 214.147 81.1901 212.175C81.1464 211.16 81.2568 210.19 81.502 209.443C81.92 208.17 82.5989 207.954 82.9654 207.938C83.3777 207.92 85.0171 207.681 85.6147 207.59C85.7876 207.563 85.9656 207.612 86.1025 207.723C86.2394 207.834 86.3238 207.997 86.3357 208.175C86.3446 208.316 86.5617 211.641 86.5841 212.164C86.6408 213.475 86.8558 215.115 86.8584 215.133C86.9037 215.477 86.6648 215.795 86.3227 215.843C85.4965 215.959 83.5511 216.232 83.323 216.241C83.3048 216.242 83.2871 216.242 83.2689 216.242Z" fill="#1A2645"/>
<path fill-rule="evenodd" clip-rule="evenodd" d="M87.6992 211.641C87.783 213.584 87.0604 215.194 86.0848 215.237C85.1097 215.279 84.2507 213.739 84.1669 211.794C84.0831 209.851 84.8057 208.241 85.7813 208.198C86.7564 208.155 87.6148 209.696 87.6992 211.641Z" fill="#22A7F0"/>
<path fill-rule="evenodd" clip-rule="evenodd" d="M84.2768 212.767C84.2591 212.672 84.2434 212.575 84.2294 212.477C84.2434 212.574 84.2591 212.669 84.2768 212.762C84.2768 212.764 84.2768 212.765 84.2768 212.767ZM84.1669 211.796C84.1612 211.665 84.1591 211.536 84.1607 211.409C84.1596 211.536 84.1612 211.665 84.1669 211.796ZM84.1607 211.406C84.1607 211.403 84.1607 211.401 84.1607 211.399C84.1607 211.401 84.1607 211.403 84.1607 211.406ZM84.1607 211.393C84.1607 211.391 84.1607 211.39 84.1607 211.389C84.1607 211.39 84.1607 211.391 84.1607 211.393Z" fill="#D3EDFC"/>
<path fill-rule="evenodd" clip-rule="evenodd" d="M84.6162 209.199C84.6495 209.129 84.6849 209.062 84.7214 209C84.6849 209.063 84.6495 209.129 84.6162 209.199Z" fill="#F6FBFE"/>
<path fill-rule="evenodd" clip-rule="evenodd" d="M84.7214 209C84.8859 208.714 85.0811 208.493 85.2982 208.356C85.0811 208.493 84.8864 208.714 84.7214 209Z" fill="#D7D1DA"/>
<path fill-rule="evenodd" clip-rule="evenodd" d="M87.7034 211.891C87.7034 211.863 87.7028 211.835 87.7023 211.806C87.6929 211.827 87.6831 211.846 87.6732 211.865C87.3837 210.507 86.697 209.542 85.9349 209.542C85.9224 209.542 85.9099 209.542 85.8974 209.542C85.4476 209.562 85.0509 209.915 84.763 210.481C84.6881 210.13 84.6391 209.753 84.6214 209.358C84.6188 209.305 84.6178 209.252 84.6162 209.198C84.6495 209.128 84.6849 209.063 84.7214 208.999C84.8864 208.713 85.0811 208.492 85.2982 208.356C85.4497 208.26 85.6116 208.206 85.7813 208.198C85.7943 208.198 85.8079 208.197 85.8209 208.197C86.7793 208.197 87.6164 209.722 87.6981 211.639C87.7013 211.724 87.7039 211.807 87.7039 211.89L87.7034 211.891Z" fill="#D3EDFC"/>
<path fill-rule="evenodd" clip-rule="evenodd" d="M84.3418 213.065C84.3179 212.966 84.2966 212.865 84.2773 212.762C84.2966 212.865 84.3184 212.966 84.3418 213.065ZM84.2299 212.478C84.1987 212.257 84.1768 212.029 84.1669 211.796C84.1711 211.892 84.1773 211.987 84.1851 212.082C84.1935 212.176 84.2028 212.268 84.2143 212.36C84.2195 212.399 84.2242 212.439 84.2299 212.477V212.478ZM84.1607 211.409C84.1607 211.408 84.1607 211.406 84.1607 211.406C84.1607 211.407 84.1607 211.408 84.1607 211.409ZM84.1607 211.399C84.1607 211.397 84.1607 211.395 84.1607 211.393C84.1607 211.395 84.1607 211.397 84.1607 211.399ZM84.1607 211.389C84.1706 210.734 84.2721 210.128 84.4428 209.624H84.4434C84.2721 210.127 84.1706 210.733 84.1607 211.389Z" fill="#287CBC"/>
<path fill-rule="evenodd" clip-rule="evenodd" d="M84.4428 209.624C84.4944 209.472 84.5522 209.329 84.6162 209.197C84.6162 209.198 84.6162 209.198 84.6162 209.199C84.5527 209.331 84.4949 209.473 84.4434 209.625H84.4428V209.624Z" fill="#A4ADC5"/>
<path fill-rule="evenodd" clip-rule="evenodd" d="M85.1165 214.733C84.7833 214.347 84.5095 213.764 84.3419 213.065C84.5095 213.764 84.7833 214.347 85.1165 214.733Z" fill="#2D5E98"/>
<path fill-rule="evenodd" clip-rule="evenodd" d="M86.0161 215.237C85.6933 215.228 85.3851 215.045 85.116 214.733C85.3851 215.045 85.6933 215.227 86.0161 215.237Z" fill="#1A2645"/>
<path fill-rule="evenodd" clip-rule="evenodd" d="M86.0437 215.237C86.0343 215.237 86.0255 215.237 86.0161 215.237C85.6933 215.227 85.3851 215.045 85.1165 214.733C84.7833 214.347 84.5095 213.763 84.3419 213.065C84.3179 212.966 84.2966 212.865 84.2773 212.762C84.2861 211.866 84.4678 211.062 84.7635 210.482C85.0546 211.839 85.7381 212.801 86.5008 212.801C86.5138 212.801 86.5278 212.801 86.5409 212.801C86.9891 212.783 87.3842 212.429 87.6732 211.866C87.6831 211.915 87.6935 211.965 87.7028 212.015C87.7034 211.974 87.7039 211.933 87.7034 211.891C87.719 213.721 87.0172 215.195 86.0833 215.237C86.0702 215.237 86.0567 215.238 86.0437 215.238V215.237ZM84.2138 212.36C84.2023 212.268 84.193 212.175 84.1846 212.082C84.193 212.176 84.2023 212.268 84.2138 212.36Z" fill="#287CBC"/>
<path fill-rule="evenodd" clip-rule="evenodd" d="M84.2768 212.762C84.2591 212.668 84.2434 212.573 84.2294 212.478C84.2236 212.439 84.2184 212.399 84.2138 212.361C84.2309 212.497 84.2523 212.631 84.2768 212.762V212.762ZM84.1851 212.082C84.1773 211.987 84.1711 211.892 84.1669 211.796C84.1612 211.665 84.1591 211.536 84.1607 211.409C84.1607 211.408 84.1607 211.407 84.1607 211.406C84.1607 211.403 84.1607 211.402 84.1607 211.399C84.1607 211.397 84.1607 211.395 84.1607 211.393C84.1607 211.392 84.1607 211.391 84.1607 211.389C84.1705 210.734 84.2726 210.128 84.4439 209.624C84.2382 210.23 84.1325 210.983 84.1669 211.795C84.1711 211.892 84.1778 211.987 84.1851 212.082Z" fill="#A4ADC5"/>
<path fill-rule="evenodd" clip-rule="evenodd" d="M84.4434 209.624C84.4949 209.472 84.5527 209.331 84.6162 209.199C84.5527 209.33 84.4949 209.472 84.4434 209.624Z" fill="#BCB7C6"/>
<path fill-rule="evenodd" clip-rule="evenodd" d="M84.2768 212.762C84.2523 212.631 84.231 212.497 84.2138 212.36C84.2023 212.268 84.193 212.175 84.1846 212.082C84.1773 211.987 84.1706 211.891 84.1664 211.795C84.132 210.983 84.2377 210.23 84.4428 209.624C84.4944 209.472 84.5522 209.331 84.6157 209.199C84.6167 209.253 84.6183 209.306 84.6209 209.359C84.6386 209.754 84.6875 210.131 84.7625 210.482C84.4668 211.061 84.2851 211.865 84.2762 212.762L84.2768 212.762ZM87.7028 212.015C87.6935 211.965 87.6836 211.915 87.6732 211.865C87.6825 211.847 87.6924 211.827 87.7023 211.807C87.7028 211.835 87.7033 211.863 87.7033 211.891C87.7039 211.933 87.7033 211.974 87.7028 212.015V212.015Z" fill="#A4ADC5"/>
<path fill-rule="evenodd" clip-rule="evenodd" d="M85.8198 208.83L85.8084 208.831C85.3549 208.85 84.7198 210.032 84.7948 211.767C84.8697 213.502 85.6048 214.615 86.0572 214.604C86.5101 214.584 87.1442 213.403 87.0703 211.668C87.0344 210.837 86.8355 210.041 86.5257 209.484C86.2998 209.079 86.0307 208.83 85.8198 208.83ZM86.0437 215.871C84.7104 215.871 83.639 214.149 83.5385 211.822C83.4365 209.455 84.3887 207.625 85.7537 207.565C86.4763 207.53 87.1385 207.995 87.6226 208.864C88.0318 209.599 88.2822 210.576 88.327 211.613V211.613C88.4291 213.98 87.4764 215.809 86.1113 215.87C86.089 215.87 86.0661 215.871 86.0437 215.871Z" fill="#1A2645"/>
<path fill-rule="evenodd" clip-rule="evenodd" d="M76.876 223.89C76.8504 223.89 76.8239 223.889 76.7973 223.886C76.4527 223.843 76.208 223.526 76.2507 223.179L77.042 216.77L75.0825 216.089C74.8264 216 74.6556 215.756 74.6587 215.484L74.7316 208.283C74.7353 207.936 75.0159 207.656 75.3605 207.656H75.3667C75.714 207.66 75.993 207.946 75.9894 208.296L75.9207 215.04L77.9333 215.74C78.2144 215.838 78.3893 216.12 78.3529 216.416L77.4991 223.335C77.4595 223.655 77.1883 223.89 76.876 223.89V223.89Z" fill="#1A2645"/>
<path fill-rule="evenodd" clip-rule="evenodd" d="M41.7496 249.458C41.633 249.458 41.5159 249.435 41.4019 249.388C31.662 245.312 33.3612 227.403 33.4383 226.643C33.4888 226.143 33.9313 225.778 34.4305 225.829C34.9277 225.881 35.29 226.328 35.2401 226.828C35.2224 227.001 33.597 244.148 42.0974 247.704C42.5591 247.898 42.7778 248.432 42.5862 248.896C42.4415 249.247 42.1047 249.458 41.7501 249.458L41.7496 249.458Z" fill="#1A2645"/>
<path fill-rule="evenodd" clip-rule="evenodd" d="M98.7806 186.141C92.4049 186.141 88.1354 179.234 86.6288 175.021C86.4591 174.547 86.7033 174.025 87.1739 173.854C87.6445 173.684 88.163 173.93 88.3322 174.403C88.3515 174.457 89.5161 177.646 91.7557 180.388C94.6221 183.898 97.8524 185.067 101.356 183.866C101.83 183.704 102.344 183.958 102.506 184.435C102.666 184.912 102.414 185.43 101.94 185.592C100.837 185.97 99.7817 186.141 98.7801 186.141H98.7806Z" fill="#1A2645"/>
<path fill-rule="evenodd" clip-rule="evenodd" d="M113.267 156.221C112.938 156.773 112.489 157.254 112.001 157.666C111.514 158.082 110.976 158.403 110.464 158.701C109.95 158.999 109.451 159.272 108.97 159.581C108.485 159.886 108.019 160.232 107.542 160.603C107.491 160.643 107.419 160.635 107.379 160.585C107.352 160.549 107.348 160.503 107.364 160.466C107.612 159.9 107.951 159.37 108.344 158.881C108.739 158.395 109.187 157.956 109.625 157.551C110.065 157.147 110.475 156.759 110.869 156.384C111.265 156.008 111.628 155.62 112.032 155.242L112.05 155.227C112.37 154.927 112.872 154.946 113.169 155.268C113.415 155.535 113.444 155.926 113.268 156.222L113.267 156.221Z" fill="#1A2645"/>
<path fill-rule="evenodd" clip-rule="evenodd" d="M106.126 153.285C106.087 153.571 106.032 153.77 105.957 153.997C105.886 154.214 105.799 154.425 105.703 154.629C105.517 155.039 105.277 155.421 105.031 155.796C104.787 156.17 104.519 156.53 104.24 156.882C103.953 157.229 103.657 157.567 103.322 157.882C103.274 157.927 103.199 157.924 103.154 157.876C103.128 157.848 103.119 157.81 103.124 157.775C103.194 157.32 103.299 156.886 103.404 156.457C103.511 156.028 103.627 155.607 103.747 155.191C103.871 154.777 103.983 154.363 104.129 153.969C104.199 153.771 104.273 153.577 104.355 153.387C104.433 153.206 104.526 152.995 104.61 152.864L104.683 152.749C104.917 152.381 105.404 152.274 105.77 152.51C106.036 152.681 106.165 152.988 106.125 153.284L106.126 153.285Z" fill="#1A2645"/>
<path fill-rule="evenodd" clip-rule="evenodd" d="M40.5897 220.086C48.7673 229.928 67.4906 224.155 66.781 217.621C66.541 215.41 64.4472 214.845 64.4472 214.845C64.4472 214.845 49.2603 221.341 41.2566 213.408C41.2566 213.408 37.7545 216.675 40.5897 220.086V220.086Z" fill="white"/>
<path fill-rule="evenodd" clip-rule="evenodd" d="M53.1252 224.436C48.6809 224.436 44.1777 222.983 41.2842 219.501C41.2243 219.428 41.1681 219.356 41.1145 219.285C41.3738 219.078 41.6351 218.874 41.8959 218.671C44.6025 221.387 48.6804 222.535 52.7124 222.535C58.4561 222.534 64.1067 220.206 65.5602 216.764C65.7185 217.02 65.8393 217.336 65.8809 217.72C66.0767 219.519 64.2025 221.492 60.992 222.869C58.6654 223.867 55.9073 224.436 53.1252 224.436V224.436Z" fill="#C3BAC7"/>
<path fill-rule="evenodd" clip-rule="evenodd" d="M41.3212 214.704C40.6017 215.659 39.6547 217.539 41.2842 219.501C45.9878 225.161 54.9483 225.46 60.992 222.869C64.203 221.492 66.0767 219.518 65.8809 217.719C65.7549 216.556 64.9022 216.023 64.4633 215.822C62.1472 216.745 49.177 221.459 41.3212 214.704ZM53.0575 226.292C48.1426 226.292 43.186 224.631 39.8947 220.67C37.2152 217.446 39.2117 214.073 40.6418 212.74C40.9963 212.409 41.5471 212.417 41.8917 212.759C49.3665 220.166 63.9474 214.068 64.0932 214.005C64.2785 213.926 64.4862 213.911 64.6809 213.963C64.7908 213.993 67.3771 214.722 67.6811 217.521C67.9706 220.19 65.7351 222.816 61.701 224.546C59.1032 225.659 56.0879 226.292 53.057 226.292L53.0575 226.292Z" fill="#1A2645"/>
<path fill-rule="evenodd" clip-rule="evenodd" d="M8.75517 222.582C8.75517 222.582 9.13781 224.09 10.3904 224.83C11.0177 225.199 11.9058 225.496 12.922 225.729C13.8258 225.937 14.8264 226.096 15.8353 226.214C18.0603 226.473 20.3197 226.53 21.6139 226.472C24.3356 226.35 27.2072 225.661 30.0424 224.565C33.9188 223.067 37.7285 220.814 41.0125 218.218C44.0981 215.778 46.7167 213.035 48.4784 210.337L49.1395 206.999L50.0428 202.438L53.2418 186.296L53.9686 182.629C53.9051 182.713 52.4896 184.569 50.1516 187.288C49.9277 187.547 49.6976 187.812 49.4592 188.085C46.7885 191.141 43.1188 195.073 38.9691 198.779C32.5095 204.551 24.8838 209.78 18.0442 210.316C10.078 210.939 6.06263 210.628 5.08964 213.23C4.10206 215.869 7.29125 217.483 7.29125 217.483C7.29125 217.483 6.20788 219.24 6.8654 220.844C7.38495 222.117 8.75569 222.583 8.75569 222.583L8.75517 222.582Z" fill="white"/>
<path fill-rule="evenodd" clip-rule="evenodd" d="M18.3487 217.597C17.7693 217.104 17.535 216.727 17.535 216.727C17.535 216.727 17.8854 217.06 18.3487 217.597Z" fill="#B9AFBE"/>
<path fill-rule="evenodd" clip-rule="evenodd" d="M20.4093 225.579C19.9459 225.579 19.479 225.567 19.0078 225.546C18.0556 225.504 17.1003 225.437 16.1549 225.333C17.6241 225.015 18.963 224.558 19.5029 224.166C21.9685 222.374 19.6888 219.142 18.3493 217.598C19.4545 218.535 21.817 219.896 26.2207 219.896C27.6857 219.896 29.3776 219.745 31.3231 219.378C35.7279 218.546 42.5743 212.94 46.6578 209.286C46.8796 209.088 47.1357 209 47.3856 209C47.9588 209 48.4961 209.461 48.5018 210.096C48.4799 210.091 48.4575 210.088 48.4351 210.088C48.3628 210.088 48.2904 210.113 48.2316 210.165L48.2259 210.17C46.7286 211.473 45.4485 212.825 44.0954 214.157C42.7549 215.492 41.3623 216.791 39.8609 217.962L38.7057 218.8L38.1273 219.218L37.5307 219.609C37.1319 219.867 36.7378 220.135 36.3354 220.387L35.1073 221.112C34.7023 221.362 34.2811 221.58 33.8594 221.799C33.4378 222.016 33.0234 222.25 32.5949 222.452C31.7318 222.843 30.8806 223.266 29.993 223.59L29.3339 223.85L29.0038 223.98L28.668 224.09L27.3244 224.528C26.8761 224.674 26.4164 224.766 25.963 224.888L25.2805 225.061C25.0514 225.11 24.8208 225.143 24.5912 225.186C23.2038 225.469 21.8227 225.579 20.4098 225.579H20.4093Z" fill="#B9AFBE"/>
<path fill-rule="evenodd" clip-rule="evenodd" d="M54.208 182.811C52.931 185.304 51.2235 187.467 49.4394 189.555C47.6516 191.644 45.7218 193.603 43.7586 195.526C39.8302 199.365 35.6961 203.038 31.0586 206.081C28.744 207.601 26.2832 208.941 23.6448 209.924C22.3344 210.433 20.9528 210.786 19.5503 211.044C18.1014 211.256 16.7692 211.32 15.4032 211.415C14.0439 211.504 12.6862 211.58 11.3493 211.686C11.0151 211.713 10.6814 211.74 10.3529 211.777C10.0207 211.807 9.69535 211.846 9.3731 211.892C8.72756 211.98 8.09659 212.096 7.53851 212.28C6.97522 212.459 6.50304 212.711 6.23181 213.048C5.96058 213.368 5.79034 213.883 5.81585 214.317C5.82054 214.372 5.81846 214.427 5.8247 214.482L5.86375 214.646C5.87468 214.758 5.94184 214.864 5.97464 214.975C6.08344 215.192 6.21099 215.414 6.39424 215.617C6.56551 215.827 6.77636 216.021 7.00178 216.2C7.1137 216.291 7.23292 216.376 7.35266 216.457C7.46719 216.534 7.61087 216.621 7.69677 216.666L8.56357 217.126L8.06015 217.961C8.03204 218.007 7.97165 218.123 7.93156 218.211C7.88679 218.306 7.84514 218.404 7.80766 218.503C7.73061 218.7 7.67178 218.902 7.62962 219.101C7.54216 219.5 7.53695 219.886 7.61816 220.222C7.69781 220.561 7.85816 220.847 8.12054 221.11C8.24965 221.24 8.39906 221.36 8.56305 221.466C8.64374 221.521 8.73068 221.568 8.81658 221.613C8.85927 221.634 8.90352 221.657 8.94517 221.675L9.04408 221.717L9.50481 221.912L9.63132 222.355C9.64277 222.395 9.68025 222.511 9.71357 222.593C9.74845 222.684 9.78854 222.773 9.83071 222.861C9.91556 223.037 10.0155 223.204 10.1248 223.357C10.3466 223.665 10.5944 223.904 10.9026 224.071C11.5924 224.448 12.4951 224.705 13.3916 224.899C15.2064 225.281 17.1139 225.463 19.0073 225.545C20.9168 225.633 22.7483 225.561 24.5902 225.185C24.8198 225.143 25.0504 225.109 25.2795 225.06L25.962 224.887C26.4154 224.765 26.8751 224.673 27.3233 224.527L28.667 224.09L29.0028 223.98L29.3328 223.849L29.9919 223.59C30.88 223.265 31.7307 222.843 32.5939 222.451C33.0223 222.249 33.4367 222.015 33.8584 221.799C34.2796 221.58 34.7012 221.361 35.1057 221.111L36.3338 220.387C36.7363 220.134 37.1303 219.867 37.5291 219.608L38.1257 219.217L38.7041 218.799L39.8593 217.961C41.3607 216.791 42.7533 215.492 44.0939 214.156C45.4464 212.824 46.7265 211.473 48.2243 210.169L48.23 210.164C48.3602 210.051 48.557 210.066 48.6694 210.197C48.7449 210.284 48.7631 210.401 48.7288 210.503C48.0697 212.446 46.8197 214.067 45.4672 215.525C45.1163 215.879 44.7618 216.23 44.4 216.572C44.0408 216.918 43.6467 217.223 43.2718 217.549C42.5274 218.209 41.7231 218.789 40.9531 219.415L39.7516 220.288L39.1487 220.723L38.5282 221.131C38.1132 221.401 37.7025 221.678 37.2834 221.941L36.0038 222.696C35.5826 222.956 35.1422 223.184 34.7028 223.413C34.2619 223.639 33.8298 223.882 33.3815 224.094C32.4778 224.505 31.5886 224.945 30.6536 225.287L29.9602 225.561L29.6134 225.698L29.2579 225.814L27.8366 226.276C27.3624 226.43 26.8699 226.531 26.3878 226.661L25.6611 226.844C25.4158 226.896 25.167 226.933 24.9202 226.979C22.9607 227.382 20.8887 227.462 18.9318 227.368C16.9561 227.281 14.9909 227.098 13.011 226.683C12.0198 226.46 11.0276 226.209 10.0077 225.658C9.46368 225.361 8.99358 224.904 8.65363 224.423C8.47975 224.179 8.32982 223.926 8.2028 223.664C8.1398 223.532 8.08045 223.399 8.02735 223.262C7.97165 223.117 7.92948 223.003 7.87586 222.808L8.46309 223.446C8.34648 223.404 8.28713 223.378 8.20852 223.343C8.13355 223.31 8.0638 223.275 7.99247 223.239C7.85295 223.166 7.71604 223.09 7.58432 223.003C7.31986 222.832 7.06841 222.632 6.83727 222.4C6.37289 221.945 6.00327 221.309 5.8549 220.648C5.69716 219.985 5.72631 219.321 5.85698 218.721C5.92101 218.418 6.00795 218.127 6.11676 217.847C6.17038 217.707 6.22921 217.568 6.29324 217.432C6.36196 217.288 6.41662 217.175 6.5197 217.002L6.88256 218.297C6.66755 218.184 6.5223 218.09 6.35259 217.979C6.19068 217.87 6.0319 217.757 5.87884 217.633C5.57221 217.389 5.2786 217.119 5.01465 216.802C4.74394 216.495 4.51384 216.128 4.32382 215.731C4.24625 215.52 4.14629 215.321 4.10517 215.091L4.03176 214.755C4.01667 214.642 4.0125 214.525 4.00469 214.41C3.97241 213.948 4.05623 213.488 4.19002 213.071C4.32798 212.647 4.54611 212.234 4.8439 211.875C4.98133 211.687 5.16563 211.552 5.32961 211.395C5.49933 211.245 5.68726 211.147 5.86791 211.026C6.23389 210.822 6.60976 210.657 6.97418 210.547C7.70875 210.307 8.42197 210.182 9.12217 210.087C9.47305 210.037 9.82238 209.995 10.167 209.963C10.5143 209.925 10.8584 209.896 11.2014 209.87C12.5743 209.76 13.9309 209.684 15.2845 209.596C16.6297 209.504 18.015 209.429 19.2577 209.244C20.5264 209.009 21.7925 208.691 23.0185 208.213C25.4809 207.297 27.8361 206.02 30.0716 204.552C32.3101 203.085 34.4487 201.444 36.5088 199.705C38.5656 197.962 40.559 196.132 42.4608 194.206C44.3687 192.285 46.1679 190.259 48.0103 188.272C49.8418 186.274 51.6628 184.268 53.7265 182.443L53.7307 182.439C53.8582 182.326 54.0519 182.338 54.1633 182.467C54.2487 182.565 54.2612 182.702 54.2054 182.812L54.208 182.811Z" fill="#1A2645"/>
<path fill-rule="evenodd" clip-rule="evenodd" d="M92.6615 161.388C90.1762 208.865 24.5772 207.745 22.0684 162.028C23.4667 113.369 91.2741 114.591 92.6615 161.388Z" fill="white"/>
<path fill-rule="evenodd" clip-rule="evenodd" d="M92.6615 161.388C90.1762 208.865 24.5772 207.745 22.0684 162.028C23.4667 113.369 91.2741 114.591 92.6615 161.388Z" fill="white"/>
<path fill-rule="evenodd" clip-rule="evenodd" d="M55.9354 202.906C53.9634 202.906 51.9908 202.75 50.0417 202.438L51.1126 197.035C53.2017 197.388 55.3388 197.568 57.504 197.568C57.5211 197.568 57.5373 197.568 57.5545 197.568C66.6337 197.556 75.1762 194.358 81.6087 188.564C82.0793 188.14 82.5364 187.704 82.981 187.256C83.2408 187.994 83.487 188.724 83.7208 189.448C81.9872 191.758 80.0073 193.768 77.8458 195.478C71.5721 200.445 63.759 202.906 55.9359 202.906L55.9354 202.906Z" fill="#B9AFBE"/>
<path fill-rule="evenodd" clip-rule="evenodd" d="M83.7202 189.448C83.487 188.724 83.2402 187.994 82.9805 187.256C83.2173 187.017 83.4511 186.775 83.6802 186.529C83.9238 187.21 84.1549 187.882 84.3736 188.547C84.1596 188.852 83.942 189.153 83.7197 189.448H83.7202Z" fill="#1A2645"/>
<path fill-rule="evenodd" clip-rule="evenodd" d="M50.0417 202.438C49.2228 202.306 48.4091 202.147 47.6017 201.963C44.9248 201.348 42.3134 200.431 39.8344 199.217C41.1712 198.015 42.4753 196.78 43.7581 195.526C43.8851 195.401 44.0127 195.276 44.1397 195.151C46.3777 195.998 48.7132 196.63 51.1121 197.035L50.0412 202.438H50.0417Z" fill="#B9AFBE"/>
<path fill-rule="evenodd" clip-rule="evenodd" d="M39.8349 199.217C39.5444 199.075 39.2554 198.929 38.9681 198.778C40.4471 197.457 41.8657 196.108 43.199 194.78C43.5108 194.908 43.8247 195.031 44.1402 195.151C44.0132 195.276 43.8856 195.401 43.7586 195.526C42.4759 196.78 41.1718 198.015 39.8349 199.217Z" fill="#1A2645"/>
<path fill-rule="evenodd" clip-rule="evenodd" d="M92.6615 161.388C90.1762 208.865 24.5772 207.745 22.0684 162.028C23.4667 113.369 91.2741 114.591 92.6615 161.388Z" fill="white"/>
<path fill-rule="evenodd" clip-rule="evenodd" d="M22.7145 162.02C24.0087 185.377 41.645 196.006 57.5071 196.006C57.5222 196.006 57.5368 196.006 57.5524 196.006C73.7992 195.985 90.753 185.271 92.0149 161.381C91.2929 137.455 73.4733 126.561 57.2104 126.561C57.2046 126.561 57.1994 126.561 57.1942 126.561C41.0843 126.569 23.4272 137.668 22.7145 162.02ZM57.504 197.305C48.4846 197.305 39.9452 194.159 33.4513 188.441C26.178 182.038 22.0195 172.916 21.4239 162.064L21.4229 162.037L21.4234 162.01C21.7514 150.588 25.7522 141.04 32.9921 134.4C39.4127 128.511 48.0072 125.266 57.1932 125.262H57.2109C66.4098 125.262 75.0721 128.492 81.6051 134.358C88.9309 140.936 92.9775 150.276 93.3065 161.369L93.3071 161.395L93.306 161.423C92.7219 172.58 88.617 181.898 81.4348 188.368C75.0502 194.12 66.5691 197.294 57.5534 197.305C57.5378 197.305 57.5201 197.305 57.504 197.305Z" fill="#1A2645"/>
<path fill-rule="evenodd" clip-rule="evenodd" d="M57.5076 195.744C52.8774 195.744 48.0952 194.832 43.6186 192.953C44.35 192.202 44.9529 191.291 45.3777 190.243C50.3931 193.084 56.1129 194.585 61.9499 194.585C62.8354 194.585 63.7246 194.551 64.6127 194.481C66.2271 194.354 67.8134 194.112 69.3595 193.757C65.543 195.088 61.5261 195.739 57.5518 195.744C57.5368 195.744 57.5222 195.744 57.5071 195.744L57.5076 195.744ZM62.0712 192.756C56.5716 192.756 50.9038 191.305 45.9076 188.387C46.0279 187.715 46.081 187.004 46.0612 186.256C49.089 188.228 52.3125 189.483 55.5908 190.107C57.7507 190.585 59.9492 190.823 62.1492 190.823C65.6196 190.823 69.0961 190.228 72.4352 189.034C78.1889 186.976 83.3022 183.233 87.5149 178.042C87.1645 178.721 86.797 179.38 86.4112 180.019C80.9699 188.266 72.2629 192.051 64.4727 192.662C63.6772 192.725 62.8776 192.756 62.0717 192.756L62.0712 192.756Z" fill="#B9AFBE"/>
<path fill-rule="evenodd" clip-rule="evenodd" d="M22.9748 162.016C24.2653 185.195 41.7668 195.744 57.5071 195.744C57.5222 195.744 57.5368 195.744 57.5519 195.744C73.6732 195.723 90.4958 185.087 91.7546 161.378C91.032 137.636 73.3489 126.823 57.2103 126.823C57.2046 126.823 57.1994 126.823 57.1942 126.823C41.2087 126.83 23.688 137.848 22.9748 162.016ZM57.504 197.567C48.4216 197.567 39.8213 194.397 33.28 188.638C25.9536 182.187 21.7633 173.003 21.1641 162.079L21.162 162.041L21.1631 162.002C21.4937 150.507 25.5231 140.896 32.8167 134.207C39.2856 128.274 47.9421 125.005 57.1932 125C57.1989 125 57.2051 125 57.2109 125C66.4744 125 75.1975 128.254 81.7779 134.163C89.1584 140.79 93.2352 150.196 93.5658 161.362L93.5668 161.399L93.5648 161.436C92.977 172.666 88.8424 182.046 81.6077 188.564C75.1751 194.358 66.6326 197.556 57.5534 197.568C57.5362 197.568 57.5201 197.568 57.5029 197.568L57.504 197.567Z" fill="#293856"/>
<path fill-rule="evenodd" clip-rule="evenodd" d="M22.9748 162.016C24.2653 185.195 41.7668 195.744 57.5071 195.744C57.5222 195.744 57.5368 195.744 57.5519 195.744C73.6732 195.723 90.4958 185.087 91.7546 161.378C91.032 137.636 73.3489 126.823 57.2103 126.823C57.2046 126.823 57.1994 126.823 57.1942 126.823C41.2087 126.83 23.688 137.848 22.9748 162.016ZM57.504 197.567C48.4216 197.567 39.8213 194.397 33.28 188.638C25.9536 182.187 21.7633 173.003 21.1641 162.079L21.162 162.041L21.1631 162.002C21.4937 150.507 25.5231 140.896 32.8167 134.207C39.2856 128.274 47.9421 125.005 57.1932 125C57.1989 125 57.2051 125 57.2109 125C66.4744 125 75.1975 128.254 81.7779 134.163C89.1584 140.79 93.2352 150.196 93.5658 161.362L93.5668 161.399L93.5648 161.436C92.977 172.666 88.8424 182.046 81.6077 188.564C75.1751 194.358 66.6326 197.556 57.5534 197.568C57.5362 197.568 57.5201 197.568 57.5029 197.568L57.504 197.567Z" fill="#1A2645"/>
<path fill-rule="evenodd" clip-rule="evenodd" d="M91.4772 170.417C71.7194 207.113 24.2752 186.872 35.0443 151.972C49.4665 113.618 100.491 128.937 91.4772 170.417Z" fill="#1A2645"/>
<path fill-rule="evenodd" clip-rule="evenodd" d="M87.0136 144.278C106.446 176.536 62.116 207.015 39.5418 180.459C64.6487 188.964 87.7429 165.134 87.0136 144.278Z" fill="#101729"/>
<path fill-rule="evenodd" clip-rule="evenodd" d="M92.6615 161.389H92.6641H92.6615ZM61.7234 127.067C52.753 127.893 44.1876 132.782 38.2132 140.49C32.2435 148.191 29.6223 157.716 31.0206 166.622C34.4206 185.166 50.4233 193.761 64.4711 192.663C76.6943 191.704 91.1747 182.933 91.7557 161.367C92.0509 146.035 80.0568 128.615 61.7234 127.067ZM61.9494 194.585C54.9603 194.585 48.1395 192.433 42.4946 188.405C35.4785 183.399 30.8941 175.973 29.2365 166.93C27.7554 157.503 30.5089 147.465 36.7862 139.367C43.0855 131.241 52.1444 126.093 61.6401 125.243L61.7166 125.236L61.7932 125.243C81.1865 126.832 93.8792 145.224 93.5663 161.406V161.413C93.3039 171.187 90.1309 179.483 84.3903 185.401C79.2931 190.656 72.2697 193.879 64.6122 194.481C63.7236 194.55 62.8344 194.585 61.9494 194.585V194.585Z" fill="#1A2645"/>
<path fill-rule="evenodd" clip-rule="evenodd" d="M91.4771 170.416H91.4803H91.4771ZM35.9017 152.268C30.6229 169.415 39.6443 181.921 50.9314 186.712C63.3617 191.987 80.4399 188.888 90.6202 170.096C95.0995 149.217 83.815 135.722 71.4102 132.014C58.9356 128.284 43.1209 133.101 35.9017 152.268V152.268ZM62.1492 190.824C58.0927 190.824 54.0435 190.011 50.2281 188.392C43.6914 185.618 38.4339 180.697 35.4238 174.537C32.0998 167.734 31.6698 159.837 34.1801 151.701L34.1983 151.649C37.6088 142.58 43.2869 135.826 50.619 132.12C57.2114 128.788 64.7777 128.129 71.925 130.266C79.2389 132.452 85.3632 137.329 89.1688 143.999C93.4216 151.451 94.5258 160.655 92.3622 170.612L92.3351 170.738L92.2737 170.851C87.4368 179.835 80.5769 186.122 72.4352 189.035C69.0961 190.229 65.6201 190.824 62.1492 190.824V190.824Z" fill="#1A2645"/>
<path fill-rule="evenodd" clip-rule="evenodd" d="M26.7871 188.269C37.2168 201.337 51.1032 191.914 42.3962 178.427C31.9639 164.327 17.1186 174.399 26.7871 188.269Z" fill="white"/>
<path fill-rule="evenodd" clip-rule="evenodd" d="M40.7641 192.84C42.3561 190.391 42.454 186.425 39.3965 181.689L39.3658 181.644C39.3335 181.601 39.3018 181.557 39.2695 181.513C40.6335 181.419 41.6372 180.788 41.8907 179.326C45.6385 185.415 44.4432 190.242 41.5367 192.361C41.2941 192.538 41.0364 192.698 40.7647 192.84H40.7641Z" fill="#B9AFBE"/>
<path fill-rule="evenodd" clip-rule="evenodd" d="M27.5113 187.721C32.6714 194.171 38.397 194.649 41.5362 192.361C44.5031 190.199 45.6864 185.214 41.6518 178.948C36.718 172.296 30.6932 171.323 27.2869 173.803C24.2627 176.005 23.0461 181.298 27.5113 187.721ZM37.4896 195.432C33.9969 195.432 29.8576 193.572 26.0807 188.84L26.0453 188.792C20.8549 181.347 22.5005 175.037 26.2259 172.325C30.3548 169.319 37.4844 170.262 43.1219 177.882L43.1547 177.93C47.8568 185.211 46.2632 191.166 42.5982 193.837C41.2223 194.84 39.4585 195.432 37.4896 195.432Z" fill="#1A2645"/>
<path fill-rule="evenodd" clip-rule="evenodd" d="M26.6934 189.396C35.1568 199.977 45.6786 193.094 38.6375 182.185C30.1419 170.591 18.7158 178.084 26.6934 189.396Z" fill="white"/>
<path fill-rule="evenodd" clip-rule="evenodd" d="M27.416 188.846C31.5745 194.031 35.9387 194.593 38.2356 192.917C40.3466 191.376 41.0572 187.623 37.892 182.704C33.9016 177.272 29.2599 176.291 26.734 178.132C24.5501 179.723 23.8343 183.753 27.4155 188.846H27.416ZM35.48 195.573C32.6516 195.573 29.2068 193.992 25.9885 189.968L25.9552 189.923C21.642 183.808 22.7853 178.758 25.672 176.655C28.9242 174.285 34.6721 175.238 39.3653 181.644L39.396 181.688C43.2255 187.621 42.1062 192.343 39.2976 194.392C38.2757 195.138 36.9622 195.573 35.4795 195.573L35.48 195.573Z" fill="#1A2645"/>
<path fill-rule="evenodd" clip-rule="evenodd" d="M45.5583 172.427C44.3058 172.427 42.9002 171.877 41.5362 170.555C38.1778 166.842 40.6881 162.396 44.2079 162.396C45.5953 162.396 47.1394 163.086 48.5429 164.784C51.2131 168.413 48.9427 172.427 45.5578 172.426L45.5583 172.427Z" fill="#C3BAC7"/>
<path fill-rule="evenodd" clip-rule="evenodd" d="M51.9039 178.28C51.4296 178.28 50.9122 178.1 50.4218 177.677C48.873 176.068 49.9438 174.272 51.4421 174.272C51.9164 174.272 52.4339 174.452 52.9243 174.876C54.473 176.484 53.4022 178.28 51.9039 178.28Z" fill="#C3BAC7"/>
<path fill-rule="evenodd" clip-rule="evenodd" d="M85.1863 148.457C77.7995 143.384 70.0004 139.238 61.0008 139.238C56.3706 139.238 51.4213 140.335 46.0493 142.97C48.4117 138.108 56.8376 132.759 65.5738 132.759C73.112 132.759 80.882 136.742 85.1863 148.457Z" fill="#C3BAC7"/>
<path fill-rule="evenodd" clip-rule="evenodd" d="M35.4702 193.76C33.1665 193.76 30.2439 192.372 27.416 188.846C26.8059 187.978 26.3207 187.141 25.9464 186.343C27.6773 187.515 29.7519 188.134 31.6745 188.134C34.9381 188.134 37.7598 186.346 37.6978 182.444C37.7624 182.53 37.8274 182.617 37.892 182.704C41.0567 187.623 40.3461 191.376 38.2356 192.917C37.5005 193.453 36.5541 193.76 35.4702 193.76Z" fill="#B9AFBE"/>
<path fill-rule="evenodd" clip-rule="evenodd" d="M35.5477 194.351C31.7968 194.351 27.1979 191.508 24.8557 185.487C25.1982 185.799 25.5637 186.084 25.9463 186.343C26.3206 187.141 26.8058 187.979 27.416 188.846C30.2439 192.372 33.1665 193.76 35.4702 193.76C36.5546 193.76 37.5005 193.453 38.2356 192.917C40.3466 191.376 41.0572 187.623 37.892 182.704C37.8274 182.617 37.7623 182.53 37.6978 182.444C37.6858 181.686 37.565 180.847 37.3172 179.926C38.7838 181.153 39.9973 182.722 40.7282 184.485C42.7752 190.914 39.6745 194.352 35.5477 194.351Z" fill="#1A2645"/>
<path fill-rule="evenodd" clip-rule="evenodd" d="M35.3468 170.489C35.1713 170.489 34.9813 170.476 34.7762 170.448C34.2801 170.381 33.9328 169.922 33.9989 169.423C34.0661 168.924 34.5221 168.574 35.0178 168.641C35.5316 168.711 35.6841 168.616 35.6862 168.615C35.7888 168.417 35.5571 167.496 35.1208 166.724C34.8736 166.286 35.0245 165.73 35.4577 165.481C35.8918 165.231 36.4437 165.382 36.692 165.818C37.0205 166.394 38.0258 168.373 37.1762 169.646C36.907 170.049 36.377 170.489 35.3463 170.489H35.3468Z" fill="#1A2645"/>
<path fill-rule="evenodd" clip-rule="evenodd" d="M19.5445 210.564C13.7591 211.267 9.85101 213.23 9.92545 214.828C9.98012 215.998 10.9786 217.511 13.388 217.323C15.0336 217.195 17.0696 216.229 17.0696 216.229C17.0696 216.229 19.5034 219.028 21.7831 219.613L19.5445 210.564V210.564Z" fill="white"/>
<path fill-rule="evenodd" clip-rule="evenodd" d="M19.6528 211.47C18.0712 211.664 16.5022 211.964 14.9961 212.416C14.2459 212.645 13.5092 212.91 12.8215 213.234C12.1432 213.553 11.4747 213.952 11.0718 214.385C10.9739 214.49 10.9063 214.593 10.8683 214.671C10.8474 214.709 10.8407 214.738 10.8355 214.756C10.8381 214.764 10.8266 214.775 10.8323 214.777C10.8365 214.789 10.8261 214.766 10.8329 214.81C10.8521 215.056 10.9323 215.324 11.0775 215.545C11.3597 215.998 11.8522 216.295 12.4743 216.385C13.7196 216.574 15.286 215.917 16.6615 215.359L17.3471 215.081L17.7875 215.596C18.0655 215.921 18.3909 216.284 18.7069 216.617C19.025 216.957 19.3535 217.287 19.6872 217.609C20.0251 217.925 20.3645 218.24 20.7221 218.529C21.0824 218.813 21.4515 219.08 21.857 219.319L21.8742 219.328C22.0215 219.415 22.071 219.605 21.9851 219.754C21.9263 219.856 21.8175 219.912 21.7081 219.908C21.1693 219.89 20.6435 219.75 20.1484 219.562L19.7814 219.41C19.6617 219.355 19.5466 219.294 19.4284 219.236C19.1916 219.119 18.9677 218.987 18.747 218.848C18.3014 218.577 17.8922 218.262 17.4918 217.936C17.2893 217.775 17.1019 217.599 16.9119 217.424C16.7182 217.247 16.5443 217.075 16.3501 216.863L17.4762 217.099C16.6651 217.492 15.8738 217.775 15.0049 217.989C14.1501 218.188 13.2005 218.361 12.1947 218.188C11.697 218.109 11.1848 217.948 10.7173 217.666C10.2503 217.386 9.83851 216.988 9.54385 216.516C9.24503 216.045 9.0675 215.504 9.02481 214.929C9.01596 214.871 9.02065 214.745 9.02429 214.654C9.02585 214.552 9.04876 214.464 9.0649 214.369C9.10499 214.187 9.16537 214.02 9.23722 213.875C9.3809 213.583 9.55634 213.349 9.73647 213.153C10.0993 212.76 10.484 212.479 10.8719 212.227C11.2603 211.978 11.6549 211.77 12.0531 211.582C12.8491 211.208 13.6587 210.918 14.475 210.669C16.1081 210.179 17.7677 209.865 19.4352 209.659C19.9319 209.598 20.3832 209.954 20.4441 210.453C20.505 210.953 20.1521 211.408 19.6554 211.469L19.6523 211.47H19.6528Z" fill="#1A2645"/>
<path fill-rule="evenodd" clip-rule="evenodd" d="M36.7055 222.142C36.5785 222.142 36.4494 222.115 36.3265 222.058C35.8726 221.847 35.6742 221.306 35.884 220.848C39.2258 213.56 29.5895 206.484 29.4916 206.414C29.0855 206.121 28.9924 205.551 29.2834 205.142C29.5744 204.733 30.1392 204.637 30.5458 204.931C30.9946 205.255 41.4976 212.955 37.5286 221.612C37.3761 221.946 37.0481 222.142 36.7061 222.142H36.7055Z" fill="#1A2645"/>
<path fill-rule="evenodd" clip-rule="evenodd" d="M7.62078 216.632C8.24445 216.916 8.86865 217.158 9.5043 217.313C10.1394 217.467 10.8079 217.526 11.5279 217.569C12.2479 217.611 12.9923 217.663 13.7253 217.752C14.4604 217.84 15.1856 217.97 15.9051 218.109C16.1508 218.157 16.3116 218.396 16.2643 218.643C16.22 218.874 16.0102 219.03 15.7827 219.012L15.7718 219.011C15.0617 218.949 14.3532 218.898 13.6472 218.889C12.9397 218.877 12.24 218.903 11.5159 218.937C10.7933 218.97 10.0124 218.988 9.2237 218.884C8.4376 218.778 7.68169 218.571 6.95962 218.33C6.48431 218.171 6.22662 217.655 6.38436 217.176C6.5421 216.698 7.05541 216.439 7.53071 216.597C7.56039 216.607 7.58954 216.619 7.61765 216.631L7.62026 216.632H7.62078Z" fill="#1A2645"/>
<path fill-rule="evenodd" clip-rule="evenodd" d="M9.18984 221.782C9.53604 221.908 9.87651 221.943 10.3549 221.91C10.825 221.875 11.3774 221.774 11.9714 221.697C12.5784 221.625 13.1776 221.591 13.7753 221.6C14.374 221.608 14.9622 221.646 15.564 221.749C15.816 221.792 15.9852 222.033 15.9425 222.286C15.9113 222.47 15.7765 222.611 15.6078 222.657L15.5958 222.66C14.4864 222.962 13.3645 223.192 12.3093 223.478C11.7699 223.616 11.1952 223.786 10.5132 223.85C10.1733 223.882 9.80311 223.88 9.41943 223.811C9.03835 223.74 8.6479 223.599 8.31888 223.38C7.90084 223.101 7.78579 222.535 8.06223 222.114C8.29806 221.754 8.74317 221.617 9.12841 221.758L9.18984 221.78V221.782Z" fill="#1A2645"/>
<path fill-rule="evenodd" clip-rule="evenodd" d="M22.2449 231.7C22.375 232.38 22.5833 233.096 22.8248 233.772C23.0669 234.454 23.3512 235.119 23.6786 235.758C24.003 236.399 24.3632 237.018 24.7698 237.6C25.1628 238.192 25.6205 238.732 26.0833 239.257L26.1067 239.282C26.4394 239.659 26.406 240.237 26.0312 240.572C25.6569 240.907 25.0837 240.873 24.75 240.496C24.7297 240.473 24.711 240.449 24.6933 240.425C24.2305 239.783 23.7864 239.13 23.4199 238.436C23.0388 237.751 22.716 237.038 22.4375 236.314C22.1548 235.59 21.9242 234.85 21.741 234.1C21.5567 233.344 21.4156 232.603 21.3453 231.8C21.3234 231.55 21.5072 231.329 21.7561 231.307C21.9888 231.286 22.196 231.446 22.2397 231.672L22.2449 231.7Z" fill="#1A2645"/>
</g>
<g clip-path="url(#clip1_9910_2115)">
<path d="M113.204 82.8904C113.236 82.5676 113.524 82.3317 113.846 82.3629C114.17 82.3949 114.406 82.6831 114.374 83.0075V83.0101C113.866 87.8175 113.357 92.625 114.342 96.5932C114.843 98.6114 115.74 100.452 116.665 102.349C117.578 104.22 118.517 106.146 119.161 108.387C119.818 110.674 120.154 113.249 120.33 115.968C120.504 118.649 120.523 121.502 120.541 124.355C120.543 124.681 120.281 124.946 119.956 124.947C119.631 124.948 119.367 124.686 119.366 124.359C119.347 121.545 119.33 118.73 119.155 116.041C118.983 113.391 118.659 110.896 118.031 108.71C117.416 106.573 116.5 104.693 115.609 102.865C114.654 100.907 113.727 99.0066 113.199 96.8738C112.165 92.7076 112.684 87.7982 113.203 82.8887L113.204 82.8904Z" fill="#1A2645"/>
<path fill-rule="evenodd" clip-rule="evenodd" d="M129.684 31.3774C129.652 31.4508 129.626 31.5274 129.608 31.6075L129.684 31.3774Z" fill="#D66B09"/>
<path fill-rule="evenodd" clip-rule="evenodd" d="M131.099 56.0821L134.214 59.9163C135.105 61.0118 134.479 62.6626 133.087 62.8884L128.219 63.6772C126.828 63.903 125.716 62.5337 126.217 61.2123L127.969 56.5894C128.471 55.2689 130.209 54.9866 131.099 56.0821Z" fill="#E25A5A"/>
<path fill-rule="evenodd" clip-rule="evenodd" d="M129.684 56.6241C129.642 56.6241 129.607 56.6275 129.582 56.6317C129.477 56.6485 129.219 56.721 129.105 57.0218L127.353 61.6448C127.239 61.9465 127.383 62.1714 127.45 62.2557C127.517 62.3391 127.707 62.5279 128.026 62.4748L132.895 61.6861C133.212 61.6347 133.335 61.3962 133.373 61.2959C133.411 61.1956 133.478 60.9352 133.275 60.6858L130.159 56.8516C130.004 56.662 129.814 56.6241 129.684 56.6241H129.684ZM127.914 64.9194C127.008 64.9194 126.156 64.5175 125.567 63.7936C124.872 62.9374 124.691 61.8108 125.082 60.7785L126.835 56.1556C127.226 55.1241 128.108 54.4028 129.195 54.2267C130.282 54.0514 131.345 54.4567 132.039 55.312L135.155 59.1462C135.851 60.0015 136.032 61.1282 135.641 62.1605C135.249 63.1919 134.368 63.9133 133.28 64.0894L128.412 64.8781C128.245 64.9059 128.078 64.9194 127.913 64.9186L127.914 64.9194Z" fill="#1A2645"/>
<path fill-rule="evenodd" clip-rule="evenodd" d="M101.138 31.4382C104.069 45.2665 121.2 59.544 129.914 57.6868C138.627 55.8287 148.486 35.7973 145.554 21.969C142.624 8.13979 130.304 -0.950186 118.039 1.66465C105.774 4.27948 98.2068 17.6098 101.138 31.4382Z" fill="#00D7ED"/>
<path fill-rule="evenodd" clip-rule="evenodd" d="M102.199 20.4781C103.887 11.7311 109.939 4.63578 118.291 2.8552C119.62 2.57122 120.95 2.43555 122.27 2.43555C130.017 2.43555 137.343 7.15371 141.488 14.5423C136.984 8.19778 130.067 4.27343 122.774 4.27343C121.37 4.27343 119.949 4.41921 118.531 4.72173C110.599 6.41299 104.632 12.5873 102.199 20.479V20.4781Z" fill="#B2F3FA"/>
<path fill-rule="evenodd" clip-rule="evenodd" d="M122.27 2.4347C120.95 2.4347 119.62 2.57121 118.291 2.85435C106.7 5.32508 99.5385 18.0344 102.325 31.1844C104.955 43.5911 119.85 56.6358 128.232 56.6366C128.734 56.6366 129.21 56.5903 129.661 56.4942C137.648 54.7912 147.154 35.3691 144.367 22.2208C141.899 10.5792 132.448 2.4347 122.27 2.4347ZM128.332 59.0602C123.931 59.0602 118.09 56.2439 112.555 51.3581C106.056 45.6211 101.344 38.2688 99.9502 31.6908C96.8843 17.2271 104.886 3.22344 117.786 0.47294C130.686 -2.27756 143.676 7.25145 146.741 21.7152C148.136 28.2931 146.813 36.9323 143.204 44.824C139.679 52.5286 134.684 57.9133 130.166 58.8773C129.59 58.9995 128.976 59.0602 128.332 59.0602H128.332Z" fill="#1A2645"/>
<path fill-rule="evenodd" clip-rule="evenodd" d="M108.817 23.061C105.932 23.061 104.818 19.6717 107.407 15.5881C110.026 11.4581 113.889 8.96801 119.936 8.42532C120.245 8.39752 120.538 8.38403 120.814 8.38403C124.811 8.38403 125.378 11.1649 120.842 13.3744C113.337 17.0291 112.834 22.4618 109.473 23.0062C109.245 23.0433 109.026 23.061 108.817 23.061Z" fill="#80EBF6"/>
<path fill-rule="evenodd" clip-rule="evenodd" d="M112.395 54.498C112.362 54.5714 112.337 54.648 112.318 54.7281L112.395 54.498Z" fill="#D66B09"/>
<path fill-rule="evenodd" clip-rule="evenodd" d="M83.8484 54.5586C86.7791 68.387 103.91 82.6645 112.623 80.8064C121.337 78.9491 131.195 58.9178 128.264 45.0886C125.333 31.2594 113.014 22.1694 100.748 24.7843C88.4839 27.3991 80.917 40.7294 83.8476 54.5578L83.8484 54.5586Z" fill="#FF2222"/>
<path fill-rule="evenodd" clip-rule="evenodd" d="M84.876 43.7084C85.3818 41.0135 86.312 38.434 87.6554 36.0695C90.6735 30.7522 95.4131 27.1674 101.002 25.9759C102.332 25.6919 103.673 25.552 105.011 25.552C109.294 25.552 113.543 26.9879 117.287 29.7511C118.653 30.7589 119.907 31.91 121.034 33.1816C120.943 33.3586 120.854 33.5381 120.766 33.7176C116.521 29.7317 111.114 27.3933 105.486 27.3933C104.08 27.3933 102.66 27.539 101.242 27.8416C93.2722 29.5404 87.2874 35.7636 84.8769 43.7084H84.876ZM120.99 33.9308C120.945 33.8878 120.9 33.844 120.855 33.8018C120.918 33.6004 120.984 33.3999 121.053 33.2027C121.129 33.2886 121.205 33.3754 121.28 33.4631C121.181 33.6181 121.085 33.774 120.99 33.9308Z" fill="#FFBCBC"/>
<path fill-rule="evenodd" clip-rule="evenodd" d="M100.948 74.2361C94.5636 70.0135 88.173 62.892 85.3163 55.468C85.2113 55.0795 85.1172 54.6936 85.0357 54.3068C84.7122 52.779 84.5189 51.247 84.4534 49.7268C86.6724 55.6711 92.3135 61.3406 98.2757 64.8756C98.6227 67.8613 99.5435 71.0516 100.948 74.237V74.2361Z" fill="#B91F2E"/>
<path fill-rule="evenodd" clip-rule="evenodd" d="M105.011 25.552C103.673 25.552 102.332 25.6919 101.002 25.9759C95.4139 27.1674 90.6735 30.7522 87.6554 36.0695C84.6105 41.4331 83.6804 47.9099 85.0357 54.3059C87.6655 66.7126 102.56 79.7573 110.943 79.7581C111.444 79.7581 111.921 79.7118 112.371 79.6157C120.358 77.9127 129.864 58.4906 127.077 45.3415C125.722 38.9455 122.245 33.4083 117.287 29.7502C113.543 26.9871 109.294 25.5511 105.011 25.5511V25.552ZM111.042 82.1808C106.642 82.1808 100.8 79.3655 95.2652 74.4788C88.767 68.7418 84.0551 61.3894 82.6604 54.8115C81.1816 47.8316 82.205 40.7472 85.5448 34.8644C88.9115 28.9345 94.2217 24.9318 100.496 23.5944C106.773 22.2563 113.247 23.747 118.726 27.7901C124.163 31.8021 127.973 37.8559 129.452 44.8359C130.846 51.4146 129.524 60.0529 125.914 67.9455C122.39 75.6501 117.395 81.0348 112.876 81.998C112.3 82.121 111.685 82.1808 111.042 82.1808Z" fill="#1A2645"/>
<path fill-rule="evenodd" clip-rule="evenodd" d="M91.5271 45.477C88.6427 45.477 87.5286 42.0877 90.1181 38.0041C92.7362 33.8741 96.6003 31.384 102.646 30.8413C102.956 30.8135 103.248 30.8 103.525 30.8C107.521 30.8 108.089 33.5809 103.553 35.7904C96.0491 39.4451 95.545 44.8778 92.185 45.4222C91.9565 45.4593 91.738 45.477 91.528 45.477H91.5271Z" fill="#FF9191"/>
<path fill-rule="evenodd" clip-rule="evenodd" d="M144.138 54.9312C144.075 54.9792 144.015 55.034 143.96 55.0963L144.138 54.9312Z" fill="#D66B09"/>
<path fill-rule="evenodd" clip-rule="evenodd" d="M133.529 77.2723L134.421 82.1362C134.676 83.5258 133.336 84.671 132.008 84.1982L127.362 82.5415C126.034 82.0679 125.715 80.3312 126.788 79.4152L130.542 76.2071C131.614 75.2911 133.275 75.8827 133.529 77.2731V77.2723Z" fill="#3BD8E0"/>
<path fill-rule="evenodd" clip-rule="evenodd" d="M131.722 76.9849C131.607 76.9849 131.466 77.0177 131.33 77.134L127.576 80.3412C127.332 80.5502 127.35 80.819 127.369 80.9235C127.388 81.0289 127.466 81.2867 127.769 81.3946L132.415 83.0513C132.717 83.1592 132.939 83.0092 133.021 82.9392C133.101 82.8693 133.285 82.6738 133.228 82.3569L132.335 77.4922C132.277 77.1761 132.036 77.0573 131.935 77.0219C131.891 77.0068 131.813 76.9857 131.721 76.9857L131.722 76.9849ZM132.633 85.5254C132.289 85.5254 131.942 85.4664 131.603 85.3451L126.956 83.6884C125.919 83.3184 125.181 82.4496 124.982 81.3643C124.783 80.2789 125.164 79.2028 126.002 78.4874L129.755 75.2801C130.593 74.5638 131.713 74.3582 132.749 74.7273C133.786 75.0973 134.524 75.9652 134.724 77.0514L135.617 81.9154C135.815 83.0016 135.435 84.0768 134.596 84.7931C134.033 85.2743 133.341 85.5254 132.634 85.5254H132.633Z" fill="#1A2645"/>
<path fill-rule="evenodd" clip-rule="evenodd" d="M119.081 41.2123C115.019 54.7508 123.19 75.5313 131.72 78.1065C140.251 80.6809 158.501 67.8755 162.563 54.337C166.626 40.7994 160.186 26.8868 148.178 23.2624C136.172 19.6381 123.143 27.6738 119.081 41.2115V41.2123Z" fill="#068FFF"/>
<path fill-rule="evenodd" clip-rule="evenodd" d="M162.571 45.9581C161.519 36.692 155.766 28.7835 147.144 26.1805C145.195 25.5914 143.218 25.3108 141.257 25.3108C135.372 25.3108 129.628 27.8448 125.185 32.1972C126.921 30.0779 128.975 28.2644 131.287 26.8386C134.754 24.6999 138.522 23.6069 142.272 23.6069C144.143 23.6069 146.008 23.8791 147.829 24.4285C153.299 26.0794 157.727 30.0458 160.296 35.5957C161.787 38.8173 162.55 42.3481 162.571 45.9581Z" fill="#B4DDFF"/>
<path fill-rule="evenodd" clip-rule="evenodd" d="M120.012 35.4063C120.247 34.8307 120.498 34.2678 120.767 33.7175C120.797 33.7453 120.826 33.7731 120.855 33.801C120.834 33.8701 120.813 33.9383 120.792 34.0074C120.744 34.17 120.698 34.3327 120.654 34.4979C120.484 34.7928 120.319 35.0919 120.159 35.3945C120.11 35.3978 120.061 35.402 120.012 35.4054V35.4063Z" fill="#B91F2E"/>
<path fill-rule="evenodd" clip-rule="evenodd" d="M120.855 33.8017C120.826 33.7739 120.797 33.7461 120.767 33.7183C120.855 33.538 120.944 33.3593 121.035 33.1824C121.042 33.1891 121.047 33.1959 121.054 33.2034C120.985 33.4015 120.919 33.6012 120.855 33.8026V33.8017Z" fill="#B98392"/>
<path fill-rule="evenodd" clip-rule="evenodd" d="M121.053 33.2017C121.046 33.195 121.041 33.1882 121.034 33.1815C121.06 33.1309 121.086 33.0803 121.113 33.0298C121.093 33.0871 121.073 33.1444 121.053 33.2025V33.2017Z" fill="#1A2645"/>
<path fill-rule="evenodd" clip-rule="evenodd" d="M144.212 72.0863C145.064 69.4849 145.618 66.9114 145.842 64.4693C151.936 62.0971 158.315 57.4456 161.914 52.0212C161.767 52.6785 161.595 53.3341 161.4 53.9864C161.321 54.2527 161.234 54.5198 161.143 54.7852C157.717 61.8772 150.863 68.3877 144.211 72.0863H144.212Z" fill="#1766BE"/>
<path fill-rule="evenodd" clip-rule="evenodd" d="M120.244 41.5629C116.38 54.4348 124.251 74.5799 132.07 76.9403C139.891 79.2998 157.537 66.8593 161.401 53.9874C163.28 47.7263 162.888 41.1947 160.296 35.5959C157.727 30.046 153.299 26.0804 147.829 24.4287C142.357 22.7771 136.483 23.6333 131.287 26.8388C126.045 30.0722 122.122 35.3018 120.243 41.5638L120.244 41.5629ZM134.108 79.6444C133.118 79.6444 132.201 79.5222 131.371 79.2728C126.948 77.9372 122.413 72.1564 119.537 64.1855C116.591 56.0208 115.986 47.3016 117.919 40.8618C119.97 34.0285 124.266 28.3118 130.015 24.765C135.81 21.1903 142.386 20.2432 148.529 22.0971C154.672 23.9518 159.634 28.3817 162.499 34.5704C165.341 40.711 165.777 47.8561 163.726 54.6893C161.794 61.1291 156.491 68.0652 149.541 73.2426C144.028 77.349 138.397 79.6444 134.107 79.6444H134.108Z" fill="#1A2645"/>
<path fill-rule="evenodd" clip-rule="evenodd" d="M131.86 37.4102C131.493 37.4102 131.134 37.3537 130.772 37.224C127.565 36.0805 127.98 32.2244 132.518 29.7233C134.779 28.477 137.125 27.8003 139.658 27.8003C141.914 27.8003 144.317 28.3379 146.937 29.4873C151.147 31.3353 150.783 34.2797 145.994 34.2797C145.79 34.2797 145.578 34.2746 145.358 34.2636C144.99 34.2451 144.633 34.2367 144.283 34.2367C140.964 34.2367 138.542 35.0296 136.607 35.8234C134.672 36.6164 133.226 37.4102 131.861 37.4102H131.86Z" fill="#83C7FF"/>
<path fill-rule="evenodd" clip-rule="evenodd" d="M125.017 92.3873L127.482 96.6698C128.187 97.8942 127.307 99.4237 125.897 99.4237H120.966C119.556 99.4237 118.676 97.8934 119.38 96.6698L121.846 92.3873C122.55 91.1629 124.312 91.1629 125.016 92.3873H125.017Z" fill="#FFE000"/>
<path fill-rule="evenodd" clip-rule="evenodd" d="M125.897 97.3112H120.966C120.786 97.3112 120.614 97.2859 120.454 97.2396L121.81 94.8843C122.308 94.9643 122.794 95.0065 123.263 95.0065C123.394 95.0065 123.522 95.0031 123.649 94.9972C124.093 94.9744 124.547 94.9138 125.011 94.8135L126.408 97.2396C126.247 97.2859 126.077 97.3112 125.896 97.3112H125.897Z" fill="#B99B18"/>
<path fill-rule="evenodd" clip-rule="evenodd" d="M123.432 92.6865C123.325 92.6865 123.058 92.7168 122.899 92.9957L120.433 97.2791C120.272 97.558 120.379 97.804 120.433 97.8967C120.487 97.9894 120.645 98.206 120.966 98.206H125.898C126.219 98.206 126.378 97.9903 126.432 97.8967C126.486 97.804 126.592 97.558 126.432 97.2782L123.966 92.9957C123.805 92.7168 123.539 92.6865 123.432 92.6865ZM125.898 100.641H120.966C119.866 100.641 118.88 100.071 118.33 99.1152C117.78 98.1596 117.78 97.0178 118.33 96.0614L120.796 91.778C121.346 90.8224 122.331 90.252 123.432 90.252H123.432C124.533 90.252 125.518 90.8224 126.069 91.778L128.535 96.0614C129.085 97.017 129.085 98.1588 128.534 99.1152C127.985 100.071 126.998 100.641 125.898 100.641Z" fill="#1A2645"/>
<path fill-rule="evenodd" clip-rule="evenodd" d="M99.3595 63.2652C100.054 77.3851 114.693 94.2201 123.59 93.7811C132.488 93.3412 145.406 75.1444 144.713 61.0236C144.019 46.9029 133.304 35.9582 120.78 36.5775C108.256 37.1969 98.6655 49.1452 99.3595 63.266V63.2652Z" fill="#FFE000"/>
<path fill-rule="evenodd" clip-rule="evenodd" d="M141.881 53.0401C137.936 45.0245 130.345 39.6482 121.791 39.6482C121.455 39.6482 121.118 39.6566 120.78 39.6735C112.642 40.0755 105.743 45.2621 102.1 52.7182C103.028 50.1387 104.358 47.7405 106.059 45.6211C109.884 40.8549 115.134 38.0749 120.839 37.7926C121.157 37.7766 121.471 37.769 121.787 37.769C130.73 37.769 138.583 44.0462 141.881 53.0401Z" fill="#FFF6B2"/>
<path fill-rule="evenodd" clip-rule="evenodd" d="M123.247 90.6203C116.64 90.6195 107.1 81.532 102.312 71.1561C101.298 68.4056 100.695 65.7031 100.572 63.2046C100.527 62.3071 100.527 61.4156 100.567 60.5325C103.942 70.7238 115.468 80.8596 123.171 80.8587C123.311 80.8587 123.452 80.8562 123.589 80.8486C130.503 80.5073 139.927 71.2497 143.52 61.6423C143.601 65.2919 142.745 69.2281 141.293 73.0277C136.97 82.416 129.418 90.3228 123.589 90.611C123.475 90.6161 123.362 90.6186 123.246 90.6186L123.247 90.6203Z" fill="#B99B18"/>
<path fill-rule="evenodd" clip-rule="evenodd" d="M121.787 37.7692C121.472 37.7692 121.157 37.7768 120.839 37.7928C115.134 38.0742 109.884 40.8551 106.059 45.6213C102.2 50.4287 100.251 56.6738 100.572 63.2054C100.878 69.4185 104.154 76.8956 109.336 83.2098C114.156 89.0807 119.743 92.7531 123.531 92.5652C131.687 92.1624 144.16 74.51 143.501 61.0836C142.858 48.0161 133.212 37.77 121.787 37.77V37.7692ZM123.265 95.0064C118.696 95.0064 112.686 91.12 107.462 84.7569C101.959 78.0543 98.4765 70.0421 98.1471 63.3251C97.7976 56.1969 99.9351 49.3678 104.167 44.0943C108.433 38.7787 114.313 35.6776 120.72 35.3608C133.884 34.7103 145.2 46.1951 145.926 60.9639C146.256 67.6817 143.576 75.9981 138.758 83.2106C134.053 90.2529 128.264 94.7696 123.651 94.998C123.524 95.0039 123.395 95.0073 123.265 95.0073V95.0064Z" fill="#1A2645"/>
<path fill-rule="evenodd" clip-rule="evenodd" d="M109.043 56.2836C105.638 56.2836 104.744 52.5109 108.183 48.6295C111.114 45.322 114.836 43.501 119.998 43.501C120.545 43.501 121.109 43.5212 121.69 43.5625C126.469 43.9029 126.96 47.0377 121.797 48.5933C113.808 51.0008 112.447 56.2827 109.043 56.2827V56.2836Z" fill="#FFF6B2"/>
<path fill-rule="evenodd" clip-rule="evenodd" d="M116.396 135C113.945 135 112.219 134.098 112.182 134.079C111.841 133.893 111.713 133.467 111.897 133.124C112.081 132.782 112.507 132.654 112.849 132.838C113.13 132.987 119.823 136.423 125.252 127.69C128.347 122.713 126.561 117.63 124.672 112.246C123.141 107.883 121.557 103.372 122.594 98.7393C122.679 98.3593 123.057 98.1217 123.432 98.2059C123.811 98.2902 124.049 98.6677 123.964 99.0469C123.016 103.286 124.531 107.603 125.998 111.778C127.914 117.239 129.896 122.885 126.445 128.435C123.131 133.764 119.267 135 116.397 135H116.396Z" fill="#1A2645"/>
<path d="M140.494 76.5257C140.66 76.2459 141.021 76.1549 141.3 76.3226C141.579 76.4895 141.67 76.8518 141.503 77.1316C141.493 77.1476 141.483 77.1619 141.473 77.1762C138.297 82.0157 135.125 86.8552 133.993 91.3636C133.091 94.9559 133.478 98.4109 133.802 101.306C133.885 102.048 133.964 102.755 134.016 103.4C134.153 105.091 134.126 106.524 133.916 107.779C133.703 109.062 133.3 110.154 132.69 111.134C131.492 113.061 129.534 114.499 127.577 115.937C127.315 116.13 126.947 116.073 126.755 115.81C126.562 115.547 126.619 115.178 126.881 114.985C128.746 113.615 130.611 112.243 131.69 110.51C132.218 109.661 132.568 108.709 132.755 107.584C132.948 106.432 132.97 105.092 132.841 103.491C132.788 102.831 132.712 102.15 132.632 101.435C132.297 98.4438 131.897 94.8733 132.85 91.0762C134.028 86.3817 137.259 81.4554 140.492 76.5274L140.494 76.5248V76.5257Z" fill="#1A2645"/>
</g>
</g>
<defs>
<filter id="filter0_d_9910_2115" x="0" y="0" width="169" height="269" filterUnits="userSpaceOnUse" color-interpolation-filters="sRGB">
<feFlood flood-opacity="0" result="BackgroundImageFix"/>
<feColorMatrix in="SourceAlpha" type="matrix" values="0 0 0 0 0 0 0 0 0 0 0 0 0 0 0 0 0 0 127 0" result="hardAlpha"/>
<feOffset dy="4"/>
<feGaussianBlur stdDeviation="2"/>
<feComposite in2="hardAlpha" operator="out"/>
<feColorMatrix type="matrix" values="0 0 0 0 0 0 0 0 0 0 0 0 0 0 0 0 0 0 0.25 0"/>
<feBlend mode="normal" in2="BackgroundImageFix" result="effect1_dropShadow_9910_2115"/>
<feBlend mode="normal" in="SourceGraphic" in2="effect1_dropShadow_9910_2115" result="shape"/>
</filter>
<clipPath id="clip0_9910_2115">
<rect width="113" height="136" fill="white" transform="translate(4 125)"/>
</clipPath>
<clipPath id="clip1_9910_2115">
<rect width="83" height="135" fill="white" transform="translate(82)"/>
</clipPath>
</defs>
</svg>
