<?xml version="1.0" encoding="UTF-8"?>
<!DOCTYPE svg PUBLIC "-//W3C//DTD SVG 1.1//EN" "http://www.w3.org/Graphics/SVG/1.1/DTD/svg11.dtd">
<!-- Creator: CorelDRAW -->
<svg xmlns="http://www.w3.org/2000/svg" xml:space="preserve" width="500px" height="728px" version="1.1" style="shape-rendering:geometricPrecision; text-rendering:geometricPrecision; image-rendering:optimizeQuality; fill-rule:evenodd; clip-rule:evenodd"
viewBox="0 0 60.502 88.109"
 xmlns:xlink="http://www.w3.org/1999/xlink"
 xmlns:xodm="http://www.corel.com/coreldraw/odm/2003">
 <defs>
  <style type="text/css">
   <![CDATA[
    .fil3 {fill:#020202}
    .fil6 {fill:#22A7F0}
    .fil2 {fill:#232323}
    .fil5 {fill:#5A5A5A}
    .fil4 {fill:#707070}
    .fil7 {fill:#91D3F8}
    .fil1 {fill:#BDBDBD}
    .fil0 {fill:white}
   ]]>
  </style>
 </defs>
 <g id="Camada_x0020_1">
  <metadata id="CorelCorpID_0Corel-Layer"/>
  <g id="_2697598857264">
   <path class="fil0" d="M27.685 81.524c0,0.192 -0.155,0.347 -0.347,0.347 -0.192,0 -0.348,-0.155 -0.348,-0.347 0,-0.192 0.156,-0.348 0.348,-0.348 0.192,0 0.347,0.156 0.347,0.348z"/>
   <path class="fil0" d="M52.995 41.786c0,0 2.104,1.698 2.908,6.956 0.804,5.257 2.341,13.864 2.341,13.864 0,0 0.378,8.768 -7.292,8.694 -7.671,-0.074 -6.296,-7.002 -6.296,-7.002l2.214 -16.77 6.125 -5.742z"/>
   <path class="fil1" d="M51.589 70.82l-0.001 0c0.203,-1.239 0.339,-2.513 0.408,-3.824 0.108,-2.067 0.049,-4.208 -0.182,-6.442 0.178,0.071 0.365,0.144 0.542,0.214 0.444,0.174 0.914,0.262 1.387,0.262 0.234,0 0.469,-0.022 0.702,-0.065 0.969,-0.182 1.937,-0.458 2.894,-0.824 0.24,1.373 0.409,2.324 0.443,2.513 0.008,0.366 0.039,4.162 -2.165,6.437 -1.015,1.048 -2.367,1.625 -4.028,1.729zm1.757 -25.69c0.244,-0.359 0.472,-0.716 0.685,-1.067 0.115,0.229 0.232,0.482 0.347,0.759 -0.207,0.024 -0.413,0.074 -0.613,0.149l-0.419 0.159z"/>
   <path class="fil2" d="M51.048 71.764c-0.034,0 -0.067,0 -0.101,0 -2.516,-0.025 -4.382,-0.763 -5.546,-2.196 -1.751,-2.153 -1.253,-5.073 -1.202,-5.343l2.212 -16.757c0.033,-0.254 0.266,-0.432 0.52,-0.399 0.253,0.033 0.432,0.266 0.398,0.52l-2.213 16.77c-0.001,0.01 -0.003,0.02 -0.005,0.03 -0.005,0.026 -0.511,2.731 1.013,4.6 0.983,1.205 2.608,1.826 4.832,1.848 1.952,0.016 3.52,-0.569 4.661,-1.746 2.204,-2.275 2.173,-6.071 2.165,-6.437 -0.106,-0.595 -1.566,-8.805 -2.337,-13.842 -0.761,-4.974 -2.724,-6.651 -2.743,-6.667 -0.196,-0.163 -0.225,-0.454 -0.064,-0.651 0.161,-0.198 0.45,-0.229 0.648,-0.069 0.092,0.074 2.253,1.874 3.075,7.247 0.794,5.191 2.324,13.767 2.339,13.853 0.004,0.02 0.006,0.04 0.007,0.061 0.008,0.182 0.162,4.476 -2.421,7.146 -1.304,1.349 -3.066,2.032 -5.238,2.032z"/>
   <path class="fil0" d="M58.584 59.096c-1.361,0.661 -2.766,1.14 -4.224,1.414 -0.616,0.114 -1.252,0.055 -1.834,-0.174 -0.691,-0.27 -1.529,-0.604 -1.348,-0.57l-2.984 -6 -2.244 -4.512 5.956 -3.086 2.022 -0.764c0.599,-0.224 1.267,-0.168 1.818,0.154l0.835 0.49c0.735,0.431 1.262,1.142 1.459,1.971l0.456 1.923 0.005 0.016 1.467 6.179c0.282,1.189 -0.286,2.425 -1.384,2.959z"/>
   <path class="fil1" d="M53.743 60.103c-0.358,0 -0.713,-0.067 -1.049,-0.198 -0.502,-0.197 -0.81,-0.321 -0.999,-0.4 -0.07,-0.559 -0.151,-1.123 -0.242,-1.693 0.47,-0.575 0.667,-1.349 0.486,-2.109l-0.302 -1.268c-0.038,-0.16 -0.092,-0.314 -0.16,-0.461 0.621,0.401 1.223,0.57 1.798,0.57 2.315,0 4.165,-2.739 4.891,-3.991l1.351 5.692c0.233,0.977 -0.245,2.001 -1.136,2.434 -1.346,0.654 -2.727,1.116 -4.107,1.375 -0.176,0.033 -0.354,0.049 -0.531,0.049z"/>
   <path class="fil0" d="M50.754 56.938c1.665,9.396 0.727,18.123 -4.475,25.76 -1.115,1.637 -2.951,2.653 -4.932,2.688 -1.496,0.028 -3.014,-0.233 -4.55,-0.786l-0.002 0c-0.856,-0.307 -1.72,-0.705 -2.59,-1.195 -0.254,-0.142 -0.508,-0.293 -0.763,-0.452 -0.489,4.968 -5.833,6.539 -7.585,1.645 -0.107,-0.3 -0.193,-0.606 -0.257,-0.917 -0.233,-1.129 -0.183,-2.305 0.118,-3.426l1.489 -5.561 0.114 -0.422 -7.279 0.162 -1.618 1.402 -4.608 6.558c-0.615,0.875 -1.552,1.483 -2.608,1.642 -0.552,0.082 -1.211,0.097 -1.972,-0.031 -1.507,-0.253 -2.877,-1.035 -3.908,-2.164 -1.127,-1.235 -2.227,-2.47 -3.088,-3.742 -1.8,-2.657 -2.553,-5.461 -0.315,-8.68 0,0 2.805,-3.342 7.549,0.217l2.912 -3.433c-0.257,0.059 -0.516,0.106 -0.772,0.143l-0.002 0c-3.034,0.438 -5.896,-0.616 -6.593,-3.459 -0.257,-1.045 -0.222,-2.332 0.207,-3.875 0.311,-1.118 1.066,-2.079 2.106,-2.593 0.772,-0.382 1.757,-0.557 2.87,-0.034 0,0 1.941,-2.473 4.044,1.816 1.844,0.541 3.504,0.29 5.014,-0.603 -2.68,-5.23 -4.422,-10.094 -0.889,-12.9l28.5 -10.945 9.042 3.764 0.298 0.125c0,0 -1.607,6.921 -7.322,11.612 0.35,1.155 0.669,2.301 0.953,3.439 0.36,1.429 0.665,2.844 0.912,4.245z"/>
   <path class="fil1" d="M31.49 47.918c-2.116,0 -4.114,-0.283 -5.767,-0.677 0.333,0.014 0.668,0.021 1.005,0.021 8.825,0 16.537,-4.864 20.594,-12.051l-0.015 0.274c-0.08,1.421 -0.423,2.82 -1.054,4.096 -3.217,6.503 -9.376,8.337 -14.763,8.337z"/>
   <path class="fil1" d="M41.143 84.848c-1.025,0 -2.066,-0.144 -3.118,-0.429 0.627,-0.41 0.328,-1.364 -0.02,-2.074 0.024,-0.004 0.047,-0.013 0.069,-0.027 0.074,-0.051 0.093,-0.152 0.042,-0.227l-0.006 -0.008c-0.428,-0.626 -0.857,-1.219 -1.211,-1.862 -0.1,-0.152 -0.17,-0.324 -0.26,-0.482 -0.086,-0.161 -0.175,-0.319 -0.251,-0.486 -0.079,-0.164 -0.166,-0.324 -0.244,-0.488l-0.227 -0.499c-0.198,-0.467 -0.362,-0.95 -0.495,-1.44 2.107,1.744 4.043,2.503 5.716,2.503 5.464,0 8.129,-8.089 4.812,-16.33 -1.374,2.287 -3.938,3.204 -3.938,3.204l-11.833 1.684 -2.031 -1.491c4.906,-0.582 9.221,-1.301 13.133,-2.186 0.04,-0.009 0.08,-0.024 0.117,-0.044 0.935,-0.502 1.803,-1.262 2.581,-2.261 0.464,-0.596 0.711,-1.313 0.711,-2.049 0.003,0 0.006,0 0.008,0 1.955,-0.063 3.892,-0.505 5.758,-1.313 1.375,9.438 -0.159,17.296 -4.623,23.851 -1.024,1.503 -2.705,2.419 -4.495,2.452 -0.065,0.001 -0.13,0.002 -0.195,0.002z"/>
   <path class="fil0" d="M49.818 23.631c0,12.752 -10.338,23.09 -23.09,23.09 -12.753,0 -23.091,-10.338 -23.091,-23.09 0,-12.753 10.338,-23.09 23.091,-23.09 12.752,-0.001 23.09,10.337 23.09,23.09z"/>
   <path class="fil1" d="M26.728 46.181c-2.749,0 -5.385,-0.495 -7.823,-1.399 0.008,-0.052 0.009,-0.106 0.001,-0.159 1.217,0.179 2.488,0.268 3.784,0.268 4.182,0 8.632,-0.927 12.431,-2.748 4.002,-1.919 9.039,-5.622 10.739,-12.457 0.563,0.34 1.176,0.522 1.823,0.522 0.055,0 0.11,-0.001 0.165,-0.004 0.144,-0.006 0.287,-0.021 0.427,-0.045 -0.018,0.102 -0.036,0.204 -0.056,0.306 -2.901,9.103 -11.439,15.716 -21.491,15.716zm16.654 -28.921c-0.191,-0.364 -0.395,-0.719 -0.61,-1.063 -0.848,-5.234 -3.455,-9.878 -7.194,-13.306 5.41,2.317 9.736,6.69 11.992,12.131 -0.251,-0.052 -0.505,-0.079 -0.761,-0.079 -0.057,0 -0.114,0.002 -0.17,0.004 -0.993,0.048 -1.876,0.481 -2.554,1.253 -0.267,0.304 -0.502,0.66 -0.703,1.06z"/>
   <path class="fil2" d="M45.61 28.851c-3.056,14.836 -23.012,18.36 -32.154,13.676 -1.59,-0.577 -3.42,-2.76 -4.949,-4.985 -1.865,-2.711 -3.283,-5.485 -3.283,-5.485 -1.587,-8.426 1.004,-15.219 7.589,-19.992 4.673,-3.389 10.56,-4.59 16.249,-3.603 4.701,0.817 8.523,2.573 11.264,5.338 1.307,1.319 2.367,2.87 3.158,4.656l2.126 10.395z"/>
   <path class="fil3" d="M45.61 28.851c-3.056,14.836 -23.012,18.36 -32.154,13.676 -1.59,-0.577 -3.42,-2.76 -4.949,-4.985 0.241,-0.491 -0.684,-1.026 -0.684,-1.026 7.001,7.204 38.613,1.823 32.503,-22.716 1.307,1.319 2.367,2.87 3.158,4.656l2.126 10.395z"/>
   <path class="fil2" d="M26.728 1.081c-12.434,0 -22.55,10.116 -22.55,22.55 0,12.434 10.116,22.55 22.55,22.55 12.434,0 22.549,-10.116 22.549,-22.55 0,-12.434 -10.115,-22.55 -22.549,-22.55zm0 46.181c-13.031,0 -23.631,-10.601 -23.631,-23.631 0,-13.03 10.6,-23.631 23.631,-23.631 13.03,0 23.63,10.601 23.63,23.631 0.001,13.03 -10.6,23.631 -23.63,23.631z"/>
   <path class="fil2" d="M22.69 44.891c-3.514,0 -6.838,-0.654 -9.43,-1.982 -0.211,-0.108 -0.294,-0.366 -0.186,-0.577 0.108,-0.211 0.367,-0.295 0.578,-0.186 5.456,2.795 14.329,2.468 21.098,-0.777 3.954,-1.896 8.962,-5.604 10.422,-12.519l-2.099 -10.263c-2.33,-5.218 -7.068,-8.482 -14.085,-9.702 -5.668,-0.985 -11.472,0.301 -15.923,3.528 -6.483,4.698 -8.979,11.281 -7.42,19.565 0.044,0.233 -0.109,0.457 -0.342,0.501 -0.233,0.045 -0.457,-0.11 -0.501,-0.342 -0.804,-4.27 -0.552,-8.172 0.751,-11.598 1.302,-3.426 3.66,-6.394 7.008,-8.821 4.638,-3.362 10.678,-4.703 16.574,-3.678 7.336,1.275 12.296,4.721 14.741,10.242 0.012,0.028 0.022,0.058 0.028,0.088l2.126 10.395c0.012,0.057 0.012,0.116 0,0.172 -1.506,7.315 -6.764,11.219 -10.909,13.206 -3.799,1.821 -8.249,2.748 -12.431,2.748z"/>
   <path class="fil0" d="M51.959 22.351c0.32,3.915 -1.532,7.189 -4.136,7.314 -2.605,0.123 -4.384,-3.107 -4.704,-7.021 -0.32,-3.915 0.941,-7.033 3.546,-7.157 2.604,-0.124 4.974,2.949 5.294,6.864z"/>
   <path class="fil1" d="M47.681 29.127c-1.608,0 -2.808,-1.602 -3.474,-3.688 0.453,0.258 0.947,0.398 1.477,0.398 0.049,0 0.098,-0.001 0.147,-0.004 0.639,-0.03 1.232,-0.25 1.759,-0.621 0.03,0.847 0.359,1.673 0.954,2.353 -0.015,0.481 -0.049,0.963 -0.104,1.447 -0.209,0.064 -0.424,0.102 -0.643,0.113 -0.039,0.001 -0.077,0.002 -0.116,0.002zm2.199 -8.148c0.124,-0.771 0.158,-1.6 0.088,-2.459 -0.016,-0.195 -0.037,-0.388 -0.063,-0.579 0.379,0.538 0.706,1.169 0.959,1.868 -0.404,0.322 -0.733,0.713 -0.984,1.17z"/>
   <path class="fil2" d="M46.82 16.024c-0.044,0 -0.087,0.001 -0.13,0.003 -0.703,0.033 -1.306,0.332 -1.793,0.886 -0.991,1.128 -1.442,3.2 -1.239,5.687 0.271,3.327 1.78,6.636 4.139,6.525 0.781,-0.038 1.517,-0.425 2.128,-1.12 1.12,-1.274 1.679,-3.371 1.496,-5.61 -0.291,-3.553 -2.34,-6.371 -4.601,-6.371zm0.863 14.184c-2.652,0 -4.738,-3.057 -5.103,-7.52 -0.227,-2.777 0.322,-5.142 1.505,-6.488 0.678,-0.772 1.561,-1.205 2.554,-1.253 2.885,-0.134 5.516,3.164 5.859,7.36 0.207,2.525 -0.452,4.922 -1.761,6.412 -0.808,0.92 -1.807,1.434 -2.889,1.485 -0.055,0.003 -0.11,0.004 -0.165,0.004z"/>
   <path class="fil2" d="M49.567 29.457c-0.033,0 -0.067,-0.004 -0.101,-0.012 -2.026,-0.518 -3.525,-3.178 -3.819,-6.776 -0.305,-3.739 0.887,-6.476 3.038,-6.971 0.219,-0.051 0.439,0.086 0.489,0.305 0.051,0.22 -0.086,0.439 -0.306,0.49 -1.733,0.399 -2.678,2.798 -2.408,6.11 0.262,3.195 1.551,5.627 3.208,6.051 0.218,0.055 0.35,0.278 0.294,0.496 -0.047,0.185 -0.213,0.307 -0.395,0.307z"/>
   <path class="fil4" d="M10.443 35.7c-0.109,0 -0.219,-0.048 -0.295,-0.158 -1.343,-1.931 -2.213,-4.02 -2.564,-6.283 -0.934,-6.003 1.881,-12.033 7.075,-15.182 2.521,-1.53 5.334,-2.313 8.042,-2.313 1.507,0 2.983,0.243 4.356,0.736 0.344,0.123 0.318,0.615 -0.038,0.698 -12.412,2.924 -17.497,10.491 -16.211,22.099 0.027,0.242 -0.166,0.403 -0.365,0.403z"/>
   <path class="fil4" d="M38 23.361c-0.456,0 -0.893,-0.23 -1.16,-0.617l-0.865 -1.258c-0.334,-0.486 -0.333,-1.129 0.005,-1.613 0.487,-0.698 1.129,-1.249 2.093,-1.498 0.118,-0.03 0.238,-0.045 0.356,-0.045 0.483,0 0.943,0.247 1.206,0.671l0.772 1.246c0.228,0.368 0.281,0.824 0.127,1.23 -0.359,0.948 -1.084,1.577 -2.221,1.848 -0.104,0.025 -0.209,0.036 -0.313,0.036z"/>
   <path class="fil4" d="M37.509 30.653c0.175,-0.999 0.29,-1.987 0.335,-2.963 0.055,-1.204 1.052,-2.143 2.249,-2.143 0.027,0 0.053,0 0.081,0.001 0.015,0.001 0.03,0.001 0.046,0.002 -0.624,1.909 -1.554,3.606 -2.711,5.103z"/>
   <path class="fil5" d="M39.522 33.635c-0.152,0 -0.307,-0.016 -0.462,-0.051 -1.122,-0.249 -1.853,-1.343 -1.635,-2.472 0.029,-0.153 0.057,-0.306 0.084,-0.459 1.157,-1.497 2.087,-3.194 2.711,-5.103 1.24,0.069 2.208,1.132 2.125,2.377 -0.093,1.409 -0.352,2.803 -0.777,4.182 -0.283,0.919 -1.123,1.526 -2.046,1.526z"/>
   <path class="fil2" d="M4.074 19.615c-0.052,0 -0.105,-0.009 -0.157,-0.027 -0.243,-0.087 -0.37,-0.354 -0.284,-0.597 1.564,-4.405 4.173,-7.899 7.756,-10.386 3.188,-2.212 7.094,-3.541 11.294,-3.842 9.572,-0.687 18.911,3.884 22.714,11.115 0.121,0.228 0.033,0.511 -0.196,0.631 -0.228,0.12 -0.511,0.032 -0.631,-0.196 -3.636,-6.912 -12.607,-11.278 -21.819,-10.617 -8.743,0.626 -15.389,5.586 -18.237,13.608 -0.067,0.191 -0.248,0.311 -0.44,0.311z"/>
   <path class="fil2" d="M24.034 46.993c-0.234,0 -0.426,-0.188 -0.429,-0.423 -0.003,-0.237 0.187,-0.432 0.424,-0.435 11.9,-0.154 20.363,-6.368 22.638,-16.621 0.052,-0.231 0.28,-0.377 0.512,-0.326 0.232,0.051 0.378,0.281 0.326,0.512 -1.161,5.235 -3.973,9.601 -8.13,12.625 -4.093,2.977 -9.395,4.591 -15.335,4.668l-0.006 0z"/>
   <path class="fil0" d="M58.362 29.018c-0.242,0.324 -0.407,0.699 -0.466,1.101 -0.42,2.861 -0.981,5.404 -1.685,7.623 -1.836,-0.277 -3.533,-0.723 -5.069,-1.368 -1.301,-0.542 -2.487,-1.228 -3.545,-2.069 0.838,-2.218 1.364,-4.51 1.416,-6.915 -1.848,-1.914 -0.741,-4.638 0.849,-5.015 0.213,-1.019 0.705,-1.813 1.503,-2.36 0.689,-0.474 1.531,-0.663 2.364,-0.608 1.199,0.081 2.184,0.349 2.98,0.752 3.698,1.863 3.344,6.603 1.653,8.859z"/>
   <path class="fil2" d="M48.15 34.147c2.042,1.543 4.58,2.551 7.738,3.075 0.637,-2.094 1.158,-4.504 1.55,-7.171 0.068,-0.464 0.259,-0.917 0.554,-1.311 1.02,-1.363 1.596,-3.92 0.652,-5.975 -0.793,-1.73 -2.503,-2.73 -4.945,-2.895 -0.766,-0.051 -1.502,0.135 -2.073,0.526 -0.688,0.473 -1.117,1.151 -1.311,2.074 -0.037,0.176 -0.171,0.314 -0.346,0.356 -0.592,0.14 -1.119,0.727 -1.344,1.494 -0.286,0.975 -0.023,1.976 0.721,2.748 0.086,0.089 0.132,0.208 0.13,0.331 -0.048,2.212 -0.482,4.423 -1.326,6.748zm8.061 4.059c-0.023,0 -0.046,-0.002 -0.069,-0.006 -3.594,-0.541 -6.566,-1.73 -8.833,-3.533 -0.158,-0.125 -0.216,-0.338 -0.145,-0.526 0.86,-2.278 1.312,-4.431 1.38,-6.576 -0.864,-0.987 -1.167,-2.283 -0.809,-3.506 0.284,-0.967 0.948,-1.74 1.737,-2.046 0.27,-1.023 0.818,-1.823 1.63,-2.38 0.742,-0.51 1.687,-0.754 2.659,-0.688 3.54,0.239 5.067,1.999 5.725,3.433 1.105,2.406 0.458,5.301 -0.753,6.917 -0.202,0.271 -0.333,0.578 -0.379,0.89 -0.422,2.88 -0.995,5.469 -1.702,7.697 -0.061,0.195 -0.242,0.324 -0.441,0.324z"/>
   <path class="fil2" d="M49.829 21.951c0.915,-0.095 1.839,0.103 2.645,0.527 0.201,0.108 0.396,0.229 0.583,0.364 0.184,0.14 0.36,0.293 0.523,0.464 0.322,0.341 0.6,0.766 0.711,1.282 0.053,0.255 0.058,0.533 -0.005,0.796 -0.058,0.261 -0.189,0.511 -0.333,0.7 -0.251,0.378 -0.701,0.76 -1.239,0.831 -0.266,0.044 -0.532,-0.007 -0.766,-0.09 -0.239,-0.083 -0.436,-0.227 -0.615,-0.378 -0.342,-0.319 -0.583,-0.707 -0.728,-1.119 -0.03,-0.085 0.015,-0.177 0.099,-0.207 0.074,-0.026 0.153,0.004 0.193,0.067l0.001 0.003c0.208,0.336 0.465,0.633 0.768,0.832 0.3,0.2 0.644,0.289 0.927,0.212 0.14,-0.043 0.275,-0.1 0.388,-0.211 0.031,-0.021 0.057,-0.052 0.084,-0.082l0.08 -0.09c0.047,-0.074 0.104,-0.143 0.148,-0.216 0.188,-0.282 0.222,-0.562 0.149,-0.858 -0.076,-0.295 -0.272,-0.585 -0.519,-0.837 -0.252,-0.252 -0.557,-0.465 -0.883,-0.639 -0.658,-0.343 -1.408,-0.527 -2.145,-0.503l-0.008 0c-0.235,0.008 -0.431,-0.176 -0.439,-0.411 -0.007,-0.224 0.162,-0.414 0.381,-0.437z"/>
   <path class="fil2" d="M53.973 25.302c0.309,0.212 0.654,0.373 1.013,0.458 0.358,0.087 0.731,0.088 1.074,-0.011 0.343,-0.098 0.652,-0.301 0.89,-0.585 0.239,-0.283 0.406,-0.638 0.522,-1.015l0.002 -0.008c0.04,-0.128 0.175,-0.2 0.303,-0.161 0.123,0.038 0.194,0.165 0.165,0.288 -0.102,0.433 -0.268,0.867 -0.548,1.246 -0.276,0.379 -0.676,0.688 -1.133,0.85 -0.456,0.165 -0.952,0.191 -1.416,0.111 -0.466,-0.08 -0.907,-0.254 -1.307,-0.491 -0.192,-0.114 -0.256,-0.362 -0.143,-0.554 0.114,-0.192 0.362,-0.256 0.555,-0.143 0.007,0.005 0.015,0.01 0.023,0.015z"/>
   <path class="fil1" d="M55.874 37.22c-1.592,-0.265 -3.027,-0.653 -4.32,-1.172 3.828,-2.945 3.08,-8.537 3.08,-8.537 -0.303,0.067 -0.585,0.097 -0.844,0.097 -1.027,0 -1.721,-0.466 -2.162,-0.94 0.099,0.062 0.205,0.117 0.32,0.157 0.176,0.062 0.369,0.107 0.567,0.107 0.066,-0.001 0.133,-0.005 0.199,-0.017 0.496,-0.065 0.917,-0.396 1.178,-0.743 0.301,0.141 0.621,0.246 0.953,0.303 0.167,0.028 0.337,0.044 0.508,0.044 0.306,-0.001 0.615,-0.049 0.908,-0.155 0.457,-0.162 0.857,-0.471 1.133,-0.85 0.28,-0.379 0.446,-0.813 0.548,-1.246 0.029,-0.123 -0.042,-0.25 -0.165,-0.288 -0.023,-0.007 -0.047,-0.011 -0.071,-0.011 -0.104,0 -0.2,0.068 -0.232,0.172l-0.002 0.008c-0.116,0.377 -0.283,0.732 -0.522,1.015 -0.238,0.284 -0.547,0.487 -0.89,0.585 -0.176,0.051 -0.36,0.075 -0.546,0.075 -0.176,0 -0.354,-0.021 -0.528,-0.064 -0.251,-0.059 -0.495,-0.156 -0.725,-0.281 0.01,-0.031 0.018,-0.063 0.025,-0.095 0.061,-0.256 0.058,-0.526 0.009,-0.776 0.226,0.087 0.443,0.128 0.649,0.128 1.381,0 2.237,-1.842 1.892,-3.978 0.809,0.485 1.419,1.158 1.808,2.007 0.944,2.055 0.368,4.612 -0.652,5.975 -0.295,0.394 -0.486,0.847 -0.554,1.311 -0.391,2.66 -0.91,5.064 -1.545,7.154 -0.007,0.005 -0.013,0.01 -0.019,0.015z"/>
   <path class="fil2" d="M55.7 37.465l-3.064 -0.75c0,0 -0.019,0.067 -0.057,0.19 -0.493,-0.159 -0.973,-0.336 -1.437,-0.531 0.079,-0.073 0.164,-0.143 0.257,-0.209 0.052,-0.039 0.104,-0.077 0.155,-0.117 1.293,0.519 2.728,0.907 4.32,1.172 -0.078,0.062 -0.139,0.146 -0.174,0.245zm0.193 -0.26c0.635,-2.09 1.154,-4.494 1.545,-7.154 0.068,-0.464 0.259,-0.917 0.554,-1.311 1.02,-1.363 1.596,-3.92 0.652,-5.975 -0.389,-0.849 -0.999,-1.522 -1.808,-2.007 -0.032,-0.198 -0.074,-0.397 -0.127,-0.599 3.698,1.863 3.344,6.603 1.653,8.859 -0.242,0.324 -0.407,0.699 -0.466,1.101 -0.382,2.603 -0.881,4.943 -1.498,7.015 -0.021,-0.007 -0.042,-0.014 -0.064,-0.019 -0.041,-0.009 -0.082,-0.014 -0.122,-0.014 -0.117,0 -0.228,0.038 -0.319,0.104z"/>
   <path class="fil1" d="M52.379 26.263c-0.232,0 -0.485,-0.088 -0.713,-0.24 -0.145,-0.095 -0.28,-0.213 -0.403,-0.347 1.473,-0.036 1.647,-1.077 1.586,-1.806 0.025,0.023 0.049,0.046 0.074,0.071 0.247,0.252 0.443,0.542 0.519,0.837 0.053,0.213 0.05,0.418 -0.026,0.62 -0.007,0.01 -0.014,0.021 -0.021,0.032 -0.021,0.036 -0.036,0.074 -0.045,0.112 -0.017,0.031 -0.036,0.063 -0.057,0.094 -0.044,0.073 -0.101,0.142 -0.148,0.216l-0.08 0.09c-0.027,0.03 -0.053,0.061 -0.084,0.082 -0.113,0.111 -0.248,0.168 -0.388,0.211 -0.068,0.019 -0.14,0.028 -0.214,0.028z"/>
   <path class="fil2" d="M52.515 26.931c-0.198,0 -0.392,-0.044 -0.567,-0.106 -0.115,-0.04 -0.221,-0.095 -0.32,-0.157 -0.459,-0.493 -0.643,-0.996 -0.643,-0.996 0.068,0.004 0.134,0.005 0.198,0.005 0.027,0 0.054,0 0.08,-0.001 0.124,0.134 0.258,0.252 0.403,0.347 0.228,0.152 0.481,0.24 0.713,0.24 0.074,0 0.146,-0.009 0.214,-0.028 0.14,-0.043 0.275,-0.1 0.388,-0.211 0.031,-0.021 0.057,-0.052 0.084,-0.082l0.08 -0.09c0.047,-0.074 0.104,-0.143 0.148,-0.216 0.021,-0.031 0.04,-0.063 0.057,-0.094 -0.04,0.168 0.032,0.35 0.188,0.442 0.114,0.068 0.232,0.131 0.354,0.188 -0.26,0.347 -0.682,0.678 -1.178,0.743 -0.066,0.012 -0.133,0.017 -0.199,0.017zm1.746 -1.453c-0.099,-0.054 -0.195,-0.113 -0.289,-0.177 -0.007,-0.005 -0.015,-0.01 -0.022,-0.015 -0.065,-0.038 -0.136,-0.056 -0.206,-0.056 -0.126,0 -0.25,0.059 -0.328,0.167 0.076,-0.203 0.079,-0.407 0.026,-0.62 -0.076,-0.295 -0.272,-0.585 -0.519,-0.837 -0.025,-0.025 -0.049,-0.048 -0.074,-0.071 -0.033,-0.397 -0.135,-0.702 -0.135,-0.702l0.878 1.04c0.242,0.182 0.477,0.314 0.703,0.4 0.049,0.25 0.052,0.52 -0.009,0.776 -0.007,0.032 -0.015,0.064 -0.025,0.095z"/>
   <path class="fil2" d="M55.353 26.518c-0.171,0 -0.341,-0.015 -0.508,-0.043 -0.332,-0.057 -0.652,-0.162 -0.953,-0.303 -0.121,-0.057 -0.24,-0.12 -0.354,-0.188 -0.156,-0.092 -0.228,-0.274 -0.188,-0.442 0.009,-0.039 0.024,-0.076 0.045,-0.112 0.007,-0.011 0.014,-0.022 0.021,-0.032 0.078,-0.108 0.202,-0.167 0.328,-0.167 0.07,0 0.141,0.018 0.206,0.056 0.007,0.005 0.015,0.01 0.022,0.015 0.094,0.064 0.19,0.123 0.289,0.177 0.23,0.125 0.474,0.222 0.725,0.281 0.174,0.043 0.352,0.064 0.528,0.064 0.186,0 0.37,-0.024 0.546,-0.075 0.343,-0.098 0.652,-0.301 0.89,-0.585 0.239,-0.283 0.406,-0.638 0.522,-1.015l0.002 -0.008c0.032,-0.104 0.128,-0.172 0.232,-0.172 0.024,0 0.048,0.004 0.071,0.011 0.123,0.038 0.194,0.165 0.165,0.288 -0.102,0.433 -0.268,0.867 -0.548,1.246 -0.276,0.379 -0.676,0.688 -1.133,0.85 -0.292,0.106 -0.602,0.155 -0.908,0.154z"/>
   <path class="fil2" d="M29.365 88.109c-1.437,0 -3.134,-0.862 -4.016,-3.329 -0.526,-1.467 -0.579,-3.081 -0.154,-4.665l1.418 -5.286 -6.364 0.141 -1.42 1.231 -4.572 6.504c-0.708,1.008 -1.791,1.688 -2.969,1.864 -0.684,0.103 -1.404,0.092 -2.141,-0.031 -1.589,-0.266 -3.087,-1.095 -4.219,-2.333 -3.175,-3.474 -7.127,-7.798 -3.446,-13.094 0.009,-0.013 0.019,-0.026 0.029,-0.039 0.03,-0.036 3.021,-3.493 7.873,-0.166l1.654 -1.95c-2.193,0.174 -4.127,-0.427 -5.342,-1.704 -0.976,-1.025 -1.94,-2.964 -0.99,-6.384 0.359,-1.293 1.229,-2.362 2.387,-2.935 0.972,-0.48 1.996,-0.543 2.982,-0.186 0.34,-0.294 0.95,-0.685 1.737,-0.601 1.031,0.108 1.975,0.982 2.809,2.598 1.392,0.359 2.681,0.238 3.919,-0.37 -2.551,-5.07 -4.267,-10.11 -0.506,-13.099 0.234,-0.186 0.574,-0.147 0.76,0.086 0.186,0.234 0.147,0.574 -0.087,0.76 -3.087,2.453 -1.819,6.663 1.034,12.23 0.131,0.255 0.041,0.567 -0.205,0.712 -1.688,0.999 -3.519,1.219 -5.442,0.657 -0.146,-0.043 -0.267,-0.145 -0.334,-0.281 -0.664,-1.355 -1.393,-2.143 -2.053,-2.217 -0.614,-0.07 -1.078,0.494 -1.082,0.499 -0.157,0.193 -0.428,0.258 -0.653,0.153 -0.797,-0.374 -1.604,-0.364 -2.4,0.028 -0.883,0.437 -1.548,1.258 -1.824,2.255 -0.645,2.321 -0.392,4.171 0.731,5.35 1.215,1.276 3.379,1.713 5.788,1.17 0.227,-0.051 0.46,0.048 0.581,0.247 0.12,0.199 0.1,0.452 -0.05,0.63l-2.912 3.431c-0.185,0.218 -0.508,0.255 -0.736,0.083 -4.133,-3.1 -6.567,-0.573 -6.798,-0.316 -2.925,4.238 -0.327,7.674 3.375,11.724 0.969,1.06 2.247,1.769 3.599,1.996 0.624,0.105 1.231,0.114 1.802,0.028 0.887,-0.133 1.705,-0.649 2.244,-1.416l4.611 -6.559c0.025,-0.036 0.054,-0.069 0.088,-0.097l1.617 -1.402c0.095,-0.083 0.216,-0.13 0.342,-0.132l7.279 -0.162c0.169,-0.009 0.332,0.073 0.437,0.207 0.105,0.134 0.142,0.309 0.097,0.473l-1.604 5.983c-0.367,1.371 -0.323,2.762 0.127,4.021 0.644,1.799 1.877,2.77 3.3,2.594 1.382,-0.171 2.984,-1.529 3.238,-4.109 0.018,-0.186 0.131,-0.35 0.299,-0.432 0.167,-0.083 0.365,-0.074 0.524,0.025 2.584,1.606 5.145,2.396 7.611,2.352 1.79,-0.033 3.471,-0.949 4.495,-2.452 5.832,-8.564 6.663,-19.352 2.539,-32.984 -0.064,-0.209 0.005,-0.435 0.174,-0.574 5.51,-4.522 7.123,-11.249 7.139,-11.317 0.067,-0.29 0.358,-0.471 0.649,-0.404 0.291,0.067 0.472,0.358 0.404,0.649 -0.066,0.285 -1.663,6.935 -7.229,11.676 1.949,6.545 2.763,12.291 2.487,17.556 -0.317,6.029 -2.04,11.265 -5.27,16.006 -1.221,1.793 -3.228,2.886 -5.369,2.925 -2.455,0.045 -4.974,-0.662 -7.505,-2.101 -0.499,2.31 -2.085,4.014 -4.054,4.257 -0.14,0.017 -0.285,0.026 -0.433,0.026z"/>
   <path class="fil2" d="M20.026 48.392c0.21,0.966 0.446,1.931 0.703,2.885 0.258,0.954 0.54,1.901 0.872,2.817l0.001 0.002c0.08,0.221 -0.034,0.465 -0.255,0.545 -0.221,0.08 -0.465,-0.034 -0.545,-0.255 -0.005,-0.011 -0.008,-0.024 -0.012,-0.036 -0.26,-0.979 -0.459,-1.961 -0.634,-2.945 -0.173,-0.985 -0.324,-1.969 -0.449,-2.96 -0.011,-0.089 0.052,-0.17 0.141,-0.181 0.083,-0.011 0.16,0.045 0.178,0.125l0 0.003z"/>
   <path class="fil2" d="M12.386 66.629c-0.1,0 -0.201,-0.035 -0.281,-0.106 -0.177,-0.155 -0.194,-0.424 -0.039,-0.6l0.66 -0.749c0.756,-0.859 1.745,-1.452 2.859,-1.713l6.815 -1.598c0.229,-0.054 0.457,0.088 0.511,0.317 0.054,0.229 -0.088,0.458 -0.317,0.511l-6.815 1.598c-0.941,0.221 -1.776,0.721 -2.415,1.447l-0.659 0.749c-0.084,0.095 -0.201,0.144 -0.319,0.144z"/>
   <path class="fil2" d="M19.419 63.424c-0.024,0 -0.048,-0.002 -0.072,-0.006 -0.231,-0.039 -0.387,-0.258 -0.349,-0.49 0.535,-3.17 -0.133,-5.171 -0.14,-5.191 -0.076,-0.222 0.042,-0.464 0.263,-0.54 0.223,-0.078 0.464,0.04 0.541,0.261 0.031,0.089 0.749,2.21 0.175,5.612 -0.035,0.208 -0.215,0.354 -0.418,0.354z"/>
   <path class="fil2" d="M11.91 58.59c0.114,0.163 0.222,0.335 0.314,0.518 0.094,0.186 0.176,0.364 0.229,0.61 0.039,0.236 0.029,0.491 -0.048,0.73 -0.083,0.236 -0.219,0.451 -0.395,0.63 -0.179,0.177 -0.4,0.308 -0.641,0.393 -0.241,0.089 -0.512,0.106 -0.772,0.066 -0.132,-0.018 -0.256,-0.063 -0.38,-0.11 -0.061,-0.024 -0.115,-0.06 -0.172,-0.091l-0.084 -0.05c-0.026,-0.016 -0.045,-0.032 -0.067,-0.048l-0.258 -0.193c-0.083,-0.071 -0.163,-0.147 -0.243,-0.222 -0.31,-0.312 -0.583,-0.705 -0.718,-1.161 -0.138,-0.455 -0.125,-0.942 -0.016,-1.371 0.224,-0.866 0.711,-1.552 1.216,-2.178 0.147,-0.183 0.415,-0.211 0.598,-0.064 0.182,0.148 0.211,0.416 0.063,0.599l-0.001 0.001 -0.006 0.007c-0.465,0.57 -0.882,1.193 -1.044,1.837 -0.079,0.319 -0.085,0.634 0.007,0.921 0.089,0.288 0.273,0.549 0.516,0.775l0.189 0.166 0.209 0.153c0.017,0.012 0.035,0.028 0.051,0.036l0.042 0.023c0.028,0.013 0.054,0.034 0.082,0.046 0.058,0.022 0.114,0.05 0.175,0.058 0.236,0.063 0.518,-0.001 0.739,-0.166 0.109,-0.084 0.2,-0.19 0.267,-0.311 0.065,-0.123 0.094,-0.262 0.101,-0.411 0.001,-0.139 -0.037,-0.33 -0.081,-0.506 -0.046,-0.178 -0.101,-0.359 -0.161,-0.541l0 -0.001c-0.028,-0.086 0.018,-0.178 0.104,-0.207 0.07,-0.023 0.144,0.004 0.185,0.062z"/>
   <path class="fil2" d="M11.598 60.978c0.176,0.532 0.167,1.105 0.012,1.614 -0.154,0.51 -0.442,0.967 -0.829,1.319 -0.385,0.35 -0.89,0.595 -1.425,0.609 -0.264,0.008 -0.529,-0.042 -0.768,-0.138 -0.24,-0.096 -0.454,-0.235 -0.643,-0.396 -0.068,-0.058 -0.076,-0.16 -0.019,-0.228 0.055,-0.065 0.15,-0.075 0.217,-0.028l0.002 0.002c0.356,0.254 0.777,0.388 1.179,0.334 0.402,-0.049 0.771,-0.271 1.045,-0.574 0.277,-0.303 0.467,-0.685 0.545,-1.078 0.078,-0.393 0.039,-0.794 -0.113,-1.137 -0.095,-0.215 0.002,-0.467 0.217,-0.562 0.215,-0.096 0.467,0.002 0.562,0.217 0.006,0.012 0.01,0.025 0.015,0.038l0.003 0.008z"/>
   <path class="fil2" d="M10.881 84.499c-0.168,0 -0.327,-0.101 -0.395,-0.266 -0.088,-0.218 0.017,-0.466 0.235,-0.554 0.999,-0.404 1.543,-1.016 1.664,-1.87 0.501,-3.529 -6.15,-9.952 -6.951,-10.594 -1.114,-0.664 -2.069,-0.849 -2.84,-0.549 -1.127,0.438 -1.542,1.795 -1.546,1.809 -0.067,0.225 -0.303,0.353 -0.528,0.287 -0.225,-0.066 -0.354,-0.301 -0.289,-0.526 0.021,-0.072 0.53,-1.765 2.047,-2.36 1.035,-0.406 2.251,-0.196 3.613,0.621 0.079,0.047 7.7,6.84 7.36,11.215 -0.099,1.275 -0.843,2.202 -2.211,2.756 -0.052,0.021 -0.106,0.031 -0.159,0.031z"/>
   <path class="fil2" d="M9.776 69.284c0.532,0.522 0.976,1.106 1.36,1.713 0.384,0.608 0.71,1.241 1.001,1.885 0.04,0.089 0,0.193 -0.089,0.234 -0.081,0.036 -0.176,0.006 -0.222,-0.068 -0.369,-0.588 -0.767,-1.153 -1.207,-1.674 -0.439,-0.52 -0.92,-0.996 -1.447,-1.387 -0.206,-0.153 -0.249,-0.444 -0.096,-0.65 0.153,-0.206 0.444,-0.249 0.65,-0.096 0.016,0.012 0.032,0.025 0.046,0.039l0.004 0.004z"/>
   <path class="fil2" d="M18.335 76.286c-0.153,0 -0.288,-0.108 -0.318,-0.263 -0.611,-3.255 -2.023,-5.636 -4.085,-6.888 -1.556,-0.944 -2.955,-0.924 -2.967,-0.924l-0.007 0c-0.175,0 -0.32,-0.14 -0.324,-0.316 -0.004,-0.178 0.136,-0.326 0.315,-0.331 0.063,-0.002 1.572,-0.03 3.284,0.997 1.564,0.938 3.6,2.972 4.42,7.342 0.034,0.176 -0.082,0.345 -0.258,0.378 -0.02,0.003 -0.04,0.005 -0.06,0.005z"/>
   <path class="fil2" d="M0.984 76.163c-0.12,0 -0.239,-0.051 -0.323,-0.149 -0.153,-0.178 -0.132,-0.446 0.046,-0.599l5.173 -4.438c0.178,-0.152 0.447,-0.132 0.6,0.046 0.153,0.178 0.132,0.447 -0.046,0.6l-5.173 4.437c-0.081,0.069 -0.179,0.103 -0.277,0.103z"/>
   <path class="fil2" d="M2.896 79.431c-0.118,0 -0.235,-0.048 -0.319,-0.143 -0.156,-0.177 -0.139,-0.445 0.038,-0.601 0,0 1.438,-1.27 2.882,-2.539 0.722,-0.635 1.445,-1.27 1.99,-1.746 1.039,-0.909 1.039,-0.909 1.227,-0.897l-0.027 0.425 -0.32 0.28 0.32 -0.28 0.248 0.345c-0.207,0.159 -3.557,3.108 -5.758,5.05 -0.081,0.072 -0.181,0.106 -0.281,0.106z"/>
   <path class="fil2" d="M5.001 81.907c-0.126,0 -0.251,-0.056 -0.335,-0.163 -0.145,-0.184 -0.113,-0.452 0.071,-0.597l5.581 -4.394c0.185,-0.145 0.452,-0.113 0.598,0.071 0.145,0.185 0.113,0.452 -0.072,0.598l-5.581 4.393c-0.078,0.062 -0.17,0.092 -0.262,0.092z"/>
   <path class="fil2" d="M8.045 84.11c-0.115,0 -0.23,-0.046 -0.314,-0.138 -0.158,-0.174 -0.146,-0.443 0.027,-0.601l4.341 -3.966c0.173,-0.159 0.442,-0.147 0.601,0.026 0.158,0.174 0.146,0.443 -0.028,0.601l-4.34 3.967c-0.082,0.074 -0.184,0.111 -0.287,0.111z"/>
   <path class="fil2" d="M27.208 71.175l0.814 0.52c0.286,0.149 0.557,0.319 0.843,0.46l0.433 0.2c0.145,0.066 0.286,0.138 0.436,0.191l0.444 0.171 0.221 0.085 0.228 0.068c0.303,0.089 0.601,0.19 0.912,0.251 0.307,0.072 0.611,0.15 0.923,0.2l0.464 0.094 0.469 0.067 0.47 0.068 0.474 0.037c1.268,0.1 2.554,0.024 3.829,-0.152 1.276,-0.181 2.543,-0.468 3.793,-0.826l0.001 0c0.086,-0.025 0.176,0.025 0.201,0.111 0.023,0.082 -0.022,0.167 -0.1,0.196 -1.231,0.456 -2.495,0.842 -3.793,1.105 -1.297,0.269 -2.63,0.407 -3.971,0.377l-0.504 -0.013 -0.503 -0.047c-0.167,-0.017 -0.336,-0.029 -0.503,-0.052l-0.498 -0.089c-0.165,-0.036 -0.333,-0.059 -0.496,-0.105l-0.486 -0.145c-0.327,-0.086 -0.637,-0.228 -0.952,-0.349 -1.248,-0.513 -2.393,-1.258 -3.353,-2.172 -0.065,-0.062 -0.068,-0.165 -0.006,-0.23 0.054,-0.057 0.141,-0.066 0.205,-0.025l0.005 0.004z"/>
   <path class="fil2" d="M27.291 74.808c-0.178,0 -0.344,-0.113 -0.403,-0.292 -0.074,-0.223 0.047,-0.464 0.27,-0.537l3.325 -1.097c0.223,-0.073 0.464,0.048 0.537,0.271 0.074,0.223 -0.048,0.463 -0.271,0.537l-3.324 1.097c-0.044,0.014 -0.089,0.021 -0.134,0.021z"/>
   <path class="fil2" d="M37.883 82.313c-0.154,-0.116 -0.306,-0.238 -0.456,-0.364 -0.075,-0.063 -0.151,-0.125 -0.223,-0.191l-0.206 -0.208c-0.133,-0.142 -0.277,-0.278 -0.403,-0.429 -0.122,-0.153 -0.246,-0.305 -0.365,-0.462 -0.469,-0.631 -0.848,-1.329 -1.122,-2.064 -0.278,-0.732 -0.511,-1.48 -0.677,-2.243 -0.165,-0.765 -0.274,-1.534 -0.295,-2.334 -0.006,-0.235 0.179,-0.43 0.414,-0.437 0.234,-0.006 0.43,0.18 0.436,0.414l0 0 0 0.01c0.019,0.714 0.121,1.453 0.276,2.167 0.156,0.716 0.369,1.421 0.655,2.094l0.227 0.499c0.078,0.164 0.165,0.324 0.244,0.488 0.076,0.167 0.165,0.325 0.251,0.486 0.09,0.158 0.16,0.33 0.26,0.482 0.354,0.643 0.783,1.236 1.211,1.862l0.006 0.008c0.051,0.075 0.032,0.176 -0.042,0.227 -0.06,0.04 -0.136,0.036 -0.191,-0.005z"/>
   <path class="fil2" d="M35.03 84.167c-0.166,0 -0.308,-0.128 -0.322,-0.296 -0.259,-3 1.404,-4.009 1.475,-4.051 0.154,-0.091 0.352,-0.038 0.442,0.116 0.09,0.154 0.039,0.351 -0.114,0.442 -0.06,0.037 -1.38,0.872 -1.159,3.437 0.016,0.178 -0.116,0.335 -0.294,0.35 -0.009,0.001 -0.019,0.002 -0.028,0.002z"/>
   <path class="fil2" d="M33.184 83.338l-2.191 -1.815c-0.075,-0.063 -0.086,-0.174 -0.023,-0.25 0.054,-0.066 0.147,-0.082 0.22,-0.043l2.51 1.339c0.227,0.121 0.313,0.403 0.192,0.63 -0.121,0.227 -0.403,0.313 -0.63,0.192 -0.028,-0.015 -0.055,-0.034 -0.078,-0.053z"/>
   <path class="fil0" d="M43.615 61.619c-0.719,0.922 -1.524,1.648 -2.436,2.139 -4.727,1.069 -9.884,1.85 -15.338,2.431 -1.205,0.129 -2.333,-0.618 -2.689,-1.778l-0.495 -1.614 -1.989 -6.482c-0.159,-0.513 -0.089,-1.069 0.187,-1.528l1.047 -1.734c0.259,-0.431 0.678,-0.741 1.166,-0.86 5.311,-1.29 10.636,-2.17 15.975,-2.607 0.562,-0.045 1.108,0.086 1.578,0.356 0.404,0.233 0.752,0.569 0.998,0.988 1.462,2.478 2.256,5.401 2.593,8.63 0.076,0.736 -0.143,1.475 -0.597,2.059z"/>
   <path class="fil2" d="M21.902 53.053l0.001 0 -0.001 0zm17.358 -3.012c-0.059,0 -0.119,0.002 -0.179,0.007 -5.222,0.426 -10.573,1.299 -15.903,2.596 -0.364,0.088 -0.684,0.324 -0.879,0.648l-0.001 0 -1.046 1.733c-0.209,0.347 -0.261,0.768 -0.142,1.154l2.485 8.097c0.291,0.946 1.214,1.557 2.197,1.453 5.792,-0.617 10.772,-1.406 15.222,-2.409 0.8,-0.441 1.552,-1.108 2.234,-1.985 0.389,-0.498 0.567,-1.112 0.503,-1.727 -0.354,-3.395 -1.182,-6.156 -2.531,-8.443 -0.41,-0.696 -1.166,-1.124 -1.96,-1.124zm-13.687 16.626c-1.3,0 -2.475,-0.852 -2.864,-2.12l-2.485 -8.096c-0.196,-0.638 -0.11,-1.333 0.235,-1.905l1.046 -1.733c0.322,-0.534 0.852,-0.924 1.454,-1.07 5.377,-1.308 10.776,-2.189 16.046,-2.618 1.21,-0.1 2.393,0.517 3.013,1.569 1.418,2.404 2.286,5.288 2.655,8.818 0.088,0.855 -0.158,1.704 -0.694,2.393 -0.778,0.998 -1.646,1.759 -2.581,2.261 -0.037,0.02 -0.077,0.035 -0.117,0.044 -4.501,1.018 -9.535,1.816 -15.391,2.44 -0.106,0.012 -0.212,0.017 -0.317,0.017z"/>
   <path class="fil2" d="M40.728 64.264c-0.038,0 -0.076,-0.006 -0.114,-0.017 -0.215,-0.063 -0.337,-0.287 -0.275,-0.502 0.568,-1.932 -0.108,-7.024 -1.676,-9.993 -0.272,-0.517 -0.827,-0.83 -1.41,-0.802 -4.112,0.206 -8.983,0.954 -14.89,2.288 -0.391,0.134 -0.659,0.357 -0.817,0.68 -0.373,0.76 -0.017,1.828 -0.014,1.839 0.074,0.211 -0.037,0.442 -0.248,0.515 -0.21,0.074 -0.441,-0.037 -0.515,-0.248 -0.02,-0.056 -0.476,-1.389 0.05,-2.462 0.258,-0.526 0.698,-0.895 1.306,-1.098 0.013,-0.004 0.026,-0.008 0.039,-0.01 5.962,-1.347 10.885,-2.104 15.049,-2.312 0.897,-0.045 1.747,0.439 2.166,1.233 1.543,2.922 2.42,8.271 1.737,10.598 -0.052,0.176 -0.213,0.291 -0.388,0.291z"/>
   <path class="fil2" d="M35.562 65.251c-0.17,0 -0.326,-0.113 -0.372,-0.285l-1.203 -4.429c-0.067,-0.251 -0.277,-0.438 -0.533,-0.477l-4.714 -0.728c-0.534,-0.082 -0.984,-0.469 -1.145,-0.985l-1.343 -4.301c-0.064,-0.204 0.05,-0.42 0.253,-0.484 0.204,-0.063 0.42,0.05 0.484,0.254l1.343 4.3c0.074,0.237 0.281,0.415 0.526,0.453l4.714 0.728c0.557,0.086 1.013,0.493 1.161,1.037l1.202 4.43c0.056,0.206 -0.066,0.418 -0.271,0.474 -0.034,0.009 -0.068,0.013 -0.102,0.013z"/>
   <path class="fil1" d="M25.573 65.74c-0.898,0 -1.709,-0.588 -1.978,-1.464l-0.42 -1.369c1.829,0.375 3.484,0.561 4.969,0.561 2.566,0 4.625,-0.555 6.193,-1.645l0.721 2.659c-2.854,0.478 -5.925,0.891 -9.266,1.247 -0.073,0.008 -0.146,0.011 -0.219,0.011z"/>
   <path class="fil2" d="M25.57 66.203c-1.1,0 -2.089,-0.719 -2.418,-1.792l-0.495 -1.614c0.174,0.038 0.347,0.075 0.518,0.11l0.42 1.369c0.269,0.876 1.08,1.464 1.978,1.464 0.073,0 0.146,-0.003 0.219,-0.011 3.341,-0.356 6.412,-0.769 9.266,-1.247l0.122 0.448c-2.991,0.502 -6.113,0.915 -9.339,1.259 -0.091,0.01 -0.181,0.014 -0.271,0.014z"/>
   <path class="fil1" d="M35.823 64.351l-0.826 -3.043c1.958,-1.715 2.993,-4.437 3.15,-8.117 0.214,0.137 0.394,0.329 0.516,0.561 1.495,2.83 2.178,7.59 1.748,9.702 -1.468,0.321 -2.994,0.62 -4.588,0.897z"/>
   <path class="fil2" d="M35.943 64.799c-0.002,-0.012 -0.005,-0.023 -0.008,-0.035l-0.112 -0.413c1.594,-0.277 3.12,-0.576 4.588,-0.897 -0.021,0.104 -0.045,0.201 -0.072,0.291 -0.019,0.068 -0.021,0.136 -0.007,0.2 -1.426,0.309 -2.891,0.593 -4.389,0.854z"/>
   <path class="fil1" d="M41.278 63.165c0.333,-2.593 -0.515,-7.168 -1.899,-9.79 -0.217,-0.411 -0.549,-0.738 -0.943,-0.953l1.87 -2.123c0.373,0.195 0.693,0.491 0.914,0.866 0.585,0.992 1.072,2.073 1.465,3.257 -0.184,0.159 -0.345,0.345 -0.476,0.555 -0.367,0.585 -0.468,1.3 -0.277,1.963l0.33 1.15c0.218,0.762 0.785,1.349 1.497,1.613 0.037,0.584 -0.143,1.16 -0.511,1.632 -0.607,0.78 -1.268,1.394 -1.97,1.83zm1.474 -6.45l-0.003 -0.009c-0.062,-0.217 -0.077,-0.437 -0.048,-0.652 0.009,0.035 0.018,0.069 0.028,0.103l0.023 0.558z"/>
   <path class="fil2" d="M41.172 63.759c0.043,-0.183 0.078,-0.382 0.106,-0.594 0.702,-0.436 1.363,-1.05 1.97,-1.83 0.368,-0.472 0.548,-1.048 0.511,-1.632 0.15,0.056 0.306,0.098 0.467,0.123 0.005,0.646 -0.212,1.28 -0.611,1.793 -0.719,0.922 -1.524,1.648 -2.436,2.139 -0.003,0 -0.005,0.001 -0.007,0.001zm1.513 -9.337c-0.393,-1.184 -0.88,-2.265 -1.465,-3.257 -0.221,-0.375 -0.541,-0.671 -0.914,-0.866l0.315 -0.357c0.404,0.233 0.752,0.569 0.998,0.988 0.374,0.635 0.704,1.298 0.995,1.988 0,0 -0.001,0 -0.001,0l0.001 0.002c0.168,0.4 0.323,0.808 0.465,1.225 -0.14,0.079 -0.272,0.172 -0.394,0.277z"/>
   <path class="fil2" d="M40.332 63.945c-0.014,-0.064 -0.012,-0.132 0.007,-0.2 0.027,-0.09 0.051,-0.187 0.072,-0.291 0.43,-2.112 -0.253,-6.872 -1.748,-9.702 -0.122,-0.232 -0.302,-0.424 -0.516,-0.561 0.006,-0.151 0.011,-0.303 0.015,-0.457l0.274 -0.312c0.394,0.215 0.726,0.542 0.943,0.953 1.384,2.622 2.232,7.197 1.899,9.79 -0.028,0.212 -0.063,0.411 -0.106,0.594 -0.278,0.063 -0.558,0.125 -0.84,0.186z"/>
   <path class="fil2" d="M35.18 64.93l-0.122 -0.448 -0.721 -2.659c0.231,-0.16 0.45,-0.332 0.66,-0.515l0.826 3.043 0.112 0.413c0.003,0.012 0.006,0.023 0.008,0.035 -0.254,0.044 -0.508,0.088 -0.763,0.131z"/>
   <path class="fil0" d="M51.114 57.768c-2.334,1.161 -4.738,1.716 -7.21,1.667 -0.485,-0.008 -0.909,-0.328 -1.042,-0.794l-0.035 -0.121 -0.098 -2.363c-0.183,-0.634 -0.191,-1.293 0.463,-1.39 2.043,-0.299 3.734,-1.074 5.542,-1.716 0.262,-0.092 0.523,-0.189 0.778,-0.291 0.622,-0.245 1.315,0.115 1.471,0.765l0.715 3.004c0.119,0.498 -0.125,1.011 -0.584,1.239z"/>
   <path class="fil2" d="M43.939 54.282l0.001 0 -0.001 0zm5.329 -0.872c-0.177,0 -0.354,0.03 -0.527,0.091 -1.437,0.5 -3.028,0.904 -4.729,1.201 -0.448,0.077 -0.843,0.343 -1.083,0.726 -0.241,0.386 -0.305,0.84 -0.18,1.278l0.33 1.149c0.201,0.702 0.852,1.175 1.592,1.151 1.874,-0.061 3.733,-0.49 5.524,-1.278 0.709,-0.311 1.094,-1.08 0.916,-1.828l-0.301 -1.268c-0.106,-0.442 -0.384,-0.806 -0.782,-1.025 -0.239,-0.13 -0.499,-0.197 -0.76,-0.197zm-4.65 6.448c-1.093,0 -2.055,-0.717 -2.356,-1.768l-0.33 -1.15c-0.19,-0.663 -0.09,-1.378 0.277,-1.963 0.368,-0.588 0.972,-0.994 1.657,-1.113 1.656,-0.289 3.202,-0.681 4.595,-1.167 0.651,-0.226 1.371,-0.167 1.975,0.164 0.604,0.331 1.042,0.904 1.201,1.574l0.302 1.268c0.273,1.148 -0.316,2.327 -1.401,2.804 -1.892,0.831 -3.856,1.285 -5.84,1.349 -0.026,0.001 -0.054,0.002 -0.08,0.002z"/>
   <path class="fil1" d="M44.618 59.007c-0.485,0 -0.927,-0.213 -1.224,-0.563 4.434,-0.691 5.269,-3.304 5.339,-4.941 0.003,-0.001 0.005,-0.001 0.008,-0.002 0.173,-0.061 0.35,-0.091 0.527,-0.091 0.262,0 0.521,0.067 0.76,0.197 0.398,0.219 0.676,0.583 0.781,1.025l0.302 1.268c0.179,0.748 -0.207,1.517 -0.916,1.828 -1.791,0.788 -3.65,1.217 -5.524,1.278 -0.018,0.001 -0.036,0.001 -0.053,0.001zm6.131 -5.942c-0.099,-0.076 -0.203,-0.144 -0.313,-0.204 -0.125,-0.068 -0.255,-0.125 -0.388,-0.17 0.271,0.033 0.522,0.167 0.701,0.374z"/>
   <path class="fil2" d="M44.202 59.438c-0.099,0 -0.199,-0.001 -0.298,-0.003 -0.485,-0.008 -0.909,-0.328 -1.042,-0.794l-0.035 -0.121c0.195,-0.022 0.384,-0.047 0.567,-0.076 0.297,0.35 0.739,0.563 1.224,0.563 0.017,0 0.035,0 0.053,-0.001 1.874,-0.061 3.733,-0.49 5.524,-1.278 0.709,-0.311 1.094,-1.08 0.916,-1.828l-0.301 -1.268c-0.106,-0.442 -0.384,-0.806 -0.782,-1.025 -0.239,-0.13 -0.499,-0.197 -0.76,-0.197 -0.177,0 -0.354,0.03 -0.527,0.091 -0.003,0.001 -0.005,0.001 -0.008,0.002 0.007,-0.161 0.006,-0.313 0.001,-0.452 0.239,-0.084 0.476,-0.172 0.709,-0.264l0.399 -0.094c0,-0.002 -0.001,-0.005 -0.002,-0.008 0.026,-0.001 0.051,-0.002 0.076,-0.002 0.044,0 0.089,0.003 0.132,0.008 0.133,0.045 0.263,0.102 0.388,0.17 0.11,0.06 0.214,0.128 0.313,0.204 0.109,0.127 0.191,0.283 0.234,0.46l0.715 3.004c0.119,0.498 -0.125,1.011 -0.584,1.239 -2.241,1.114 -4.545,1.67 -6.912,1.67z"/>
   <path class="fil6" d="M37.025 55.881c0.374,0.905 -0.008,1.922 -0.852,2.271 -0.846,0.349 -1.833,-0.103 -2.207,-1.008 -0.374,-0.906 0.008,-1.923 0.852,-2.272 0.845,-0.348 1.833,0.103 2.207,1.009z"/>
   <path class="fil0" d="M33.987 57.193c-0.001,-0.001 -0.001,-0.002 -0.001,-0.002 0,0 0,0.001 0.001,0.002zm-0.003 -0.005c-0.006,-0.015 -0.012,-0.029 -0.018,-0.044 -0.367,-0.888 -0.007,-1.883 0.804,-2.251 -0.811,0.368 -1.171,1.363 -0.804,2.251 0.006,0.015 0.012,0.029 0.018,0.044zm0.834 -2.316c0.004,-0.001 0.008,-0.002 0.011,-0.004 -0.003,0.002 -0.007,0.003 -0.011,0.004zm0.021 -0.008c0.025,-0.01 0.05,-0.019 0.075,-0.028 -0.025,0.009 -0.05,0.018 -0.076,0.028zm0.076 -0.028c0.005,-0.001 0.01,-0.003 0.014,-0.004 -0.004,0.001 -0.009,0.003 -0.014,0.004zm0.015 -0.005c0.001,0 0.002,0 0.004,-0.001 -0.002,0.001 -0.003,0.001 -0.004,0.001zm0.007 -0.002c0,0 0.001,0 0.001,0 0,0 -0.001,0 -0.001,0z"/>
   <path class="fil7" d="M34.508 57.876c-0.217,-0.177 -0.398,-0.407 -0.521,-0.683 -0.001,-0.001 -0.001,-0.002 -0.001,-0.002 -0.001,-0.001 -0.001,-0.003 -0.002,-0.003 -0.006,-0.015 -0.012,-0.029 -0.018,-0.044 -0.367,-0.888 -0.007,-1.883 0.804,-2.251 0.016,-0.007 0.032,-0.014 0.048,-0.021l0 0c0.004,-0.001 0.008,-0.002 0.011,-0.004 0.003,-0.001 0.006,-0.002 0.009,-0.004 0.026,-0.01 0.051,-0.019 0.076,-0.028l0 0c0.005,-0.001 0.01,-0.003 0.014,-0.004 0,0 0.001,0 0.001,-0.001 0.001,0 0.002,0 0.004,-0.001 0.001,0 0.002,0 0.003,-0.001 0,0 0.001,0 0.001,0 0.157,-0.05 0.317,-0.075 0.475,-0.075 0.663,0 1.307,0.418 1.601,1.101 -0.308,-0.252 -0.687,-0.393 -1.071,-0.393 -0.199,-0.001 -0.4,0.038 -0.594,0.117 -0.844,0.349 -1.226,1.366 -0.852,2.271 0.003,0.009 0.008,0.018 0.012,0.026z"/>
   <path class="fil2" d="M35.413 55.141c-0.151,0 -0.302,0.028 -0.447,0.088 -0.647,0.267 -0.936,1.06 -0.643,1.767 0.143,0.348 0.402,0.621 0.73,0.771 0.318,0.145 0.664,0.155 0.972,0.028 0.647,-0.267 0.935,-1.06 0.643,-1.767 -0.226,-0.549 -0.736,-0.887 -1.255,-0.887zm0.164 3.516c-0.285,0 -0.572,-0.063 -0.845,-0.188 -0.506,-0.231 -0.905,-0.649 -1.123,-1.178 -0.455,-1.101 0.022,-2.346 1.062,-2.776 1.04,-0.429 2.256,0.117 2.711,1.218 0.455,1.101 -0.022,2.346 -1.062,2.776 -0.239,0.098 -0.491,0.148 -0.743,0.148z"/>
   <path class="fil2" d="M49.056 49.645l-1.715 0.446c-0.087,0.022 -0.177,-0.03 -0.2,-0.117 -0.018,-0.072 0.013,-0.144 0.073,-0.181l1.508 -0.93c0.202,-0.125 0.467,-0.062 0.592,0.14 0.125,0.202 0.062,0.467 -0.14,0.592 -0.037,0.023 -0.078,0.039 -0.118,0.05z"/>
   <path class="fil2" d="M53.743 61.03c-0.473,0 -0.943,-0.088 -1.387,-0.262 -0.317,-0.124 -0.664,-0.262 -0.931,-0.372 -0.504,-0.207 -0.837,-0.344 -0.717,-0.76 0.059,-0.203 0.269,-0.38 0.557,-0.326 0.083,0.016 0.156,0.052 0.216,0.104 0.126,0.056 0.441,0.188 1.213,0.491 0.503,0.197 1.049,0.248 1.58,0.149 1.38,-0.259 2.761,-0.721 4.107,-1.375 0.891,-0.433 1.369,-1.457 1.136,-2.434l-1.928 -8.119c-0.167,-0.702 -0.619,-1.314 -1.242,-1.678l-0.835 -0.489c-0.433,-0.254 -0.95,-0.298 -1.42,-0.121l-2.022 0.763c-0.239,0.09 -0.507,-0.03 -0.597,-0.27 -0.09,-0.24 0.031,-0.507 0.27,-0.597l2.022 -0.763c0.732,-0.276 1.54,-0.207 2.215,0.188l0.835 0.489c0.84,0.492 1.451,1.317 1.676,2.264l1.928 8.119c0.332,1.396 -0.355,2.86 -1.633,3.481 -1.42,0.691 -2.88,1.179 -4.341,1.453 -0.233,0.043 -0.468,0.065 -0.702,0.065z"/>
   <path class="fil2" d="M57.598 47.661c-0.007,-0.004 -0.044,-0.02 -0.07,-0.03 -0.029,-0.011 -0.059,-0.022 -0.09,-0.032 -0.062,-0.02 -0.126,-0.038 -0.192,-0.053 -0.131,-0.03 -0.265,-0.053 -0.401,-0.062 -0.273,-0.023 -0.55,-0.002 -0.822,0.054 -0.068,0.013 -0.135,0.029 -0.202,0.05l-0.101 0.028 -0.108 0.039 -0.433 0.158 -0.869 0.316 -0.868 0.316c-0.036,0.013 -0.075,0.026 -0.107,0.039l-0.092 0.04c-0.062,0.026 -0.119,0.061 -0.178,0.093 -0.113,0.072 -0.221,0.153 -0.316,0.249 -0.383,0.381 -0.577,0.958 -0.478,1.508l1.403 7.305 -1.8 -7.226c-0.158,-0.668 0.037,-1.413 0.507,-1.933 0.116,-0.132 0.251,-0.246 0.394,-0.348 0.074,-0.046 0.148,-0.097 0.227,-0.135l0.119 -0.059c0.038,-0.018 0.072,-0.031 0.109,-0.047l0.86 -0.368 0.862 -0.367 0.432 -0.184 0.108 -0.046 0.121 -0.041c0.08,-0.03 0.162,-0.054 0.245,-0.075 0.331,-0.088 0.676,-0.133 1.024,-0.124 0.173,0.004 0.347,0.022 0.52,0.052 0.087,0.015 0.173,0.034 0.26,0.057 0.043,0.011 0.087,0.024 0.131,0.039 0.047,0.015 0.083,0.027 0.147,0.054l0.015 0.006c0.206,0.087 0.302,0.326 0.215,0.532 -0.087,0.206 -0.326,0.302 -0.532,0.215 -0.013,-0.006 -0.027,-0.013 -0.04,-0.02z"/>
   <path class="fil1" d="M43.506 53.955c-0.12,-0.349 -0.247,-0.691 -0.383,-1.024 4.064,-0.063 1.438,-4.513 1.438,-4.513 4.862,-3.07 7.218,-9.116 7.877,-11.075 0.967,0.314 1.996,0.566 3.085,0.757 -0.524,1.735 -2.414,6.991 -6.977,10.736 -0.078,0.064 -0.135,0.147 -0.167,0.238l-1.165 0.719c-0.06,0.037 -0.091,0.109 -0.073,0.181 0.02,0.073 0.086,0.122 0.159,0.122 0.013,0 0.027,-0.002 0.041,-0.005l1.145 -0.298c0.278,0.936 0.533,1.86 0.764,2.769 -0.267,0.001 -0.533,0.046 -0.789,0.135 -1.393,0.486 -2.939,0.878 -4.595,1.167 -0.123,0.021 -0.243,0.052 -0.36,0.091z"/>
   <path class="fil2" d="M55.523 38.1c-1.089,-0.191 -2.118,-0.443 -3.085,-0.757 0.062,-0.183 0.109,-0.332 0.141,-0.438 0.971,0.315 1.997,0.561 3.072,0.747 -0.026,0.099 -0.068,0.251 -0.128,0.448z"/>
   <path class="fil2" d="M55.651 37.652c-1.075,-0.186 -2.101,-0.432 -3.072,-0.747 0.038,-0.123 0.057,-0.19 0.057,-0.19l3.064 0.75c-0.005,0.018 -0.011,0.036 -0.015,0.054 -0.001,0.005 -0.012,0.051 -0.034,0.133z"/>
   <path class="fil2" d="M49.826 52.627c-0.185,-0.043 -0.373,-0.065 -0.562,-0.065 -0.005,0 -0.01,0 -0.014,0 -0.231,-0.909 -0.486,-1.833 -0.764,-2.769l0.524 -0.136c0.296,0.996 0.569,1.986 0.816,2.97zm-1.447 -3.553c0.032,-0.091 0.089,-0.174 0.167,-0.238 4.563,-3.745 6.453,-9.001 6.977,-10.736 0.06,-0.197 0.102,-0.349 0.128,-0.448 0.022,-0.082 0.033,-0.128 0.034,-0.133 0.004,-0.018 0.01,-0.036 0.015,-0.054l0.213 0.052 0.298 0.125c0,0 -0.906,3.901 -3.775,7.831l-0.693 0.261c-0.239,0.09 -0.36,0.357 -0.27,0.597 0.03,0.08 0.08,0.147 0.143,0.197 -0.688,0.83 -1.468,1.646 -2.351,2.41 -0.083,-0.09 -0.199,-0.139 -0.317,-0.139 -0.078,0 -0.156,0.02 -0.226,0.064l-0.343 0.211z"/>
   <path class="fil2" d="M43.245 54.059l-0.631 -1.139c0,0 0,-0.001 0,-0.002 0.147,0.01 0.287,0.014 0.42,0.014 0.03,0 0.06,0 0.089,-0.001 0.136,0.333 0.263,0.675 0.383,1.024 -0.089,0.03 -0.177,0.065 -0.261,0.104z"/>
   <path class="fil2" d="M42.614 52.92l0 -0.002c0,0.001 0,0.002 0,0.002z"/>
   <path class="fil2" d="M43.335 54.222l-0.09 -0.163c0.085,-0.039 0.172,-0.074 0.261,-0.104 0.117,-0.039 0.237,-0.07 0.36,-0.091 1.656,-0.289 3.202,-0.681 4.595,-1.167 0.256,-0.089 0.522,-0.134 0.789,-0.135 0.004,0 0.009,0 0.014,0 0.189,0 0.377,0.022 0.562,0.065 0.005,0.02 0.01,0.039 0.014,0.058 -0.109,0.008 -0.219,0.032 -0.328,0.075 -0.023,0.009 -0.046,0.018 -0.069,0.027l-6.108 1.435z"/>
   <path class="fil2" d="M49.443 52.787c0.023,-0.009 0.046,-0.018 0.069,-0.027 0.109,-0.043 0.219,-0.067 0.328,-0.075 0.001,0.003 0.002,0.006 0.002,0.008l-0.399 0.094z"/>
   <path class="fil2" d="M47.3 50.096c-0.073,0 -0.139,-0.049 -0.159,-0.122 -0.018,-0.072 0.013,-0.144 0.073,-0.181l1.165 -0.719 0.343 -0.211c0.07,-0.044 0.148,-0.064 0.226,-0.064 0.118,0 0.234,0.049 0.317,0.139 -0.123,0.106 -0.249,0.212 -0.376,0.316 0.041,0.135 0.081,0.269 0.121,0.403l-0.524 0.136 -1.145 0.298c-0.014,0.003 -0.028,0.005 -0.041,0.005z"/>
   <path class="fil2" d="M51.616 46.528c-0.063,-0.05 -0.113,-0.117 -0.143,-0.197 -0.09,-0.24 0.031,-0.507 0.27,-0.597l0.693 -0.261c-0.258,0.352 -0.531,0.705 -0.82,1.055z"/>
   <path class="fil1" d="M29.338 87.03c-1.279,0 -2.371,-0.949 -2.966,-2.6 0.696,0.572 1.325,0.801 1.883,0.801 1.851,0 2.94,-2.504 3.238,-3.294l1.39 1.152c-0.311,2.458 -1.869,3.754 -3.217,3.921 -0.11,0.014 -0.219,0.02 -0.328,0.02z"/>
   <path class="fil2" d="M29.344 87.571c-1.379,0 -2.751,-0.915 -3.487,-2.973 -0.107,-0.3 -0.193,-0.606 -0.257,-0.917l0.003 0.004c0.265,0.295 0.521,0.542 0.769,0.745 0.595,1.651 1.687,2.6 2.966,2.6 0.109,0 0.218,-0.006 0.328,-0.02 1.348,-0.167 2.906,-1.463 3.217,-3.921l0.301 0.249c0.023,0.019 0.05,0.038 0.078,0.053 0.037,0.019 0.076,0.034 0.116,0.043 -0.437,2.59 -2.242,4.136 -4.034,4.137zm4.861 -4.166c-0.108,-0.061 -0.216,-0.123 -0.324,-0.186 0.003,-0.005 0.006,-0.011 0.008,-0.015l0.316 0.201z"/>
   <path class="fil2" d="M33.378 83.434c-0.04,-0.009 -0.079,-0.023 -0.116,-0.043 -0.028,-0.015 -0.055,-0.034 -0.078,-0.053l-0.301 -0.249 -1.39 -1.152c0.056,-0.148 0.084,-0.236 0.084,-0.236l0.828 0.557 1.484 0.946c-0.002,0.004 -0.005,0.01 -0.008,0.015 -0.146,-0.086 -0.293,-0.175 -0.439,-0.266 -0.016,0.164 -0.038,0.324 -0.064,0.481z"/>
   <path class="fil1" d="M34.559 76.889c-1.384,-1.111 -3.045,-1.421 -4.47,-1.421 -1.086,0 -2.034,0.18 -2.615,0.323l0.3 -1.119 2.886 -0.953c0.213,0.086 0.427,0.17 0.649,0.228l0.486 0.145c0.163,0.046 0.331,0.069 0.496,0.105l0.498 0.089c0.167,0.023 0.336,0.035 0.503,0.053l0.503 0.046 0.357 0.009c0.041,0.666 0.14,1.313 0.279,1.958 0.039,0.18 0.082,0.359 0.128,0.537z"/>
   <path class="fil2" d="M26.868 75.963l0.43 -1.155c0.042,0 0.085,-0.007 0.127,-0.021l0.349 -0.115 -0.3 1.119c-0.383,0.094 -0.606,0.172 -0.606,0.172z"/>
   <path class="fil2" d="M34.152 74.394l-0.357 -0.009 -0.503 -0.047c-0.167,-0.017 -0.336,-0.029 -0.503,-0.052l-0.498 -0.089c-0.165,-0.036 -0.333,-0.059 -0.496,-0.105l-0.486 -0.145c-0.222,-0.058 -0.436,-0.142 -0.649,-0.228l0.089 -0.029c0.134,-0.044 0.231,-0.148 0.272,-0.272l3.117 0.658c0.003,0.106 0.008,0.212 0.014,0.318z"/>
   <path class="fil2" d="M27.298 74.808l0.077 -0.209 0.607 -0.342 1.766 -0.423 1.231 -0.425 0.042 0.009c-0.041,0.124 -0.138,0.228 -0.272,0.272l-0.089 0.029 -2.886 0.953 -0.349 0.115c-0.042,0.014 -0.085,0.021 -0.127,0.021z"/>
   <path class="fil2" d="M35.409 77.723c-0.267,-0.318 -0.552,-0.595 -0.85,-0.834 -0.046,-0.178 -0.089,-0.357 -0.128,-0.537 -0.139,-0.645 -0.238,-1.292 -0.279,-1.958 -0.006,-0.106 -0.011,-0.211 -0.014,-0.318l0.421 0.089 0.85 3.558z"/>
   <path class="fil1" d="M10.337 83.558c-0.33,0 -0.668,-0.029 -1.011,-0.086 -0.115,-0.02 -0.229,-0.042 -0.343,-0.068l3.288 -3.005c0.13,0.503 0.176,0.978 0.114,1.41 -0.104,0.739 -0.526,1.297 -1.286,1.696 -0.248,0.035 -0.502,0.053 -0.762,0.053z"/>
   <path class="fil2" d="M10.339 84.099c-0.34,0 -0.708,-0.028 -1.103,-0.094 -0.247,-0.042 -0.49,-0.097 -0.729,-0.166l0.476 -0.435c0.114,0.026 0.228,0.049 0.343,0.068 0.343,0.057 0.681,0.086 1.011,0.086 0.26,0 0.514,-0.018 0.762,-0.053 -0.118,0.061 -0.244,0.12 -0.378,0.174 -0.173,0.07 -0.275,0.242 -0.265,0.419 -0.039,0.001 -0.078,0.001 -0.117,0.001z"/>
   <path class="fil1" d="M13.127 82.395c0.064,-0.215 0.105,-0.443 0.124,-0.683 0.082,-1.047 -0.293,-2.232 -0.911,-3.43 1.04,-0.18 1.878,-3.525 1.878,-3.525l2.424 -2.716c0.566,1.012 1,2.204 1.29,3.556l-4.56 6.487c-0.076,0.108 -0.158,0.212 -0.245,0.311z"/>
   <path class="fil2" d="M12.317 83.686c0.391,-0.362 0.661,-0.793 0.81,-1.291 0.087,-0.099 0.169,-0.203 0.245,-0.311l4.56 -6.487c0.03,0.14 0.059,0.282 0.085,0.426 0.017,0.086 0.066,0.157 0.132,0.204l-4.333 6.167c-0.389,0.552 -0.905,0.999 -1.499,1.292z"/>
   <path class="fil1" d="M8.048 83.106c-0.867,-0.355 -1.665,-0.912 -2.321,-1.63 -0.005,-0.005 -0.009,-0.01 -0.014,-0.015l1.237 -0.974c0.005,0 0.009,0 0.013,0 1.159,0 1.806,-0.754 2.161,-1.711l1.72 -1.354c0.001,-0.001 0.001,-0.001 0.002,-0.001 0.457,0.707 0.851,1.417 1.129,2.097l-3.927 3.588z"/>
   <path class="fil2" d="M7.651 83.526c-0.877,-0.391 -1.668,-0.968 -2.323,-1.685 -0.013,-0.015 -0.027,-0.03 -0.04,-0.045l0.425 -0.335c0.005,0.005 0.009,0.01 0.014,0.015 0.656,0.718 1.454,1.275 2.321,1.63l-0.29 0.265c-0.048,0.044 -0.084,0.098 -0.107,0.155z"/>
   <path class="fil1" d="M5.141 80.829c-0.481,-0.537 -0.937,-1.064 -1.359,-1.585 0.783,0.515 1.461,0.852 2.048,1.043l-0.689 0.542z"/>
   <path class="fil2" d="M4.716 81.165c-0.544,-0.605 -1.071,-1.211 -1.558,-1.824 0.006,-0.005 0.013,-0.01 0.019,-0.016 0.103,-0.091 0.208,-0.183 0.315,-0.278 0.098,0.068 0.195,0.134 0.29,0.197 0.422,0.521 0.878,1.048 1.359,1.585l-0.404 0.318c-0.007,0.006 -0.014,0.012 -0.021,0.018zm-2.076 -2.5c-0.138,-0.188 -0.272,-0.376 -0.4,-0.566l0.005 0.005c0.186,0.151 0.367,0.294 0.543,0.43 -0.069,0.062 -0.12,0.106 -0.148,0.131z"/>
   <path class="fil1" d="M9.44 77.444c0.095,-0.694 0.1,-1.37 0.083,-1.857 0.291,0.369 0.576,0.748 0.847,1.131 -0.018,0.011 -0.035,0.022 -0.052,0.035l-0.878 0.691zm9.037 -2.369c-0.346,-1.448 -0.831,-2.61 -1.381,-3.543l0.681 -0.764 8.358 -0.27 0.864 0.697c0,0.001 -0.001,0.001 -0.001,0.001 -0.062,0.065 -0.059,0.168 0.006,0.23 0.737,0.702 1.584,1.304 2.502,1.778l-1.88 0.621c-0.086,-0.059 -0.187,-0.093 -0.291,-0.093 -0.009,0 -0.017,0 -0.026,0l-7.279 0.162c-0.126,0.002 -0.247,0.049 -0.342,0.132l-1.211 1.049z"/>
   <path class="fil2" d="M18.609 75.676c-0.041,-0.206 -0.085,-0.406 -0.132,-0.601l1.211 -1.049c0.095,-0.083 0.216,-0.13 0.342,-0.132l7.279 -0.162c0.009,0 0.017,0 0.026,0 0.104,0 0.205,0.034 0.291,0.093l-0.468 0.154c-0.144,0.048 -0.246,0.165 -0.28,0.303l-6.836 0.152 -1.433 1.242z"/>
   <path class="fil2" d="M10.456 84.098c-0.01,-0.177 0.092,-0.349 0.265,-0.419 0.134,-0.054 0.26,-0.113 0.378,-0.174 0.76,-0.399 1.181,-0.957 1.286,-1.696 0.062,-0.432 0.016,-0.907 -0.114,-1.41l0.401 -0.367c0.174,-0.158 0.186,-0.427 0.028,-0.601 -0.084,-0.091 -0.199,-0.138 -0.314,-0.138 -0.103,0 -0.206,0.037 -0.287,0.112l-0.124 0.113c-0.278,-0.68 -0.672,-1.39 -1.129,-2.097 0.148,-0.118 0.197,-0.314 0.134,-0.483 0.287,0.401 0.512,0.719 0.553,0.786 0.245,0.401 0.487,0.565 0.72,0.565 0.029,0 0.058,-0.002 0.087,-0.007 0.618,1.198 0.993,2.383 0.911,3.43 -0.019,0.24 -0.06,0.468 -0.124,0.683 -0.149,0.498 -0.419,0.929 -0.81,1.291 -0.347,0.172 -0.72,0.291 -1.109,0.35 -0.232,0.034 -0.482,0.057 -0.752,0.062zm0.394 -7.34c-0.077,-0.063 -0.173,-0.096 -0.269,-0.096 -0.073,0 -0.145,0.019 -0.211,0.056 -0.271,-0.383 -0.556,-0.762 -0.847,-1.131 -0.015,-0.445 -0.049,-0.733 -0.049,-0.733 0,0 0.775,1.068 1.376,1.904z"/>
   <path class="fil2" d="M18.149 76.227c-0.066,-0.047 -0.115,-0.118 -0.132,-0.204 -0.026,-0.144 -0.055,-0.286 -0.085,-0.426 -0.29,-1.352 -0.724,-2.544 -1.29,-3.556l0.454 -0.509c0.55,0.933 1.035,2.095 1.381,3.543 0.047,0.195 0.091,0.395 0.132,0.601l-0.185 0.16 -0.275 0.391z"/>
   <path class="fil2" d="M3.158 79.341c-0.179,-0.224 -0.352,-0.45 -0.518,-0.676 0.028,-0.025 0.079,-0.069 0.148,-0.131 0.244,0.186 0.478,0.357 0.704,0.513 -0.107,0.095 -0.212,0.187 -0.315,0.278 -0.006,0.006 -0.013,0.011 -0.019,0.016z"/>
   <path class="fil2" d="M5.288 81.796c-0.192,-0.21 -0.383,-0.42 -0.572,-0.631 0.007,-0.006 0.014,-0.012 0.021,-0.018l0.404 -0.318 0.689 -0.542c0.418,0.136 0.79,0.199 1.12,0.2l-1.237 0.974 -0.425 0.335zm3.836 -3.02c0.156,-0.42 0.255,-0.88 0.316,-1.332l0.878 -0.691c0.017,-0.013 0.034,-0.024 0.052,-0.035 0.066,-0.037 0.138,-0.056 0.211,-0.056 0.096,0 0.192,0.033 0.269,0.096 0.045,0.061 0.088,0.122 0.13,0.18 0.063,0.169 0.014,0.365 -0.134,0.483 -0.001,0 -0.001,0 -0.002,0.001l-1.72 1.354z"/>
   <path class="fil2" d="M8.507 83.839c-0.293,-0.085 -0.579,-0.19 -0.856,-0.313 0.023,-0.057 0.059,-0.111 0.107,-0.155l0.29 -0.265 3.927 -3.588 0.124 -0.113c0.081,-0.075 0.184,-0.112 0.287,-0.112 0.115,0 0.23,0.047 0.314,0.138 0.158,0.174 0.146,0.443 -0.028,0.601l-0.401 0.367 -3.288 3.005 -0.476 0.435z"/>
   <path class="fil2" d="M29.506 73.204c-0.918,-0.474 -1.765,-1.076 -2.502,-1.778 -0.065,-0.062 -0.068,-0.165 -0.006,-0.23 0,0 0.001,0 0.001,-0.001l0.6 0.484 2.445 1.348 -0.538 0.177z"/>
   <path class="fil2" d="M27.207 74.694l0.114 -0.422 -0.442 0.01c0.033,-0.138 0.135,-0.255 0.279,-0.303l0.468 -0.154 1.88 -0.621 0.538 -0.177 0.263 0.145 -1.89 0.839 -0.435 0.246 -0.526 0.126 -0.081 0.216 -0.168 0.095z"/>
   <path class="fil2" d="M27.375 74.599l0.081 -0.216 0.526 -0.126 -0.607 0.342z"/>
   <path class="fil1" d="M10.297 65.906c-1.588,0 -2.947,-0.484 -3.818,-1.399 -0.352,-0.37 -0.619,-0.805 -0.799,-1.301 0.496,0.202 0.932,0.288 1.315,0.288 1.639,0 2.307,-1.584 2.559,-2.521 0.027,0.024 0.054,0.048 0.082,0.072l0.258 0.193c0.022,0.016 0.041,0.032 0.067,0.048l0.084 0.05c0.057,0.031 0.111,0.067 0.172,0.091 0.124,0.047 0.248,0.092 0.38,0.11 0.088,0.013 0.177,0.02 0.266,0.02 0.011,0 0.023,0 0.034,0 0.069,0.272 0.075,0.567 0.017,0.857 -0.078,0.393 -0.268,0.775 -0.545,1.078 -0.274,0.303 -0.643,0.525 -1.045,0.574 -0.06,0.008 -0.12,0.012 -0.18,0.012 -0.345,0 -0.696,-0.13 -0.999,-0.346l-0.002 -0.002c-0.028,-0.019 -0.061,-0.029 -0.093,-0.029 -0.046,0 -0.091,0.019 -0.124,0.057 -0.057,0.068 -0.049,0.17 0.019,0.228 0.189,0.161 0.403,0.3 0.643,0.396 0.222,0.089 0.466,0.139 0.711,0.139 0.019,0 0.038,-0.001 0.057,-0.001 0.535,-0.014 1.04,-0.259 1.425,-0.609 0.386,-0.351 0.674,-0.807 0.828,-1.316l4.444 -0.562c0.043,0.001 0.087,0.001 0.13,0.001 1.274,0 2.245,-0.202 2.985,-0.502 -0.026,0.353 -0.066,0.726 -0.125,1.118l-3.458 0.811c-1.114,0.261 -2.103,0.854 -2.859,1.713l-0.439 0.498c-0.007,0.002 -0.014,0.003 -0.02,0.005 -0.682,0.153 -1.344,0.229 -1.97,0.229z"/>
   <path class="fil2" d="M10.312 66.441c-2.517,0 -4.697,-1.123 -5.293,-3.554 0.232,0.129 0.451,0.234 0.661,0.319 0.18,0.496 0.447,0.931 0.799,1.301 0.871,0.915 2.23,1.399 3.818,1.399 0.626,0 1.288,-0.075 1.97,-0.229 0.006,-0.002 0.013,-0.003 0.02,-0.005l-0.221 0.251c-0.078,0.089 -0.113,0.202 -0.105,0.312 -0.104,0.033 -0.22,0.07 -0.347,0.111l-0.002 0c-0.439,0.063 -0.874,0.096 -1.3,0.095z"/>
   <path class="fil1" d="M19.931 62.442c0.063,-0.489 0.099,-0.947 0.116,-1.373 0.627,-0.423 0.989,-0.911 1.195,-1.301l0.678 2.208 -1.989 0.466z"/>
   <path class="fil2" d="M11.961 66.235c-0.008,-0.11 0.027,-0.223 0.105,-0.312l0.221 -0.251 0.439 -0.498c0.756,-0.859 1.745,-1.452 2.859,-1.713l3.458 -0.811c-0.014,0.092 -0.029,0.185 -0.045,0.278 -0.013,0.08 -0.003,0.157 0.024,0.227l-4.49 1.143 -2.019 1.761c0,0 -0.21,0.067 -0.552,0.176zm7.897 -3.293c0.028,-0.17 0.052,-0.337 0.073,-0.5l1.989 -0.466 0.126 0.409 -2.188 0.557z"/>
   <path class="fil2" d="M19.022 63.155c-0.027,-0.07 -0.037,-0.147 -0.024,-0.227 0.016,-0.093 0.031,-0.186 0.045,-0.278 0.059,-0.392 0.099,-0.765 0.125,-1.118 0.34,-0.137 0.63,-0.295 0.879,-0.463 -0.017,0.426 -0.053,0.884 -0.116,1.373 -0.021,0.163 -0.045,0.33 -0.073,0.5l-0.836 0.213z"/>
   <path class="fil2" d="M10.863 61.557c-0.089,0 -0.178,-0.007 -0.266,-0.02 -0.132,-0.018 -0.256,-0.063 -0.38,-0.11 -0.061,-0.024 -0.115,-0.06 -0.172,-0.091l-0.084 -0.05c-0.026,-0.016 -0.045,-0.032 -0.067,-0.048l-0.258 -0.193c-0.028,-0.024 -0.055,-0.048 -0.082,-0.072 0.106,-0.394 0.138,-0.674 0.138,-0.674l1.259 0.453c-0.167,0.113 -0.234,0.333 -0.15,0.525 0.04,0.089 0.072,0.183 0.096,0.28 -0.011,0 -0.023,0 -0.034,0z"/>
   <path class="fil2" d="M9.299 64.521c-0.245,0 -0.489,-0.05 -0.711,-0.139 -0.24,-0.096 -0.454,-0.235 -0.643,-0.396 -0.068,-0.058 -0.076,-0.16 -0.019,-0.228 0.033,-0.038 0.078,-0.057 0.124,-0.057 0.032,0 0.065,0.01 0.093,0.029l0.002 0.002c0.303,0.216 0.654,0.346 0.999,0.346 0.06,0 0.12,-0.004 0.18,-0.012 0.402,-0.049 0.771,-0.271 1.045,-0.574 0.277,-0.303 0.467,-0.685 0.545,-1.078 0.058,-0.29 0.052,-0.584 -0.017,-0.857 -0.024,-0.097 -0.056,-0.191 -0.096,-0.28 -0.084,-0.192 -0.017,-0.412 0.15,-0.525l0.572 0.206 0 1.648 0.086 -0.011c-0.154,0.509 -0.442,0.965 -0.828,1.316 -0.385,0.35 -0.89,0.595 -1.425,0.609 -0.019,0 -0.038,0.001 -0.057,0.001z"/>
   <path class="fil2" d="M22.046 62.385l-0.126 -0.409 -0.678 -2.208c0.22,-0.415 0.264,-0.719 0.264,-0.719l0.841 2.738 -0.207 0.575 -0.094 0.023z"/>
  </g>
 </g>
</svg>
