<svg width="161" height="241" viewBox="0 0 161 241" fill="none" xmlns="http://www.w3.org/2000/svg">
<g clip-path="url(#clip0_9907_398)">
<path fill-rule="evenodd" clip-rule="evenodd" d="M81.2853 163.981L89.173 173.336L92.3457 177.101C104.056 169.577 108.219 160.29 107.97 152.063C107.851 148.079 106.701 144.343 104.871 141.174C98.938 130.886 88.0638 125.845 83.4323 134.29C78.4418 143.395 85.0364 147.774 86.9346 150.595C89.6028 154.558 88.3043 161.725 81.2853 163.981Z" fill="white"/>
<path fill-rule="evenodd" clip-rule="evenodd" d="M92.4819 175.598C92.0164 174.638 91.5665 173.668 91.1026 172.698L91.0973 172.686C91.0871 172.666 91.0765 172.647 91.0647 172.629C96.7637 170.23 100.727 166.05 103.446 161.828C104.035 161.678 104.595 161.502 105.113 161.303C103.093 166.202 99.133 171.152 92.4819 175.598ZM104.962 159.247C105.607 158.041 106.155 156.862 106.621 155.751C106.491 156.707 106.294 157.676 106.025 158.648C105.736 158.855 105.378 159.056 104.962 159.247Z" fill="#B9AFBE"/>
<path fill-rule="evenodd" clip-rule="evenodd" d="M92.3468 178.283C91.9573 178.283 91.5757 178.092 91.3492 177.742C90.9938 177.194 91.1523 176.463 91.7027 176.109C108.91 165.053 108.997 150.697 103.843 141.763C100.25 135.534 94.6201 131.207 90.1244 131.207C90.0989 131.207 90.0747 131.208 90.0493 131.208C87.6633 131.233 85.7868 132.462 84.4739 134.858C80.7493 141.649 84.0673 145.426 86.4908 148.182C87.0332 148.799 87.5457 149.382 87.9197 149.938C89.4898 152.27 89.841 155.511 88.8358 158.396C87.7221 161.592 85.1707 163.973 81.651 165.104C81.0273 165.305 80.3594 164.963 80.1579 164.342C79.9569 163.722 80.299 163.056 80.9227 162.855C83.7168 161.958 85.731 160.099 86.5944 157.622C87.3606 155.423 87.114 152.983 85.9499 151.253C85.6605 150.824 85.2185 150.321 84.7064 149.738C82.1505 146.831 77.8744 141.965 82.3918 133.725C84.123 130.568 86.7628 128.881 90.0242 128.845C95.4308 128.791 101.815 133.505 105.901 140.586C109.119 146.164 109.998 152.665 108.376 158.892C106.468 166.213 101.148 172.852 92.9887 178.094C92.7903 178.222 92.5676 178.283 92.3472 178.283L92.3468 178.283Z" fill="#1A2645"/>
<path fill-rule="evenodd" clip-rule="evenodd" d="M98.6857 162.408C98.4903 162.408 98.2946 162.405 98.0992 162.4C93.6368 162.265 89.7764 160.647 87.2289 157.842C86.8651 157.442 86.8962 156.825 87.2979 156.463C87.6996 156.101 88.3194 156.132 88.6832 156.532C91.6332 159.779 95.8855 160.378 98.158 160.446C101.993 160.563 105.28 159.435 106.427 158.317C106.813 157.939 107.434 157.946 107.813 158.331C108.193 158.716 108.187 159.335 107.799 159.712C106.142 161.329 102.454 162.408 98.6853 162.408L98.6857 162.408Z" fill="#1A2645"/>
<path fill-rule="evenodd" clip-rule="evenodd" d="M34.6899 172.378C30.7354 178.058 32.1674 198.384 37.1191 209.142C42.0708 219.9 62.1623 214.167 73.3721 210.049C84.5812 205.931 76.0141 180.429 73.5808 173.643C69.7807 163.048 40.549 163.962 34.6895 172.378H34.6899Z" fill="white"/>
<path fill-rule="evenodd" clip-rule="evenodd" d="M49.8015 214.129C44.4795 214.129 40.06 212.696 38.1975 208.649C37.7935 207.771 37.4127 206.823 37.0573 205.823C37.9153 206.71 38.9531 207.282 40.2087 207.376C40.4143 207.392 40.6142 207.399 40.8099 207.399C42.4103 207.399 43.6738 206.881 44.571 205.855C46.4676 203.686 46.5901 199.603 44.9806 192.2C44.6851 190.84 43.5013 189.836 42.1015 189.757L41.5587 189.727C41.1236 178.164 43.6746 171.438 45.7226 167.958C46.0003 167.898 46.281 167.84 46.5651 167.786L46.4232 168.406C46.2495 169.166 46.0871 169.927 45.9646 170.697C45.8383 171.466 45.6869 172.23 45.5674 173L45.2363 175.313C44.4234 181.488 44.3752 187.805 45.4347 193.989C45.682 195.436 45.9893 196.876 46.3583 198.299C46.3041 198.827 46.3436 199.414 46.5602 200.019H46.5594C46.6982 200.405 46.8689 200.745 47.0574 201.045C47.0582 201.046 47.059 201.048 47.0605 201.049C47.0605 201.05 47.0612 201.051 47.062 201.051C47.1212 201.145 47.1807 201.233 47.2426 201.318C47.4356 201.907 47.6397 202.493 47.8552 203.075C48.9381 206.028 50.3481 208.869 52.0665 211.528C52.5941 212.337 53.1517 213.13 53.7427 213.9C52.3931 214.047 51.0715 214.129 49.8015 214.129V214.129Z" fill="#B9AFBE"/>
<path fill-rule="evenodd" clip-rule="evenodd" d="M35.6652 173.051C32.0016 178.313 33.4218 198.275 38.1976 208.649C42.6725 218.372 61.8998 213.005 72.9621 208.94C82.814 205.321 75.0712 181.312 72.4641 174.04C71.2673 170.704 66.7491 168.286 60.0673 167.405C49.9028 166.063 38.7286 168.65 35.6648 173.052L35.6652 173.051ZM49.8042 216.503C43.5059 216.503 38.3561 214.664 36.0415 209.634C30.8041 198.257 29.5436 177.697 33.7158 171.705C37.7166 165.958 50.6713 163.782 60.3787 165.062C68.0851 166.078 73.1696 168.985 74.6975 173.246C79.1444 185.645 84.9378 207.058 73.783 211.157C66.0117 214.012 57.1301 216.503 49.8042 216.503V216.503Z" fill="#1A2645"/>
<path fill-rule="evenodd" clip-rule="evenodd" d="M42.0636 190.738L36.3677 190.409C35.0802 190.334 34.0151 191.399 34.1027 192.68C34.4031 197.089 35.5874 206.041 40.2637 206.403C45.9309 206.843 45.7841 200.549 44.035 192.416C43.8343 191.479 43.0237 190.794 42.0633 190.739L42.0636 190.738Z" fill="white"/>
<path fill-rule="evenodd" clip-rule="evenodd" d="M40.8084 205.446C40.6635 205.446 40.5129 205.44 40.3563 205.429C39.0081 205.327 37.847 204.134 36.9473 202.03C37.2754 202.16 37.6251 202.242 37.9969 202.269C38.1786 202.283 38.3538 202.29 38.5234 202.29C42.8519 202.29 43.3822 197.91 42.4088 191.811C42.7362 191.959 42.985 192.253 43.0643 192.614C43.5802 194.99 45.1517 202.218 43.0924 204.572C42.5791 205.159 41.8296 205.446 40.8088 205.446L40.8084 205.446Z" fill="#B9AFBE"/>
<path fill-rule="evenodd" clip-rule="evenodd" d="M36.2273 191.39C35.914 191.39 35.6215 191.512 35.3988 191.737C35.1621 191.976 35.0453 192.292 35.0684 192.626C35.6185 200.435 37.5948 205.221 40.3563 205.429C41.6115 205.521 42.5055 205.243 43.092 204.572C45.1513 202.217 43.5798 194.989 43.0639 192.614C42.9547 192.11 42.5139 191.738 41.9919 191.708L36.2956 191.393C36.2732 191.391 36.2497 191.39 36.2273 191.39ZM40.8099 207.399C40.6146 207.399 40.4143 207.392 40.2087 207.376C34.9008 206.977 33.4836 198.049 33.1123 192.762C33.0497 191.874 33.3736 191 34.0025 190.365C34.6326 189.729 35.5043 189.392 36.4048 189.442L42.1012 189.758C43.5013 189.836 44.6848 190.84 44.9803 192.201C46.5897 199.604 46.4672 203.687 44.5706 205.855C43.6731 206.881 42.4096 207.4 40.8096 207.4L40.8099 207.399Z" fill="#1A2645"/>
<path fill-rule="evenodd" clip-rule="evenodd" d="M33.8841 173.116C34.5908 173.189 35.2694 173.275 35.9583 173.369C36.6433 173.462 37.3273 173.564 38.0085 173.675C39.3707 173.899 40.7264 174.159 42.0537 174.497C40.6854 174.549 39.332 174.68 37.9846 174.847C37.3113 174.932 36.6388 175.025 35.9697 175.127C35.3036 175.229 34.6268 175.338 33.9786 175.458C33.3333 175.579 32.712 175.155 32.591 174.512C32.4707 173.869 32.8967 173.25 33.542 173.13C33.6554 173.109 33.7677 173.105 33.8769 173.115L33.8849 173.116H33.8841Z" fill="#1A2645"/>
<path fill-rule="evenodd" clip-rule="evenodd" d="M85.1782 166.634L82.4205 158.443C83.1667 161.333 84.1131 164.07 85.1782 166.634Z" fill="white"/>
<path fill-rule="evenodd" clip-rule="evenodd" d="M115.772 219.634C115.772 219.634 110.226 215.788 104.159 213.241C100.181 211.57 95.9807 210.459 92.9712 211.353C92.9712 211.353 69.2109 226.758 55.5024 196.884C51.1542 187.408 49.9286 180.215 50.7267 174.759C50.8382 173.992 50.9903 173.262 51.1803 172.563C51.3772 171.824 51.62 171.123 51.8988 170.457C52.6627 168.622 53.7116 167.053 54.9672 165.712C55.9212 164.696 56.9947 163.811 58.1527 163.039C68.8934 155.905 87.1386 158.615 87.1386 158.615C87.3332 159.971 87.5566 161.283 87.8074 162.551C88.2789 164.957 88.8407 167.202 89.465 169.292C89.6452 169.895 89.8288 170.482 90.0189 171.057C92.2474 177.837 95.0924 182.838 97.4419 186.198C99.9682 189.814 101.923 191.537 101.923 191.537C118.407 188.146 121.967 201.923 121.967 201.923C121.967 201.923 133.652 194.019 133.804 204.96C133.919 213.055 122.352 223.703 115.771 219.633L115.772 219.634Z" fill="white"/>
<path fill-rule="evenodd" clip-rule="evenodd" d="M117.86 219.426C117.465 219.338 117.085 219.2 116.728 219.037L116.355 218.839C116.318 218.822 116.301 218.811 116.27 218.788L116.157 218.711L115.932 218.56L115.033 217.971C114.431 217.585 113.825 217.207 113.215 216.836C111.993 216.097 110.753 215.388 109.491 214.714C108.098 213.973 106.68 213.269 105.225 212.634C104.976 211.616 104.606 210.643 104.169 209.716C103.343 207.984 102.27 206.383 100.957 204.973C100.376 204.354 99.7478 203.77 99.0699 203.239C108.101 203.678 112.069 213.877 116.623 215.958C117.121 216.185 117.643 216.344 118.184 216.441C118.022 216.966 117.906 217.459 117.844 217.909V217.909C117.843 217.914 117.842 217.919 117.842 217.924V217.925C117.84 217.935 117.839 217.945 117.838 217.954C117.838 217.955 117.838 217.955 117.838 217.956C117.837 217.96 117.836 217.965 117.836 217.969C117.836 217.974 117.835 217.98 117.834 217.984C117.803 218.231 117.788 218.46 117.788 218.674C117.788 218.951 117.814 219.201 117.86 219.427V219.426Z" fill="#B9AFBE"/>
<path fill-rule="evenodd" clip-rule="evenodd" d="M91.1026 172.698C91.8909 174.346 92.6401 175.997 93.4901 177.595L94.1183 178.796C94.3299 179.195 94.5629 179.582 94.7768 179.978C95.2005 180.775 95.6868 181.534 96.1359 182.314C97.0846 183.843 98.0914 185.33 99.1542 186.77C99.6864 187.489 100.244 188.189 100.819 188.867C101.099 189.213 101.394 189.544 101.688 189.873C101.981 190.192 102.297 190.532 102.572 190.804L101.725 190.58V190.579C103.834 190.145 106.018 189.935 108.211 190.075C110.401 190.202 112.604 190.731 114.606 191.717C116.617 192.685 118.379 194.139 119.78 195.846C120.483 196.7 121.098 197.62 121.619 198.589C121.885 199.071 122.121 199.568 122.339 200.076C122.449 200.329 122.55 200.586 122.646 200.849C122.745 201.118 122.827 201.36 122.916 201.679L121.415 201.114C122.69 200.29 123.965 199.625 125.363 199.071C126.058 198.799 126.779 198.566 127.536 198.404C128.292 198.243 129.088 198.148 129.922 198.209C130.75 198.269 131.638 198.513 132.391 199.032C133.149 199.544 133.695 200.295 134.034 201.052C134.381 201.813 134.572 202.595 134.665 203.356L134.735 203.929L134.764 204.494C134.794 204.866 134.779 205.257 134.765 205.649C134.673 207.205 134.232 208.677 133.649 210.052C133.046 211.419 132.279 212.693 131.403 213.878C130.528 215.064 129.535 216.159 128.442 217.148C127.35 218.138 126.161 219.032 124.862 219.775C123.554 220.498 122.143 221.106 120.595 221.365C119.828 221.512 119.02 221.526 118.216 221.457C117.406 221.381 116.611 221.14 115.859 220.788L115.299 220.485C115.256 220.463 115.199 220.427 115.158 220.398L115.053 220.326L114.839 220.182L113.968 219.611C113.383 219.235 112.791 218.867 112.195 218.505C111.003 217.784 109.792 217.092 108.565 216.436C106.109 215.13 103.581 213.951 100.979 213.088C99.68 212.662 98.3599 212.318 97.0433 212.136C95.73 211.946 94.4161 211.971 93.2527 212.289L93.2125 212.3C92.6905 212.443 92.1511 212.138 92.0077 211.617C91.8643 211.098 92.1689 210.561 92.6913 210.418C94.2567 209.986 95.8294 209.992 97.3058 210.2C98.7897 210.405 100.213 210.78 101.595 211.233C104.357 212.15 106.964 213.371 109.491 214.714C110.753 215.388 111.993 216.097 113.215 216.836C113.825 217.207 114.431 217.584 115.033 217.971L115.932 218.56L116.157 218.711L116.27 218.788C116.301 218.811 116.318 218.821 116.356 218.839L116.728 219.036C117.253 219.276 117.824 219.461 118.424 219.514C119.025 219.562 119.644 219.561 120.265 219.439C121.51 219.234 122.737 218.716 123.892 218.077C126.189 216.746 128.229 214.875 129.826 212.717C130.624 211.638 131.316 210.483 131.85 209.274C132.365 208.063 132.735 206.794 132.807 205.537C132.818 205.225 132.832 204.913 132.805 204.583L132.782 204.094L132.721 203.62C132.647 202.986 132.489 202.387 132.253 201.869C132.018 201.346 131.694 200.921 131.279 200.641C130.864 200.357 130.348 200.2 129.772 200.158C128.611 200.075 127.309 200.41 126.078 200.89C124.849 201.372 123.611 202.023 122.517 202.731L121.38 203.468L121.016 202.166C120.966 201.984 120.884 201.734 120.802 201.515C120.72 201.289 120.631 201.062 120.533 200.838C120.341 200.39 120.131 199.946 119.894 199.517C119.429 198.654 118.88 197.835 118.26 197.081C117.021 195.575 115.49 194.312 113.737 193.469C111.994 192.61 110.059 192.139 108.084 192.024C106.109 191.898 104.097 192.085 102.121 192.493L101.649 192.593L101.273 192.268C100.87 191.922 100.546 191.606 100.208 191.258C99.8784 190.915 99.5502 190.572 99.2407 190.217C98.9228 189.867 98.6254 189.502 98.3322 189.134C98.0322 188.771 97.7519 188.396 97.4681 188.021C96.3358 186.524 95.3382 184.937 94.4134 183.316C93.9696 182.495 93.5182 181.679 93.1241 180.834C92.7068 180.002 92.3392 179.147 91.9815 178.289C91.7995 177.862 91.6326 177.428 91.4759 176.991L90.9941 175.686C90.8337 175.251 90.7157 174.801 90.5746 174.36C90.4373 173.917 90.3045 173.474 90.179 173.029C90.1061 172.769 90.2583 172.498 90.5196 172.426C90.754 172.36 90.996 172.475 91.0966 172.686L91.1019 172.699L91.1026 172.698Z" fill="#1A2645"/>
<path fill-rule="evenodd" clip-rule="evenodd" d="M112.713 233.287C110.662 238.424 103.466 241.654 97.1536 238.73C92.9814 236.798 90.4597 233.33 89.041 230.405C87.3841 226.984 86.2495 223.481 83.2221 221.886C81.8941 221.187 80.1442 221.682 77.825 222.177C74.1183 222.97 68.9568 223.762 61.7401 219.672C58.0815 217.602 53.8265 213.17 50.6334 206.608C49.6027 204.492 48.6833 202.156 47.931 199.603C46.3022 194.089 45.4487 187.572 45.9305 180.13C46.1414 176.901 46.6045 173.495 47.3647 169.923C47.7152 168.265 48.1325 166.571 48.6191 164.842C49.2716 162.519 50.0454 160.129 50.9577 157.679L53.9502 163.675L54.9679 165.711L55.7 167.176L60.2797 176.35L67.2794 190.372L75.4505 206.738L76.0168 207.873C76.8756 207.007 77.8046 206.215 78.7904 205.51C81.7939 203.363 85.3247 202.012 89.0292 201.715C89.1085 201.708 89.1844 201.702 89.2629 201.697C90.9972 201.58 92.7929 201.686 94.5025 202.183C99.3754 203.599 103.188 208.776 104.16 213.241C104.436 214.498 104.486 215.696 104.271 216.739C103.884 218.611 103.493 220.673 103.493 220.673C104.866 221.357 115.056 227.421 112.713 233.287L112.713 233.287Z" fill="white"/>
<path fill-rule="evenodd" clip-rule="evenodd" d="M75.4497 206.739L74.3701 204.577C74.8238 204.571 75.2775 204.506 75.7213 204.381C75.8556 204.343 75.9887 204.299 76.1215 204.25L89.6911 199.221C89.8159 199.717 89.9161 200.114 89.9889 200.401C89.1961 200.424 88.4105 200.506 87.631 200.628C86.6846 200.765 85.7537 200.991 84.8448 201.274C81.7898 202.211 78.9801 203.925 76.8665 206.223L75.6788 206.664C75.6029 206.692 75.5274 206.718 75.4501 206.739L75.4497 206.739ZM92.3343 200.491C91.719 200.424 91.1049 200.395 90.4938 200.394C90.4714 200.394 90.4479 200.394 90.4255 200.394C90.2798 200.394 90.1346 200.396 89.9897 200.4C89.9176 200.113 89.8167 199.716 89.6919 199.22L94.4847 197.443C94.5492 197.419 94.6133 197.394 94.6762 197.368C94.7297 197.346 94.7825 197.323 94.8344 197.299C95.6249 196.94 96.2857 196.402 96.7876 195.752C96.8536 197.516 95.7877 199.21 94.0424 199.857L92.3343 200.49V200.491ZM97.8664 192.373C97.8448 191.843 97.7401 191.308 97.5443 190.784L97.5056 190.68C97.9809 190.405 98.3967 190.051 98.7396 189.642C98.8321 190.647 98.5029 191.63 97.8664 192.373V192.373Z" fill="#B9AFBE"/>
<path fill-rule="evenodd" clip-rule="evenodd" d="M102.187 238.655C101.495 238.655 100.804 238.589 100.127 238.456C99.7808 238.417 99.4542 238.293 99.1193 238.206C98.7802 238.129 98.4615 237.992 98.1395 237.861L97.6555 237.67L97.1798 237.432C96.8577 237.282 96.5584 237.089 96.2489 236.918C93.8197 235.442 91.8681 233.213 90.4991 230.665C89.8212 229.402 89.231 227.968 88.5452 226.556C87.8609 225.143 87.0628 223.666 85.8311 222.401C85.209 221.771 84.5087 221.228 83.6678 220.801C83.1705 220.546 82.636 220.441 82.1452 220.393C81.9729 220.375 81.8053 220.369 81.6433 220.369C81.3361 220.369 81.0444 220.394 80.7591 220.421C79.8973 220.522 79.1215 220.698 78.3671 220.861C77.613 221.026 76.8816 221.185 76.1533 221.311C74.9774 221.527 73.7985 221.639 72.6256 221.639C70.9106 221.639 69.2086 221.401 67.5487 220.903C66.1524 220.499 64.7913 219.942 63.4774 219.272C63.1485 219.105 62.8257 218.923 62.4998 218.75C62.1725 218.575 61.8853 218.379 61.5762 218.196C61.2746 218.004 60.9844 217.785 60.6874 217.581C60.3957 217.369 60.1165 217.133 59.8301 216.911C57.586 215.043 55.6602 212.743 54.042 210.253C52.6165 208.046 51.4064 205.692 50.4342 203.237C51.0043 203.321 51.9242 203.417 53.1729 203.417C55.2725 203.417 58.3048 203.148 62.1823 202.107C64.1985 201.565 66.4429 200.814 68.9036 199.784L69.4335 201.203C69.9058 202.466 70.8367 203.478 72.0608 204.062C72.0896 204.075 72.1173 204.089 72.1461 204.101C72.8395 204.418 73.5765 204.576 74.3147 204.576C74.3333 204.576 74.3511 204.576 74.3697 204.576L75.4497 206.738C75.0408 206.864 74.6243 206.924 74.2131 206.924C72.5019 206.925 70.8848 205.878 70.2525 204.19L69.7067 202.729C64.0809 205.189 59.5312 206.203 56.1954 206.568C58.7373 210.153 61.5352 212.693 64.052 214.118C68.3608 216.56 71.9382 217.261 74.9091 217.261C76.9142 217.261 78.6432 216.943 80.1363 216.623C81.6293 216.304 82.8867 215.985 83.947 215.985C84.5334 215.985 85.0592 216.083 85.5318 216.331C88.5615 217.926 89.6964 221.43 91.3526 224.851C92.7712 227.776 95.2938 231.244 99.4652 233.175C101.113 233.939 102.822 234.282 104.484 234.282C107.236 234.282 109.859 233.338 111.865 231.794C111.85 231.973 111.822 232.15 111.78 232.324C111.712 232.606 111.619 232.875 111.461 233.184L111.25 233.635C111.168 233.779 111.073 233.918 110.986 234.061C109.558 236.341 106.986 237.934 104.264 238.455C103.579 238.588 102.883 238.654 102.187 238.654V238.655ZM51.2008 196.952C50.2203 196.853 49.2515 196.664 48.3084 196.366C48.0983 195.448 47.9136 194.524 47.7554 193.596C46.7407 187.68 46.7836 181.599 47.5691 175.624L47.9253 173.39C48.0486 172.646 48.2185 171.91 48.3699 171.171C48.4909 170.55 48.6423 169.936 48.7925 169.322C47.2038 180.409 48.5319 189.689 51.2008 196.952V196.952ZM66.3762 193.454C66.3583 193.288 66.3496 193.122 66.3519 192.956L66.5123 193.386C66.4676 193.408 66.4224 193.431 66.3758 193.454H66.3762Z" fill="#B9AFBE"/>
<path fill-rule="evenodd" clip-rule="evenodd" d="M75.7368 207.599C77.9171 204.607 81.2074 202.389 84.8448 201.274C85.754 200.992 86.6845 200.765 87.631 200.629C88.5766 200.481 89.5299 200.391 90.4941 200.394C91.4584 200.395 92.4325 200.469 93.4013 200.642C93.8853 200.729 94.3678 200.838 94.8439 200.981C95.3154 201.156 95.7979 201.314 96.2557 201.514C98.081 202.344 99.6408 203.572 100.957 204.973C102.27 206.383 103.343 207.984 104.169 209.716C104.985 211.449 105.568 213.337 105.566 215.392C105.594 215.898 105.491 216.43 105.426 216.95L105.168 218.266L104.65 220.89L104.021 219.625C104.429 219.834 104.76 220.03 105.109 220.24C105.453 220.447 105.788 220.663 106.122 220.881C106.786 221.321 107.435 221.783 108.068 222.271C109.33 223.248 110.542 224.314 111.615 225.566C112.673 226.817 113.656 228.263 114.073 230.063C114.275 230.955 114.296 231.935 114.073 232.864C113.963 233.326 113.794 233.783 113.603 234.158L113.324 234.748C113.218 234.936 113.098 235.117 112.985 235.301C112.066 236.768 110.807 237.974 109.387 238.889C107.964 239.804 106.37 240.435 104.715 240.756C103.06 241.078 101.338 241.083 99.6772 240.757C98.0158 240.431 96.4264 239.768 95.0218 238.917C92.1791 237.189 89.9566 234.622 88.4272 231.775C87.6571 230.332 87.0828 228.921 86.4266 227.574C85.7829 226.233 85.0732 224.981 84.1506 224.04C83.6985 223.576 83.1602 223.175 82.6303 222.905C82.2548 222.713 81.6877 222.675 81.0178 222.75C79.6704 222.916 78.1315 223.357 76.5614 223.619C74.9853 223.896 73.3447 224.044 71.7087 223.964C70.0719 223.894 68.4495 223.607 66.8909 223.153C65.3303 222.702 63.8324 222.086 62.4076 221.359C62.0503 221.178 61.7032 220.982 61.3504 220.794C60.9999 220.606 60.6468 220.372 60.2963 220.162C59.9503 219.941 59.6245 219.698 59.2888 219.466C58.9599 219.225 58.6504 218.967 58.331 218.717C55.8472 216.649 53.7935 214.179 52.0675 211.528C50.3496 208.869 48.9392 206.029 47.8563 203.075C46.7634 200.126 45.963 197.078 45.4354 193.988C44.3759 187.805 44.4241 181.488 45.237 175.312L45.5682 173C45.6876 172.229 45.8386 171.466 45.9653 170.697C46.0878 169.927 46.2498 169.166 46.4235 168.406L46.6841 167.269C46.768 166.888 46.8662 166.511 46.9812 166.139C47.1936 165.39 47.4234 164.647 47.6552 163.905C47.898 163.166 48.1779 162.439 48.4727 161.719C48.6233 161.359 48.7598 160.996 48.9218 160.642C49.0894 160.289 49.2537 159.936 49.4369 159.59C49.7908 158.894 50.1683 158.208 50.5904 157.543C50.7084 157.357 50.9565 157.301 51.1435 157.419C51.2801 157.505 51.3468 157.658 51.3275 157.808L51.3267 157.815C50.9227 160.917 50.0909 163.816 49.4054 166.762C49.2078 167.492 49.0648 168.233 48.8804 168.965C48.7022 169.698 48.5144 170.43 48.371 171.171C48.2197 171.909 48.0497 172.646 47.9264 173.39L47.5706 175.624C46.7847 181.598 46.7422 187.679 47.7569 193.595C48.2618 196.551 49.0257 199.458 50.0643 202.261C51.0931 205.068 52.4302 207.756 54.0435 210.253C55.6617 212.743 57.5875 215.043 59.8316 216.911C60.118 217.133 60.3972 217.369 60.6889 217.581C60.9859 217.785 61.2761 218.004 61.5776 218.196C61.8872 218.379 62.1743 218.575 62.5013 218.749C62.8272 218.922 63.1496 219.106 63.4788 219.271C64.7928 219.942 66.1542 220.499 67.5501 220.903C70.3458 221.741 73.2575 221.844 76.1548 221.311C76.8831 221.185 77.6144 221.026 78.3685 220.861C79.1234 220.698 79.8988 220.521 80.7606 220.421C81.1964 220.379 81.6478 220.343 82.1466 220.393C82.6379 220.441 83.172 220.546 83.6693 220.801C84.5102 221.228 85.2105 221.77 85.8326 222.401C87.0642 223.665 87.8623 225.143 88.5466 226.556C89.2325 227.968 89.8227 229.402 90.5006 230.665C91.8696 233.213 93.8212 235.442 96.2504 236.918C96.5599 237.089 96.8592 237.282 97.1813 237.432L97.6569 237.669L98.141 237.861C98.463 237.992 98.7816 238.129 99.1208 238.206C99.4557 238.293 99.7823 238.416 100.128 238.456C101.487 238.723 102.9 238.721 104.266 238.456C106.988 237.935 109.559 236.342 110.988 234.062C111.074 233.919 111.17 233.78 111.251 233.636L111.462 233.185C111.62 232.876 111.713 232.607 111.782 232.325C111.917 231.761 111.909 231.171 111.775 230.57C111.505 229.363 110.746 228.164 109.825 227.089C108.899 226.006 107.794 225.027 106.628 224.125C106.043 223.674 105.439 223.244 104.822 222.835C104.512 222.633 104.2 222.432 103.886 222.243C103.577 222.056 103.245 221.863 102.968 221.721L102.17 221.311L102.338 220.455L102.86 217.808L103.119 216.487C103.152 216.118 103.24 215.767 103.212 215.374C103.242 214.613 103.074 213.811 102.9 213.025C102.773 212.636 102.671 212.24 102.523 211.854C102.358 211.474 102.237 211.078 102.038 210.71C101.33 209.206 100.364 207.805 99.2175 206.603C98.0742 205.401 96.7276 204.404 95.2607 203.777C93.8212 203.159 92.159 202.907 90.4998 202.914C88.8281 202.932 87.1397 203.133 85.5067 203.569C82.2248 204.426 79.1678 206.046 76.2963 208.149L76.2948 208.15C76.118 208.279 75.8695 208.242 75.7394 208.066C75.6347 207.924 75.6393 207.736 75.7379 207.6L75.7368 207.599Z" fill="#1A2645"/>
<path fill-rule="evenodd" clip-rule="evenodd" d="M84.362 223.619C83.9811 223.619 83.6189 223.397 83.4599 223.025C80.7527 216.708 83.5832 210.098 87.5897 206.35C91.2293 202.944 95.7194 201.946 99.3093 203.742C99.7934 203.984 99.9879 204.571 99.7452 205.053C99.5016 205.535 98.9122 205.729 98.4282 205.488C95.5513 204.048 92.0016 204.902 88.9325 207.774C85.5382 210.95 82.9421 216.838 85.2644 222.259C85.4768 222.755 85.245 223.329 84.747 223.541C84.6214 223.594 84.4909 223.619 84.3623 223.619L84.362 223.619Z" fill="#1A2645"/>
<path fill-rule="evenodd" clip-rule="evenodd" d="M104.234 221.164C103.59 221.958 102.93 222.625 102.207 223.279C101.489 223.922 100.722 224.515 99.895 225.017C99.0718 225.519 98.1838 225.934 97.2469 226.164C96.3137 226.4 95.3286 226.418 94.4243 226.184C95.3575 226.271 96.2781 226.099 97.1073 225.742C97.9403 225.392 98.6921 224.881 99.3745 224.299C100.059 223.717 100.676 223.058 101.242 222.362C101.8 221.671 102.336 220.911 102.753 220.182L102.763 220.165C103.007 219.739 103.552 219.59 103.981 219.833C104.41 220.076 104.559 220.619 104.315 221.046C104.291 221.086 104.263 221.128 104.234 221.164Z" fill="#1A2645"/>
<path fill-rule="evenodd" clip-rule="evenodd" d="M107.444 215.731C107.112 215.731 106.79 215.564 106.604 215.263C103.386 209.992 102.384 205.032 103.625 200.52C105.405 194.051 111.137 190.947 111.38 190.818C111.859 190.564 112.452 190.745 112.707 191.22C112.962 191.696 112.781 192.287 112.304 192.541C112.252 192.569 107.056 195.405 105.511 201.057C104.427 205.025 105.358 209.463 108.28 214.248C108.562 214.708 108.415 215.309 107.952 215.589C107.793 215.686 107.617 215.731 107.444 215.731Z" fill="#1A2645"/>
<path fill-rule="evenodd" clip-rule="evenodd" d="M98.6918 185.565C99.2915 187.515 98.19 189.579 96.2323 190.175C94.2746 190.772 92.2019 189.675 91.603 187.725C91.0044 185.776 92.1056 183.712 94.0633 183.115C96.021 182.519 98.0929 183.616 98.6918 185.565Z" fill="white"/>
<path fill-rule="evenodd" clip-rule="evenodd" d="M96.8039 188.802L96.0653 186.827C96.6992 186.466 97.1976 185.931 97.5189 185.306C97.6152 185.475 97.6949 185.657 97.7541 185.851C98.0962 186.964 97.6812 188.132 96.8039 188.802Z" fill="#B9AFBE"/>
<path fill-rule="evenodd" clip-rule="evenodd" d="M95.1462 183.93C94.8825 183.93 94.6147 183.968 94.3504 184.049C92.9131 184.487 92.1009 186.008 92.5406 187.439C92.9806 188.87 94.5085 189.679 95.945 189.241C97.3823 188.804 98.1937 187.282 97.7541 185.851C97.3956 184.684 96.313 183.93 95.1462 183.93ZM95.15 191.314C93.1433 191.314 91.2816 190.019 90.6652 188.011C89.9088 185.549 91.3051 182.934 93.7764 182.181C96.2477 181.428 98.8742 182.818 99.6302 185.28C100.386 187.741 98.9903 190.356 96.519 191.109C96.0638 191.248 95.6029 191.314 95.15 191.314Z" fill="#1A2645"/>
<path fill-rule="evenodd" clip-rule="evenodd" d="M94.1425 196.528L75.7778 203.334C73.6042 204.141 71.1625 203.029 70.3519 200.862L66.7149 191.129C66.0059 189.231 66.7744 187.132 68.4378 186.098C68.673 185.949 68.9271 185.826 69.1979 185.724L87.5604 178.919C89.7362 178.112 92.1787 179.223 92.9863 181.392L95.8688 189.1L96.6259 191.124C97.4366 193.291 96.3164 195.722 94.1429 196.528H94.1425Z" fill="white"/>
<path fill-rule="evenodd" clip-rule="evenodd" d="M78.9884 200.811C78.5283 200.811 78.0685 200.711 77.6357 200.514C76.8452 200.153 76.2459 199.513 75.9462 198.71L73.5306 192.246C74.023 193.043 74.5412 193.763 75.1136 194.38C75.4899 195.052 76.0103 195.61 76.6244 195.99C77.1798 196.333 77.7685 196.508 78.3466 196.508C78.4202 196.508 78.4941 196.505 78.5677 196.499C79.1496 196.644 79.7816 196.721 80.4742 196.721C82.0962 196.721 84.0486 196.302 86.4615 195.358L87.3514 197.922L80.1082 200.608C79.7452 200.744 79.3666 200.811 78.988 200.811H78.9884ZM88.8224 197.377L87.9128 194.753C87.9648 194.73 88.0175 194.706 88.0702 194.683C91.491 193.151 93.6953 191.315 95.117 189.889L95.7065 191.465C96.2447 192.907 95.6776 194.494 94.4319 195.298L88.8224 197.378V197.377Z" fill="#B9AFBE"/>
<path fill-rule="evenodd" clip-rule="evenodd" d="M89.0295 179.63C88.6547 179.63 88.2739 179.695 87.9033 179.833L69.5401 186.64C68.7333 186.939 68.0903 187.536 67.7296 188.323C67.3681 189.11 67.3339 189.985 67.634 190.788L71.2717 200.522C71.5718 201.325 72.1722 201.966 72.962 202.326C73.7517 202.685 74.6303 202.719 75.4371 202.42L93.8003 195.613C95.4743 194.992 96.3289 193.132 95.7061 191.465L92.0676 181.731C91.5835 180.434 90.3439 179.63 89.0291 179.63H89.0295ZM74.315 204.576C73.5765 204.576 72.8398 204.417 72.1461 204.101C70.8802 203.524 69.9168 202.495 69.4335 201.203L65.7957 191.47C65.3132 190.177 65.366 188.771 65.9456 187.51C66.5252 186.249 67.5581 185.29 68.8558 184.809L87.219 178.002C89.9065 177.007 92.9062 178.373 93.9069 181.049L97.5446 190.783C98.5446 193.459 97.1722 196.447 94.4846 197.443L76.1214 204.25C75.535 204.468 74.9239 204.576 74.315 204.576Z" fill="#1A2645"/>
<path fill-rule="evenodd" clip-rule="evenodd" d="M94.853 196.183C94.6334 196.32 94.3978 196.435 94.1425 196.528L75.7778 203.334C74.1846 203.924 72.4485 203.486 71.3154 202.353C70.9027 201.942 70.5693 201.439 70.3542 200.861L68.7371 196.538L68.2034 195.111L66.7149 191.129C65.9043 188.961 67.0245 186.531 69.198 185.724L73.1673 184.255C71.4664 185.276 70.6736 187.399 71.3886 189.315L73.352 194.573L75.0267 199.051C75.8359 201.215 78.2791 202.33 80.4526 201.524L94.8538 196.183H94.853Z" fill="white"/>
<path fill-rule="evenodd" clip-rule="evenodd" d="M74.3151 202.622C73.8557 202.622 73.396 202.523 72.9631 202.326C72.1726 201.966 71.5733 201.325 71.2729 200.522L70.7035 198.998C70.7919 198.958 70.8803 198.917 70.9686 198.877C70.9686 198.877 71.3946 197.841 71.3798 196.598C71.4917 196.585 71.6048 196.564 71.7182 196.534C72.1271 196.428 72.4674 196.149 72.7507 195.759L74.1072 199.39C74.5332 200.531 75.3328 201.466 76.3854 202.068L75.436 202.419C75.0722 202.555 74.6936 202.622 74.3151 202.622V202.622Z" fill="#B9AFBE"/>
<path fill-rule="evenodd" clip-rule="evenodd" d="M70.3754 186.33L69.5401 186.639C68.734 186.938 68.0911 187.536 67.7296 188.323C67.3681 189.11 67.3347 189.984 67.6351 190.787L71.2729 200.522C71.5729 201.325 72.1726 201.966 72.9632 202.326C73.7522 202.686 74.6307 202.719 75.436 202.42L76.3854 202.068C75.3328 201.467 74.5332 200.531 74.1072 199.39L70.4702 189.657C70.0583 188.557 70.0477 187.39 70.3758 186.33H70.3754ZM74.3151 204.576C73.5765 204.576 72.8399 204.418 72.1461 204.101C70.8795 203.524 69.916 202.495 69.4343 201.202L65.7965 191.469C65.3133 190.177 65.366 188.771 65.9452 187.51C66.5248 186.249 67.5577 185.29 68.8554 184.808L72.8221 183.338L73.6714 185.09C72.3388 185.892 71.7656 187.525 72.3077 188.976L75.9454 198.71C76.2447 199.513 76.8444 200.153 77.6349 200.514C78.4247 200.874 79.3025 200.908 80.1078 200.608L94.5112 195.267L95.37 197.014C95.0885 197.187 94.7889 197.332 94.4793 197.445L76.1192 204.25C75.5335 204.468 74.9231 204.576 74.3143 204.576H74.3151Z" fill="#1A2645"/>
<path fill-rule="evenodd" clip-rule="evenodd" d="M80.4777 191.579C80.6104 191.94 81.1703 195.036 81.1703 195.036C81.1703 195.036 80.244 195.373 79.1072 195.788C77.6862 196.305 75.9967 195.26 75.3329 193.452C74.6698 191.645 75.2832 189.761 76.7041 189.243C77.6627 188.894 78.7673 188.492 78.7673 188.492C78.7673 188.492 80.2618 190.991 80.4777 191.579Z" fill="#22A7F0"/>
<path fill-rule="evenodd" clip-rule="evenodd" d="M78.35 195.334C77.9885 195.334 77.61 195.219 77.2462 194.994C76.645 194.621 76.161 194.003 75.8856 193.251C75.6094 192.499 75.5776 191.715 75.7964 191.045C75.9982 190.425 76.392 189.98 76.9056 189.793L77.5409 189.562C77.0664 190.401 76.9795 191.565 77.396 192.7C77.4309 192.796 77.4689 192.89 77.5095 192.98C77.951 193.972 78.71 194.699 79.5392 195.006L78.9046 195.237C78.7279 195.302 78.5408 195.334 78.35 195.334Z" fill="#2976B4"/>
<path fill-rule="evenodd" clip-rule="evenodd" d="M78.5097 189.209L76.9055 189.793C76.3919 189.98 75.9982 190.425 75.7964 191.045C75.5779 191.715 75.6094 192.499 75.8855 193.251C76.1609 194.003 76.6449 194.622 77.2462 194.994C77.8023 195.338 78.3917 195.424 78.9046 195.237L80.5023 194.655C80.2573 193.323 79.9944 191.983 79.9246 191.778C79.7998 191.439 79.0707 190.161 78.5097 189.209ZM78.347 196.508C77.7692 196.508 77.1802 196.333 76.6248 195.99C75.8013 195.48 75.1458 194.65 74.7802 193.653C74.4141 192.657 74.3777 191.602 74.677 190.683C74.9926 189.713 75.6405 189.006 76.5012 188.693L79.0229 187.774L79.2725 188.191C79.4284 188.452 80.802 190.756 81.0303 191.377C81.1692 191.756 81.6152 194.194 81.7491 194.932L81.8368 195.417L79.3082 196.338C78.9971 196.452 78.6728 196.508 78.3462 196.508H78.347Z" fill="#1A2645"/>
<path fill-rule="evenodd" clip-rule="evenodd" d="M82.5415 190.827C83.2046 192.634 82.5912 194.519 81.1703 195.036C79.7493 195.554 78.0598 194.508 77.396 192.7C76.7329 190.893 77.3463 189.008 78.7672 188.492C80.1882 187.974 81.8777 189.019 82.5415 190.827Z" fill="#22A7F0"/>
<path fill-rule="evenodd" clip-rule="evenodd" d="M79.5392 195.006C78.71 194.699 77.9506 193.972 77.5094 192.98C77.9517 193.973 78.7107 194.699 79.5399 195.006H79.5392Z" fill="#2E568D"/>
<path fill-rule="evenodd" clip-rule="evenodd" d="M81.7153 194.745C81.7153 194.745 81.7153 194.745 81.7153 194.745C82.5445 194.137 82.9478 192.961 82.7657 191.708C82.9489 192.961 82.5453 194.138 81.7153 194.745Z" fill="#B9AFBE"/>
<path fill-rule="evenodd" clip-rule="evenodd" d="M80.4147 195.169C80.1207 195.169 79.826 195.113 79.5388 195.006H79.5396C79.826 195.112 80.1215 195.168 80.4147 195.168C80.67 195.168 80.9241 195.126 81.1703 195.036C81.3679 194.964 81.5504 194.865 81.7158 194.744C81.7158 194.745 81.7158 194.745 81.7158 194.745C81.5508 194.866 81.3683 194.965 81.1695 195.037C80.9237 195.126 80.67 195.169 80.4147 195.169Z" fill="#1A2645"/>
<path fill-rule="evenodd" clip-rule="evenodd" d="M80.4147 195.168C80.1215 195.168 79.826 195.112 79.5396 195.006C78.7104 194.699 77.951 193.973 77.5091 192.98C77.4689 192.89 77.4317 192.796 77.3964 192.701C77.2492 192.297 77.1631 191.89 77.1373 191.495C77.7712 192.592 78.8113 193.27 79.8305 193.27C80.0858 193.27 80.34 193.228 80.5862 193.138C81.6908 192.738 82.3068 191.511 82.2165 190.136C82.3421 190.351 82.4517 190.582 82.5408 190.826C82.6486 191.12 82.7233 191.416 82.7658 191.708C82.9482 192.961 82.5446 194.137 81.7154 194.744C81.5504 194.865 81.368 194.964 81.17 195.036C80.9242 195.126 80.6696 195.168 80.4143 195.168H80.4147Z" fill="#2976B4"/>
<path fill-rule="evenodd" clip-rule="evenodd" d="M77.3968 192.701C77.4411 192.825 77.4912 192.944 77.5474 193.059C77.3103 191.54 77.935 190.126 79.136 189.689C80.4602 189.208 82.0192 190.082 82.7582 191.67C82.7157 191.389 82.6432 191.107 82.5408 190.826C81.8785 189.019 80.1875 187.973 78.7673 188.49C77.3478 189.009 76.7333 190.893 77.3968 192.701V192.701Z" fill="white"/>
<path fill-rule="evenodd" clip-rule="evenodd" d="M79.5297 188.944C79.3397 188.944 79.1511 188.976 78.9687 189.042C77.8557 189.447 77.3971 190.999 77.9487 192.5C78.4994 194.001 79.8529 194.892 80.9677 194.486C82.0818 194.08 82.5393 192.529 81.9885 191.028C81.5276 189.773 80.5046 188.944 79.5297 188.944ZM80.4241 195.753C78.9603 195.753 77.4783 194.632 76.8437 192.902C76.0695 190.794 76.8422 188.569 78.5651 187.941C80.288 187.313 82.32 188.518 83.0942 190.625C83.8684 192.733 83.0957 194.959 81.3721 195.586C81.0633 195.699 80.7439 195.753 80.4241 195.753Z" fill="#1A2645"/>
<path fill-rule="evenodd" clip-rule="evenodd" d="M88.4075 199.355C88.0824 199.355 87.7782 199.152 87.6659 198.828L85.943 193.862C85.4567 192.459 85.7063 190.919 86.6125 189.74C87.2115 188.961 87.3659 187.946 87.0252 187.024L84.4545 180.074C84.3047 179.668 84.5126 179.219 84.92 179.07C85.3251 178.921 85.7772 179.128 85.9274 179.533L88.4974 186.484C89.0247 187.911 88.7861 189.483 87.8582 190.689C87.2733 191.451 87.1121 192.446 87.4262 193.352L89.1491 198.318C89.2909 198.727 89.0736 199.171 88.6643 199.312C88.5789 199.342 88.4928 199.355 88.4075 199.355Z" fill="#1A2645"/>
<path fill-rule="evenodd" clip-rule="evenodd" d="M47.2418 195.976C47.2418 195.976 45.7726 197.9 46.5768 200.069C47.5069 202.577 49.7461 203.109 49.7461 203.109C49.7461 203.109 57.4259 205.119 70.9675 198.877C70.9675 198.877 73.0379 193.845 67.8957 192.647C67.8957 192.647 56.0274 199.646 47.2414 195.976H47.2418Z" fill="white"/>
<path fill-rule="evenodd" clip-rule="evenodd" d="M62.1827 202.107C64.1989 201.565 66.4433 200.814 68.904 199.785C66.4437 200.814 64.1989 201.565 62.1827 202.107Z" fill="#8C7B94"/>
<path fill-rule="evenodd" clip-rule="evenodd" d="M68.9041 199.784L68.9044 199.784V199.784H68.9041Z" fill="#1A2645"/>
<path fill-rule="evenodd" clip-rule="evenodd" d="M71.3798 196.598C71.3665 195.446 70.9739 194.115 69.5143 193.264V193.263C70.9751 194.113 71.3665 195.445 71.3798 196.598Z" fill="#B9AFBE"/>
<path fill-rule="evenodd" clip-rule="evenodd" d="M70.7035 198.999V198.998C70.7911 198.958 70.8795 198.917 70.9679 198.877C70.9679 198.877 71.3939 197.842 71.3798 196.599C71.3946 197.842 70.9686 198.877 70.9686 198.877C70.8803 198.917 70.7919 198.959 70.7035 198.999Z" fill="#8C7B94"/>
<path fill-rule="evenodd" clip-rule="evenodd" d="M68.9048 199.785V199.784C69.492 199.539 70.0913 199.277 70.7036 198.998V198.998C70.0917 199.277 69.4927 199.538 68.9048 199.785Z" fill="#1A2645"/>
<path fill-rule="evenodd" clip-rule="evenodd" d="M47.0619 201.052C47.0612 201.051 47.0604 201.05 47.0604 201.049C47.0604 201.05 47.0612 201.051 47.0619 201.052ZM47.0574 201.045C46.8689 200.746 46.6982 200.406 46.5593 200.02H46.5601C46.5654 200.036 46.5718 200.053 46.5772 200.069C46.713 200.435 46.8764 200.759 47.0574 201.045V201.045Z" fill="#8C7B94"/>
<path fill-rule="evenodd" clip-rule="evenodd" d="M53.1734 203.417C50.9262 203.417 49.7473 203.108 49.7473 203.108C49.7473 203.108 48.1185 202.721 47.062 201.052C47.0613 201.051 47.0605 201.05 47.0605 201.049C47.059 201.048 47.0582 201.046 47.0575 201.045C46.8769 200.758 46.713 200.435 46.5772 200.068C46.5719 200.052 46.5655 200.036 46.5602 200.02C47.3166 200.573 47.9849 200.732 47.9849 200.732C47.9849 200.732 49.1631 201.04 51.411 201.04C54.6402 201.04 60.0782 200.403 67.3989 197.3C68.9609 196.639 69.8717 194.967 69.5242 193.311C69.5212 193.296 69.5182 193.28 69.514 193.264C70.974 194.114 71.3663 195.446 71.3795 196.598C71.3936 197.841 70.9676 198.876 70.9676 198.876C70.8792 198.917 70.7908 198.957 70.7032 198.997C70.0913 199.276 69.4916 199.538 68.9044 199.784L68.9037 199.785C66.4434 200.815 64.1985 201.565 62.1824 202.107C58.3049 203.147 55.2726 203.417 53.173 203.417H53.1734Z" fill="#B9AFBE"/>
<path fill-rule="evenodd" clip-rule="evenodd" d="M47.9462 197.296C47.7546 197.296 47.5661 197.428 47.5009 197.627C47.2573 198.371 47.2558 199.079 47.4971 199.73C48.2231 201.688 49.9111 202.142 49.9824 202.16C50.064 202.181 57.3421 203.926 69.9707 198.256C70.1019 198.197 70.2009 198.078 70.2358 197.935C70.768 195.783 70.0875 194.376 68.2151 193.75C68.1029 193.713 67.9701 193.728 67.8521 193.791C65.1824 195.232 55.8681 199.744 48.0657 197.313C48.0262 197.301 47.9856 197.296 47.9462 197.296V197.296ZM53.1896 204.4C50.886 204.4 49.6224 204.086 49.4965 204.053C49.4066 204.032 46.7562 203.371 45.657 200.407C45.2644 199.347 45.2568 198.176 45.6369 197.02C46.0488 195.764 47.4007 195.059 48.651 195.45C55.9018 197.707 65.1384 193.034 66.9163 192.074C67.5096 191.753 68.211 191.689 68.8376 191.898C71.678 192.846 72.9124 195.278 72.1404 198.402C71.9621 199.123 71.4516 199.735 70.776 200.038C62.7035 203.661 56.7231 204.4 53.1893 204.4H53.1896Z" fill="#1A2645"/>
<path fill-rule="evenodd" clip-rule="evenodd" d="M89.9889 200.401C89.9161 200.114 89.816 199.717 89.6912 199.221L89.6919 199.22C89.8167 199.717 89.9176 200.114 89.9897 200.401H89.9889V200.401Z" fill="#8C7B94"/>
<path fill-rule="evenodd" clip-rule="evenodd" d="M90.1129 200.891C90.0936 200.813 90.0507 200.648 89.9889 200.401H89.9897C90.0526 200.647 90.0943 200.813 90.1129 200.891Z" fill="#1A2645"/>
<path fill-rule="evenodd" clip-rule="evenodd" d="M89.6912 199.221C89.6912 199.22 89.6912 199.22 89.6912 199.22H89.6915L89.6912 199.221Z" fill="#1A2645"/>
<path fill-rule="evenodd" clip-rule="evenodd" d="M89.6911 199.22C89.5561 198.684 89.3934 198.031 89.2048 197.274C89.3934 198.031 89.5569 198.684 89.6919 199.22H89.6911Z" fill="#1A2645"/>
<path fill-rule="evenodd" clip-rule="evenodd" d="M90.1254 200.944C90.1254 200.944 90.1202 200.928 90.1145 200.894C90.122 200.927 90.1285 200.943 90.1285 200.943L90.1254 200.944Z" fill="#1A2645"/>
<path fill-rule="evenodd" clip-rule="evenodd" d="M122.567 202.577C122.174 202.839 121.763 203.148 121.373 203.452C120.98 203.762 120.591 204.08 120.221 204.417C119.478 205.091 118.767 205.808 118.228 206.68C118.495 205.687 118.992 204.747 119.533 203.854C119.805 203.405 120.099 202.971 120.401 202.541C120.709 202.11 121.013 201.696 121.366 201.269L121.37 201.264C121.685 200.882 122.252 200.827 122.636 201.141C123.02 201.455 123.075 202.019 122.76 202.402C122.704 202.47 122.636 202.53 122.567 202.577H122.567Z" fill="#1A2645"/>
<path fill-rule="evenodd" clip-rule="evenodd" d="M39.9993 200.089C40.0201 199.983 40.0334 199.871 40.0402 199.757C40.0471 199.882 40.0326 199.99 39.9993 200.089Z" fill="#B9AFBE"/>
<path fill-rule="evenodd" clip-rule="evenodd" d="M118.363 220.495C117.916 219.971 117.684 219.175 117.834 217.984C118.56 212.242 128.183 199.292 133.523 202.534C133.693 203.214 133.792 204.017 133.805 204.96C133.905 212.072 124.99 221.154 118.363 220.495H118.363Z" fill="#848484"/>
<path fill-rule="evenodd" clip-rule="evenodd" d="M125.473 218.248C125.476 218.247 125.479 218.245 125.482 218.243C125.479 218.244 125.476 218.247 125.473 218.248H125.473ZM125.493 218.235C127.339 216.994 129.072 215.337 130.473 213.493C130.474 213.493 130.475 213.492 130.476 213.492C129.074 215.337 127.34 216.994 125.493 218.235Z" fill="#1A2645"/>
<path fill-rule="evenodd" clip-rule="evenodd" d="M117.836 217.968C117.836 217.964 117.837 217.96 117.838 217.956C117.837 217.96 117.836 217.964 117.836 217.968ZM117.838 217.954C117.839 217.945 117.84 217.934 117.841 217.924C117.84 217.934 117.839 217.944 117.838 217.954ZM117.841 217.924C117.842 217.919 117.843 217.913 117.844 217.909C117.843 217.914 117.842 217.918 117.841 217.924Z" fill="#8C7B94"/>
<path fill-rule="evenodd" clip-rule="evenodd" d="M118.183 216.441C118.339 215.943 118.535 215.415 118.769 214.868C118.536 215.415 118.339 215.943 118.183 216.441Z" fill="#B9AFBE"/>
<path fill-rule="evenodd" clip-rule="evenodd" d="M117.844 217.909C117.906 217.459 118.022 216.966 118.184 216.441C118.022 216.966 117.906 217.458 117.844 217.909Z" fill="#8C7B94"/>
<path fill-rule="evenodd" clip-rule="evenodd" d="M118.771 214.862C118.773 214.859 118.774 214.856 118.775 214.853C118.774 214.857 118.773 214.859 118.771 214.862V214.862ZM118.781 214.842C118.781 214.841 118.781 214.84 118.781 214.839C118.781 214.84 118.781 214.84 118.781 214.842Z" fill="#B9AFBE"/>
<path fill-rule="evenodd" clip-rule="evenodd" d="M119.057 220.529C118.823 220.529 118.592 220.518 118.363 220.495C118.009 220.08 117.789 219.493 117.788 218.674C117.788 218.46 117.803 218.23 117.834 217.984C117.835 217.98 117.836 217.974 117.836 217.969C117.836 217.965 117.837 217.96 117.838 217.956C117.838 217.955 117.838 217.955 117.838 217.954C117.839 217.944 117.84 217.935 117.842 217.924V217.924C117.842 217.918 117.843 217.914 117.844 217.909C117.844 217.909 117.844 217.909 117.844 217.908C117.906 217.458 118.022 216.966 118.184 216.44C118.339 215.942 118.536 215.414 118.77 214.868C118.77 214.866 118.771 214.865 118.772 214.863C118.773 214.859 118.774 214.857 118.776 214.853C118.777 214.849 118.779 214.846 118.781 214.841C118.781 214.84 118.782 214.84 118.782 214.839C118.784 214.833 118.787 214.827 118.789 214.821C118.879 214.613 118.975 214.402 119.075 214.189C119.038 214.265 119.002 214.342 118.968 214.419C119.944 212.691 121.181 210.912 122.54 209.324C121.65 211.838 120.868 215.59 122.754 216.549C123.131 216.741 123.526 216.824 123.934 216.824C126.046 216.824 128.517 214.598 130.473 213.493C129.072 215.337 127.339 216.994 125.492 218.235C125.489 218.238 125.486 218.24 125.481 218.242C125.478 218.245 125.476 218.246 125.473 218.248C123.372 219.657 121.125 220.528 119.056 220.528L119.057 220.529Z" fill="#695F6E"/>
<path fill-rule="evenodd" clip-rule="evenodd" d="M119.188 213.95C121.766 208.619 127.396 202.021 131.647 202.021C131.884 202.021 132.117 202.041 132.344 202.084C132.117 202.041 131.884 202.021 131.647 202.021C127.396 202.021 121.767 208.618 119.188 213.95Z" fill="white"/>
<path fill-rule="evenodd" clip-rule="evenodd" d="M133.523 202.534C133.149 202.307 132.755 202.16 132.344 202.084C132.755 202.16 133.149 202.308 133.523 202.534Z" fill="#C3BAC7"/>
<path fill-rule="evenodd" clip-rule="evenodd" d="M119.075 214.189C119.112 214.109 119.15 214.03 119.188 213.95C121.767 208.618 127.396 202.021 131.647 202.021C131.884 202.021 132.117 202.041 132.344 202.084C132.755 202.16 133.149 202.307 133.523 202.534C133.693 203.214 133.792 204.017 133.804 204.96C133.834 207.096 133.051 209.411 131.76 211.584C132.431 210.025 132.808 208.442 132.787 206.948C132.786 206.903 132.785 206.859 132.784 206.816C132.75 205.278 131.474 204.107 130.02 204.107C129.77 204.107 129.514 204.142 129.258 204.215C127.064 204.847 124.653 206.854 122.539 209.325C122.742 208.752 122.951 208.243 123.133 207.847C121.482 209.861 120.042 212.13 119.074 214.189H119.075Z" fill="#DADADA"/>
<path fill-rule="evenodd" clip-rule="evenodd" d="M118.969 214.419C119.003 214.343 119.039 214.265 119.075 214.189C120.042 212.129 121.483 209.861 123.134 207.847C122.951 208.243 122.742 208.752 122.54 209.325C121.181 210.913 119.945 212.692 118.969 214.419L118.969 214.419Z" fill="#D2CFD3"/>
<path fill-rule="evenodd" clip-rule="evenodd" d="M118.794 219.742C121.325 219.839 124.473 218.397 127.292 215.82C130.82 212.595 133.068 208.336 133.02 204.971C133.011 204.264 132.949 203.62 132.836 203.053C131.918 202.635 130.784 202.744 129.458 203.38C124.712 205.657 119.147 213.854 118.612 218.082C118.523 218.787 118.584 219.344 118.794 219.742ZM119.056 221.31C118.795 221.31 118.538 221.297 118.284 221.273L117.97 221.241L117.765 221.001C117.127 220.253 116.888 219.206 117.055 217.887C117.647 213.205 123.551 204.48 128.776 201.972C130.723 201.038 132.506 201.002 133.932 201.867L134.207 202.035L134.285 202.346C134.474 203.106 134.577 203.982 134.59 204.95C134.644 208.798 132.255 213.405 128.353 216.971C125.303 219.76 121.961 221.31 119.056 221.31Z" fill="#1A2645"/>
<path fill-rule="evenodd" clip-rule="evenodd" d="M131.599 206.462C129.136 206.462 126.226 205.713 125.787 205.596C125.369 205.485 125.12 205.057 125.232 204.64C125.344 204.223 125.774 203.977 126.193 204.087C128.294 204.646 132.123 205.285 133.449 204.618C133.836 204.424 134.309 204.579 134.503 204.964C134.698 205.349 134.543 205.819 134.156 206.014C133.5 206.343 132.586 206.463 131.599 206.463L131.599 206.462Z" fill="#1A2645"/>
<path fill-rule="evenodd" clip-rule="evenodd" d="M129.315 210.444C125.732 210.444 122.754 208.825 122.586 208.732C122.207 208.523 122.071 208.047 122.281 207.67C122.492 207.293 122.969 207.157 123.347 207.365C123.398 207.393 128.366 210.078 132.735 208.215C133.133 208.045 133.595 208.229 133.766 208.626C133.936 209.023 133.752 209.482 133.353 209.652C131.998 210.23 130.616 210.444 129.315 210.444H129.315Z" fill="#1A2645"/>
<path fill-rule="evenodd" clip-rule="evenodd" d="M127.351 214.114C122.278 214.114 120.198 211.909 120.095 211.796C119.804 211.476 119.829 210.982 120.149 210.692C120.469 210.404 120.961 210.426 121.253 210.74C121.299 210.789 123.925 213.428 130.692 212.242C131.118 212.166 131.526 212.45 131.601 212.875C131.677 213.3 131.392 213.706 130.964 213.781C129.622 214.017 128.419 214.114 127.351 214.114Z" fill="#1A2645"/>
<path fill-rule="evenodd" clip-rule="evenodd" d="M124.622 218.443C120.539 218.443 118.134 215.966 118.018 215.844C117.72 215.53 117.734 215.036 118.049 214.739C118.364 214.444 118.86 214.457 119.157 214.769C119.276 214.891 121.941 217.586 126.4 216.7C126.827 216.616 127.238 216.89 127.323 217.314C127.408 217.737 127.132 218.149 126.707 218.233C125.971 218.379 125.275 218.443 124.622 218.443H124.622Z" fill="#1A2645"/>
<path fill-rule="evenodd" clip-rule="evenodd" d="M27.114 149.366C27.5142 149.285 27.7725 148.897 27.6917 148.498L23.466 127.711C23.3844 127.313 22.9945 127.056 22.5939 127.136C18.3959 127.983 15.6814 132.058 16.5315 136.24L17.9726 143.329C18.8226 147.509 22.9152 150.213 27.114 149.366V149.366Z" fill="white"/>
<path fill-rule="evenodd" clip-rule="evenodd" d="M22.7422 127.348C22.7081 127.348 22.6739 127.351 22.6398 127.358C20.6688 127.755 18.971 128.894 17.8595 130.563C16.7485 132.231 16.3559 134.232 16.7549 136.194L18.196 143.282C19.0199 147.335 23.0013 149.963 27.0681 149.143C27.2023 149.116 27.3177 149.039 27.3931 148.925C27.4683 148.811 27.4956 148.675 27.4683 148.543L23.2425 127.756C23.2152 127.623 23.1379 127.508 23.0237 127.433C22.9391 127.376 22.8412 127.348 22.7422 127.348V127.348ZM25.558 149.749C24.005 149.749 22.4854 149.296 21.1616 148.421C19.3844 147.248 18.1728 145.455 17.7495 143.373L16.3085 136.284C15.8851 134.202 16.3012 132.081 17.4802 130.311C18.6584 128.541 20.4587 127.335 22.5491 126.913C22.8029 126.862 23.0605 126.912 23.2759 127.055C23.4906 127.197 23.6382 127.415 23.6894 127.666L27.9151 148.452C27.9663 148.705 27.9159 148.962 27.7732 149.176C27.6306 149.39 27.4125 149.536 27.1587 149.588C26.6258 149.695 26.0898 149.749 25.5576 149.749L25.558 149.749Z" fill="#1A2645"/>
<path fill-rule="evenodd" clip-rule="evenodd" d="M25.5728 148.257C22.5514 148.257 19.8381 146.138 19.2152 143.077L19.1898 142.951C20.382 143.676 21.7711 144.084 23.2209 144.084C23.4732 144.084 23.7273 144.072 23.9826 144.047C24.5061 145.494 25.1134 146.897 25.8022 148.253C25.7256 148.256 25.6486 148.257 25.5728 148.257Z" fill="#B9AFBE"/>
<path fill-rule="evenodd" clip-rule="evenodd" d="M26.8621 148.128L26.8613 148.128L26.8621 148.128ZM22.3321 128.499C20.8532 128.922 19.587 129.844 18.727 131.135C17.7692 132.573 17.4309 134.298 17.7753 135.989L19.2156 143.077C19.8904 146.394 23.0218 148.605 26.3394 148.211L22.3321 128.499V128.499ZM25.572 150.783C21.3687 150.783 17.5951 147.836 16.7295 143.578L15.2884 136.49C14.8101 134.137 15.2801 131.74 16.6127 129.739C17.9452 127.738 19.9799 126.374 22.3424 125.897C22.8674 125.792 23.4034 125.896 23.851 126.191C24.2978 126.487 24.6017 126.937 24.7083 127.461L28.934 148.247C29.0402 148.771 28.9362 149.304 28.64 149.749C28.343 150.194 27.8908 150.498 27.3647 150.604C26.7627 150.725 26.1622 150.784 25.5712 150.783H25.572Z" fill="#1A2645"/>
<path fill-rule="evenodd" clip-rule="evenodd" d="M91.4884 113.245C91.0882 113.325 90.8299 113.713 90.9103 114.112L95.136 134.899C95.2168 135.297 95.6067 135.555 96.0069 135.475C100.206 134.628 102.92 130.552 102.07 126.371L100.629 119.282C99.7793 115.101 95.6868 112.398 91.488 113.245H91.4884Z" fill="white"/>
<path fill-rule="evenodd" clip-rule="evenodd" d="M91.5339 113.467C91.3996 113.494 91.2839 113.571 91.2088 113.685C91.1329 113.798 91.1064 113.934 91.1337 114.068L95.3594 134.854C95.3867 134.988 95.4641 135.102 95.5783 135.178C95.6917 135.253 95.8286 135.278 95.9622 135.253C97.9331 134.855 99.631 133.717 100.742 132.048C101.853 130.379 102.246 128.379 101.847 126.416L100.406 119.327C99.5821 115.276 95.6022 112.646 91.5339 113.467ZM95.859 135.716C95.6705 135.717 95.4865 135.662 95.326 135.555C95.1106 135.413 94.9638 135.196 94.9126 134.945L90.6869 114.158C90.6357 113.906 90.6861 113.649 90.8287 113.435C90.9714 113.22 91.1895 113.074 91.4432 113.023C95.7592 112.152 99.9796 114.941 100.853 119.238L102.293 126.326C102.716 128.408 102.301 130.529 101.122 132.299C99.9428 134.069 98.1425 135.276 96.0528 135.697C95.9876 135.71 95.9231 135.716 95.859 135.716Z" fill="#1A2645"/>
<path fill-rule="evenodd" clip-rule="evenodd" d="M98.8685 132.655C98.2589 132.244 97.5932 131.844 96.8702 131.478C96.8732 130.596 96.8448 129.714 96.7833 128.83C98.4247 128.178 99.7542 126.999 100.607 125.539L100.827 126.622C101.171 128.313 100.833 130.037 99.8745 131.475C99.5835 131.912 99.2455 132.308 98.8685 132.656V132.655Z" fill="#B9AFBE"/>
<path fill-rule="evenodd" clip-rule="evenodd" d="M92.2634 114.399L96.2706 134.111C97.7488 133.688 99.0158 132.766 99.8749 131.475C100.834 130.036 101.171 128.313 100.827 126.621L99.3864 119.533C98.7123 116.215 95.581 114.006 92.2634 114.399ZM95.8571 136.752C95.466 136.752 95.0844 136.639 94.7518 136.419C94.3041 136.124 93.9995 135.673 93.893 135.15L89.6673 114.363C89.561 113.84 89.6657 113.306 89.962 112.861C90.259 112.416 90.7112 112.113 91.2373 112.006C96.1132 111.023 100.885 114.175 101.872 119.032L103.314 126.12C103.793 128.472 103.322 130.871 101.99 132.871C100.657 134.872 98.6224 136.236 96.26 136.712C96.1257 136.739 95.9906 136.752 95.8575 136.752L95.8571 136.752Z" fill="#1A2645"/>
<path fill-rule="evenodd" clip-rule="evenodd" d="M24.3293 140.972C29.6899 160.205 49.6907 171.469 69.0022 166.131C88.3141 160.792 99.6241 140.873 94.2642 121.641C88.9036 102.407 68.9028 91.1442 49.5913 96.4821C30.2786 101.821 18.9686 121.74 24.3293 140.972Z" fill="white"/>
<path fill-rule="evenodd" clip-rule="evenodd" d="M59.3522 95.3762C56.1147 95.3762 52.8566 95.814 49.6517 96.7003C40.3699 99.2657 32.6476 105.278 27.906 113.628C23.1652 121.979 21.973 131.668 24.549 140.912C27.125 150.155 33.162 157.846 41.5462 162.567C49.9305 167.29 59.6595 168.477 68.9412 165.912C78.223 163.346 85.9453 157.334 90.6869 148.983C95.4285 140.633 96.6207 130.944 94.0447 121.7C91.4679 112.456 85.4317 104.766 77.0474 100.044C71.5574 96.9518 65.4916 95.3762 59.3522 95.3762ZM59.2407 167.69C53.0235 167.69 46.8811 166.093 41.322 162.963C32.8316 158.182 26.7187 150.393 24.1101 141.033C21.5015 131.673 22.7085 121.861 27.51 113.405C32.3115 104.949 40.1317 98.8615 49.5303 96.2635C68.9329 90.9007 89.0986 102.257 94.4839 121.58C97.0926 130.94 95.8848 140.751 91.0833 149.208C86.2818 157.664 78.4616 163.751 69.0637 166.349C65.8186 167.246 62.5196 167.69 59.2407 167.69V167.69Z" fill="#1A2645"/>
<path fill-rule="evenodd" clip-rule="evenodd" d="M55.2133 165.965C50.7323 165.442 46.356 164.045 42.2976 161.8C42.76 161.935 43.2376 162.065 43.7326 162.189C46.4141 162.862 49.5541 163.36 52.9848 163.523C52.9908 163.523 52.9973 163.523 53.0033 163.524C53.0056 163.524 53.0071 163.524 53.0094 163.524C53.7999 163.561 54.6071 163.581 55.4265 163.581C59.2584 163.581 63.3802 163.152 67.5858 162.098C68.2686 161.927 68.943 161.738 69.6095 161.533C65.6622 164.181 59.6366 164.816 55.2133 165.964V165.965Z" fill="#B9AFBE"/>
<path fill-rule="evenodd" clip-rule="evenodd" d="M59.3507 96.4129C56.206 96.4129 53.0421 96.8386 49.9301 97.6992C40.9161 100.19 33.4161 106.029 28.8118 114.138C24.2075 122.247 23.0495 131.657 25.5507 140.634C28.0532 149.61 33.9157 157.08 42.0575 161.666C50.2005 166.25 59.6488 167.404 68.6628 164.913C77.6759 162.421 85.176 156.583 89.7803 148.473C94.3853 140.364 95.5426 130.955 93.0413 121.978C90.5397 113.001 84.6772 105.531 76.5345 100.946C71.2035 97.9436 65.3122 96.4129 59.3503 96.4129H59.3507ZM59.2391 168.727C52.8444 168.727 46.5275 167.085 40.8099 163.865C32.0774 158.947 25.7909 150.937 23.1075 141.309C20.4238 131.683 21.6657 121.592 26.6041 112.895C31.5422 104.198 39.5851 97.9368 49.2515 95.2648C58.9178 92.5928 69.0512 93.8289 77.7837 98.7471C86.5162 103.665 92.8027 111.675 95.4861 121.303C98.1691 130.929 96.9272 141.02 91.9895 149.717C87.0518 158.414 79.0085 164.675 69.3414 167.347C66.0044 168.269 62.6102 168.727 59.2391 168.727Z" fill="#1A2645"/>
<path fill-rule="evenodd" clip-rule="evenodd" d="M24.6908 141.836C26.4865 148.678 30.3833 154.45 35.5771 158.713C39.4709 161.909 53.036 165.746 67.585 162.098C81.0754 158.715 91.4462 148.381 93.2712 143.696C95.7061 137.447 96.269 130.515 94.4733 123.672C89.7214 105.565 72.1309 102.124 52.8596 107.141C33.589 112.157 19.9378 123.729 24.6904 141.836H24.6908Z" fill="#1A2645"/>
<path fill-rule="evenodd" clip-rule="evenodd" d="M36.6027 142.546C35.2888 142.546 33.8985 141.871 32.7575 140.703C31.9431 139.362 31.2015 137.967 30.5407 136.522C29.9907 133.929 30.7953 131.495 32.6794 130.623C33.1501 130.405 33.6527 130.302 34.1671 130.302C36.198 130.302 38.4133 131.915 39.6051 134.471C41.0993 137.674 40.4211 141.145 38.0901 142.224C37.6193 142.442 37.1167 142.546 36.6024 142.546L36.6027 142.546Z" fill="#9B8DA2"/>
<path fill-rule="evenodd" clip-rule="evenodd" d="M44.4882 150.066C43.5619 150.066 42.5946 149.542 41.9923 148.613C41.1096 147.251 41.3447 145.535 42.518 144.78C42.8913 144.54 43.3138 144.427 43.7459 144.427C44.673 144.427 45.6391 144.95 46.2419 145.879C47.1253 147.241 46.8894 148.957 45.7169 149.712C45.344 149.952 44.9203 150.066 44.4882 150.066Z" fill="#9B8DA2"/>
<path fill-rule="evenodd" clip-rule="evenodd" d="M55.4265 163.581C54.6075 163.581 53.7999 163.561 53.0094 163.524C53.7992 163.561 54.6049 163.581 55.4242 163.581C59.2562 163.581 63.3787 163.152 67.585 162.097C68.2694 161.926 68.9472 161.736 69.6141 161.53C69.6126 161.531 69.611 161.532 69.6095 161.533C68.9434 161.738 68.2682 161.927 67.5858 162.098C63.3802 163.152 59.2581 163.581 55.4265 163.581ZM53.0033 163.524C52.9973 163.523 52.9908 163.523 52.9848 163.523C52.9908 163.523 52.9973 163.523 53.0033 163.524ZM43.7326 162.189C43.2376 162.065 42.76 161.935 42.2976 161.8C42.7592 161.934 43.2383 162.064 43.7326 162.189Z" fill="#7E7B8A"/>
<path fill-rule="evenodd" clip-rule="evenodd" d="M24.2883 129.857V129.857C24.8311 127.462 25.7673 125.236 27.0434 123.177C27.0434 123.178 27.0434 123.179 27.0434 123.18C25.7681 125.238 24.8311 127.464 24.2883 129.857Z" fill="#ACAFB4"/>
<path fill-rule="evenodd" clip-rule="evenodd" d="M42.2977 161.8C39.2096 160.897 36.8642 159.77 35.5764 158.713C34.7627 158.046 33.9817 157.34 33.2348 156.6C33.9817 157.34 34.7635 158.046 35.5771 158.713C36.8638 159.77 39.2096 160.897 42.2977 161.8ZM24.1461 130.532C24.1905 130.306 24.2375 130.08 24.288 129.856V129.857C24.2375 130.08 24.1901 130.306 24.1461 130.532Z" fill="#2A1A3B"/>
<path fill-rule="evenodd" clip-rule="evenodd" d="M55.4243 163.581C54.6053 163.581 53.7992 163.561 53.0095 163.524C53.0072 163.524 53.0057 163.524 53.0034 163.524C52.9973 163.523 52.9909 163.523 52.9848 163.523C49.5549 163.359 46.4134 162.862 43.7327 162.19C43.2384 162.065 42.7593 161.935 42.2977 161.8C39.2096 160.897 36.8642 159.77 35.5771 158.713C34.7635 158.046 33.9817 157.34 33.2348 156.6C29.2154 152.615 26.2047 147.606 24.6908 141.835C23.6151 137.733 23.4823 133.965 24.1465 130.533C24.1909 130.307 24.2379 130.081 24.2884 129.858C24.8312 127.465 25.7685 125.238 27.0434 123.18C27.1963 125.332 27.5638 127.568 28.1734 129.887C28.78 132.198 29.575 134.414 30.5408 136.522C30.6713 137.138 30.8773 137.762 31.1644 138.377C31.5855 139.279 32.1347 140.065 32.7576 140.703C35.2206 144.758 38.3549 148.324 41.9896 151.307C45.5026 154.191 55.2149 157.484 67.1716 157.484C69.3816 157.484 71.6697 157.371 74.0083 157.124C73.1309 158.176 72.1939 159.237 71.1648 160.267C70.6979 160.733 70.1767 161.153 69.6141 161.53C68.9473 161.736 68.269 161.926 67.5851 162.097C63.3787 163.152 59.2558 163.581 55.4243 163.581Z" fill="#101729"/>
<path fill-rule="evenodd" clip-rule="evenodd" d="M32.7576 140.703C32.1347 140.065 31.5854 139.28 31.1644 138.376C30.8776 137.762 30.6709 137.138 30.5408 136.522C31.2016 137.967 31.9431 139.362 32.7576 140.703Z" fill="#6B6577"/>
<path fill-rule="evenodd" clip-rule="evenodd" d="M23.5232 126.217C23.3123 126.217 23.1007 126.154 22.9159 126.024C22.5017 125.728 22.3659 125.191 22.5677 124.747C26.5609 114.373 37.2249 106.244 51.8358 102.44C66.562 98.6069 79.9136 100.677 88.4682 108.118C88.8786 108.466 88.9624 109.077 88.6434 109.521C88.3069 109.99 87.6545 110.101 87.183 109.766L87.0977 109.698C79.0741 102.713 66.4145 100.804 52.3661 104.461C38.394 108.098 28.2398 115.782 24.5072 125.543L24.459 125.668L24.3805 125.778C24.1749 126.064 23.8506 126.217 23.5225 126.217H23.5232Z" fill="#1A2645"/>
<path fill-rule="evenodd" clip-rule="evenodd" d="M85.8072 130.588C84.2777 128.401 82.2267 125.702 79.5741 122.661C70.8564 112.667 55.7129 112.402 54.133 112.402C54.0446 112.402 53.998 112.403 53.998 112.403C53.6475 111.897 59.0002 110.271 65.8891 110.271C69.9676 110.271 74.5852 110.842 78.8738 112.553C85.9092 115.359 88.302 123.644 89.0986 129.68C88.9628 129.683 88.8255 129.688 88.6874 129.695C87.6598 129.745 86.6868 130.054 85.8072 130.588V130.588Z" fill="#9B8DA2"/>
<path fill-rule="evenodd" clip-rule="evenodd" d="M102.439 137.582C102.439 137.582 97.3133 130.457 88.7455 130.876C82.6846 131.171 79.9223 142.51 86.4775 148.602C89.5591 151.466 92.3377 152.324 93.1582 158.473L102.439 137.582Z" fill="white"/>
<path fill-rule="evenodd" clip-rule="evenodd" d="M93.1574 159.654C92.5717 159.654 92.0623 159.223 91.983 158.629C91.3912 154.195 89.7833 152.888 87.5577 151.079C86.9512 150.585 86.3238 150.076 85.6676 149.466C81.2253 145.336 80.7739 139.307 82.2972 135.164C83.505 131.876 85.894 129.832 88.687 129.695C97.7943 129.249 103.178 136.582 103.403 136.894C103.785 137.425 103.662 138.163 103.129 138.543C102.598 138.922 101.858 138.801 101.475 138.272C101.428 138.206 96.5956 131.673 88.8031 132.055C86.9933 132.144 85.3941 133.609 84.5239 135.976C83.3108 139.277 83.6575 144.366 87.2862 147.738C87.8851 148.294 88.4814 148.779 89.0576 149.249C91.4034 151.156 93.6179 152.957 94.3337 158.318C94.4205 158.965 93.9638 159.558 93.3144 159.644C93.2617 159.651 93.209 159.655 93.157 159.655L93.1574 159.654Z" fill="#1A2645"/>
<path fill-rule="evenodd" clip-rule="evenodd" d="M90.2199 171.658C90.1524 171.459 90.0857 171.259 90.0189 171.057C89.8289 170.482 89.6449 169.895 89.4651 169.292C89.4317 169.181 89.3991 169.07 89.3665 168.958C90.1862 167.788 90.8781 166.778 91.4592 166.033C92.1883 165.098 94.3262 163.868 95.4471 163.136C95.79 162.912 96.0855 162.617 96.3351 162.265C96.3499 162.267 96.3647 162.268 96.3795 162.271C95.8924 163.661 95.125 164.96 94.3504 165.468C93.2295 166.201 91.416 169.318 90.8621 170.366C90.6823 170.708 90.4688 171.144 90.2199 171.657V171.658Z" fill="#B9AFBE"/>
<path fill-rule="evenodd" clip-rule="evenodd" d="M96.3798 162.271C96.365 162.269 96.3502 162.267 96.3354 162.266C96.3673 162.221 96.3984 162.175 96.4284 162.128C96.4128 162.176 96.3958 162.223 96.3795 162.271H96.3798Z" fill="#1A2645"/>
<path fill-rule="evenodd" clip-rule="evenodd" d="M65.9006 187.611L64.8085 185.423C66.0587 185.364 67.2582 185.219 68.4075 184.999C68.1833 185.107 67.9694 185.229 67.7653 185.365C66.9797 185.892 66.3512 186.627 65.9457 187.51C65.9301 187.544 65.9153 187.577 65.9006 187.611ZM76.2884 182.054C82.5147 178.476 86.649 172.837 89.3668 168.959C89.3995 169.071 89.4321 169.181 89.4655 169.292C89.6457 169.895 89.8293 170.482 90.0193 171.058C90.0861 171.259 90.1528 171.459 90.2203 171.658C89.4313 173.285 88.2843 175.677 86.6972 178.196L76.2884 182.054V182.054Z" fill="#B9AFBE"/>
<path fill-rule="evenodd" clip-rule="evenodd" d="M65.47 189.549C61.6088 188.837 57.2207 186.934 52.2523 183.371C56.3999 184.831 60.1446 185.453 63.5267 185.453C63.9595 185.453 64.3862 185.443 64.808 185.423L65.9001 187.611C65.6293 188.234 65.4851 188.89 65.4696 189.549L65.47 189.549Z" fill="#B9AFBE"/>
<path fill-rule="evenodd" clip-rule="evenodd" d="M72.5129 189.525L72.3081 188.976C71.7759 187.552 72.3191 185.951 73.5997 185.135L84.7614 180.998C81.8497 184.826 77.8626 188.408 72.5129 189.525Z" fill="#B9AFBE"/>
<path fill-rule="evenodd" clip-rule="evenodd" d="M65.4707 189.549H65.47C65.4855 188.89 65.6297 188.234 65.9005 187.611C65.9153 187.577 65.9301 187.544 65.9456 187.51C66.3511 186.627 66.9797 185.892 67.7653 185.365C66.9797 185.892 66.3511 186.628 65.9456 187.51C65.6456 188.164 65.4874 188.855 65.4711 189.549H65.4707ZM73.5997 185.135C73.624 185.12 73.6479 185.105 73.6718 185.09L72.9791 183.661C74.1433 183.195 75.2441 182.654 76.288 182.054L86.6967 178.196C86.4376 178.607 86.1668 179.022 85.8838 179.437C85.7458 179.178 85.4749 179.022 85.1904 179.022C85.1005 179.022 85.0091 179.037 84.9196 179.071C84.5126 179.22 84.3043 179.669 84.4541 180.074L84.7845 180.967C84.777 180.977 84.769 180.987 84.761 180.998L73.5993 185.135H73.5997Z" fill="#1A2645"/>
<path fill-rule="evenodd" clip-rule="evenodd" d="M69.0071 189.882C68.4943 189.882 67.9701 189.861 67.4348 189.815C67.4117 189.309 67.5099 188.8 67.7296 188.322C68.0911 187.536 68.734 186.938 69.5401 186.639L70.3754 186.329C70.0473 187.39 70.0583 188.556 70.4698 189.657L70.5298 189.816C70.0332 189.859 69.5253 189.882 69.0071 189.882V189.882Z" fill="#B9AFBE"/>
<path fill-rule="evenodd" clip-rule="evenodd" d="M70.5298 189.817L70.4699 189.658C70.0579 188.557 70.0473 187.39 70.3754 186.33L69.5401 186.64C68.7341 186.939 68.0911 187.537 67.7296 188.323C67.51 188.801 67.4117 189.309 67.4349 189.816C66.7949 189.762 66.1417 189.674 65.4707 189.55C65.487 188.856 65.6452 188.164 65.9452 187.511C66.3507 186.629 66.9793 185.893 67.7649 185.366C67.9689 185.23 68.1829 185.107 68.4071 184.999C70.0276 184.69 71.5502 184.233 72.9787 183.661L73.6714 185.091C73.6471 185.106 73.6232 185.121 73.5993 185.136C72.3187 185.952 71.7759 187.553 72.3077 188.976L72.5125 189.526C71.8711 189.66 71.2099 189.758 70.529 189.818L70.5298 189.817Z" fill="#1A2645"/>
<path fill-rule="evenodd" clip-rule="evenodd" d="M84.7849 180.967L84.4545 180.074C84.3047 179.669 84.5126 179.22 84.92 179.071C85.0091 179.037 85.1005 179.022 85.1908 179.022C85.4757 179.022 85.7461 179.178 85.8842 179.438C85.5367 179.948 85.1699 180.46 84.7853 180.967H84.7849Z" fill="#1A2645"/>
<path fill-rule="evenodd" clip-rule="evenodd" d="M49.7085 169.303L52.1518 182.807L52.2527 183.371C76.6327 191.953 87.1242 171.588 91.4595 166.033C92.1886 165.098 94.3264 163.869 95.4474 163.137C96.6604 162.342 97.2742 160.674 97.4073 158.686V158.683C97.6679 154.842 96.1351 149.813 93.6801 147.651C91.1621 145.436 85.4487 146.275 82.5958 147.92C78.6523 150.194 75.8707 155.56 71.1647 160.267C65.3861 166.043 51.5023 164.434 49.7081 169.303L49.7085 169.303Z" fill="white"/>
<path fill-rule="evenodd" clip-rule="evenodd" d="M63.5271 185.453C60.145 185.453 56.4003 184.831 52.2528 183.371L52.1519 182.807C53.5 183.188 55.1683 183.381 57.0247 183.381C63.3215 183.381 71.7786 181.158 77.22 176.516C84.2004 170.56 86.1699 163.505 87.2426 162.097C88.3161 160.691 92.0821 160.794 94.7776 160.534C95.845 160.431 96.7292 159.622 97.4078 158.686C97.3172 160.04 97.0031 161.246 96.4288 162.128C96.3984 162.174 96.3673 162.22 96.3358 162.265C96.0862 162.617 95.7904 162.912 95.4478 163.136C94.3269 163.868 92.1894 165.098 91.46 166.033C88.6329 169.656 83.1884 179.577 72.9796 183.661C71.551 184.232 70.028 184.69 68.4079 184.999C66.8713 185.292 65.2462 185.453 63.5275 185.453H63.5271Z" fill="#B9AFBE"/>
<path fill-rule="evenodd" clip-rule="evenodd" d="M49.2469 169.135C49.4347 168.414 49.8906 167.772 50.4236 167.297C50.9573 166.812 51.5585 166.453 52.1643 166.145C53.3846 165.552 54.6425 165.167 55.8882 164.84C58.3845 164.195 60.8703 163.77 63.2555 163.108C65.6251 162.452 67.9568 161.6 69.7363 160.155C69.9692 159.986 70.1588 159.779 70.3709 159.592C70.5803 159.387 70.7961 159.152 71.0078 158.935C71.4345 158.491 71.8446 158.029 72.2527 157.564C73.0687 156.633 73.8467 155.658 74.6262 154.673C76.1909 152.707 77.698 150.635 79.6587 148.792C80.6362 147.882 81.7731 147.026 83.084 146.471C84.3593 145.909 85.6748 145.58 87.0192 145.38C88.3627 145.185 89.7435 145.142 91.1534 145.393C91.8563 145.508 92.5699 145.726 93.2587 146.069L93.77 146.349L94.2533 146.708C94.5689 146.952 94.8155 147.211 95.0597 147.485C96.0138 148.577 96.6685 149.797 97.1726 151.047C97.679 152.3 98.0287 153.593 98.2563 154.911C98.4737 156.23 98.5727 157.576 98.4547 158.95C98.3959 159.636 98.284 160.33 98.0754 161.025C97.8645 161.716 97.5557 162.419 97.0539 163.057C96.9291 163.216 96.7978 163.372 96.6412 163.514C96.4978 163.664 96.3286 163.793 96.1549 163.919L96.0263 164.013L95.9223 164.08L95.7152 164.212L95.3086 164.467C94.7718 164.803 94.245 165.131 93.7465 165.471C93.2542 165.806 92.7561 166.171 92.4223 166.511C92.2952 166.631 92.098 166.911 91.9166 167.146L91.3723 167.896C89.9313 169.944 88.4629 172.061 86.8299 174.049C86.0185 175.048 85.1551 176.011 84.2649 176.95C83.3575 177.875 82.4251 178.779 81.4252 179.615C79.4489 181.309 77.2321 182.748 74.8591 183.869C72.4871 184.998 69.9172 185.704 67.3211 186.043C64.7189 186.361 62.0875 186.278 59.5278 185.883C56.9681 185.471 54.479 184.759 52.09 183.831C51.8377 183.734 51.7129 183.45 51.8116 183.198C51.9049 182.96 52.1651 182.836 52.4082 182.908L52.4177 182.91C54.8185 183.629 57.2557 184.195 59.7198 184.459C62.1786 184.742 64.6616 184.718 67.0768 184.327C69.4946 183.953 71.8465 183.224 74.0394 182.155C74.5799 181.873 75.1345 181.618 75.6541 181.296L76.4447 180.833L77.2101 180.33C77.7298 180.008 78.2093 179.623 78.7096 179.272C79.1883 178.889 79.6777 178.519 80.1385 178.114C81.077 177.321 81.9559 176.457 82.8155 175.573C83.6587 174.672 84.4792 173.747 85.2557 172.779C86.8219 170.85 88.2266 168.802 89.6817 166.708L90.2457 165.921C90.4521 165.658 90.6064 165.409 90.9221 165.076C91.4751 164.514 92.0156 164.139 92.5619 163.755C93.1058 163.38 93.6517 163.036 94.1869 162.697L94.5826 162.446L94.7749 162.321L94.8701 162.259L94.9308 162.211C95.0131 162.149 95.0973 162.089 95.1705 162.007C95.2505 161.938 95.3211 161.851 95.3909 161.76C95.9595 161.037 96.241 159.905 96.3278 158.774C96.42 157.631 96.3309 156.441 96.1302 155.272C95.9223 154.105 95.6018 152.95 95.1538 151.863C94.7134 150.777 94.1331 149.749 93.4165 148.941C93.2397 148.745 93.0451 148.545 92.8589 148.406C92.7652 148.338 92.6734 148.267 92.5827 148.196L92.2599 148.021C91.8173 147.8 91.3097 147.632 90.762 147.544C89.6752 147.344 88.4894 147.366 87.3279 147.533C86.1691 147.701 85.0034 147.994 83.9591 148.454C82.9285 148.883 82.0045 149.565 81.1316 150.371C79.3905 151.99 77.891 154.018 76.2945 155.989C75.4971 156.979 74.6903 157.974 73.8311 158.937C73.4021 159.419 72.9678 159.899 72.5148 160.363C72.2838 160.597 72.0695 160.827 71.8252 161.062C71.5646 161.294 71.3165 161.548 71.037 161.752C69.9479 162.618 68.7432 163.274 67.5168 163.789C66.2874 164.303 65.0338 164.696 63.7805 165.03C61.2735 165.696 58.7589 166.137 56.3225 166.652C55.1056 166.907 53.907 167.185 52.794 167.583C51.7019 167.996 50.6641 168.525 50.1683 169.471L50.1615 169.484C50.0359 169.725 49.7378 169.818 49.4965 169.693C49.2894 169.585 49.1915 169.351 49.2477 169.135L49.2469 169.135Z" fill="#1A2645"/>
<path fill-rule="evenodd" clip-rule="evenodd" d="M77.7219 182.149C77.5216 182.149 77.319 182.088 77.1446 181.961C67.2627 174.787 70.3785 160.35 70.5166 159.739C70.6346 159.213 71.158 158.881 71.6872 159C72.2156 159.117 72.5483 159.638 72.431 160.165C72.3999 160.303 69.4647 173.968 78.3004 180.382C78.7377 180.7 78.8341 181.312 78.5151 181.747C78.3235 182.01 78.025 182.149 77.7215 182.149H77.7219Z" fill="#1A2645"/>
<path fill-rule="evenodd" clip-rule="evenodd" d="M116.154 182.149C116.083 182.149 116.01 182.141 115.937 182.124C113.077 181.48 111.64 179.582 110.25 177.747C108.395 175.298 106.642 172.982 101.316 173.115C98.3697 173.183 96.1412 172.369 94.707 170.681C92.376 167.939 93.113 163.968 93.1456 163.8C93.2481 163.271 93.7647 162.925 94.2943 163.026C94.8257 163.129 95.1732 163.639 95.0715 164.168C95.0597 164.232 94.4945 167.418 96.2117 169.427C97.2435 170.635 98.9444 171.221 101.268 171.162C107.6 171.014 109.841 173.963 111.816 176.57C113.1 178.267 114.21 179.733 116.37 180.219C116.898 180.338 117.23 180.861 117.11 181.387C117.007 181.841 116.602 182.149 116.154 182.149H116.154Z" fill="#1A2645"/>
<path fill-rule="evenodd" clip-rule="evenodd" d="M36.6367 62.5896C36.6481 62.6772 36.6693 62.7634 36.6993 62.8488L36.6367 62.5896Z" fill="#D66B09"/>
<path fill-rule="evenodd" clip-rule="evenodd" d="M9.96657 79.3359C20.8024 90.4681 45.1856 93.7151 52.2486 86.8948C59.3132 80.0748 56.8104 55.7034 45.9742 44.5712C35.1376 33.4393 18.2924 32.1972 8.34912 41.7972C-1.59379 51.3968 -0.869658 68.2036 9.96657 79.3359Z" fill="#FF2222"/>
<path fill-rule="evenodd" clip-rule="evenodd" d="M4.57748 68.6555C3.47326 65.857 2.83372 62.9164 2.70588 59.9346C2.41646 53.2306 4.75273 47.1299 9.28303 42.7557C10.3615 41.7146 11.5336 40.8007 12.7854 40.0183C16.7926 37.5141 21.6081 36.3638 26.7279 36.7412C28.5957 36.8787 30.4423 37.2149 32.2418 37.7366C32.2604 37.9546 32.2812 38.1729 32.3048 38.3916C26.0003 37.1714 19.5734 38.1597 14.3076 41.4509C12.9928 42.2725 11.7498 43.2385 10.6004 44.348C4.13898 50.5858 2.18279 59.8662 4.57786 68.6548L4.57748 68.6555ZM32.6378 38.4589C32.5714 38.4449 32.5031 38.4313 32.4364 38.4181C32.3776 38.1937 32.3222 37.9693 32.2706 37.7457C32.392 37.7812 32.5138 37.8178 32.6352 37.8548C32.6336 38.0562 32.6352 38.2572 32.6378 38.4589Z" fill="#FFBCBC"/>
<path fill-rule="evenodd" clip-rule="evenodd" d="M37.4808 87.6173C29.0366 87.4269 18.8903 84.5483 11.8724 79.3214C11.5466 79.0226 11.2329 78.7177 10.9298 78.4068C9.73262 77.1768 8.65533 75.8666 7.70398 74.4927C13.2588 78.7173 21.8551 80.6852 29.5016 80.4834C31.5735 83.0534 34.3028 85.4795 37.4804 87.6173H37.4808Z" fill="#B91F2E"/>
<path fill-rule="evenodd" clip-rule="evenodd" d="M12.7855 40.0186C11.5337 40.8009 10.3616 41.7148 9.28313 42.7559C4.75283 47.1302 2.41656 53.2309 2.70598 59.9348C2.99693 66.6978 5.91774 73.2578 10.9298 78.4069C20.6516 88.3941 42.2208 91.8031 50.0638 86.9034C50.5323 86.6106 50.9507 86.2891 51.3163 85.9363C57.7911 79.6845 55.3152 56.0853 45.0119 45.5005C40.0003 40.3514 33.5069 37.2408 26.728 36.7414C21.6082 36.3636 16.7927 37.5139 12.7855 40.0186ZM51.5739 89.096C47.4578 91.6686 40.3454 92.4684 32.3071 91.1654C22.8706 89.6355 14.159 85.5608 9.00395 80.2655C3.53443 74.6461 0.345812 67.4669 0.026419 60.0497C-0.29525 52.5731 2.32931 45.7505 7.41684 40.8387C12.5048 35.9269 19.4332 33.5258 26.926 34.0781C34.3604 34.6262 41.4675 38.0228 46.9374 43.6414C52.0921 48.9371 55.9115 57.7351 57.1538 67.1768C58.3669 76.3941 56.8454 84.3172 53.1826 87.8531C52.7153 88.3046 52.1763 88.7193 51.5739 89.0956V89.096Z" fill="#1A2645"/>
<path fill-rule="evenodd" clip-rule="evenodd" d="M11.8348 66.4102C9.13623 68.0966 6.11072 65.5999 6.14258 60.2921C6.17445 54.9247 8.3313 50.3533 13.6696 46.3137C13.9423 46.1071 14.2086 45.9235 14.4673 45.7618C18.2059 43.4253 20.3643 45.6768 17.4139 50.3812C12.5331 58.1638 15.2419 63.5047 12.4174 65.975C12.2255 66.1427 12.0309 66.2874 11.8344 66.4102H11.8348Z" fill="#FF9191"/>
<path fill-rule="evenodd" clip-rule="evenodd" d="M66.5849 44.4336C66.5531 44.5156 66.5296 44.6017 66.5151 44.6909L66.5849 44.4336Z" fill="#D66B09"/>
<path fill-rule="evenodd" clip-rule="evenodd" d="M91.5411 129.855C91.2258 130.052 90.8037 129.999 90.5484 129.711L50.2798 87.5889C49.9961 87.2693 50.0264 86.7816 50.3473 86.4986C50.6686 86.2119 51.1579 86.2463 51.4424 86.5655L91.7102 128.688C91.994 129.008 91.964 129.496 91.6423 129.778C91.6105 129.807 91.576 129.833 91.5403 129.855L91.5411 129.855Z" fill="#1A2645"/>
<path fill-rule="evenodd" clip-rule="evenodd" d="M94.9429 129.884C94.9027 129.909 94.8606 129.931 94.815 129.948C94.4167 130.105 93.9657 129.911 93.8087 129.514L66.9231 68.7367C66.7657 68.3401 66.9592 67.8917 67.3594 67.7345C67.7584 67.5781 68.2094 67.7723 68.3661 68.1697L95.2516 128.946C95.3909 129.298 95.2532 129.69 94.9432 129.884L94.9429 129.884Z" fill="#1A2645"/>
<path fill-rule="evenodd" clip-rule="evenodd" d="M72.5599 74.0788L76.6714 77.6316C77.846 78.647 77.4755 80.549 76.0046 81.0553L70.8558 82.828C69.3848 83.3343 67.9164 82.0658 68.2127 80.5441L69.2496 75.2174C69.5459 73.6958 71.3849 73.0627 72.5599 74.0784L72.5599 74.0788Z" fill="#3BD8E0"/>
<path fill-rule="evenodd" clip-rule="evenodd" d="M70.8021 75.0745C70.7027 75.1535 70.6032 75.2785 70.566 75.471L69.5286 80.7966C69.4613 81.1438 69.6614 81.3613 69.7499 81.4379C69.8396 81.5147 70.0832 81.6816 70.419 81.5664L75.5678 79.7937C75.9025 79.6787 75.9918 79.397 76.0141 79.2815C76.0361 79.1661 76.0602 78.8721 75.7921 78.6407L71.6801 75.0868C71.4125 74.8561 71.1232 74.9203 71.0118 74.9585C70.9623 74.976 70.8819 75.0106 70.8017 75.0741L70.8021 75.0745ZM77.4554 81.7638C77.1582 82.0004 76.8178 82.1887 76.4416 82.3179L71.2927 84.0907C70.1433 84.4865 68.909 84.249 67.9919 83.456C67.0741 82.663 66.6646 81.4801 66.8962 80.2913L67.9328 74.9658C68.1647 73.7762 68.9895 72.8311 70.1378 72.4351C71.2865 72.0397 72.5204 72.2765 73.4386 73.0698L77.5501 76.6226C78.4677 77.4164 78.8772 78.5997 78.6456 79.7884C78.4898 80.5876 78.0654 81.2782 77.455 81.7639L77.4554 81.7638Z" fill="#1A2645"/>
<path fill-rule="evenodd" clip-rule="evenodd" d="M35.3198 53.1159C41.1125 67.5026 62.4396 79.6899 71.5714 76.0356C80.7029 72.3806 87.6598 48.8757 81.8674 34.4882C76.0752 20.1017 60.9595 12.609 48.106 17.7526C35.2525 22.8959 29.5279 38.729 35.3198 53.1159Z" fill="#00D7ED"/>
<path fill-rule="evenodd" clip-rule="evenodd" d="M76.1186 27.3056C68.8462 20.0919 58.4479 17.2694 49.2174 20.9628C47.1304 21.7979 45.2313 22.9146 43.5387 24.2618C38.4584 28.3047 35.2416 34.4212 34.3966 41.2012C34.4389 38.1937 34.9669 35.2289 35.9825 32.4199C37.5064 28.2061 40.0088 24.681 43.2452 22.1052C44.8598 20.8201 46.6563 19.7718 48.6053 18.9919C54.4614 16.6483 61.0076 17.0036 67.0366 19.9927C70.5371 21.7274 73.6205 24.2276 76.1186 27.3056Z" fill="#80EBF6"/>
<path fill-rule="evenodd" clip-rule="evenodd" d="M32.1352 47.5042C31.9429 46.8498 31.773 46.1946 31.6268 45.5391C31.6715 45.5427 31.7158 45.546 31.7606 45.55C31.7895 45.6232 31.8185 45.6967 31.848 45.7705C31.9176 45.9428 31.9902 46.1139 32.0656 46.2859C32.1219 46.6556 32.1843 47.0249 32.2539 47.3937C32.2142 47.4306 32.1748 47.467 32.1352 47.5042Z" fill="#B91F2E"/>
<path fill-rule="evenodd" clip-rule="evenodd" d="M31.7608 45.5494C31.7161 45.5454 31.6715 45.5425 31.6267 45.5385C31.5785 45.3238 31.5331 45.1096 31.4899 44.8948C31.5003 44.8962 31.5094 44.8983 31.5199 44.9001C31.5965 45.1164 31.6766 45.3335 31.7608 45.5494Z" fill="#B98392"/>
<path fill-rule="evenodd" clip-rule="evenodd" d="M31.52 44.9C31.5099 44.8985 31.5005 44.8966 31.4901 44.8951C31.4777 44.8338 31.4654 44.7724 31.4534 44.7107C31.4751 44.7736 31.4972 44.8373 31.5197 44.9001L31.52 44.9Z" fill="#1A2645"/>
<path fill-rule="evenodd" clip-rule="evenodd" d="M78.2188 62.2985C77.1673 59.4851 75.8785 56.8995 74.3936 54.6541C78.0246 48.4363 80.3356 40.0696 79.7163 32.9502C80.0409 33.6139 80.3433 34.2931 80.6225 34.9867C80.7368 35.2691 80.8457 35.5574 80.9495 35.8475C82.8646 44.2756 81.4197 54.5606 78.2187 62.2981L78.2188 62.2985Z" fill="#80EBF6"/>
<path fill-rule="evenodd" clip-rule="evenodd" d="M36.5641 52.6181C42.0714 66.2976 62.7017 78.1461 71.072 74.7966C79.4435 71.445 86.1298 48.6661 80.6225 34.9871C77.9442 28.3327 73.1185 23.0078 67.0361 19.9928C61.0071 17.0033 54.4609 16.6485 48.6048 18.9921C42.748 21.3357 38.266 26.1046 35.9821 32.42C33.6785 38.7909 33.8851 45.9642 36.5642 52.6189L36.5642 52.6185L36.5641 52.6181ZM74.6883 75.7132C73.8342 76.3928 72.9582 76.9194 72.0703 77.2751C67.335 79.1695 59.4503 77.3328 51.493 72.4809C43.3423 67.5107 36.8308 60.4584 34.0756 53.6147L34.0755 53.6143C31.1519 46.3522 30.9336 38.5045 33.4596 31.517C36.006 24.474 41.0305 19.1458 47.607 16.5143C54.1834 13.8824 61.5089 14.2685 68.2332 17.6018C74.9044 20.9089 80.1887 26.7294 83.1123 33.9915C85.8672 40.8353 86.0546 50.4192 83.6125 59.6275C81.675 66.9318 78.3913 72.7666 74.6883 75.7136L74.6883 75.7132Z" fill="#1A2645"/>
<path fill-rule="evenodd" clip-rule="evenodd" d="M43.7381 41.0807C43.422 41.332 43.072 41.5309 42.6713 41.669C39.1178 42.892 36.828 39.3039 39.0264 34.0451C40.1219 31.4239 41.6826 29.2325 43.868 27.493C45.8151 25.9434 48.2589 24.7527 51.3103 23.9375C56.2138 22.6278 57.9212 25.4013 53.7873 28.691C53.6116 28.8308 53.4246 28.9719 53.2273 29.1134C52.8963 29.3508 52.5818 29.589 52.2804 29.8287C49.416 32.1081 47.8696 34.4522 46.7443 36.4612C45.6193 38.4698 44.9158 40.1429 43.7373 41.0808L43.7381 41.0807Z" fill="#80EBF6"/>
<path fill-rule="evenodd" clip-rule="evenodd" d="M94.0097 130.708C93.6471 130.935 93.1684 130.827 92.9404 130.465L68.4223 95.5803C68.1947 95.2192 68.3043 94.7421 68.6669 94.5154C69.0296 94.2887 69.5086 94.3979 69.7362 94.7591L94.2544 129.644C94.4824 130.005 94.3724 130.482 94.0097 130.708Z" fill="#1A2645"/>
<path fill-rule="evenodd" clip-rule="evenodd" d="M70.6227 94.4774L75.4356 97.0146C76.8118 97.7395 76.8835 99.6756 75.5646 100.5L70.9516 103.383C69.6334 104.207 67.9143 103.3 67.8567 101.751L67.6567 96.3312C67.5991 94.7819 69.2469 93.7525 70.6227 94.4774Z" fill="#FFE000"/>
<path fill-rule="evenodd" clip-rule="evenodd" d="M74.3276 98.5365L69.7147 101.419C69.5466 101.524 69.3714 101.601 69.1942 101.652L69.0846 98.671C69.5974 98.4545 70.0762 98.209 70.5158 97.9343C70.6372 97.8584 70.7555 97.7798 70.8712 97.7005C71.2733 97.4198 71.6625 97.0976 72.0377 96.7334L74.7639 98.1704C74.6414 98.3072 74.4964 98.4307 74.3276 98.5361V98.5365Z" fill="#B99B18"/>
<path fill-rule="evenodd" clip-rule="evenodd" d="M69.3148 95.682C69.2143 95.7451 68.9829 95.9287 68.9966 96.2816L69.1969 101.702C69.2098 102.055 69.4541 102.221 69.5584 102.276C69.6627 102.331 69.9385 102.439 70.2389 102.251L74.8519 99.368C75.1527 99.1799 75.1747 98.8863 75.1709 98.7685C75.1663 98.6506 75.1223 98.3601 74.809 98.1939L69.9954 95.6571C69.6817 95.492 69.415 95.6197 69.3148 95.682ZM76.277 101.63L71.664 104.513C70.6345 105.156 69.3786 105.202 68.3039 104.636C67.2301 104.07 66.5617 103.009 66.5166 101.8L66.3163 96.3794C66.2711 95.1702 66.8591 94.064 67.8886 93.4207L67.8893 93.4203C68.9188 92.7769 70.1744 92.7309 71.249 93.2968L76.0631 95.8343C77.1369 96.4006 77.8053 97.4614 77.8497 98.6714C77.8948 99.8806 77.3061 100.987 76.2766 101.631L76.277 101.63Z" fill="#1A2645"/>
<path fill-rule="evenodd" clip-rule="evenodd" d="M29.5742 82.4257C38.4884 95.1367 62.0378 102.216 70.1038 96.6058C78.1702 90.9951 79.6036 66.5388 70.6891 53.827C61.7749 41.1161 45.3443 37.2137 33.9907 45.1107C22.6371 53.0076 20.6597 69.7143 29.5742 82.4257Z" fill="#FFE000"/>
<path fill-rule="evenodd" clip-rule="evenodd" d="M63.3666 48.0674C54.9843 42.9278 44.7364 42.3717 36.7341 47.3731C36.4208 47.5688 36.1097 47.7743 35.8032 47.9873C28.4257 53.1183 25.0076 61.9695 25.9642 71.0263C25.3224 68.088 25.1623 65.0828 25.5132 62.1195C26.3022 55.4552 29.586 49.8033 34.7585 46.2058C35.0465 46.0052 35.3359 45.8144 35.631 45.63C43.997 40.4016 55.0169 41.6411 63.3666 48.0678V48.0674Z" fill="#FFF6B2"/>
<path fill-rule="evenodd" clip-rule="evenodd" d="M67.9318 93.8706C61.7506 97.7326 47.5073 94.8686 36.9552 88.0294C34.3966 86.0676 32.2504 83.9098 30.6731 81.6609C30.1064 80.8532 29.5837 80.0251 29.1042 79.1812C38.2274 86.6751 54.9425 89.3516 62.1482 84.8474C62.2798 84.7651 62.4088 84.6808 62.5339 84.5936C68.8008 80.2344 72.1988 66.1253 69.9369 55.1003C72.1491 58.4436 73.6516 62.5999 74.518 66.9791C75.9697 78.2277 73.5325 89.9874 68.2485 93.6628C68.1442 93.7342 68.0403 93.8029 67.9318 93.8709V93.8706Z" fill="#B99B18"/>
<path fill-rule="evenodd" clip-rule="evenodd" d="M35.6314 45.6296C35.3363 45.8139 35.0465 46.0051 34.7586 46.2053C29.5861 49.8028 26.3022 55.4551 25.5132 62.119C24.7178 68.8412 26.5499 75.7816 30.6732 81.6609C34.5954 87.2535 42.0375 92.2843 50.581 95.1191C58.5268 97.7549 65.9024 97.8996 69.3357 95.5101C76.7299 90.3671 78.0659 66.6776 69.5902 54.5911C61.3403 42.8284 46.3193 38.9498 35.631 45.6296H35.6314ZM70.5166 97.9343C66.2419 100.606 58.3451 100.51 49.7336 97.6525C40.6624 94.6431 32.7155 89.2368 28.475 83.1902C23.9758 76.7737 21.9779 69.1796 22.8503 61.8066C23.7296 54.375 27.414 48.0564 33.2234 44.0157C45.157 35.7153 62.4653 39.768 71.7892 53.0619C76.0297 59.1097 78.3906 68.4011 78.105 77.9187C77.8258 87.2112 75.0544 94.7912 70.872 97.7005C70.7563 97.7798 70.6383 97.8584 70.5166 97.9343Z" fill="#1A2645"/>
<path fill-rule="evenodd" clip-rule="evenodd" d="M34.5461 70.2794C31.3617 72.2695 28.3153 69.2885 29.261 63.6725C30.067 58.8861 32.4837 55.0184 37.3126 52.0004C37.8243 51.6804 38.3641 51.3699 38.9308 51.0692C43.601 48.591 45.8956 51.2154 41.976 55.6795C35.911 62.5871 37.7298 68.2896 34.5458 70.2794H34.5461Z" fill="#FFF6B2"/>
<path fill-rule="evenodd" clip-rule="evenodd" d="M90.8516 128.381C90.4804 128.36 90.1664 128.073 90.1236 127.691L81.5185 70.0555C81.471 69.6308 81.7771 69.2499 82.2024 69.2038C82.6303 69.1548 83.0102 69.4651 83.0585 69.89L91.6628 127.525C91.7103 127.95 91.4041 128.331 90.9786 128.376C90.9358 128.382 90.893 128.382 90.851 128.38L90.8516 128.381Z" fill="#1A2645"/>
<path fill-rule="evenodd" clip-rule="evenodd" d="M82.4431 45.0901C82.4019 45.1683 82.3695 45.2509 82.3448 45.3379L82.4431 45.0901Z" fill="#D66B09"/>
<path fill-rule="evenodd" clip-rule="evenodd" d="M50.9972 43.3899C53.4294 58.7335 71.4767 75.4481 81.1802 73.9495C90.8847 72.4522 102.895 51.0986 100.463 35.7548C98.0296 20.411 84.9843 9.68154 71.3247 11.7899C57.6656 13.8981 48.5646 28.046 50.9972 43.3899Z" fill="#FF2222"/>
<path fill-rule="evenodd" clip-rule="evenodd" d="M52.754 31.5568C53.4659 28.6337 54.6393 25.8625 56.2545 23.3529C59.8843 17.7091 65.3112 14.0725 71.5349 13.1117C73.0163 12.883 74.5009 12.8124 75.9748 12.8952C80.6927 13.1603 85.2902 14.9978 89.2551 18.2587C90.7017 19.4482 92.0163 20.7878 93.1856 22.2518C93.0751 22.4406 92.9662 22.631 92.8593 22.8233C88.4126 18.1906 82.5922 15.2915 76.3922 14.9434C74.8443 14.8564 73.2717 14.9287 71.6928 15.1723C62.8168 16.5419 55.8666 22.9953 52.7548 31.5564L52.754 31.5568ZM93.0926 23.0703C93.0464 23.0206 92.9985 22.9701 92.9515 22.9208C93.0329 22.7036 93.1171 22.4883 93.2039 22.2759C93.2826 22.3749 93.3609 22.475 93.4388 22.5753C93.3214 22.7389 93.2067 22.904 93.0926 23.0703Z" fill="#FFBCBC"/>
<path fill-rule="evenodd" clip-rule="evenodd" d="M68.6989 66.0231C61.9102 60.9977 55.2814 52.7946 52.5625 44.4772C52.4687 44.0452 52.3882 43.6152 52.3199 43.1864C52.0513 41.4911 51.9267 39.7995 51.9419 38.1284C54.0435 44.7833 59.9314 51.3485 66.2945 55.5935C66.505 58.8879 67.3356 62.4439 68.6986 66.0229L68.6989 66.0231Z" fill="#B91F2E"/>
<path fill-rule="evenodd" clip-rule="evenodd" d="M75.9747 12.8954C74.5009 12.8126 73.0163 12.8832 71.5349 13.1118C65.3112 14.0727 59.8842 17.7093 56.2544 23.353C52.5919 29.0458 51.1948 36.0895 52.3199 43.1865C54.5023 56.9522 70.1573 72.1764 79.3904 72.6967C79.9419 72.7277 80.4691 72.7063 80.9713 72.629C89.8663 71.2556 101.454 50.5484 99.1407 35.9591C98.0159 28.8623 94.5051 22.5764 89.2551 18.2589C85.2903 14.9976 80.6929 13.1602 75.9747 12.8954ZM79.3595 75.3588C74.5132 75.0867 68.2416 71.6383 62.4261 65.9381C55.5993 59.2461 50.8322 50.8932 49.6747 43.5943C48.4471 35.8492 49.9825 28.1452 53.9991 21.9015C58.0481 15.6081 64.1269 11.548 71.1159 10.4693C78.1051 9.39081 85.15 11.4249 90.9528 16.1973C96.7102 20.9326 100.557 27.8061 101.786 35.5508C102.943 42.8498 100.989 52.24 96.559 60.6699C92.2344 68.8996 86.4221 74.4949 81.3906 75.2712C80.7484 75.3705 80.0689 75.3985 79.3597 75.3585L79.3595 75.3588Z" fill="#1A2645"/>
<path fill-rule="evenodd" clip-rule="evenodd" d="M59.9777 33.9077C56.8006 33.7291 55.7688 29.9446 58.8558 25.6268C61.9773 21.2603 66.3757 18.7695 73.0665 18.5481C73.4085 18.5365 73.7319 18.5401 74.0365 18.5572C78.4383 18.8045 78.9031 21.8886 73.7796 24.0304C65.304 27.5735 64.4368 33.499 60.7047 33.8882C60.4511 33.9145 60.2087 33.9205 59.9774 33.9075L59.9777 33.9077Z" fill="#FF9191"/>
<path fill-rule="evenodd" clip-rule="evenodd" d="M117.38 47.5288C117.307 47.5774 117.238 47.6342 117.175 47.6987L117.38 47.5288Z" fill="#D66B09"/>
<path fill-rule="evenodd" clip-rule="evenodd" d="M93.6141 130.365C93.5669 130.363 93.5198 130.356 93.4724 130.344C93.0566 130.243 92.8001 129.824 92.9008 129.409L105.987 64.2522C106.088 63.8374 106.504 63.5826 106.922 63.685C107.338 63.7874 107.594 64.2061 107.493 64.6211L94.4071 129.777C94.318 130.145 93.979 130.386 93.6141 130.365Z" fill="#1A2645"/>
<path fill-rule="evenodd" clip-rule="evenodd" d="M104.41 71.3682L105.113 76.7563C105.314 78.2959 103.772 79.4687 102.337 78.8675L97.3144 76.7633C95.8796 76.1621 95.6281 74.2379 96.8621 73.2996L101.181 70.0145C102.415 69.0762 104.209 69.8278 104.41 71.3679L104.41 71.3682Z" fill="#3BD8E0"/>
<path fill-rule="evenodd" clip-rule="evenodd" d="M102.435 70.9413C102.308 70.9341 102.151 70.9611 101.995 71.08L97.676 74.364C97.3947 74.5783 97.3992 74.8738 97.4143 74.9899C97.4301 75.1069 97.5008 75.3935 97.828 75.5312L102.851 77.6353C103.177 77.7723 103.431 77.6215 103.525 77.5502C103.618 77.4786 103.831 77.2753 103.785 76.9242L103.082 71.5349C103.036 71.1846 102.777 71.0399 102.669 70.9943C102.62 70.9744 102.537 70.9467 102.435 70.9407L102.435 70.9413ZM102.948 80.362C102.569 80.3408 102.189 80.2547 101.822 80.1007L96.7999 77.9965C95.6786 77.5268 94.9155 76.528 94.759 75.3258C94.6019 74.123 95.0836 72.9677 96.0478 72.2347L100.366 68.9503C101.331 68.2169 102.576 68.0606 103.696 68.5293C104.817 68.9989 105.58 69.9969 105.737 71.2001L106.441 76.5883C106.597 77.7914 106.115 78.947 105.151 79.6801C104.503 80.1727 103.726 80.4057 102.948 80.3618L102.948 80.362Z" fill="#1A2645"/>
<path fill-rule="evenodd" clip-rule="evenodd" d="M90.5712 30.9361C85.318 45.5285 93.1221 68.8195 102.37 72.1707C111.617 75.5211 132.454 62.6103 137.708 48.0175C142.961 33.4256 136.668 17.7725 123.652 13.0556C110.636 8.33844 95.8249 16.3441 90.5712 30.9361Z" fill="#00D7ED"/>
<path fill-rule="evenodd" clip-rule="evenodd" d="M138.199 38.8307C137.573 28.6064 131.692 19.5788 122.345 16.191C120.231 15.4251 118.071 14.9945 115.911 14.8732C109.428 14.5088 102.956 16.9323 97.8128 21.4297C99.8463 19.2135 102.214 17.3523 104.841 15.932C108.784 13.8016 112.997 12.8365 117.127 13.0684C119.188 13.1841 121.226 13.5975 123.2 14.3128C129.13 16.4618 133.779 21.0842 136.289 27.328C137.746 30.9525 138.383 34.8708 138.199 38.8307Z" fill="#80EBF6"/>
<path fill-rule="evenodd" clip-rule="evenodd" d="M91.9298 24.6282C92.222 24.0118 92.5313 23.4098 92.8585 22.8232C92.8895 22.8557 92.9203 22.8877 92.951 22.9204C92.924 22.9943 92.8967 23.0684 92.8695 23.1431C92.8068 23.3181 92.7471 23.4942 92.6888 23.6727C92.4848 23.986 92.2856 24.3031 92.092 24.6247C92.0378 24.6258 91.9842 24.6268 91.9298 24.6282Z" fill="#B91F2E"/>
<path fill-rule="evenodd" clip-rule="evenodd" d="M92.9517 22.9204C92.9209 22.8876 92.8896 22.8557 92.8588 22.8229C92.9658 22.6307 93.0744 22.4406 93.1852 22.2515C93.192 22.2595 93.1974 22.267 93.204 22.2754C93.1172 22.4879 93.0325 22.7032 92.9517 22.9204Z" fill="#B98392"/>
<path fill-rule="evenodd" clip-rule="evenodd" d="M93.204 22.2755C93.1975 22.2677 93.1918 22.26 93.1849 22.2519C93.2165 22.1979 93.2481 22.1439 93.2803 22.0898C93.2546 22.1512 93.2288 22.2135 93.2037 22.2753L93.204 22.2755Z" fill="#1A2645"/>
<path fill-rule="evenodd" clip-rule="evenodd" d="M116.474 66.3434C117.562 63.5439 118.321 60.7564 118.708 58.0924C125.556 55.869 132.85 51.1632 137.127 45.4378C136.927 46.1492 136.701 46.8574 136.447 47.5609C136.345 47.8477 136.234 48.1353 136.118 48.4209C131.938 55.9855 124.013 62.6993 116.474 66.3431L116.474 66.3434Z" fill="#80EBF6"/>
<path fill-rule="evenodd" clip-rule="evenodd" d="M91.8312 31.3927C86.8359 45.2673 94.3454 67.8417 102.822 70.9135C111.3 73.9845 131.452 61.4353 136.447 47.5611C138.878 40.8122 138.821 33.6262 136.288 27.3276C133.779 21.0835 129.13 16.4614 123.199 14.3125C117.268 12.1632 110.749 12.7388 104.841 15.9317C98.8814 19.1529 94.2609 24.6438 91.8308 31.3934L91.831 31.3931L91.8312 31.3927ZM104.91 74.0046C103.821 73.9433 102.816 73.7532 101.917 73.4276C97.1221 71.6895 92.4603 65.0706 89.7514 56.153C86.9769 47.0186 86.8116 37.4214 89.3107 30.48L89.3109 30.4797C91.9629 23.114 97.0235 17.1121 103.56 13.5788C110.148 10.0176 117.444 9.38564 124.104 11.7992C130.764 14.2125 135.974 19.3766 138.773 26.34C141.55 33.2486 141.62 41.1097 138.968 48.4754C136.468 55.4165 130.229 62.6936 122.277 67.9401C115.969 72.1017 109.635 74.2704 104.91 74.0049L104.91 74.0046Z" fill="#1A2645"/>
<path fill-rule="evenodd" clip-rule="evenodd" d="M104.865 27.5577C104.461 27.5348 104.068 27.4503 103.677 27.2866C100.211 25.8341 100.89 21.6322 106.031 19.1708C108.594 17.9439 111.217 17.3473 114.006 17.5038C116.49 17.6433 119.107 18.3814 121.927 19.8041C126.458 22.0905 125.886 25.2969 120.611 25.0003C120.387 24.9877 120.153 24.9685 119.912 24.9429C119.507 24.8997 119.114 24.8681 118.729 24.8464C115.074 24.6408 112.36 25.3609 110.183 26.1112C108.006 26.8614 106.368 27.6417 104.864 27.5572L104.865 27.5577Z" fill="#80EBF6"/>
</g>
<defs>
<clipPath id="clip0_9907_398">
<rect width="161" height="241" fill="white"/>
</clipPath>
</defs>
</svg>
