<?xml version="1.0" encoding="UTF-8"?>
<!DOCTYPE svg PUBLIC "-//W3C//DTD SVG 1.1//EN" "http://www.w3.org/Graphics/SVG/1.1/DTD/svg11.dtd">
<!-- Creator: CorelDRAW -->
<svg xmlns="http://www.w3.org/2000/svg" xml:space="preserve" width="290px" height="546px" version="1.1" style="shape-rendering:geometricPrecision; text-rendering:geometricPrecision; image-rendering:optimizeQuality; fill-rule:evenodd; clip-rule:evenodd"
viewBox="0 0 18.012 33.862"
 xmlns:xlink="http://www.w3.org/1999/xlink"
 xmlns:xodm="http://www.corel.com/coreldraw/odm/2003">
 <defs>
  <style type="text/css">
   <![CDATA[
    .fil1 {fill:#020202}
    .fil2 {fill:#020202}
    .fil6 {fill:#22A7F0}
    .fil8 {fill:#232323}
    .fil7 {fill:#2976B4}
    .fil12 {fill:#2A1A3B}
    .fil13 {fill:#6B6577}
    .fil9 {fill:#707070}
    .fil11 {fill:#7E7B8A}
    .fil5 {fill:#928299}
    .fil10 {fill:#ACAFB4}
    .fil4 {fill:#B9AFBE}
    .fil3 {fill:#C3BAC7}
    .fil0 {fill:white}
   ]]>
  </style>
 </defs>
 <g id="Camada_x0020_1">
  <metadata id="CorelCorpID_0Corel-Layer"/>
  <g id="_2698039900480">
   <path class="fil0" d="M13.179 25.009l-8.346 0c-1.045,0 -1.893,-0.848 -1.893,-1.893l0 -7.79c0,-1.046 0.848,-1.893 1.893,-1.893l8.346 0c1.046,0 1.893,0.847 1.893,1.893l0 7.79c0,1.045 -0.847,1.893 -1.893,1.893z"/>
   <path class="fil1" d="M13.179 13.033l-8.346 0c-1.264,0 -2.293,1.028 -2.293,2.293l0 7.79c0,1.264 1.029,2.293 2.293,2.293l8.346 0c1.265,0 2.293,-1.029 2.293,-2.293l0.001 -7.79c0,-1.265 -1.029,-2.293 -2.294,-2.293zm0 0.4c1.046,0 1.893,0.847 1.893,1.893l0 7.79c0,1.045 -0.847,1.893 -1.893,1.893l-8.346 0c-1.045,0 -1.893,-0.848 -1.893,-1.893l0 -7.79c0,-1.046 0.848,-1.893 1.893,-1.893l8.346 0z"/>
   <path class="fil2" d="M7.195 31.473c-0.036,0 -0.073,-0.01 -0.106,-0.031 -1.022,-0.642 -2.521,-0.358 -2.536,-0.355 -0.109,0.021 -0.214,-0.05 -0.235,-0.158 -0.021,-0.109 0.049,-0.214 0.158,-0.235 0.067,-0.013 1.668,-0.319 2.826,0.409 0.094,0.059 0.122,0.182 0.063,0.276 -0.038,0.06 -0.103,0.094 -0.17,0.094z"/>
   <path class="fil0" d="M14.907 32.554c-0.003,0.031 0.068,1.218 -3.101,1.1 -1.344,-0.051 -2.258,-0.308 -2.585,-1.015 -0.293,-0.633 -0.251,-3.111 -0.251,-3.111l0 -3.986 -0.005 0 0 3.986c0,0 0.016,0.915 -0.038,1.776 -0.034,0.555 -0.098,1.087 -0.212,1.335 -0.328,0.707 -1.092,0.964 -2.435,1.015 -3.17,0.118 -3.249,-1.069 -3.252,-1.1 -0.016,-0.164 0.003,-0.316 0.048,-0.456 0.268,-0.822 1.438,-1.208 1.438,-1.208 0,0 -0.746,-2.835 -1.003,-5.25 -0.08,-0.758 -0.12,-1.525 -0.128,-2.288 -0.033,-3.141 0.48,-6.226 0.965,-8.422 0.149,-0.67 0.294,-1.257 0.421,-1.738 0.237,-0.898 0.409,-1.424 0.409,-1.424l7.58 0c0,0 0.18,0.554 0.428,1.496 0.124,0.472 0.264,1.042 0.407,1.688 0.484,2.196 0.993,5.274 0.96,8.406 -0.008,0.761 -0.048,1.526 -0.129,2.282 -0.256,2.415 -1.003,5.25 -1.003,5.25 0,0 1.601,0.528 1.486,1.664z"/>
   <path class="fil3" d="M12.242 33.462c-0.135,0 -0.278,-0.003 -0.429,-0.008 -1.404,-0.053 -2.147,-0.33 -2.41,-0.899 -0.181,-0.389 -0.229,-1.665 -0.235,-2.505 0.001,-0.133 0.001,-0.248 0,-0.338 0,-0.068 0.001,-0.13 0.002,-0.184l0 -3.722c1.096,-0.038 1.833,-0.365 1.833,-0.365l0 0c0,0 -0.547,-0.432 -2.035,-0.432 -1.488,0 -2.031,0.432 -2.031,0.432l0 0c0,0 0.733,0.327 1.828,0.365l0.001 3.725c0,0.053 0.001,0.114 0.002,0.181 -0.001,0.09 -0.001,0.205 -0.001,0.339 -0.006,0.838 -0.054,2.115 -0.234,2.504 -0.272,0.588 -0.927,0.849 -2.261,0.899 -0.15,0.005 -0.292,0.008 -0.427,0.008 -2.506,0 -2.616,-0.915 -2.617,-0.928 -0.01,-0.091 -0.005,-0.178 0.01,-0.26 0.2,0.156 0.58,0.324 1.3,0.423 0.382,0.052 0.772,0.082 1.147,0.082 1.225,0 2.305,-0.312 2.533,-1.142 0.224,-0.816 0.592,-4.863 -0.648,-5.393 -1.916,-0.819 -2.62,-1.477 -2.087,-1.584 0.029,-0.005 0.063,-0.008 0.104,-0.008 0.341,0 1.149,0.179 3.381,0.179 2.231,0 3.039,-0.179 3.38,-0.179 0.041,0 0.075,0.003 0.104,0.008 0.533,0.107 -0.171,0.765 -2.087,1.584 -1.24,0.53 -0.872,4.577 -0.648,5.393 0.228,0.83 1.308,1.142 2.533,1.142 0.376,0 0.764,-0.03 1.147,-0.082 0.72,-0.099 1.1,-0.267 1.3,-0.423 0.016,0.083 0.02,0.17 0.011,0.262l-0.001 0.02c-0.001,0.044 -0.017,0.2 -0.196,0.37 -0.265,0.252 -0.873,0.536 -2.269,0.536z"/>
   <path class="fil2" d="M12.239 33.862c-0.142,0 -0.289,-0.003 -0.441,-0.008 -1.059,-0.04 -2.33,-0.204 -2.759,-1.131 -0.026,-0.057 -0.05,-0.125 -0.071,-0.204 -0.022,0.079 -0.045,0.147 -0.072,0.204 -0.345,0.747 -1.101,1.074 -2.609,1.131 -3.176,0.119 -3.438,-1.047 -3.458,-1.282 -0.106,-1.049 1.004,-1.62 1.447,-1.805 -0.165,-0.656 -0.745,-3.045 -0.964,-5.106 -0.323,-3.037 -0.051,-6.514 0.831,-10.63 0.023,-0.108 0.129,-0.177 0.237,-0.154 0.109,0.024 0.177,0.13 0.154,0.238 -0.873,4.074 -1.142,7.51 -0.824,10.504 0.253,2.372 0.991,5.192 0.998,5.22l0.048 0.183 -0.179 0.059c-0.014,0.004 -1.446,0.491 -1.349,1.453 0.001,0.014 0.123,1.029 3.044,0.92 1.334,-0.05 1.989,-0.311 2.261,-0.899 0.18,-0.389 0.228,-1.666 0.234,-2.504 0,-0.134 0,-0.249 0.001,-0.339 -0.001,-0.067 -0.002,-0.128 -0.002,-0.181l-0.001 -4.189 0.401 0 0.004 0.2 0 3.986c-0.001,0.054 -0.002,0.116 -0.002,0.184 0.001,0.09 0.001,0.205 0,0.338 0.006,0.84 0.054,2.116 0.235,2.505 0.263,0.569 1.006,0.846 2.41,0.899 1.704,0.063 2.408,-0.252 2.698,-0.528 0.179,-0.17 0.195,-0.326 0.196,-0.37l0.001 -0.02c0.097,-0.964 -1.335,-1.451 -1.35,-1.456l-0.178 -0.059 0.048 -0.182c0.007,-0.028 0.745,-2.848 0.997,-5.22 0.313,-2.939 0.057,-6.31 -0.781,-10.305 -0.023,-0.108 0.046,-0.214 0.154,-0.237 0.109,-0.023 0.215,0.047 0.237,0.155 0.848,4.036 1.106,7.448 0.788,10.429 -0.219,2.061 -0.798,4.45 -0.964,5.106 0.442,0.185 1.548,0.754 1.448,1.799 -0.003,0.113 -0.041,0.385 -0.32,0.65 -0.452,0.43 -1.308,0.646 -2.548,0.646z"/>
   <path class="fil2" d="M13.383 31.087c-0.098,-0.026 -0.212,-0.05 -0.321,-0.068 -0.11,-0.019 -0.221,-0.034 -0.332,-0.045 -0.224,-0.023 -0.449,-0.032 -0.674,-0.024 -0.226,0.008 -0.45,0.039 -0.673,0.087 -0.222,0.051 -0.436,0.132 -0.643,0.235 0.189,-0.131 0.394,-0.246 0.614,-0.33 0.219,-0.083 0.446,-0.149 0.679,-0.191 0.232,-0.042 0.468,-0.068 0.706,-0.078 0.118,-0.004 0.237,-0.006 0.356,-0.003 0.121,0.003 0.236,0.009 0.365,0.024 0.11,0.012 0.19,0.112 0.177,0.222 -0.012,0.11 -0.112,0.19 -0.222,0.177 -0.01,-0.001 -0.019,-0.003 -0.028,-0.005l-0.004 -0.001z"/>
   <path class="fil2" d="M4.499 30.694c0.129,-0.015 0.244,-0.021 0.365,-0.024 0.119,-0.003 0.238,-0.001 0.357,0.003 0.237,0.01 0.473,0.036 0.705,0.078 0.233,0.042 0.461,0.108 0.68,0.191 0.219,0.084 0.424,0.199 0.613,0.33 -0.207,-0.103 -0.421,-0.184 -0.643,-0.235 -0.222,-0.048 -0.447,-0.079 -0.672,-0.087 -0.226,-0.008 -0.451,0.001 -0.674,0.024 -0.112,0.011 -0.223,0.026 -0.333,0.045 -0.108,0.018 -0.222,0.042 -0.32,0.068l-0.004 0.001c-0.107,0.028 -0.217,-0.036 -0.245,-0.143 -0.029,-0.107 0.035,-0.217 0.142,-0.246 0.01,-0.002 0.02,-0.004 0.029,-0.005z"/>
   <path class="fil0" d="M6.265 22.486c-0.709,0.299 -1.806,0.236 -2.554,0.142 -0.448,-0.056 -0.763,-0.486 -0.697,-0.95 0.06,-0.424 0.419,-0.732 0.831,-0.712 0.7,0.034 1.749,0.05 2.414,-0.103l0.006 1.623z"/>
   <path class="fil4" d="M5.053 22.502c0.055,-0.067 0.108,-0.136 0.159,-0.206 0.056,-0.077 0.108,-0.155 0.158,-0.235l0 0.422c-0.101,0.009 -0.207,0.016 -0.317,0.019z"/>
   <path class="fil2" d="M3.807 21.165c-0.297,0 -0.55,0.228 -0.595,0.541 -0.025,0.177 0.02,0.352 0.126,0.491 0.1,0.13 0.241,0.213 0.398,0.233 1.067,0.134 1.937,0.088 2.452,-0.128 0.1,-0.042 0.173,-0.188 0.201,-0.4 0.05,-0.378 -0.058,-0.737 -0.13,-0.834 -0.676,0.145 -1.687,0.134 -2.424,0.098 -0.009,-0.001 -0.019,-0.001 -0.028,-0.001zm1.049 1.741c-0.411,0 -0.82,-0.035 -1.17,-0.079 -0.264,-0.033 -0.501,-0.171 -0.666,-0.387 -0.17,-0.222 -0.244,-0.51 -0.204,-0.791 0.075,-0.528 0.522,-0.908 1.039,-0.883 1.029,0.05 1.867,0.015 2.359,-0.098 0.1,-0.023 0.348,-0.027 0.497,0.436 0.169,0.521 0.134,1.356 -0.368,1.567 -0.418,0.176 -0.955,0.235 -1.487,0.235z"/>
   <path class="fil3" d="M11.333 24.553l-5.04 0c-0.508,0 -0.923,-0.431 -0.923,-0.959l0 -0.709c0.029,-0.002 0.059,-0.005 0.087,-0.008l0 0.068c0,0.585 0.476,1.061 1.062,1.061l1.86 0 2.722 0c0.585,0 1.061,-0.476 1.061,-1.061l0 -0.115c0.295,0.055 0.616,0.076 0.935,0.076 0.045,0 0.089,0 0.133,-0.001 0.068,0.06 0.138,0.118 0.212,0.173 0.071,0.057 0.151,0.105 0.227,0.157 0.04,0.023 0.081,0.045 0.122,0.068l0.061 0.034 0.012 0.006c-0.121,0.005 -0.244,0.008 -0.368,0.008 -0.431,0 -0.866,-0.036 -1.24,-0.139l0 0.382c0,0.528 -0.415,0.959 -0.923,0.959z"/>
   <path class="fil5" d="M5.37 22.483l0 -0.422c0.03,-0.049 0.059,-0.098 0.087,-0.147l0 0.56c-0.028,0.003 -0.057,0.006 -0.087,0.009z"/>
   <path class="fil2" d="M5.37 22.885l0 -0.402c0.03,-0.003 0.059,-0.006 0.087,-0.009l0 0.403c-0.028,0.003 -0.058,0.006 -0.087,0.008z"/>
   <path class="fil0" d="M11.688 22.486c0.709,0.299 1.806,0.236 2.554,0.142 0.448,-0.056 0.763,-0.486 0.697,-0.95 -0.06,-0.424 -0.419,-0.732 -0.831,-0.712 -0.7,0.034 -1.749,0.05 -2.414,-0.103l-0.006 1.623z"/>
   <path class="fil4" d="M12.843 22.5c-0.253,-0.011 -0.482,-0.037 -0.681,-0.079l0 -0.588c0.083,0.017 0.169,0.03 0.256,0.041 0.08,0.146 0.169,0.287 0.268,0.422 0.05,0.069 0.102,0.137 0.157,0.204z"/>
   <path class="fil2" d="M11.694 21.068c-0.072,0.097 -0.18,0.456 -0.13,0.834 0.028,0.212 0.101,0.358 0.201,0.4 0.515,0.216 1.385,0.262 2.452,0.128 0.157,-0.02 0.298,-0.103 0.398,-0.233 0.106,-0.139 0.151,-0.314 0.126,-0.491 -0.046,-0.323 -0.314,-0.556 -0.623,-0.54 -0.737,0.036 -1.748,0.047 -2.424,-0.098zm1.403 1.838c-0.532,0 -1.069,-0.059 -1.487,-0.235 -0.502,-0.211 -0.537,-1.046 -0.368,-1.567 0.149,-0.463 0.398,-0.459 0.497,-0.436 0.492,0.113 1.33,0.148 2.359,0.098 0.517,-0.025 0.964,0.355 1.039,0.883 0.04,0.281 -0.034,0.569 -0.204,0.791 -0.165,0.216 -0.402,0.354 -0.666,0.387 -0.35,0.044 -0.759,0.079 -1.17,0.079z"/>
   <path class="fil0" d="M11.962 20.326l0 2.602c0,0.483 -0.381,0.878 -0.845,0.878l-4.614 0c-0.465,0 -0.845,-0.395 -0.845,-0.878l0 -2.602c0,-0.482 0.38,-0.877 0.845,-0.877l4.614 0c0.371,0 0.688,0.252 0.801,0.6 0.028,0.087 0.044,0.18 0.044,0.277z"/>
   <path class="fil3" d="M11.101 23.606l-2.521 0 0 -0.768c0.339,-0.019 0.686,-0.083 1.034,-0.208 0.187,-0.067 0.381,-0.174 0.567,-0.297 0.082,0.033 0.171,0.051 0.263,0.051 0.353,0 0.648,-0.261 0.715,-0.607 0,0 0,0.001 0,0.001 0.009,-0.049 0.014,-0.099 0.014,-0.15 0,-0.039 -0.003,-0.077 -0.008,-0.114 0.069,-0.069 0.109,-0.111 0.109,-0.111 0,0 0.033,0.981 0.173,0.981 0.001,0 0.002,0 0.003,0 0.156,-0.017 0.25,-0.34 0.311,-0.742l0 1.303c0,0.364 -0.296,0.661 -0.66,0.661zm-2.922 0l-1.66 0c-0.365,0 -0.661,-0.297 -0.661,-0.661l0 -0.782c0.561,0.298 1.395,0.639 2.321,0.678l0 0.765z"/>
   <path class="fil2" d="M6.519 19.649c-0.365,0 -0.661,0.297 -0.661,0.661l0 2.635c0,0.364 0.296,0.661 0.661,0.661l4.582 0c0.364,0 0.66,-0.297 0.66,-0.661l0 -2.635c0,-0.365 -0.296,-0.661 -0.66,-0.661l-4.582 0zm4.582 4.357l-4.582 0c-0.586,0 -1.062,-0.476 -1.062,-1.061l0 -2.635c0,-0.585 0.476,-1.061 1.062,-1.061l4.582 0c0.585,0 1.061,0.476 1.061,1.061l0 2.635c0,0.585 -0.476,1.061 -1.061,1.061z"/>
   <path class="fil6" d="M11.173 21.627c0,0.418 -0.326,0.757 -0.729,0.757 -0.402,0 -0.728,-0.339 -0.728,-0.757 0,-0.418 0.326,-0.756 0.728,-0.756 0.403,0 0.729,0.338 0.729,0.756z"/>
   <path class="fil0" d="M11.173 21.628c0,0.051 -0.005,0.101 -0.014,0.15 -0.068,-0.347 -0.362,-0.607 -0.715,-0.607 -0.353,0 -0.647,0.26 -0.714,0.607 -0.01,-0.049 -0.014,-0.099 -0.014,-0.15 0,-0.418 0.326,-0.757 0.728,-0.757 0.402,0 0.729,0.339 0.729,0.757z"/>
   <path class="fil7" d="M10.444 22.384c-0.352,0 -0.647,-0.26 -0.714,-0.606 0.014,-0.072 0.038,-0.141 0.07,-0.204 0.122,0.24 0.365,0.404 0.644,0.404 0.279,0 0.522,-0.164 0.645,-0.404 0.032,0.063 0.056,0.131 0.07,0.203 -0.067,0.346 -0.362,0.607 -0.715,0.607zm-0.727 -0.716c-0.001,-0.014 -0.001,-0.027 -0.001,-0.041 0,-0.07 0.009,-0.138 0.026,-0.202 0,0 0,0 0,0 -0.017,0.064 -0.026,0.132 -0.026,0.203 0,0.013 0,0.026 0.001,0.04z"/>
   <path class="fil4" d="M9.73 21.778c-0.007,-0.036 -0.012,-0.073 -0.013,-0.11 -0.001,-0.014 -0.001,-0.027 -0.001,-0.04 0,-0.071 0.009,-0.139 0.026,-0.203 0.014,0.052 0.034,0.102 0.058,0.149 -0.032,0.063 -0.056,0.132 -0.07,0.204zm1.429 -0.001c-0.014,-0.072 -0.038,-0.14 -0.07,-0.203 0.024,-0.047 0.043,-0.097 0.057,-0.149 0.017,0.064 0.027,0.132 0.027,0.202 0,0.052 -0.005,0.102 -0.014,0.15z"/>
   <path class="fil2" d="M10.444 21.021c-0.319,0 -0.578,0.272 -0.578,0.606 0,0.335 0.259,0.607 0.578,0.607 0.319,0 0.579,-0.272 0.579,-0.607 0,-0.334 -0.26,-0.606 -0.579,-0.606zm0 1.513c-0.484,0 -0.879,-0.407 -0.879,-0.907 0,-0.5 0.395,-0.906 0.879,-0.906 0.485,0 0.879,0.406 0.879,0.906 0,0.5 -0.394,0.907 -0.879,0.907z"/>
   <path class="fil2" d="M8.379 24.006c-0.11,0 -0.2,-0.09 -0.2,-0.2l0 -1.332c0,-0.267 -0.122,-0.521 -0.326,-0.681l-0.117 -0.091c-0.3,-0.235 -0.48,-0.607 -0.48,-0.996l0 -1.257c0,-0.111 0.09,-0.2 0.201,-0.2 0.11,0 0.2,0.089 0.2,0.2l0 1.257c0,0.266 0.122,0.521 0.326,0.68l0.117 0.092c0.3,0.235 0.48,0.607 0.48,0.996l0 1.332c0,0.11 -0.09,0.2 -0.201,0.2z"/>
   <path class="fil2" d="M6.29 27.797c-0.85,0 -1.791,-0.148 -2.653,-0.61 -0.07,-0.038 -0.096,-0.125 -0.058,-0.195 0.037,-0.07 0.125,-0.096 0.195,-0.059 2.22,1.191 5.117,0.142 5.146,0.131 0.074,-0.027 0.157,0.011 0.185,0.085 0.027,0.075 -0.01,0.158 -0.085,0.185 -0.078,0.029 -1.272,0.463 -2.73,0.463z"/>
   <path class="fil2" d="M11.647 27.797c-1.458,0 -2.651,-0.434 -2.729,-0.463 -0.075,-0.027 -0.113,-0.11 -0.085,-0.185 0.027,-0.074 0.11,-0.112 0.185,-0.085 0.029,0.011 2.926,1.061 5.146,-0.131 0.07,-0.037 0.157,-0.011 0.195,0.059 0.038,0.07 0.011,0.157 -0.059,0.195 -0.861,0.462 -1.802,0.61 -2.653,0.61z"/>
   <path class="fil0" d="M6.937 25.441c0,0 0.824,0.368 2.031,0.368 1.207,0 2.035,-0.368 2.035,-0.368 0,0 -0.547,-0.432 -2.035,-0.432 -1.488,0 -2.031,0.432 -2.031,0.432z"/>
   <path class="fil3" d="M8.968 25.809c-1.207,0 -2.031,-0.368 -2.031,-0.368 0,0 0.543,-0.432 2.031,-0.432 1.488,0 2.035,0.432 2.035,0.432 0,0 -0.828,0.368 -2.035,0.368z"/>
   <path class="fil2" d="M6.66 25.348c0.386,0.092 0.779,0.161 1.17,0.21 0.391,0.049 0.783,0.077 1.176,0.082 0.393,0.002 0.786,-0.023 1.178,-0.069 0.392,-0.05 0.786,-0.121 1.169,-0.223l0.003 -0.001c0.036,-0.009 0.073,0.012 0.082,0.048 0.008,0.03 -0.006,0.06 -0.031,0.075 -0.184,0.105 -0.374,0.183 -0.569,0.254 -0.097,0.036 -0.196,0.065 -0.296,0.094l-0.149 0.042 -0.151 0.035c-0.405,0.093 -0.82,0.138 -1.236,0.143 -0.416,0.002 -0.832,-0.039 -1.238,-0.129 -0.203,-0.044 -0.402,-0.105 -0.597,-0.175 -0.195,-0.072 -0.384,-0.152 -0.566,-0.264 -0.031,-0.019 -0.041,-0.061 -0.022,-0.092 0.016,-0.026 0.046,-0.037 0.073,-0.031l0.004 0.001z"/>
   <path class="fil0" d="M16.269 22.529c-0.528,0.689 -1.134,0.911 -1.716,0.829 -1.226,-0.175 -2.347,-1.708 -2.413,-3.088 -0.608,0.13 -1.574,0.118 -1.992,-0.336 -0.577,-0.625 -0.075,-1.478 -0.075,-1.478 0,0 -1.124,0.071 -1.124,-0.734 0,-0.443 1.702,-1.062 3.263,-0.946 0.366,0.026 1.014,0.164 1.504,0.486 -0.075,-0.669 -0.245,-1.315 -0.399,-1.858 0,0 -0.143,0.012 -0.373,0.025 -0.933,0.053 -3.291,0.125 -3.188,-0.524 0.129,-0.807 3.374,-1.713 3.374,-1.713 0.018,0.024 0.037,0.048 0.056,0.072 0.302,0.389 0.604,0.81 0.896,1.25 1.877,2.827 3.364,6.479 2.187,8.015z"/>
   <path class="fil2" d="M13.182 13.151c0.519,0.472 0.934,1.033 1.315,1.613 0.383,0.58 0.712,1.193 1.026,1.812 0.155,0.311 0.304,0.625 0.446,0.943 0.138,0.319 0.27,0.642 0.388,0.971 0.117,0.329 0.223,0.663 0.311,1.003 0.085,0.341 0.153,0.689 0.19,1.043 0.037,0.354 0.043,0.717 -0.015,1.081 -0.057,0.361 -0.184,0.729 -0.418,1.037 -0.222,0.289 -0.5,0.552 -0.843,0.727 -0.341,0.175 -0.751,0.234 -1.128,0.161 -0.188,-0.035 -0.371,-0.093 -0.538,-0.175l-0.064 -0.03 -0.061 -0.034c-0.041,-0.023 -0.082,-0.045 -0.122,-0.068 -0.076,-0.052 -0.156,-0.1 -0.227,-0.157 -0.295,-0.221 -0.545,-0.49 -0.756,-0.782 -0.214,-0.292 -0.383,-0.614 -0.514,-0.951 -0.131,-0.338 -0.21,-0.698 -0.232,-1.066l0.242 0.186c-0.322,0.067 -0.644,0.088 -0.97,0.069 -0.162,-0.011 -0.326,-0.034 -0.489,-0.074 -0.163,-0.04 -0.327,-0.1 -0.481,-0.195 -0.077,-0.048 -0.151,-0.104 -0.218,-0.172 -0.018,-0.016 -0.033,-0.033 -0.046,-0.051l-0.043 -0.053 -0.042 -0.054c-0.014,-0.018 -0.024,-0.038 -0.037,-0.058 -0.022,-0.04 -0.049,-0.077 -0.066,-0.12l-0.053 -0.127 -0.036 -0.133c-0.011,-0.044 -0.014,-0.089 -0.022,-0.134 -0.019,-0.179 -0.002,-0.356 0.036,-0.524 0.019,-0.083 0.045,-0.165 0.074,-0.245 0.016,-0.039 0.032,-0.079 0.05,-0.118 0.018,-0.04 0.035,-0.075 0.061,-0.121l0.185 0.301c-0.047,0.003 -0.081,0.002 -0.121,0.002 -0.038,-0.001 -0.076,-0.003 -0.114,-0.006 -0.076,-0.005 -0.152,-0.015 -0.229,-0.029 -0.152,-0.029 -0.307,-0.076 -0.455,-0.164 -0.074,-0.044 -0.145,-0.099 -0.207,-0.167 -0.062,-0.067 -0.113,-0.148 -0.148,-0.234 -0.035,-0.086 -0.052,-0.176 -0.059,-0.263l-0.003 -0.064 -0.001 -0.008 0.001 -0.014 0.003 -0.026c0.002,-0.018 0.004,-0.037 0.008,-0.053 0.009,-0.03 0.019,-0.064 0.032,-0.088 0.014,-0.024 0.027,-0.052 0.042,-0.071 0.059,-0.085 0.124,-0.141 0.189,-0.192 0.065,-0.05 0.13,-0.091 0.196,-0.13 0.132,-0.075 0.267,-0.135 0.402,-0.189 0.271,-0.108 0.548,-0.185 0.827,-0.247 0.559,-0.121 1.132,-0.175 1.708,-0.142 0.296,0.016 0.583,0.075 0.862,0.158 0.28,0.086 0.556,0.194 0.815,0.356l-0.328 0.201c-0.02,-0.153 -0.043,-0.305 -0.068,-0.458l-0.075 -0.46c-0.025,-0.154 -0.05,-0.309 -0.069,-0.466 -0.019,-0.158 -0.037,-0.316 -0.04,-0.48 -0.001,-0.038 0.029,-0.069 0.067,-0.07 0.026,-0.001 0.049,0.013 0.061,0.034 0.083,0.141 0.15,0.288 0.21,0.438 0.062,0.149 0.113,0.302 0.157,0.458 0.043,0.155 0.08,0.313 0.11,0.473 0.031,0.159 0.053,0.321 0.069,0.483l0.001 0.008c0.011,0.115 -0.074,0.218 -0.19,0.229 -0.051,0.005 -0.099,-0.009 -0.138,-0.036 -0.207,-0.141 -0.447,-0.25 -0.698,-0.327 -0.251,-0.075 -0.511,-0.128 -0.77,-0.141 -0.532,-0.031 -1.074,0.019 -1.598,0.133 -0.262,0.058 -0.521,0.131 -0.766,0.228 -0.122,0.048 -0.241,0.103 -0.35,0.165 -0.053,0.031 -0.106,0.064 -0.15,0.099 -0.045,0.034 -0.085,0.072 -0.104,0.101 -0.007,0.008 -0.006,0.013 -0.011,0.019 -0.004,0.006 -0.001,0.006 -0.004,0.009l0.001 -0.001 -0.001 -0.001 0 -0.001 0 0.005 0.002 0.039c0.004,0.051 0.014,0.099 0.031,0.142 0.035,0.084 0.098,0.153 0.189,0.208 0.181,0.108 0.455,0.148 0.689,0.141 0.112,-0.004 0.206,0.084 0.21,0.197 0.001,0.037 -0.009,0.073 -0.025,0.104 -0.011,0.021 -0.029,0.054 -0.042,0.084 -0.014,0.03 -0.026,0.062 -0.039,0.094 -0.023,0.064 -0.044,0.129 -0.059,0.194 -0.03,0.131 -0.041,0.264 -0.028,0.389 0.006,0.031 0.008,0.063 0.015,0.093l0.024 0.089 0.036 0.085c0.011,0.029 0.03,0.053 0.045,0.08 0.008,0.013 0.014,0.027 0.024,0.04l0.029 0.036 0.029 0.037 0.015 0.018 0.016 0.015c0.041,0.042 0.089,0.079 0.142,0.112 0.107,0.067 0.234,0.115 0.368,0.148 0.135,0.033 0.275,0.053 0.418,0.063 0.286,0.017 0.581,-0.003 0.86,-0.061 0.108,-0.023 0.215,0.047 0.238,0.156 0.002,0.009 0.003,0.019 0.004,0.028l0 0.002c0.036,0.639 0.29,1.273 0.67,1.801 0.191,0.264 0.415,0.505 0.672,0.697 0.062,0.05 0.131,0.09 0.197,0.135l0.103 0.058 0.051 0.029 0.054 0.025c0.14,0.07 0.289,0.115 0.438,0.144 0.3,0.056 0.607,0.011 0.878,-0.126 0.271,-0.139 0.508,-0.357 0.704,-0.613 0.183,-0.241 0.291,-0.541 0.341,-0.857 0.05,-0.316 0.046,-0.647 0.012,-0.976 -0.034,-0.33 -0.099,-0.659 -0.18,-0.985 -0.084,-0.326 -0.187,-0.648 -0.3,-0.967 -0.23,-0.637 -0.505,-1.26 -0.819,-1.865 -0.156,-0.302 -0.321,-0.6 -0.495,-0.893 -0.171,-0.295 -0.35,-0.584 -0.528,-0.875 -0.176,-0.292 -0.364,-0.575 -0.541,-0.868 -0.179,-0.291 -0.358,-0.583 -0.52,-0.891l0 -0.001c-0.018,-0.033 -0.005,-0.074 0.028,-0.091 0.026,-0.014 0.056,-0.009 0.077,0.01z"/>
   <path class="fil2" d="M15.188 19.129c-0.096,-0.17 -0.207,-0.339 -0.321,-0.501 -0.115,-0.162 -0.238,-0.318 -0.367,-0.466 -0.131,-0.146 -0.27,-0.285 -0.416,-0.41 -0.148,-0.123 -0.303,-0.23 -0.466,-0.315l-0.004 -0.003c-0.098,-0.051 -0.136,-0.172 -0.085,-0.27 0.052,-0.098 0.173,-0.136 0.271,-0.085 0.005,0.003 0.01,0.005 0.014,0.008 0.188,0.119 0.355,0.258 0.508,0.407 0.149,0.152 0.285,0.313 0.411,0.479 0.124,0.168 0.238,0.341 0.344,0.519 0.105,0.178 0.203,0.357 0.291,0.548 0.023,0.051 0.001,0.11 -0.049,0.133 -0.048,0.022 -0.104,0.004 -0.129,-0.041l-0.002 -0.003z"/>
   <path class="fil0" d="M7.825 18.456c0,0 0.501,0.853 -0.075,1.478 -0.419,0.454 -1.385,0.466 -1.992,0.336 -0.065,1.365 -1.164,2.881 -2.375,3.082 -0.594,0.098 -1.215,-0.118 -1.754,-0.823 -1.184,-1.544 0.325,-5.225 2.215,-8.058 0.302,-0.452 0.613,-0.882 0.924,-1.279l0.001 0 2.597 1.457 -2.499 0.677 -0.286 0.078c-0.155,0.543 -0.325,1.189 -0.4,1.858 0.49,-0.322 1.138,-0.46 1.504,-0.486 1.562,-0.116 3.264,0.503 3.264,0.946 0,0.805 -1.124,0.734 -1.124,0.734z"/>
   <path class="fil3" d="M3.117 23.172c-0.215,0 -0.428,-0.051 -0.622,-0.149 -0.271,-0.139 -0.509,-0.357 -0.705,-0.613 -0.183,-0.241 -0.291,-0.541 -0.341,-0.857 -0.02,-0.125 -0.031,-0.252 -0.035,-0.381 0.058,0.133 0.129,0.255 0.215,0.367 0.458,0.599 0.976,0.845 1.485,0.845 0.09,0 0.179,-0.008 0.269,-0.023 1.211,-0.201 1.876,-1.625 1.941,-2.991 0.377,0.081 0.885,0.24 1.315,0.24 0.262,0 0.496,-0.059 0.655,-0.231 0.576,-0.625 -0.327,-1.413 -0.327,-1.413 0,0 0.602,0.113 1.188,0.113 0.159,0 0.317,-0.009 0.461,-0.03 -0.026,0.024 -0.056,0.047 -0.09,0.067 -0.167,0.1 -0.413,0.141 -0.634,0.141 -0.019,0 -0.037,0 -0.054,0 -0.002,0 -0.004,0 -0.006,0 -0.033,0 -0.068,0.007 -0.099,0.025 -0.098,0.053 -0.135,0.177 -0.081,0.276 0.012,0.021 0.029,0.054 0.042,0.084 0.014,0.03 0.027,0.062 0.039,0.094 0.024,0.064 0.044,0.129 0.059,0.194 0.03,0.131 0.042,0.264 0.028,0.389 -0.006,0.031 -0.007,0.063 -0.015,0.093l-0.024 0.089 -0.035 0.085c-0.011,0.029 -0.031,0.053 -0.045,0.08 -0.009,0.013 -0.015,0.027 -0.024,0.04l-0.03 0.036 -0.029 0.037 -0.015 0.018 -0.016 0.015c-0.041,0.042 -0.089,0.079 -0.142,0.112 -0.106,0.067 -0.234,0.115 -0.368,0.148 -0.134,0.033 -0.275,0.053 -0.418,0.063 -0.066,0.004 -0.132,0.006 -0.199,0.006 -0.222,0 -0.446,-0.022 -0.66,-0.067 -0.01,-0.002 -0.02,-0.004 -0.03,-0.004 -0.004,0 -0.008,0 -0.012,0 -0.105,0 -0.194,0.082 -0.2,0.189l0 0.001c-0.037,0.639 -0.291,1.273 -0.671,1.801 -0.191,0.264 -0.415,0.505 -0.672,0.697 -0.062,0.05 -0.131,0.09 -0.197,0.135l-0.103 0.058 -0.051 0.029 -0.054 0.025c-0.14,0.07 -0.289,0.115 -0.438,0.144 -0.085,0.016 -0.17,0.023 -0.255,0.023z"/>
   <path class="fil3" d="M14.78 23.172c-0.085,0 -0.17,-0.007 -0.255,-0.023 -0.149,-0.029 -0.298,-0.074 -0.438,-0.144l-0.054 -0.025 -0.051 -0.029 -0.103 -0.058c-0.066,-0.045 -0.135,-0.085 -0.197,-0.135 -0.257,-0.192 -0.481,-0.433 -0.672,-0.697 -0.38,-0.528 -0.634,-1.162 -0.67,-1.801l0 -0.002c-0.001,-0.009 -0.002,-0.019 -0.004,-0.028 -0.02,-0.095 -0.104,-0.16 -0.197,-0.16 -0.014,0 -0.027,0.001 -0.041,0.004 -0.215,0.045 -0.439,0.067 -0.661,0.067 -0.067,0 -0.133,-0.002 -0.199,-0.006 -0.142,-0.01 -0.283,-0.03 -0.418,-0.063 -0.134,-0.033 -0.261,-0.081 -0.368,-0.148 -0.053,-0.033 -0.101,-0.07 -0.142,-0.112l-0.016 -0.015 -0.015 -0.018 -0.029 -0.037 -0.029 -0.036c-0.01,-0.013 -0.016,-0.027 -0.024,-0.04 -0.015,-0.027 -0.034,-0.051 -0.045,-0.08l-0.036 -0.085 -0.024 -0.089c-0.007,-0.03 -0.009,-0.062 -0.015,-0.093 -0.013,-0.125 -0.002,-0.258 0.028,-0.389 0.015,-0.065 0.036,-0.13 0.059,-0.194 0.013,-0.032 0.025,-0.064 0.039,-0.094 0.013,-0.03 0.031,-0.063 0.042,-0.084 0.016,-0.031 0.026,-0.067 0.025,-0.104 -0.004,-0.111 -0.094,-0.197 -0.204,-0.197 -0.002,0 -0.004,0 -0.006,0 -0.018,0 -0.036,0 -0.054,0 -0.221,0 -0.468,-0.041 -0.635,-0.141 -0.032,-0.019 -0.06,-0.04 -0.085,-0.063 0.136,0.018 0.284,0.026 0.433,0.026 0.585,0 1.188,-0.113 1.188,-0.113 0,0 -0.903,0.788 -0.327,1.413 0.159,0.172 0.392,0.231 0.655,0.231 0.43,0 0.937,-0.159 1.315,-0.24 0.065,1.366 0.73,2.79 1.941,2.991 0.089,0.015 0.179,0.023 0.269,0.023 0.509,0 1.026,-0.246 1.485,-0.845 0.098,-0.128 0.178,-0.271 0.24,-0.426 -0.002,0.149 -0.014,0.296 -0.037,0.44 -0.05,0.316 -0.158,0.616 -0.341,0.857 -0.196,0.256 -0.433,0.474 -0.704,0.613 -0.195,0.098 -0.408,0.149 -0.623,0.149z"/>
   <path class="fil2" d="M14.76 23.374c-0.09,0 -0.18,-0.007 -0.269,-0.022 -1.211,-0.201 -2.31,-1.717 -2.375,-3.082 -0.205,0.044 -0.451,0.071 -0.704,0.071 -0.494,0 -1.011,-0.106 -1.288,-0.407 -0.577,-0.625 -0.075,-1.478 -0.075,-1.478 0,0 -0.025,0.002 -0.067,0.002 -0.182,0 -0.687,-0.029 -0.927,-0.333 0.012,-0.022 0.022,-0.044 0.032,-0.067 0.005,-0.013 0.009,-0.026 0.014,-0.039 0.058,0.014 0.12,0.025 0.185,0.034 0.025,0.023 0.053,0.044 0.085,0.063 0.167,0.1 0.414,0.141 0.635,0.141 0.018,0 0.036,0 0.054,0 0.002,0 0.004,0 0.006,0 0.11,0 0.2,0.086 0.204,0.197 0.001,0.037 -0.009,0.073 -0.025,0.104 -0.011,0.021 -0.029,0.054 -0.042,0.084 -0.014,0.03 -0.026,0.062 -0.039,0.094 -0.023,0.064 -0.044,0.129 -0.059,0.194 -0.03,0.131 -0.041,0.264 -0.028,0.389 0.006,0.031 0.008,0.063 0.015,0.093l0.024 0.089 0.036 0.085c0.011,0.029 0.03,0.053 0.045,0.08 0.008,0.013 0.014,0.027 0.024,0.04l0.029 0.036 0.029 0.037 0.015 0.018 0.016 0.015c0.041,0.042 0.089,0.079 0.142,0.112 0.107,0.067 0.234,0.115 0.368,0.148 0.135,0.033 0.275,0.053 0.418,0.063 0.066,0.004 0.132,0.006 0.199,0.006 0.222,0 0.446,-0.022 0.661,-0.067 0.014,-0.003 0.027,-0.004 0.041,-0.004 0.093,0 0.177,0.065 0.197,0.16 0.002,0.009 0.003,0.019 0.004,0.028l0 0.002c0.036,0.639 0.29,1.273 0.67,1.801 0.191,0.264 0.415,0.505 0.672,0.697 0.062,0.05 0.131,0.09 0.197,0.135l0.103 0.058 0.051 0.029 0.054 0.025c0.14,0.07 0.289,0.115 0.438,0.144 0.085,0.016 0.17,0.023 0.255,0.023 0.215,0 0.428,-0.051 0.623,-0.149 0.271,-0.139 0.508,-0.357 0.704,-0.613 0.183,-0.241 0.291,-0.541 0.341,-0.857 0.023,-0.144 0.035,-0.291 0.037,-0.44 0.072,-0.179 0.121,-0.376 0.149,-0.587 0.09,0.818 -0.016,1.517 -0.389,2.003 -0.459,0.599 -0.976,0.845 -1.485,0.845z"/>
   <path class="fil2" d="M4.82 13.233c-0.162,0.308 -0.341,0.6 -0.52,0.891 -0.177,0.293 -0.365,0.576 -0.541,0.868 -0.178,0.291 -0.357,0.58 -0.528,0.875 -0.174,0.293 -0.339,0.591 -0.495,0.893 -0.314,0.605 -0.588,1.228 -0.819,1.865 -0.113,0.319 -0.215,0.641 -0.299,0.967 -0.082,0.326 -0.146,0.655 -0.181,0.985 -0.034,0.329 -0.038,0.66 0.012,0.976 0.05,0.316 0.158,0.616 0.341,0.857 0.196,0.256 0.434,0.474 0.705,0.613 0.271,0.137 0.578,0.182 0.877,0.126 0.149,-0.029 0.298,-0.074 0.438,-0.144l0.054 -0.025 0.051 -0.029 0.103 -0.058c0.066,-0.045 0.135,-0.085 0.197,-0.135 0.257,-0.192 0.481,-0.433 0.672,-0.697 0.38,-0.528 0.634,-1.162 0.671,-1.801l0 -0.001c0.006,-0.111 0.101,-0.195 0.212,-0.189 0.01,0 0.02,0.002 0.03,0.004 0.278,0.058 0.573,0.078 0.859,0.061 0.143,-0.01 0.284,-0.03 0.418,-0.063 0.134,-0.033 0.262,-0.081 0.368,-0.148 0.053,-0.033 0.101,-0.07 0.142,-0.112l0.016 -0.015 0.015 -0.018 0.029 -0.037 0.03 -0.036c0.009,-0.013 0.015,-0.027 0.024,-0.04 0.014,-0.027 0.034,-0.051 0.045,-0.08l0.035 -0.085 0.024 -0.089c0.008,-0.03 0.009,-0.062 0.015,-0.093 0.014,-0.125 0.002,-0.258 -0.028,-0.389 -0.015,-0.065 -0.035,-0.13 -0.059,-0.194 -0.012,-0.032 -0.025,-0.064 -0.039,-0.094 -0.013,-0.03 -0.03,-0.063 -0.042,-0.084 -0.054,-0.099 -0.017,-0.223 0.081,-0.276 0.033,-0.018 0.07,-0.026 0.105,-0.025 0.233,0.007 0.507,-0.033 0.688,-0.141 0.091,-0.055 0.155,-0.124 0.189,-0.208 0.018,-0.043 0.027,-0.091 0.031,-0.142l0.002 -0.039 0 -0.005 0 0.001 -0.001 0.001 0.001 0.001c-0.003,-0.003 0,-0.003 -0.004,-0.009 -0.005,-0.006 -0.004,-0.011 -0.011,-0.019 -0.019,-0.029 -0.059,-0.067 -0.104,-0.101 -0.044,-0.035 -0.097,-0.068 -0.15,-0.099 -0.109,-0.062 -0.228,-0.117 -0.35,-0.165 -0.245,-0.097 -0.504,-0.17 -0.766,-0.228 -0.524,-0.114 -1.066,-0.164 -1.598,-0.133 -0.258,0.013 -0.518,0.066 -0.77,0.141 -0.251,0.077 -0.491,0.186 -0.697,0.327 -0.096,0.066 -0.227,0.041 -0.293,-0.054 -0.029,-0.043 -0.04,-0.092 -0.035,-0.139l0 -0.008c0.016,-0.163 0.039,-0.324 0.069,-0.483 0.03,-0.16 0.068,-0.318 0.111,-0.473 0.044,-0.156 0.095,-0.309 0.156,-0.458 0.06,-0.15 0.127,-0.297 0.21,-0.438 0.02,-0.033 0.062,-0.044 0.095,-0.025 0.022,0.013 0.034,0.037 0.034,0.061 -0.004,0.164 -0.021,0.322 -0.041,0.48 -0.019,0.157 -0.044,0.312 -0.069,0.466l-0.075 0.46c-0.025,0.153 -0.048,0.305 -0.068,0.458l-0.328 -0.201c0.259,-0.162 0.536,-0.27 0.815,-0.356 0.279,-0.083 0.566,-0.142 0.862,-0.158 0.576,-0.033 1.149,0.021 1.708,0.142 0.279,0.062 0.556,0.14 0.827,0.247 0.136,0.054 0.27,0.114 0.402,0.189 0.066,0.039 0.132,0.08 0.196,0.13 0.065,0.051 0.13,0.107 0.189,0.192 0.015,0.019 0.029,0.047 0.042,0.071 0.013,0.024 0.023,0.058 0.032,0.088 0.004,0.016 0.006,0.035 0.008,0.053l0.003 0.026 0.001 0.014 -0.001 0.008 -0.002 0.064c-0.007,0.087 -0.025,0.177 -0.059,0.263 -0.036,0.086 -0.087,0.167 -0.149,0.234 -0.062,0.068 -0.133,0.123 -0.207,0.167 -0.148,0.088 -0.303,0.135 -0.455,0.164 -0.077,0.014 -0.153,0.024 -0.229,0.029 -0.038,0.003 -0.076,0.005 -0.114,0.006 -0.04,0 -0.074,0.001 -0.121,-0.002l0.185 -0.301c0.026,0.046 0.043,0.081 0.061,0.121 0.019,0.039 0.034,0.079 0.05,0.118 0.029,0.08 0.055,0.162 0.074,0.245 0.039,0.168 0.055,0.345 0.036,0.524 -0.007,0.045 -0.011,0.09 -0.022,0.134l-0.036 0.133 -0.052 0.127c-0.018,0.043 -0.045,0.08 -0.067,0.12 -0.012,0.02 -0.023,0.04 -0.036,0.058l-0.043 0.054 -0.042 0.053c-0.014,0.018 -0.029,0.035 -0.047,0.051 -0.067,0.068 -0.141,0.124 -0.217,0.172 -0.155,0.095 -0.318,0.155 -0.481,0.195 -0.164,0.04 -0.327,0.063 -0.49,0.074 -0.326,0.019 -0.648,-0.002 -0.969,-0.069l0.242 -0.186c-0.022,0.368 -0.102,0.728 -0.233,1.066 -0.13,0.337 -0.3,0.659 -0.513,0.951 -0.212,0.292 -0.461,0.561 -0.756,0.782 -0.072,0.057 -0.151,0.105 -0.228,0.157 -0.04,0.023 -0.081,0.045 -0.122,0.068l-0.061 0.034 -0.063 0.03c-0.168,0.082 -0.351,0.14 -0.539,0.175 -0.377,0.073 -0.786,0.014 -1.128,-0.161 -0.342,-0.175 -0.621,-0.438 -0.842,-0.727 -0.235,-0.308 -0.362,-0.676 -0.419,-1.037 -0.058,-0.364 -0.051,-0.727 -0.015,-1.081 0.037,-0.354 0.105,-0.702 0.191,-1.043 0.087,-0.34 0.193,-0.674 0.31,-1.003 0.118,-0.329 0.25,-0.651 0.389,-0.971 0.142,-0.318 0.29,-0.632 0.445,-0.943 0.314,-0.619 0.644,-1.232 1.026,-1.812 0.381,-0.58 0.797,-1.141 1.315,-1.613 0.028,-0.025 0.071,-0.023 0.096,0.004 0.019,0.022 0.023,0.053 0.01,0.077l-0.001 0.001z"/>
   <path class="fil2" d="M2.53 19.04c0.088,-0.191 0.185,-0.37 0.291,-0.548 0.105,-0.178 0.219,-0.351 0.343,-0.519 0.126,-0.166 0.262,-0.327 0.411,-0.479 0.153,-0.149 0.32,-0.288 0.508,-0.407 0.094,-0.059 0.218,-0.031 0.277,0.063 0.059,0.093 0.031,0.217 -0.063,0.276 -0.004,0.003 -0.009,0.006 -0.013,0.008l-0.005 0.003c-0.162,0.085 -0.318,0.192 -0.466,0.315 -0.146,0.125 -0.284,0.264 -0.415,0.41 -0.13,0.148 -0.252,0.304 -0.368,0.466 -0.114,0.162 -0.225,0.331 -0.321,0.501l-0.001 0.003c-0.028,0.048 -0.089,0.065 -0.137,0.037 -0.045,-0.025 -0.063,-0.082 -0.041,-0.129z"/>
   <path class="fil0" d="M16.309 9.901c-0.084,0.005 -0.155,-0.062 -0.159,-0.148l-0.23 -4.516c-0.004,-0.087 0.06,-0.161 0.143,-0.166 0.876,-0.052 1.622,0.643 1.668,1.551l0.079 1.54c0.046,0.909 -0.626,1.687 -1.501,1.739z"/>
   <path class="fil2" d="M16.155 5.104c-0.03,0 -0.06,0.001 -0.089,0.003 -0.064,0.004 -0.113,0.061 -0.11,0.128l0.23 4.516c0.001,0.033 0.016,0.064 0.04,0.085 0.022,0.02 0.051,0.031 0.081,0.029 0.854,-0.051 1.512,-0.813 1.467,-1.701l-0.078 -1.54c-0.023,-0.441 -0.212,-0.843 -0.534,-1.131 -0.282,-0.252 -0.637,-0.389 -1.007,-0.389zm0.145 4.833c-0.045,0 -0.088,-0.017 -0.122,-0.047 -0.039,-0.035 -0.062,-0.083 -0.064,-0.135l-0.229 -4.517c-0.006,-0.106 0.073,-0.197 0.176,-0.203 0.422,-0.025 0.83,0.119 1.149,0.405 0.336,0.301 0.534,0.72 0.557,1.181l0.079 1.54c0.047,0.926 -0.642,1.723 -1.535,1.776 -0.004,0 -0.008,0 -0.011,0z"/>
   <path class="fil4" d="M16.43 9.686c0.081,-0.356 0.138,-0.721 0.17,-1.094 0.42,-0.1 0.774,-0.371 0.994,-0.736l0.016 0.317c0.038,0.75 -0.482,1.402 -1.18,1.513z"/>
   <path class="fil2" d="M16.122 5.269l0.225 4.428c0.74,-0.072 1.302,-0.744 1.263,-1.524l-0.078 -1.54c-0.021,-0.398 -0.191,-0.759 -0.479,-1.017 -0.26,-0.233 -0.589,-0.355 -0.931,-0.347zm0.178 4.832c-0.086,0 -0.167,-0.031 -0.232,-0.089 -0.071,-0.064 -0.113,-0.152 -0.118,-0.249l-0.23 -4.516c-0.01,-0.196 0.139,-0.365 0.332,-0.376 0.465,-0.027 0.916,0.131 1.268,0.446 0.369,0.331 0.586,0.791 0.611,1.295l0.079 1.54c0.051,1.017 -0.706,1.891 -1.69,1.948 -0.007,0.001 -0.013,0.001 -0.02,0.001z"/>
   <path class="fil0" d="M1.703 5.917c0.084,-0.005 0.155,0.061 0.159,0.148l0.23 4.516c0.004,0.086 -0.06,0.16 -0.143,0.165 -0.875,0.052 -1.622,-0.643 -1.668,-1.551l-0.079 -1.54c-0.046,-0.909 0.626,-1.687 1.501,-1.738z"/>
   <path class="fil2" d="M1.706 5.953c-0.855,0.05 -1.513,0.813 -1.468,1.7l0.078 1.54c0.023,0.441 0.212,0.843 0.534,1.131 0.304,0.273 0.694,0.41 1.097,0.386 0.063,-0.003 0.112,-0.061 0.109,-0.127l-0.23 -4.517c-0.001,-0.033 -0.015,-0.063 -0.04,-0.085 -0.022,-0.02 -0.051,-0.03 -0.08,-0.028zm0.151 4.832c-0.388,0 -0.76,-0.143 -1.055,-0.408 -0.336,-0.301 -0.534,-0.72 -0.557,-1.18l-0.078 -1.54c-0.048,-0.927 0.641,-1.724 1.534,-1.776 0.049,-0.003 0.096,0.013 0.133,0.047 0.039,0.034 0.062,0.082 0.064,0.135l0.23 4.516c0.005,0.106 -0.074,0.197 -0.177,0.203 -0.032,0.002 -0.063,0.003 -0.094,0.003z"/>
   <path class="fil4" d="M1.804 10.548c-0.311,-0.013 -0.606,-0.133 -0.845,-0.346 -0.288,-0.259 -0.458,-0.62 -0.478,-1.017l-0.016 -0.311c0.262,0.31 0.635,0.514 1.05,0.55 0.07,0.383 0.166,0.759 0.289,1.124z"/>
   <path class="fil2" d="M1.715 6.116l0 0 0 0 0 0zm-0.05 0.004c-0.74,0.072 -1.302,0.745 -1.263,1.525l0.079 1.54c0.02,0.397 0.19,0.758 0.478,1.017 0.26,0.232 0.588,0.354 0.931,0.346l-0.225 -4.428zm0.192 4.829c-0.429,0 -0.839,-0.157 -1.165,-0.449 -0.368,-0.331 -0.586,-0.791 -0.611,-1.295l-0.079 -1.54c-0.051,-1.016 0.707,-1.89 1.69,-1.948 0.093,-0.006 0.182,0.026 0.252,0.088 0.071,0.064 0.113,0.153 0.118,0.249l0.23 4.517c0.01,0.195 -0.139,0.364 -0.332,0.375 -0.034,0.002 -0.069,0.003 -0.103,0.003z"/>
   <path class="fil3" d="M8.978 16.618c-0.035,0 -0.071,-0.001 -0.107,-0.001 -1.483,-0.023 -2.858,-0.495 -4.004,-1.291l0 0 0.898 -0.243c0.961,0.464 2.014,0.717 3.103,0.733 0.037,0.001 0.074,0.001 0.111,0.001 0.799,0 1.571,-0.129 2.297,-0.367 0.189,0.008 0.383,0.012 0.571,0.012 0.423,0 0.822,-0.017 1.097,-0.033l0 0c-1.15,0.753 -2.511,1.189 -3.966,1.189z"/>
   <path class="fil3" d="M11.847 15.462c-0.188,0 -0.382,-0.003 -0.571,-0.012 0.858,-0.282 1.653,-0.717 2.352,-1.275 0.099,0.163 0.202,0.323 0.303,0.483 -0.11,0.102 -0.222,0.2 -0.338,0.294 -0.208,0.171 -0.424,0.33 -0.649,0.477l0 0c-0.275,0.016 -0.674,0.033 -1.097,0.033z"/>
   <path class="fil1" d="M13.931 14.658c-0.101,-0.16 -0.204,-0.32 -0.303,-0.483 0.049,-0.038 0.096,-0.077 0.144,-0.116 0.104,0.149 0.207,0.301 0.31,0.455 -0.05,0.049 -0.1,0.097 -0.151,0.144z"/>
   <path class="fil3" d="M4.867 15.326c-0.178,-0.124 -0.352,-0.256 -0.519,-0.396 -0.122,-0.101 -0.24,-0.206 -0.355,-0.315 0.1,-0.157 0.2,-0.314 0.296,-0.474 0.459,0.374 0.954,0.689 1.476,0.942l-0.898 0.243z"/>
   <path class="fil2" d="M3.993 14.615c-0.05,-0.047 -0.099,-0.096 -0.149,-0.144 0.101,-0.152 0.203,-0.3 0.306,-0.446 0.046,0.039 0.092,0.078 0.139,0.116 -0.096,0.16 -0.196,0.317 -0.296,0.474z"/>
   <path class="fil0" d="M16.43 8.019c-0.075,4.257 -3.46,7.658 -7.559,7.597 -4.1,-0.061 -7.362,-3.561 -7.287,-7.818 0.075,-4.257 3.46,-7.658 7.559,-7.597 4.099,0.061 7.362,3.561 7.287,7.818z"/>
   <path class="fil2" d="M9.035 0.236c-4.025,0 -7.341,3.37 -7.415,7.563 -0.037,2.104 0.732,4.079 2.167,5.56 1.358,1.404 3.164,2.193 5.084,2.221 0.036,0.001 0.072,0.001 0.108,0.001 4.025,0 7.341,-3.37 7.415,-7.563 0.037,-2.104 -0.732,-4.079 -2.167,-5.56 -1.358,-1.404 -3.164,-2.192 -5.085,-2.221 -0.035,-0.001 -0.071,-0.001 -0.107,-0.001zm-0.056 15.417c-0.036,0 -0.072,0 -0.109,-0.001 -1.939,-0.029 -3.763,-0.825 -5.135,-2.243 -1.448,-1.495 -2.224,-3.488 -2.187,-5.611 0.076,-4.27 3.481,-7.694 7.596,-7.633 1.939,0.029 3.763,0.825 5.135,2.243 1.448,1.495 2.224,3.488 2.187,5.612l-0.036 -0.001 0.036 0.001c-0.075,4.231 -3.423,7.633 -7.487,7.633z"/>
   <path class="fil4" d="M8.979 15.417l0 0c-0.035,0 -0.07,-0.001 -0.105,-0.001 -1.877,-0.028 -3.641,-0.799 -4.969,-2.171 -0.061,-0.062 -0.12,-0.125 -0.177,-0.189 0.571,0.411 1.366,0.838 2.291,1.156 0.862,0.296 1.836,0.496 2.846,0.496 0.027,0 0.053,0 0.079,0 1.041,-0.011 2.014,-0.193 2.87,-0.462 0.801,-0.252 1.5,-0.581 2.054,-0.919 0.105,-0.064 0.206,-0.128 0.3,-0.192 -1.321,1.408 -3.163,2.282 -5.189,2.282z"/>
   <path class="fil1" d="M9.035 0.4c-3.936,0 -7.178,3.298 -7.251,7.402 -0.036,2.06 0.717,3.993 2.121,5.443 1.328,1.372 3.092,2.143 4.969,2.171 0.035,0 0.07,0.001 0.105,0.001 3.936,0 7.178,-3.298 7.251,-7.402 0.036,-2.06 -0.717,-3.993 -2.121,-5.443 -1.328,-1.372 -3.092,-2.143 -4.969,-2.171 -0.035,0 -0.07,-0.001 -0.105,-0.001zm-0.056 15.417c-0.037,0 -0.074,0 -0.111,-0.001 -1.984,-0.029 -3.849,-0.843 -5.251,-2.292 -1.478,-1.527 -2.271,-3.562 -2.233,-5.729 0.076,-4.322 3.498,-7.795 7.651,-7.795 0.037,0 0.074,0 0.111,0.001 1.984,0.029 3.848,0.844 5.251,2.292 1.478,1.527 2.271,3.562 2.233,5.729 -0.077,4.322 -3.498,7.795 -7.651,7.795z"/>
   <path class="fil8" d="M16.402 8.217c-0.004,1.508 -0.48,2.909 -1.29,4.068 -0.608,0.869 -3.098,2.391 -6.167,2.423 -2.846,0.028 -5.431,-1.545 -6.033,-2.413 -0.802,-1.158 -1.27,-2.558 -1.265,-4.066 0.012,-3.992 3.32,-5.65 7.395,-5.653 4.075,-0.003 7.373,1.649 7.36,5.641z"/>
   <path class="fil9" d="M13.892 9.088c-0.041,0 -0.083,-0.004 -0.124,-0.012 -0.517,-0.097 -0.83,-0.776 -0.698,-1.518 0.121,-0.682 0.576,-1.178 1.05,-1.178 0.042,0 0.083,0.004 0.125,0.011 0.407,0.077 0.687,0.514 0.724,1.059 -0.064,0.37 -0.15,0.732 -0.258,1.086 -0.205,0.339 -0.508,0.552 -0.819,0.552z"/>
   <path class="fil9" d="M12.782 11.055c-0.047,0 -0.095,-0.007 -0.141,-0.023 -0.271,-0.093 -0.405,-0.434 -0.3,-0.763 0.087,-0.272 0.312,-0.45 0.54,-0.45 0.048,0 0.095,0.007 0.141,0.023 0.271,0.093 0.406,0.434 0.301,0.763 -0.087,0.272 -0.312,0.45 -0.541,0.45z"/>
   <path class="fil10" d="M15.843 5.675c0,0 0,0 0,0 0,0 0,0 0,0zm-0.001 -0.002c-0.227,-0.444 -0.517,-0.836 -0.863,-1.179 0,0 0,0 0,0 0.345,0.343 0.636,0.735 0.863,1.179z"/>
   <path class="fil11" d="M8.865 14.708c-1.01,0 -1.984,-0.2 -2.846,-0.496 0.863,0.296 1.838,0.496 2.848,0.496 0.026,0 0.052,0 0.078,0 1.04,-0.011 2.013,-0.193 2.869,-0.462 -0.856,0.269 -1.829,0.451 -2.87,0.462 -0.026,0 -0.053,0 -0.079,0zm5.003 -1.381c0.106,-0.064 0.206,-0.128 0.3,-0.192 0,0 0,0 0,0 -0.094,0.064 -0.195,0.128 -0.3,0.192z"/>
   <path class="fil12" d="M14.168 13.135c0,0 0,0 0,0 0.447,-0.303 0.771,-0.603 0.944,-0.85 0.122,-0.175 0.237,-0.356 0.344,-0.542 -0.107,0.186 -0.222,0.367 -0.344,0.542 -0.173,0.247 -0.497,0.547 -0.944,0.85z"/>
   <path class="fil1" d="M8.867 14.708c-1.01,0 -1.985,-0.2 -2.848,-0.496 -0.039,-0.014 -0.078,-0.027 -0.117,-0.041 3.773,-0.122 6.806,-1.991 7.559,-3.069 0.544,-0.778 0.97,-1.642 1.25,-2.566 0.108,-0.179 0.19,-0.392 0.232,-0.627 0.028,-0.157 0.035,-0.312 0.026,-0.459 0.084,-0.492 0.129,-0.997 0.13,-1.511 0.002,-0.511 -0.04,-0.993 -0.12,-1.445 0.346,0.343 0.636,0.735 0.863,1.179 0,0.001 0.001,0.001 0.001,0.002 0,0 0,0 0,0 0.363,0.711 0.562,1.555 0.559,2.541 -0.004,1.281 -0.347,2.483 -0.946,3.527 -0.107,0.186 -0.222,0.367 -0.344,0.542 -0.173,0.247 -0.497,0.547 -0.944,0.85 -0.094,0.064 -0.194,0.128 -0.3,0.192 -0.554,0.338 -1.253,0.667 -2.054,0.919 -0.856,0.269 -1.829,0.451 -2.869,0.462 -0.026,0 -0.052,0 -0.078,0z"/>
   <path class="fil13" d="M14.711 8.536c0.108,-0.354 0.194,-0.716 0.258,-1.086 0.009,0.147 0.002,0.302 -0.026,0.459 -0.042,0.235 -0.124,0.448 -0.232,0.627z"/>
   <path class="fil2" d="M2.213 5.081c-0.043,0 -0.087,-0.014 -0.123,-0.042 -0.084,-0.067 -0.101,-0.187 -0.04,-0.273 1.31,-1.99 3.844,-3.132 6.953,-3.135 0.003,0 0.007,0 0.01,0 3.083,0 5.605,1.1 6.924,3.02 0.058,0.075 0.057,0.183 -0.009,0.256 -0.073,0.083 -0.2,0.09 -0.282,0.017l-0.019 -0.016 -0.014 -0.022c-1.242,-1.814 -3.647,-2.854 -6.6,-2.854 -0.003,0 -0.006,0 -0.01,0 -2.974,0.002 -5.387,1.081 -6.622,2.959l-0.01 0.014c-0.039,0.05 -0.098,0.076 -0.158,0.076z"/>
   <path class="fil9" d="M3.296 10.659c0,0 -1.178,-3.936 0.871,-5.507 1.511,-1.159 3.508,-1.461 4.423,-1.461 0.326,0 0.515,0.038 0.497,0.09 0,0 -3.258,0.821 -4.54,3.494 -0.989,2.061 -1.251,3.384 -1.251,3.384z"/>
   <path class="fil2" d="M16.304 19.097c-0.049,0 -0.097,-0.025 -0.124,-0.07 -0.352,-0.586 -1.357,-0.628 -1.367,-0.628 -0.08,-0.003 -0.142,-0.07 -0.139,-0.149 0.002,-0.08 0.067,-0.143 0.148,-0.139 0.048,0.001 1.172,0.047 1.605,0.768 0.041,0.068 0.019,0.156 -0.049,0.197 -0.023,0.014 -0.049,0.021 -0.074,0.021z"/>
   <path class="fil2" d="M1.576 19.097c-0.025,0 -0.051,-0.007 -0.074,-0.021 -0.068,-0.041 -0.09,-0.129 -0.049,-0.197 0.433,-0.721 1.557,-0.767 1.604,-0.768 0.079,-0.003 0.146,0.059 0.149,0.139 0.003,0.079 -0.06,0.146 -0.139,0.149 -0.016,0 -1.016,0.044 -1.367,0.628 -0.027,0.045 -0.075,0.07 -0.124,0.07z"/>
  </g>
 </g>
</svg>
