<svg width="23" height="35" viewBox="0 0 23 35" fill="none" xmlns="http://www.w3.org/2000/svg">
<path d="M7.6571 19C8.48553 19 9.1571 18.3284 9.1571 17.5C9.1571 16.6716 8.48553 16 7.6571 16V19ZM5.9393 16.4393C5.35351 17.0251 5.35351 17.9749 5.9393 18.5607L15.4852 28.1066C16.071 28.6924 17.0208 28.6924 17.6066 28.1066C18.1923 27.5208 18.1923 26.5711 17.6066 25.9853L9.12128 17.5L17.6066 9.01472C18.1923 8.42893 18.1923 7.47919 17.6066 6.8934C17.0208 6.30761 16.071 6.30761 15.4852 6.8934L5.9393 16.4393ZM7.6571 16H6.99996V19H7.6571V16Z" fill="white"/>
</svg>
