<svg width="18" height="18" viewBox="0 0 18 18" fill="none" xmlns="http://www.w3.org/2000/svg">
<path d="M17.6695 2.48309L15.5163 0.329766C15.3071 0.118512 15.0188 0 14.72 0H8.96854C7.72579 0 6.71858 1.00758 6.71858 2.25L6.71927 11.25C6.75022 12.4945 7.75918 13.5 9.00018 13.5H15.75C16.9875 13.5 18 12.4875 18 11.25V3.27832C18 2.9802 17.8805 2.69402 17.6695 2.48309ZM16.3125 11.25C16.3125 11.5606 16.0607 11.8125 15.75 11.8125H8.96854C8.65783 11.8125 8.40605 11.5606 8.40605 11.25V2.25457C8.40605 1.94393 8.6579 1.69207 8.96854 1.69207H13.4684L13.5001 3.375C13.5001 3.99621 14.0039 4.5 14.6251 4.5H16.2809V11.25H16.3125ZM9.56266 15.75C9.56266 16.0606 9.31081 16.3125 9.00018 16.3125H2.21867C1.90796 16.3125 1.65618 16.0606 1.65618 15.75L1.68712 6.75352C1.68712 6.44288 1.93897 6.19102 2.2496 6.19102H5.62524V4.5H2.24996C1.00721 4.5 0 5.50723 0 6.75L0.000344525 15.75C0.000421867 16.991 1.00791 18 2.25031 18H9.00018C10.2377 18 11.2501 16.9875 11.2501 15.75V14.625H9.59431L9.56266 15.75Z" fill="white"/>
</svg>
