<svg width="8" height="18" viewBox="0 0 8 18" fill="none" xmlns="http://www.w3.org/2000/svg">
<path d="M6.19999 1.8C6.19999 2.79375 5.39374 3.6 4.39999 3.6C3.40624 3.6 2.59999 2.79375 2.59999 1.8C2.59999 0.80625 3.40624 0 4.39999 0C5.39374 0 6.19999 0.80625 6.19999 1.8ZM0.799988 7.2C0.799988 6.53625 1.33624 6 1.99999 6H4.39999C5.06374 6 5.59999 6.53625 5.59999 7.2V15.6H6.79999C7.46374 15.6 7.99999 16.1363 7.99999 16.8C7.99999 17.4638 7.46374 18 6.79999 18H1.99999C1.33624 18 0.799988 17.4638 0.799988 16.8C0.799988 16.1363 1.33624 15.6 1.99999 15.6H3.19999V8.4H1.99999C1.33624 8.4 0.799988 7.86375 0.799988 7.2Z" fill="white"/>
</svg>
