<svg width="36" height="36" viewBox="0 0 36 36" fill="none" xmlns="http://www.w3.org/2000/svg">
<path d="M18 36C27.9411 36 36 27.9411 36 18C36 8.05888 27.9411 0 18 0C8.05888 0 0 8.05888 0 18C0 27.9411 8.05888 36 18 36Z" fill="#FEFEFE"/>
<path fill-rule="evenodd" clip-rule="evenodd" d="M10.4938 28.9216C10.7993 29.0618 11.0949 29.2061 11.3918 29.3546C11.6882 29.5036 11.9827 29.656 12.2739 29.8163C12.565 29.9761 12.8546 30.1403 13.1383 30.318C13.4217 30.4958 13.7021 30.6804 13.9695 30.8957C14.0559 30.9652 14.0694 31.0913 13.9999 31.1777C13.9328 31.2611 13.8131 31.2768 13.7272 31.2153L13.7245 31.2136C13.4692 31.0301 13.1904 30.8673 12.9078 30.7116C12.6252 30.5557 12.334 30.4113 12.0412 30.2708C11.7481 30.1304 11.4512 29.9965 11.1526 29.8668C10.8545 29.7376 10.5515 29.6104 10.2526 29.4926L10.2506 29.4917C10.0911 29.4288 10.013 29.2489 10.0757 29.0896C10.1386 28.9304 10.3185 28.8523 10.4778 28.9149C10.4827 28.9169 10.4888 28.9193 10.4935 28.9218L10.4938 28.9216Z" fill="#1A2645"/>
<path fill-rule="evenodd" clip-rule="evenodd" d="M31.68 18.0401C30.7168 36.3188 5.29062 35.8875 4.31833 18.2868C4.86036 -0.447285 31.1424 0.0235448 31.68 18.0401Z" fill="white"/>
<path fill-rule="evenodd" clip-rule="evenodd" d="M31.68 18.0401C30.7168 36.3188 5.29062 35.8875 4.31833 18.2868C4.86036 -0.447285 31.1424 0.0235448 31.68 18.0401Z" fill="white"/>
<path fill-rule="evenodd" clip-rule="evenodd" d="M31.68 18.0401C30.7168 36.3188 5.29062 35.8875 4.31833 18.2868C4.86036 -0.447285 31.1424 0.0235448 31.68 18.0401Z" fill="white"/>
<path fill-rule="evenodd" clip-rule="evenodd" d="M4.56866 18.2835C5.07013 27.2762 11.906 31.3682 18.0544 31.3682C18.0602 31.3682 18.066 31.3682 18.072 31.3682C24.3692 31.3602 30.9407 27.2351 31.4297 18.0376C31.1499 8.82633 24.2428 4.6322 17.9396 4.6322C17.9374 4.6322 17.9354 4.6322 17.9332 4.6322C11.6891 4.63523 4.8452 8.9083 4.56894 18.2835H4.56866ZM18.053 31.8686C14.5571 31.8686 11.2472 30.657 8.73024 28.4557C5.91133 25.9904 4.2993 22.4787 4.0683 18.3006L4.06775 18.2901L4.06802 18.2796C4.19525 13.8821 5.74574 10.2065 8.55223 7.64981C11.0408 5.38287 14.3722 4.13322 17.9327 4.13184H17.9396C21.5053 4.13184 24.8626 5.37515 27.3948 7.63381C30.2344 10.1665 31.8028 13.7623 31.9303 18.0329L31.9306 18.0431L31.9301 18.0536C31.7038 22.3496 30.1124 25.9368 27.3288 28.4276C24.8541 30.6418 21.5668 31.8639 18.0726 31.8683C18.0665 31.8683 18.0596 31.8683 18.0533 31.8683L18.053 31.8686Z" fill="#1A2645"/>
<path fill-rule="evenodd" clip-rule="evenodd" d="M18.0541 31.2672C16.2594 31.2672 14.4059 30.9159 12.6707 30.1928C12.9542 29.9038 13.1879 29.5528 13.3524 29.149C15.2965 30.2427 17.5134 30.8209 19.7757 30.8209C20.1187 30.8209 20.4635 30.8074 20.8079 30.7806C21.4335 30.7318 22.0484 30.6382 22.6479 30.5019C21.1686 31.0147 19.6118 31.265 18.0712 31.2669C18.0654 31.2669 18.0596 31.2669 18.0538 31.2669L18.0541 31.2672ZM19.8229 30.1169C17.6912 30.1166 15.4943 29.5583 13.558 28.4348C13.6047 28.1759 13.6254 27.9018 13.6174 27.614C14.7909 28.3732 16.0402 28.8562 17.3109 29.0969C18.1482 29.2807 19.0002 29.3726 19.853 29.3726C21.1981 29.3726 22.5455 29.1435 23.8398 28.6837C26.0701 27.8913 28.0519 26.4502 29.6847 24.452C29.5489 24.7137 29.4062 24.967 29.2569 25.2129C27.1478 28.3881 23.7731 29.8453 20.7535 30.0805C20.4452 30.1045 20.135 30.1166 19.8229 30.1166V30.1169Z" fill="#B9AFBE"/>
<path fill-rule="evenodd" clip-rule="evenodd" d="M4.66939 18.2821C5.16975 27.2061 11.9532 31.2672 18.0541 31.2672C18.0599 31.2672 18.0657 31.2672 18.0715 31.2672C24.3201 31.2594 30.8405 27.1644 31.3284 18.0362C31.0483 8.89558 24.1942 4.73262 17.939 4.73262C17.9368 4.73262 17.9349 4.73262 17.9327 4.73262C11.7368 4.73538 4.94565 8.97727 4.66939 18.2821ZM18.053 31.969C14.5328 31.969 11.1992 30.7486 8.66372 28.5313C5.82384 26.0478 4.19994 22.5118 3.96756 18.3058L3.96674 18.2912L3.96729 18.2763C4.09534 13.8509 5.65742 10.1505 8.48405 7.57499C10.9914 5.29094 14.3465 4.03217 17.9324 4.03052C17.9346 4.03052 17.9371 4.03052 17.9393 4.03052C21.5299 4.03052 24.9109 5.28294 27.4616 7.55815C30.3224 10.1099 31.9025 13.7308 32.0305 18.0298L32.0311 18.0442L32.0302 18.0585C31.8023 22.3818 30.1999 25.9934 27.3956 28.5029C24.9024 30.7337 21.5914 31.9646 18.0723 31.969C18.0657 31.969 18.0593 31.969 18.0527 31.969H18.053Z" fill="#293856"/>
<path fill-rule="evenodd" clip-rule="evenodd" d="M4.66939 18.2821C5.16975 27.2061 11.9532 31.2672 18.0541 31.2672C18.0599 31.2672 18.0657 31.2672 18.0715 31.2672C24.3201 31.2594 30.8405 27.1644 31.3284 18.0362C31.0483 8.89558 24.1942 4.73262 17.939 4.73262C17.9368 4.73262 17.9349 4.73262 17.9327 4.73262C11.7368 4.73538 4.94565 8.97727 4.66939 18.2821ZM18.053 31.969C14.5328 31.969 11.1992 30.7486 8.66372 28.5313C5.82384 26.0478 4.19994 22.5118 3.96756 18.3058L3.96674 18.2912L3.96729 18.2763C4.09534 13.8509 5.65742 10.1505 8.48405 7.57499C10.9914 5.29094 14.3465 4.03217 17.9324 4.03052C17.9346 4.03052 17.9371 4.03052 17.9393 4.03052C21.5299 4.03052 24.9109 5.28294 27.4616 7.55815C30.3224 10.1099 31.9025 13.7308 32.0305 18.0298L32.0311 18.0442L32.0302 18.0585C31.8023 22.3818 30.1999 25.9934 27.3956 28.5029C24.9024 30.7337 21.5914 31.9646 18.0723 31.969C18.0657 31.969 18.0593 31.969 18.0527 31.969H18.053Z" fill="#1A2645"/>
<path fill-rule="evenodd" clip-rule="evenodd" d="M31.2208 21.5161C23.5625 35.6445 5.17333 27.8516 9.3476 14.4147C14.9377 -0.351595 34.7145 5.5462 31.2208 21.5161Z" fill="#1A2645"/>
<path fill-rule="evenodd" clip-rule="evenodd" d="M29.4906 11.4525C37.0228 23.8718 19.8403 35.6064 11.0905 25.3826C20.822 28.6566 29.7732 19.4823 29.4906 11.4525Z" fill="#101729"/>
<path fill-rule="evenodd" clip-rule="evenodd" d="M31.68 18.0403H31.6811H31.68ZM19.6885 4.82642C16.2116 5.14435 12.8918 7.02657 10.576 9.99423C8.26215 12.9591 7.24598 16.6261 7.78829 20.0553C9.10612 27.1944 15.3089 30.5038 20.7538 30.0809C25.4916 29.712 31.104 26.3347 31.3292 18.032C31.4435 12.1292 26.7948 5.42254 19.6888 4.82642H19.6885ZM19.776 30.8211C17.0672 30.8211 14.4232 29.9924 12.2352 28.4419C9.51595 26.5144 7.73889 23.6555 7.09639 20.1739C6.52235 16.5447 7.58958 12.6801 10.0227 9.56231C12.4643 6.43375 15.9754 4.45163 19.6562 4.12459L19.686 4.12183L19.7158 4.12431C27.2325 4.73617 32.1525 11.8174 32.0311 18.0472V18.0499C31.9295 21.8133 30.6994 25.007 28.4744 27.2852C26.4987 29.3082 23.7764 30.5496 20.8084 30.7808C20.464 30.8076 20.1193 30.8211 19.7762 30.8211H19.776Z" fill="#1A2645"/>
<path fill-rule="evenodd" clip-rule="evenodd" d="M31.2208 21.5161H31.2219H31.2208ZM9.67961 14.529C7.63346 21.1306 11.1302 25.9457 15.5051 27.7898C20.323 29.8208 26.9427 28.6274 30.8885 21.3925C32.6247 13.3542 28.2509 8.15875 23.4427 6.7308C18.6074 5.29486 12.4778 7.14947 9.67961 14.5288V14.529ZM19.8532 29.3729C18.2809 29.3729 16.7114 29.0599 15.2324 28.4367C12.6989 27.3684 10.661 25.474 9.49442 23.1025C8.20612 20.4831 8.03943 17.4426 9.01227 14.3104L9.01945 14.2906C10.3411 10.7988 12.5421 8.19904 15.3842 6.77193C17.9393 5.48915 20.8722 5.23552 23.6425 6.05795C26.4774 6.89943 28.8512 8.77723 30.3263 11.3453C31.9748 14.2144 32.4028 17.7578 31.5641 21.5912L31.5536 21.6398L31.5296 21.6837C29.6548 25.1423 26.9957 27.563 23.8401 28.6843C22.546 29.1441 21.1984 29.3731 19.8532 29.3731V29.3729Z" fill="#1A2645"/>
<path fill-rule="evenodd" clip-rule="evenodd" d="M6.14703 28.3895C10.1897 33.4204 15.5719 29.7923 12.1969 24.6002C8.15344 19.1716 2.39916 23.0494 6.14703 28.3895Z" fill="white"/>
<path fill-rule="evenodd" clip-rule="evenodd" d="M11.5646 30.1492C12.1817 29.2061 12.2195 27.6794 11.0344 25.8557L11.0225 25.8385C11.0101 25.8217 10.9977 25.8049 10.9853 25.788C11.5141 25.7516 11.9029 25.509 12.0012 24.9463C13.454 27.2902 12.9906 29.1487 11.864 29.9645C11.7699 30.0324 11.67 30.0942 11.5649 30.1489L11.5646 30.1492Z" fill="#B9AFBE"/>
<path fill-rule="evenodd" clip-rule="evenodd" d="M6.4277 28.1784C8.42776 30.6617 10.647 30.8455 11.8638 29.9648C13.0138 29.1322 13.4725 27.2133 11.9085 24.8012C9.99618 22.24 7.6608 21.8652 6.34049 22.8201C5.16838 23.668 4.69673 25.7058 6.42743 28.1787L6.4277 28.1784ZM10.2954 31.1474C8.94165 31.1474 7.33707 30.431 5.87325 28.6095L5.85973 28.5913C3.84807 25.7246 4.4856 23.2954 5.92955 22.2513C7.52999 21.0941 10.2934 21.4573 12.4784 24.3908L12.4911 24.409C14.3134 27.2124 13.6958 29.505 12.2753 30.5336C11.7421 30.9195 11.0582 31.1477 10.2951 31.1477L10.2954 31.1474Z" fill="#1A2645"/>
<path fill-rule="evenodd" clip-rule="evenodd" d="M6.11059 28.8233C9.39095 32.8968 13.4692 30.2471 10.74 26.0471C7.44719 21.5834 3.01819 24.468 6.11059 28.8233Z" fill="white"/>
<path fill-rule="evenodd" clip-rule="evenodd" d="M6.39072 28.6114C8.00247 30.6079 9.69398 30.824 10.5843 30.1787C11.4026 29.5856 11.678 28.1406 10.4513 26.2471C8.90467 24.1559 7.10552 23.7781 6.12633 24.4868C5.27988 25.0992 5.00252 26.6508 6.39045 28.6114H6.39072ZM9.51653 31.2015C8.42032 31.2015 7.0851 30.5924 5.83765 29.0436L5.82468 29.0265C4.15304 26.6721 4.59599 24.728 5.71511 23.918C6.97581 23.0056 9.20356 23.3724 11.0226 25.8386L11.0344 25.8557C12.5187 28.14 12.0848 29.9579 10.9964 30.747C10.6003 31.034 10.0911 31.2015 9.51653 31.2015Z" fill="#1A2645"/>
<path fill-rule="evenodd" clip-rule="evenodd" d="M13.4228 22.29C12.9373 22.29 12.3925 22.0783 11.8638 21.5694C10.5619 20.1398 11.5351 18.4281 12.8992 18.4281C13.4369 18.4281 14.0355 18.6942 14.5794 19.3477C15.6144 20.7447 14.7345 22.29 13.4225 22.2897L13.4228 22.29Z" fill="#C3BAC7"/>
<path fill-rule="evenodd" clip-rule="evenodd" d="M15.8824 24.5434C15.6986 24.5434 15.4979 24.4738 15.3078 24.311C14.7075 23.6917 15.1226 23.0004 15.7033 23.0004C15.8871 23.0004 16.0877 23.0696 16.2779 23.2327C16.8781 23.8521 16.463 24.5434 15.8824 24.5434Z" fill="#C3BAC7"/>
<path fill-rule="evenodd" clip-rule="evenodd" d="M28.7824 13.0616C25.9194 11.1084 22.8965 9.51242 19.4081 9.51242C17.6133 9.51242 15.695 9.93495 13.6127 10.9495C14.5284 9.07746 17.7941 7.01807 21.1804 7.01807C24.1023 7.01807 27.1138 8.55171 28.7824 13.0619V13.0616Z" fill="#C3BAC7"/>
<path fill-rule="evenodd" clip-rule="evenodd" d="M9.51237 30.5033C8.61956 30.5033 7.48664 29.969 6.39071 28.6114C6.15419 28.2775 5.96624 27.9554 5.82108 27.6477C6.49199 28.0989 7.29621 28.3371 8.04137 28.3371C9.30649 28.3371 10.3999 27.6491 10.3762 26.1466C10.4013 26.1794 10.4264 26.2131 10.4515 26.2468C11.6783 28.1403 11.4029 29.5854 10.5846 30.1785C10.2998 30.3849 9.9327 30.503 9.51265 30.503L9.51237 30.5033Z" fill="#B9AFBE"/>
<path fill-rule="evenodd" clip-rule="evenodd" d="M9.54275 30.7309C8.08886 30.7306 6.30627 29.6363 5.39856 27.3183C5.53131 27.4381 5.67289 27.5482 5.82109 27.6476C5.96626 27.955 6.15421 28.2774 6.39072 28.6113C7.48694 29.9689 8.61958 30.5032 9.51239 30.5032C9.93271 30.5032 10.2995 30.3851 10.5843 30.1786C11.4026 29.5855 11.678 28.1405 10.4513 26.247C10.4262 26.2133 10.4011 26.1796 10.3759 26.1468C10.3713 25.8548 10.3246 25.5319 10.2286 25.1772C10.7971 25.6497 11.2674 26.2536 11.5505 26.9325C12.344 29.4073 11.1421 30.7312 9.54275 30.7309Z" fill="#1A2645"/>
<path fill-rule="evenodd" clip-rule="evenodd" d="M9.46464 21.5436C9.39674 21.5436 9.32305 21.5387 9.24357 21.5279C9.05121 21.502 8.91681 21.3253 8.9422 21.133C8.96841 20.9409 9.14505 20.8065 9.33713 20.8319C9.53639 20.8589 9.59545 20.8222 9.59628 20.8219C9.63602 20.7458 9.54633 20.3911 9.37715 20.0942C9.28138 19.9258 9.33989 19.7114 9.50769 19.6153C9.67576 19.5193 9.88993 19.5772 9.98625 19.745C10.1135 19.9669 10.5032 20.7287 10.1739 21.2188C10.0696 21.3742 9.86426 21.5434 9.46464 21.5434V21.5436Z" fill="#1A2645"/>
</svg>
