<?xml version="1.0" encoding="UTF-8"?><svg id="Camada_1" xmlns="http://www.w3.org/2000/svg" viewBox="0 0 255.85 308.29"><path d="M127.83,84.47c0,2.12,0,3.47,0,4.81,0,13.23-.03,26.45,.02,39.68,.01,3.67-1.57,6.23-4.82,7.72-3.34,1.53-6.39,.76-8.92-1.75-20.14-20.1-40.27-40.2-60.34-60.37-3.49-3.51-3.51-8.13,0-11.66C73.84,42.73,93.98,22.63,114.12,2.54c2.52-2.52,5.58-3.28,8.92-1.75,3.26,1.49,4.83,4.06,4.82,7.72-.05,13.23-.02,26.45-.02,39.68,0,1.35,0,2.7,0,4.23,5.35,.45,10.43,.72,15.48,1.33,31.34,3.79,57.66,17.53,78.97,40.68,18.72,20.34,29.46,44.5,32.7,71.91,7.8,65.93-38.15,127.91-103.5,139.79-66.7,12.12-130.01-27.82-147.22-93.42C1.55,202.34,.8,191.36,.04,180.61c-.58-8.17,6.15-15.2,13.85-15.98,8.43-.86,15.93,4.08,17.66,12.19,.87,4.1,.73,8.42,1.06,12.64,3.11,40.31,34.12,75.75,73.89,84.43,53.69,11.71,104.89-21.89,115.53-75.83,10.06-50.96-25.02-102.37-76.13-111.42-5.82-1.03-11.76-1.42-18.05-2.16Z" style="fill:#f6f6f6;"/></svg>