<svg width="374" height="394" fill="none" xmlns="http://www.w3.org/2000/svg"><path fill-rule="evenodd" clip-rule="evenodd" d="M31.015 6.799c0-.65-1.326-1.216-3.309-1.527a2.341 2.341 0 01-1.946-1.95c-.31-1.987-.875-3.316-1.522-3.316-.648 0-1.212 1.33-1.523 3.316a2.341 2.341 0 01-1.947 1.95c-1.983.311-3.314.878-3.314 1.527 0 .652 1.33 1.218 3.312 1.528a2.342 2.342 0 011.949 1.952c.31 1.989.875 3.318 1.523 3.318.647 0 1.211-1.33 1.522-3.318a2.342 2.342 0 011.95-1.952c1.98-.31 3.306-.876 3.306-1.528zM328.428 110.74c-.156-.706-1.737-1.003-3.974-.864a2.608 2.608 0 01-2.589-1.655c-.817-2.09-1.753-3.404-2.458-3.248-.706.157-1.001 1.743-.863 3.983a2.618 2.618 0 01-1.652 2.597c-2.086.818-3.401 1.756-3.245 2.464.157.712 1.743 1.007 3.977.866a2.612 2.612 0 012.594 1.656c.817 2.093 1.752 3.405 2.457 3.248.706-.155 1.001-1.742.862-3.985a2.616 2.616 0 011.654-2.596c2.085-.816 3.394-1.754 3.236-2.466h.001zM374 350.876c0-.853-1.746-1.597-4.352-2.007a3.077 3.077 0 01-2.559-2.565c-.409-2.611-1.152-4.36-2.002-4.36-.851 0-1.594 1.748-2.002 4.36a3.08 3.08 0 01-2.56 2.565c-2.607.41-4.357 1.154-4.357 2.007 0 .858 1.748 1.603 4.355 2.01a3.08 3.08 0 012.562 2.566c.408 2.614 1.151 4.363 2.002 4.363.85 0 1.593-1.748 2.002-4.363a3.078 3.078 0 012.562-2.566c2.604-.406 4.348-1.151 4.349-2.009v-.001zM327.478 46.797a2.328 2.328 0 00-3.283.334c-.815 1-.666 2.475.333 3.29a2.33 2.33 0 003.283-.333 2.343 2.343 0 00-.333-3.29zM252.7 57.605a2.961 2.961 0 00-4.057-1.06 2.975 2.975 0 00-1.058 4.066 2.961 2.961 0 004.057 1.06 2.976 2.976 0 001.058-4.065zM83.126 389.929a3.536 3.536 0 00-3.115-3.908 3.532 3.532 0 00-3.9 3.123 3.535 3.535 0 003.115 3.908 3.53 3.53 0 003.9-3.122v-.001zM107.981 325.761a1.82 1.82 0 00-1.603-2.01 1.82 1.82 0 00-.403 3.616 1.815 1.815 0 002.006-1.605v-.001zM5.845 152.605a2.931 2.931 0 10-5.828.608 2.93 2.93 0 105.828-.608z" fill="#fff"/></svg>