<svg width="367" height="414" fill="none" xmlns="http://www.w3.org/2000/svg"><path fill-rule="evenodd" clip-rule="evenodd" d="M317.236 236.568a2.503 2.503 0 00-2.501-2.505c-1.38 0-2.5 1.122-2.5 2.505a2.503 2.503 0 002.5 2.505c1.382 0 2.5-1.122 2.501-2.505zM22.454 304.214a3.536 3.536 0 00-3.116-3.909 3.532 3.532 0 00-3.9 3.123 3.536 3.536 0 003.116 3.909 3.532 3.532 0 003.9-3.123zM327.799 411.494a2.503 2.503 0 00-2.5-2.505 2.503 2.503 0 00-2.499 2.505 2.503 2.503 0 002.499 2.506c1.381 0 2.5-1.122 2.5-2.505v-.001zM6.142 44.583a2.81 2.81 0 00-2.808-2.815 2.81 2.81 0 00-2.808 2.815 2.811 2.811 0 002.808 2.814 2.81 2.81 0 002.808-2.814zM366.589 269.437a1.287 1.287 0 10-2.571-.001 1.286 1.286 0 102.571 0v.001zM257.221.343a1.524 1.524 0 00-2.145.218 1.532 1.532 0 00.218 2.15 1.522 1.522 0 002.145-.218 1.53 1.53 0 00-.218-2.15zM44.75 262.684a1.815 1.815 0 10-3.626-.183 1.817 1.817 0 001.721 1.908 1.817 1.817 0 001.904-1.725zM29.746 140.944a1.446 1.446 0 00-1.447-1.445 1.446 1.446 0 00-1.441 1.451 1.445 1.445 0 102.888-.005v-.001z" fill="#fff"/></svg>