<svg width="374" height="414" viewBox="0 0 374 414" fill="none" xmlns="http://www.w3.org/2000/svg">
<path fill-rule="evenodd" clip-rule="evenodd" d="M31.0153 19.799C31.0153 19.1496 29.6885 18.5832 27.7061 18.2722C26.7055 18.1144 25.9172 17.3256 25.7604 16.3221C25.4494 14.3353 24.8849 13.0055 24.2376 13.0055C23.5903 13.0055 23.0258 14.3353 22.7148 16.3221C22.558 17.3256 21.7691 18.1151 20.7685 18.2722C18.7848 18.5832 17.4542 19.1496 17.4542 19.799C17.4542 20.4509 18.7836 21.0173 20.7659 21.3271C21.7679 21.4836 22.558 22.2736 22.7148 23.2791C23.0258 25.2677 23.5903 26.5969 24.2376 26.5969C24.8849 26.5969 25.4494 25.2671 25.7604 23.2791C25.9172 22.2743 26.7067 21.4836 27.7093 21.3271C29.6904 21.0173 31.016 20.4509 31.016 19.799H31.0153Z" fill="white"/>
<path fill-rule="evenodd" clip-rule="evenodd" d="M328.428 123.74C328.272 123.034 326.691 122.737 324.454 122.876C323.325 122.947 322.277 122.276 321.865 121.221C321.048 119.131 320.112 117.817 319.407 117.973C318.701 118.13 318.406 119.716 318.544 121.956C318.615 123.087 317.945 124.14 316.892 124.553C314.806 125.371 313.491 126.309 313.647 127.017C313.804 127.729 315.39 128.024 317.624 127.883C318.754 127.811 319.804 128.482 320.218 129.539C321.035 131.632 321.97 132.944 322.675 132.787C323.381 132.632 323.676 131.045 323.537 128.802C323.466 127.67 324.137 126.619 325.191 126.206C327.276 125.39 328.585 124.452 328.427 123.74H328.428Z" fill="white"/>
<path fill-rule="evenodd" clip-rule="evenodd" d="M374 363.876C374 363.023 372.254 362.279 369.648 361.869C368.332 361.663 367.295 360.624 367.089 359.304C366.68 356.693 365.937 354.944 365.087 354.944C364.236 354.944 363.493 356.692 363.085 359.304C362.878 360.624 361.841 361.663 360.525 361.869C357.918 362.279 356.168 363.023 356.168 363.876C356.168 364.734 357.916 365.479 360.523 365.886C361.84 366.092 362.878 367.131 363.085 368.452C363.493 371.066 364.236 372.815 365.087 372.815C365.937 372.815 366.68 371.067 367.089 368.452C367.295 367.131 368.333 366.092 369.651 365.886C372.255 365.48 373.999 364.735 374 363.877V363.876Z" fill="white"/>
<path fill-rule="evenodd" clip-rule="evenodd" d="M317.236 236.568C317.236 235.185 316.117 234.063 314.735 234.063C313.355 234.063 312.235 235.185 312.235 236.568C312.235 237.952 313.355 239.073 314.735 239.073C316.117 239.073 317.235 237.951 317.236 236.568Z" fill="white"/>
<path fill-rule="evenodd" clip-rule="evenodd" d="M327.478 59.7971C326.48 58.9792 325.009 59.13 324.195 60.131C323.38 61.1319 323.529 62.6056 324.528 63.4216C325.526 64.2376 326.997 64.0887 327.811 63.0877C328.625 62.0867 328.477 60.6131 327.478 59.7971H327.478Z" fill="white"/>
<path fill-rule="evenodd" clip-rule="evenodd" d="M252.7 70.6052C251.872 69.1898 250.055 68.7147 248.643 69.5446C247.231 70.3746 246.756 72.196 247.585 73.6113C248.413 75.0267 250.23 75.5018 251.642 74.6719C253.054 73.842 253.528 72.0205 252.7 70.6058L252.7 70.6052Z" fill="white"/>
<path fill-rule="evenodd" clip-rule="evenodd" d="M22.4537 304.214C22.6699 302.272 21.2754 300.522 19.338 300.305C17.4005 300.089 15.6552 301.486 15.4383 303.428C15.2215 305.37 16.6166 307.119 18.5541 307.337C20.4916 307.554 22.2375 306.155 22.4537 304.214Z" fill="white"/>
<path fill-rule="evenodd" clip-rule="evenodd" d="M327.799 411.494C327.799 410.11 326.679 408.989 325.299 408.989C323.92 408.989 322.8 410.111 322.8 411.494C322.8 412.879 323.92 414 325.299 414C326.68 414 327.799 412.878 327.799 411.495V411.494Z" fill="white"/>
<path fill-rule="evenodd" clip-rule="evenodd" d="M83.1264 402.929C83.342 400.988 81.9475 399.238 80.0107 399.021C78.0725 398.804 76.3272 400.202 76.1104 402.144C75.8936 404.086 77.2893 405.835 79.2262 406.052C81.1643 406.27 82.9096 404.871 83.1264 402.93V402.929Z" fill="white"/>
<path fill-rule="evenodd" clip-rule="evenodd" d="M6.14156 44.5825C6.14156 43.0272 4.88425 41.7683 3.33363 41.7683C1.78301 41.7683 0.525696 43.0272 0.525696 44.5825C0.525696 46.1366 1.78301 47.3967 3.33363 47.3967C4.88488 47.3967 6.14156 46.1366 6.14156 44.5825Z" fill="white"/>
<path fill-rule="evenodd" clip-rule="evenodd" d="M366.589 269.437C366.589 268.726 366.013 268.148 365.303 268.148C364.593 268.148 364.018 268.725 364.018 269.436C364.018 270.149 364.593 270.725 365.303 270.725C366.013 270.725 366.588 270.148 366.589 269.436V269.437Z" fill="white"/>
<path fill-rule="evenodd" clip-rule="evenodd" d="M257.221 0.342823C256.57 -0.189353 255.609 -0.0918064 255.076 0.561376C254.545 1.21583 254.642 2.17754 255.294 2.71162C255.946 3.24506 256.907 3.14751 257.439 2.49306C257.972 1.83988 257.874 0.876899 257.221 0.342823Z" fill="white"/>
<path fill-rule="evenodd" clip-rule="evenodd" d="M107.981 338.761C108.092 337.763 107.374 336.862 106.378 336.751C105.382 336.639 104.485 337.358 104.372 338.357C104.261 339.355 104.979 340.255 105.975 340.367C106.972 340.479 107.87 339.76 107.981 338.762V338.761Z" fill="white"/>
<path fill-rule="evenodd" clip-rule="evenodd" d="M44.7497 262.684C44.7996 261.68 44.029 260.826 43.0277 260.776C42.0265 260.724 41.1743 261.497 41.1238 262.501C41.0732 263.505 41.8444 264.359 42.8451 264.409C43.8464 264.459 44.6991 263.686 44.749 262.684H44.7497Z" fill="white"/>
<path fill-rule="evenodd" clip-rule="evenodd" d="M29.746 140.944C29.7447 140.144 29.0968 139.498 28.2991 139.499C27.5013 139.501 26.8565 140.15 26.8578 140.95C26.8591 141.749 27.507 142.395 28.3047 142.394C29.1025 142.393 29.7473 141.743 29.746 140.945V140.944Z" fill="white"/>
<path fill-rule="evenodd" clip-rule="evenodd" d="M5.84508 165.605C5.67757 163.991 4.23631 162.821 2.6269 162.989C1.01749 163.156 -0.151324 164.601 0.0168234 166.213C0.184971 167.827 1.6256 168.998 3.23501 168.829C4.84442 168.662 6.01323 167.217 5.84508 165.605Z" fill="white"/>
</svg>
