<svg width="10" height="14" viewBox="0 0 10 14" fill="none" xmlns="http://www.w3.org/2000/svg">
<g clip-path="url(#clip0_9907_1130)">
<path d="M7.08329 10C7.33329 9.16927 7.85152 8.46094 8.36454 7.75521C8.49996 7.57031 8.63538 7.38542 8.76558 7.19792C9.28121 6.45573 9.58329 5.55729 9.58329 4.58594C9.58329 2.05208 7.53121 0 4.99996 0C2.46871 0 0.416626 2.05208 0.416626 4.58333C0.416626 5.55469 0.718709 6.45573 1.23433 7.19531C1.36454 7.38281 1.49996 7.56771 1.63538 7.7526C2.151 8.45833 2.66923 9.16927 2.91663 9.9974H7.08329V10ZM4.99996 13.3333C6.151 13.3333 7.08329 12.401 7.08329 11.25V10.8333H2.91663V11.25C2.91663 12.401 3.84892 13.3333 4.99996 13.3333ZM2.91663 4.58333C2.91663 4.8125 2.72913 5 2.49996 5C2.27079 5 2.08329 4.8125 2.08329 4.58333C2.08329 2.97135 3.38798 1.66667 4.99996 1.66667C5.22913 1.66667 5.41663 1.85417 5.41663 2.08333C5.41663 2.3125 5.22913 2.5 4.99996 2.5C3.84892 2.5 2.91663 3.43229 2.91663 4.58333Z" fill="white"/>
</g>
<defs>
<clipPath id="clip0_9907_1130">
<rect width="10" height="13.3333" fill="white"/>
</clipPath>
</defs>
</svg>
